G75*
%MOIN*%
%OFA0B0*%
%FSLAX25Y25*%
%IPPOS*%
%LPD*%
%AMOC8*
5,1,8,0,0,1.08239X$1,22.5*
%
%ADD10R,0.04831X0.04437*%
%ADD11C,0.06900*%
%ADD12R,0.04437X0.04831*%
%ADD13R,0.01870X0.06000*%
%ADD14R,0.06300X0.02500*%
%ADD15R,0.02500X0.06300*%
%ADD16C,0.02272*%
%ADD17R,0.06040X0.13760*%
%ADD18R,0.05224X0.02665*%
%ADD19R,0.02665X0.05224*%
%ADD20C,0.07900*%
%ADD21R,0.16169X0.10933*%
%ADD22R,0.02469X0.04043*%
%ADD23R,0.04043X0.01681*%
%ADD24R,0.04043X0.02469*%
%ADD25C,0.06406*%
%ADD26OC8,0.03700*%
%ADD27OC8,0.04262*%
D10*
X0092654Y0115803D03*
X0099346Y0115803D03*
X0104654Y0129803D03*
X0111346Y0129803D03*
X0132654Y0125803D03*
X0139346Y0125803D03*
G36*
X0127995Y0095945D02*
X0131410Y0092530D01*
X0128273Y0089393D01*
X0124858Y0092808D01*
X0127995Y0095945D01*
G37*
G36*
X0132727Y0091213D02*
X0136142Y0087798D01*
X0133005Y0084661D01*
X0129590Y0088076D01*
X0132727Y0091213D01*
G37*
G36*
X0124005Y0075661D02*
X0120590Y0079076D01*
X0123727Y0082213D01*
X0127142Y0078798D01*
X0124005Y0075661D01*
G37*
G36*
X0119273Y0080393D02*
X0115858Y0083808D01*
X0118995Y0086945D01*
X0122410Y0083530D01*
X0119273Y0080393D01*
G37*
G36*
X0065227Y0135713D02*
X0068642Y0132298D01*
X0065505Y0129161D01*
X0062090Y0132576D01*
X0065227Y0135713D01*
G37*
G36*
X0060495Y0140445D02*
X0063910Y0137030D01*
X0060773Y0133893D01*
X0057358Y0137308D01*
X0060495Y0140445D01*
G37*
D11*
X0125040Y0161985D03*
X0132818Y0155621D03*
X0139182Y0161985D03*
X0146960Y0155621D03*
X0139182Y0147843D03*
X0132818Y0169763D03*
D12*
X0084500Y0119650D03*
X0084500Y0112957D03*
X0075000Y0112957D03*
X0075000Y0119650D03*
X0121000Y0116150D03*
X0121000Y0109457D03*
X0081000Y0179957D03*
X0081000Y0186650D03*
D13*
X0082043Y0098197D03*
X0079484Y0098197D03*
X0076925Y0098197D03*
X0074366Y0098197D03*
X0084602Y0098197D03*
X0087161Y0098197D03*
X0089720Y0098197D03*
X0092280Y0098197D03*
X0094839Y0098197D03*
X0097398Y0098197D03*
X0099957Y0098197D03*
X0102516Y0098197D03*
X0105075Y0098197D03*
X0107634Y0098197D03*
X0107634Y0069409D03*
X0105075Y0069409D03*
X0102516Y0069409D03*
X0099957Y0069409D03*
X0097398Y0069409D03*
X0094839Y0069409D03*
X0092280Y0069409D03*
X0089720Y0069409D03*
X0087161Y0069409D03*
X0084602Y0069409D03*
X0082043Y0069409D03*
X0079484Y0069409D03*
X0076925Y0069409D03*
X0074366Y0069409D03*
D14*
X0072800Y0142803D03*
X0072800Y0145903D03*
X0072800Y0149103D03*
X0072800Y0152203D03*
X0072800Y0155403D03*
X0072800Y0158503D03*
X0072800Y0161703D03*
X0072800Y0164803D03*
X0105200Y0164803D03*
X0105200Y0161703D03*
X0105200Y0158503D03*
X0105200Y0155403D03*
X0105200Y0152203D03*
X0105200Y0149103D03*
X0105200Y0145903D03*
X0105200Y0142803D03*
D15*
X0100000Y0137603D03*
X0096900Y0137603D03*
X0093700Y0137603D03*
X0090600Y0137603D03*
X0087400Y0137603D03*
X0084300Y0137603D03*
X0081100Y0137603D03*
X0078000Y0137603D03*
X0078000Y0170003D03*
X0081100Y0170003D03*
X0084300Y0170003D03*
X0087400Y0170003D03*
X0090600Y0170003D03*
X0093700Y0170003D03*
X0096900Y0170003D03*
X0100000Y0170003D03*
D16*
X0061864Y0168028D02*
X0056136Y0168028D01*
X0056136Y0163303D02*
X0061864Y0163303D01*
X0061864Y0158579D02*
X0056136Y0158579D01*
D17*
X0058990Y0163293D03*
D18*
X0130881Y0116543D03*
X0130881Y0109063D03*
X0141119Y0109063D03*
X0141119Y0112803D03*
X0141119Y0116543D03*
D19*
X0124740Y0132685D03*
X0117260Y0132685D03*
X0117260Y0142922D03*
X0121000Y0142922D03*
X0124740Y0142922D03*
D20*
X0039000Y0113303D03*
X0039000Y0103303D03*
D21*
G36*
X0047419Y0033197D02*
X0055503Y0047197D01*
X0064969Y0041731D01*
X0056885Y0027731D01*
X0047419Y0033197D01*
G37*
G36*
X0057647Y0027291D02*
X0065731Y0041291D01*
X0075197Y0035825D01*
X0067113Y0021825D01*
X0057647Y0027291D01*
G37*
D22*
G36*
X0059196Y0053793D02*
X0061333Y0052559D01*
X0059312Y0049059D01*
X0057175Y0050293D01*
X0059196Y0053793D01*
G37*
D23*
G36*
X0059563Y0048915D02*
X0061583Y0052415D01*
X0063037Y0051575D01*
X0061017Y0048075D01*
X0059563Y0048915D01*
G37*
G36*
X0071496Y0042025D02*
X0073516Y0045525D01*
X0074970Y0044685D01*
X0072950Y0041185D01*
X0071496Y0042025D01*
G37*
G36*
X0073201Y0041041D02*
X0075221Y0044541D01*
X0076675Y0043701D01*
X0074655Y0040201D01*
X0073201Y0041041D01*
G37*
D24*
G36*
X0074905Y0040057D02*
X0076926Y0043557D01*
X0079063Y0042323D01*
X0077042Y0038823D01*
X0074905Y0040057D01*
G37*
D25*
X0036476Y0046620D03*
X0084210Y0019061D03*
D26*
X0086000Y0025803D03*
X0100500Y0015303D03*
X0126500Y0017303D03*
X0136000Y0018803D03*
X0158500Y0046803D03*
X0176000Y0047303D03*
X0168000Y0083803D03*
X0175000Y0096803D03*
X0195500Y0090803D03*
X0197500Y0125303D03*
X0185000Y0125803D03*
X0170500Y0126303D03*
X0149000Y0111303D03*
X0147500Y0116303D03*
X0137000Y0120803D03*
X0121000Y0120803D03*
X0113000Y0110803D03*
X0109000Y0118303D03*
X0096000Y0122303D03*
X0086500Y0128303D03*
X0069000Y0128803D03*
X0066000Y0142803D03*
X0051000Y0163303D03*
X0049500Y0169303D03*
X0031500Y0169803D03*
X0015000Y0140303D03*
X0018500Y0136303D03*
X0026000Y0133303D03*
X0011500Y0091303D03*
X0023500Y0090303D03*
X0015000Y0075803D03*
X0053500Y0063803D03*
X0063000Y0073303D03*
X0074500Y0103803D03*
X0080500Y0108803D03*
X0084500Y0104303D03*
X0087500Y0108303D03*
X0094000Y0104303D03*
X0114000Y0099803D03*
X0133500Y0098303D03*
X0099500Y0064303D03*
X0093500Y0053303D03*
X0091500Y0048803D03*
X0087500Y0046303D03*
X0109500Y0135803D03*
X0117500Y0149803D03*
X0130500Y0143303D03*
X0159500Y0153803D03*
X0163000Y0162303D03*
X0165500Y0180303D03*
X0129500Y0186303D03*
X0121000Y0200803D03*
X0097000Y0177303D03*
X0088000Y0187803D03*
X0085500Y0191803D03*
X0073000Y0197803D03*
X0193500Y0140303D03*
D27*
X0079500Y0078803D03*
X0034500Y0088303D03*
X0078000Y0029803D03*
M02*
