G75*
%MOIN*%
%OFA0B0*%
%FSLAX25Y25*%
%IPPOS*%
%LPD*%
%AMOC8*
5,1,8,0,0,1.08239X$1,22.5*
%
%ADD10R,0.04331X0.03937*%
%ADD11R,0.03937X0.04331*%
%ADD12R,0.01370X0.05500*%
%ADD13R,0.05800X0.02000*%
%ADD14R,0.02000X0.05800*%
%ADD15C,0.01772*%
%ADD16R,0.04724X0.02165*%
%ADD17R,0.02165X0.04724*%
%ADD18R,0.15669X0.10433*%
%ADD19R,0.01969X0.03543*%
%ADD20R,0.03543X0.01181*%
%ADD21R,0.03543X0.01969*%
D10*
X0092654Y0115803D03*
X0099346Y0115803D03*
X0104654Y0129803D03*
X0111346Y0129803D03*
X0132654Y0125803D03*
X0139346Y0125803D03*
G36*
X0127995Y0095591D02*
X0131056Y0092530D01*
X0128273Y0089747D01*
X0125212Y0092808D01*
X0127995Y0095591D01*
G37*
G36*
X0132727Y0090859D02*
X0135788Y0087798D01*
X0133005Y0085015D01*
X0129944Y0088076D01*
X0132727Y0090859D01*
G37*
G36*
X0124005Y0076015D02*
X0120944Y0079076D01*
X0123727Y0081859D01*
X0126788Y0078798D01*
X0124005Y0076015D01*
G37*
G36*
X0119273Y0080747D02*
X0116212Y0083808D01*
X0118995Y0086591D01*
X0122056Y0083530D01*
X0119273Y0080747D01*
G37*
G36*
X0065227Y0135359D02*
X0068288Y0132298D01*
X0065505Y0129515D01*
X0062444Y0132576D01*
X0065227Y0135359D01*
G37*
G36*
X0060495Y0140091D02*
X0063556Y0137030D01*
X0060773Y0134247D01*
X0057712Y0137308D01*
X0060495Y0140091D01*
G37*
D11*
X0075000Y0119650D03*
X0075000Y0112957D03*
X0084500Y0112957D03*
X0084500Y0119650D03*
X0121000Y0116150D03*
X0121000Y0109457D03*
X0081000Y0179957D03*
X0081000Y0186650D03*
D12*
X0082043Y0098197D03*
X0079484Y0098197D03*
X0076925Y0098197D03*
X0074366Y0098197D03*
X0084602Y0098197D03*
X0087161Y0098197D03*
X0089720Y0098197D03*
X0092280Y0098197D03*
X0094839Y0098197D03*
X0097398Y0098197D03*
X0099957Y0098197D03*
X0102516Y0098197D03*
X0105075Y0098197D03*
X0107634Y0098197D03*
X0107634Y0069409D03*
X0105075Y0069409D03*
X0102516Y0069409D03*
X0099957Y0069409D03*
X0097398Y0069409D03*
X0094839Y0069409D03*
X0092280Y0069409D03*
X0089720Y0069409D03*
X0087161Y0069409D03*
X0084602Y0069409D03*
X0082043Y0069409D03*
X0079484Y0069409D03*
X0076925Y0069409D03*
X0074366Y0069409D03*
D13*
X0072800Y0142803D03*
X0072800Y0145903D03*
X0072800Y0149103D03*
X0072800Y0152203D03*
X0072800Y0155403D03*
X0072800Y0158503D03*
X0072800Y0161703D03*
X0072800Y0164803D03*
X0105200Y0164803D03*
X0105200Y0161703D03*
X0105200Y0158503D03*
X0105200Y0155403D03*
X0105200Y0152203D03*
X0105200Y0149103D03*
X0105200Y0145903D03*
X0105200Y0142803D03*
D14*
X0100000Y0137603D03*
X0096900Y0137603D03*
X0093700Y0137603D03*
X0090600Y0137603D03*
X0087400Y0137603D03*
X0084300Y0137603D03*
X0081100Y0137603D03*
X0078000Y0137603D03*
X0078000Y0170003D03*
X0081100Y0170003D03*
X0084300Y0170003D03*
X0087400Y0170003D03*
X0090600Y0170003D03*
X0093700Y0170003D03*
X0096900Y0170003D03*
X0100000Y0170003D03*
D15*
X0061864Y0168028D02*
X0056136Y0168028D01*
X0056136Y0163303D02*
X0061864Y0163303D01*
X0061864Y0158579D02*
X0056136Y0158579D01*
D16*
X0130881Y0116543D03*
X0130881Y0109063D03*
X0141119Y0109063D03*
X0141119Y0112803D03*
X0141119Y0116543D03*
D17*
X0124740Y0132685D03*
X0117260Y0132685D03*
X0117260Y0142922D03*
X0121000Y0142922D03*
X0124740Y0142922D03*
D18*
G36*
X0047760Y0033288D02*
X0055594Y0046856D01*
X0064628Y0041640D01*
X0056794Y0028072D01*
X0047760Y0033288D01*
G37*
G36*
X0057988Y0027382D02*
X0065822Y0040950D01*
X0074856Y0035734D01*
X0067022Y0022166D01*
X0057988Y0027382D01*
G37*
D19*
G36*
X0059287Y0053451D02*
X0060991Y0052467D01*
X0059221Y0049401D01*
X0057517Y0050385D01*
X0059287Y0053451D01*
G37*
D20*
G36*
X0059904Y0049007D02*
X0061674Y0052073D01*
X0062696Y0051483D01*
X0060926Y0048417D01*
X0059904Y0049007D01*
G37*
G36*
X0071837Y0042117D02*
X0073607Y0045183D01*
X0074629Y0044593D01*
X0072859Y0041527D01*
X0071837Y0042117D01*
G37*
G36*
X0073542Y0041133D02*
X0075312Y0044199D01*
X0076334Y0043609D01*
X0074564Y0040543D01*
X0073542Y0041133D01*
G37*
D21*
G36*
X0075247Y0040149D02*
X0077017Y0043215D01*
X0078721Y0042231D01*
X0076951Y0039165D01*
X0075247Y0040149D01*
G37*
M02*
