G75*
%MOIN*%
%OFA0B0*%
%FSLAX25Y25*%
%IPPOS*%
%LPD*%
%AMOC8*
5,1,8,0,0,1.08239X$1,22.5*
%
%ADD10R,0.04331X0.03937*%
%ADD11C,0.06400*%
%ADD12R,0.03937X0.04331*%
%ADD13R,0.01370X0.05500*%
%ADD14R,0.05800X0.02000*%
%ADD15R,0.02000X0.05800*%
%ADD16C,0.01772*%
%ADD17C,0.01000*%
%ADD18R,0.04724X0.02165*%
%ADD19R,0.02165X0.04724*%
%ADD20C,0.07400*%
%ADD21R,0.15669X0.10433*%
%ADD22R,0.01969X0.03543*%
%ADD23R,0.03543X0.01181*%
%ADD24R,0.03543X0.01969*%
%ADD25C,0.01200*%
%ADD26OC8,0.03200*%
%ADD27OC8,0.03762*%
%ADD28C,0.01600*%
%ADD29C,0.02400*%
D10*
X0092654Y0115803D03*
X0099346Y0115803D03*
X0104654Y0129803D03*
X0111346Y0129803D03*
X0132654Y0125803D03*
X0139346Y0125803D03*
G36*
X0127995Y0095591D02*
X0131056Y0092530D01*
X0128273Y0089747D01*
X0125212Y0092808D01*
X0127995Y0095591D01*
G37*
G36*
X0132727Y0090859D02*
X0135788Y0087798D01*
X0133005Y0085015D01*
X0129944Y0088076D01*
X0132727Y0090859D01*
G37*
G36*
X0124005Y0076015D02*
X0120944Y0079076D01*
X0123727Y0081859D01*
X0126788Y0078798D01*
X0124005Y0076015D01*
G37*
G36*
X0119273Y0080747D02*
X0116212Y0083808D01*
X0118995Y0086591D01*
X0122056Y0083530D01*
X0119273Y0080747D01*
G37*
G36*
X0065227Y0135359D02*
X0068288Y0132298D01*
X0065505Y0129515D01*
X0062444Y0132576D01*
X0065227Y0135359D01*
G37*
G36*
X0060495Y0140091D02*
X0063556Y0137030D01*
X0060773Y0134247D01*
X0057712Y0137308D01*
X0060495Y0140091D01*
G37*
D11*
X0125040Y0161985D03*
X0132818Y0155621D03*
X0139182Y0161985D03*
X0146960Y0155621D03*
X0139182Y0147843D03*
X0132818Y0169763D03*
D12*
X0084500Y0119650D03*
X0084500Y0112957D03*
X0075000Y0112957D03*
X0075000Y0119650D03*
X0121000Y0116150D03*
X0121000Y0109457D03*
X0081000Y0179957D03*
X0081000Y0186650D03*
D13*
X0082043Y0098197D03*
X0079484Y0098197D03*
X0076925Y0098197D03*
X0074366Y0098197D03*
X0084602Y0098197D03*
X0087161Y0098197D03*
X0089720Y0098197D03*
X0092280Y0098197D03*
X0094839Y0098197D03*
X0097398Y0098197D03*
X0099957Y0098197D03*
X0102516Y0098197D03*
X0105075Y0098197D03*
X0107634Y0098197D03*
X0107634Y0069409D03*
X0105075Y0069409D03*
X0102516Y0069409D03*
X0099957Y0069409D03*
X0097398Y0069409D03*
X0094839Y0069409D03*
X0092280Y0069409D03*
X0089720Y0069409D03*
X0087161Y0069409D03*
X0084602Y0069409D03*
X0082043Y0069409D03*
X0079484Y0069409D03*
X0076925Y0069409D03*
X0074366Y0069409D03*
D14*
X0072800Y0142803D03*
X0072800Y0145903D03*
X0072800Y0149103D03*
X0072800Y0152203D03*
X0072800Y0155403D03*
X0072800Y0158503D03*
X0072800Y0161703D03*
X0072800Y0164803D03*
X0105200Y0164803D03*
X0105200Y0161703D03*
X0105200Y0158503D03*
X0105200Y0155403D03*
X0105200Y0152203D03*
X0105200Y0149103D03*
X0105200Y0145903D03*
X0105200Y0142803D03*
D15*
X0100000Y0137603D03*
X0096900Y0137603D03*
X0093700Y0137603D03*
X0090600Y0137603D03*
X0087400Y0137603D03*
X0084300Y0137603D03*
X0081100Y0137603D03*
X0078000Y0137603D03*
X0078000Y0170003D03*
X0081100Y0170003D03*
X0084300Y0170003D03*
X0087400Y0170003D03*
X0090600Y0170003D03*
X0093700Y0170003D03*
X0096900Y0170003D03*
X0100000Y0170003D03*
D16*
X0061864Y0168028D02*
X0056136Y0168028D01*
X0056136Y0163303D02*
X0061864Y0163303D01*
X0061864Y0158579D02*
X0056136Y0158579D01*
D17*
X0028040Y0047678D02*
X0036127Y0038807D01*
X0045243Y0030996D01*
X0055250Y0024366D01*
X0065996Y0019015D01*
X0077318Y0015025D01*
X0089044Y0012457D01*
X0100997Y0011349D01*
X0112996Y0011719D01*
X0124858Y0013560D01*
X0134641Y0016344D01*
X0133300Y0017685D01*
X0133300Y0019922D01*
X0134882Y0021503D01*
X0137032Y0021503D01*
X0165810Y0040232D01*
X0166276Y0081708D01*
X0165300Y0082685D01*
X0165300Y0084922D01*
X0166882Y0086503D01*
X0169118Y0086503D01*
X0170700Y0084922D01*
X0170700Y0082685D01*
X0169676Y0081661D01*
X0169206Y0039799D01*
X0169309Y0039640D01*
X0169198Y0039116D01*
X0169192Y0038580D01*
X0169057Y0038448D01*
X0169017Y0038262D01*
X0168568Y0037970D01*
X0168185Y0037595D01*
X0167996Y0037597D01*
X0138700Y0018532D01*
X0138700Y0017817D01*
X0147459Y0021525D01*
X0157856Y0027527D01*
X0167435Y0034761D01*
X0176053Y0043118D01*
X0177785Y0045270D01*
X0177118Y0044603D01*
X0174882Y0044603D01*
X0173300Y0046185D01*
X0173300Y0048422D01*
X0174300Y0049422D01*
X0174300Y0083599D01*
X0170296Y0087603D01*
X0169300Y0088599D01*
X0169300Y0112507D01*
X0182300Y0125507D01*
X0182300Y0126922D01*
X0183882Y0128503D01*
X0186118Y0128503D01*
X0187700Y0126922D01*
X0187700Y0124685D01*
X0186118Y0123103D01*
X0184704Y0123103D01*
X0172700Y0111099D01*
X0172700Y0098321D01*
X0173882Y0099503D01*
X0176118Y0099503D01*
X0177700Y0097922D01*
X0177700Y0096507D01*
X0181704Y0092503D01*
X0193382Y0092503D01*
X0194382Y0093503D01*
X0196618Y0093503D01*
X0198200Y0091922D01*
X0198200Y0089685D01*
X0196618Y0088103D01*
X0194382Y0088103D01*
X0193382Y0089103D01*
X0180296Y0089103D01*
X0175296Y0094103D01*
X0173882Y0094103D01*
X0172700Y0095285D01*
X0172700Y0090007D01*
X0177700Y0085007D01*
X0177700Y0049422D01*
X0178700Y0048422D01*
X0178700Y0046407D01*
X0183579Y0052470D01*
X0189899Y0062677D01*
X0194916Y0073582D01*
X0198555Y0085022D01*
X0200761Y0096822D01*
X0201500Y0108803D01*
X0200761Y0120785D01*
X0200137Y0124122D01*
X0198618Y0122603D01*
X0196382Y0122603D01*
X0194800Y0124185D01*
X0194800Y0125599D01*
X0190296Y0130103D01*
X0176704Y0130103D01*
X0173200Y0126599D01*
X0173200Y0125185D01*
X0171618Y0123603D01*
X0169382Y0123603D01*
X0167800Y0125185D01*
X0167800Y0127422D01*
X0169382Y0129003D01*
X0170796Y0129003D01*
X0174300Y0132507D01*
X0175296Y0133503D01*
X0191704Y0133503D01*
X0197204Y0128003D01*
X0198618Y0128003D01*
X0199594Y0127027D01*
X0198555Y0132585D01*
X0196200Y0139988D01*
X0196200Y0139185D01*
X0194618Y0137603D01*
X0192382Y0137603D01*
X0190800Y0139185D01*
X0190800Y0140619D01*
X0155094Y0176801D01*
X0131069Y0184054D01*
X0130618Y0183603D01*
X0128382Y0183603D01*
X0126800Y0185185D01*
X0126800Y0187422D01*
X0128382Y0189003D01*
X0129895Y0189003D01*
X0114491Y0193534D01*
X0090700Y0186801D01*
X0090700Y0186685D01*
X0089118Y0185103D01*
X0086882Y0185103D01*
X0085300Y0186685D01*
X0085300Y0188922D01*
X0085482Y0189103D01*
X0085204Y0189103D01*
X0084068Y0187967D01*
X0084068Y0184029D01*
X0083424Y0183384D01*
X0078576Y0183384D01*
X0077931Y0184029D01*
X0077931Y0189271D01*
X0078576Y0189915D01*
X0081208Y0189915D01*
X0082800Y0191507D01*
X0082800Y0192922D01*
X0084382Y0194503D01*
X0086618Y0194503D01*
X0088200Y0192922D01*
X0088200Y0190685D01*
X0088018Y0190503D01*
X0089118Y0190503D01*
X0089599Y0190022D01*
X0113853Y0196887D01*
X0114304Y0197133D01*
X0114509Y0197072D01*
X0114715Y0197131D01*
X0115163Y0196880D01*
X0163919Y0182540D01*
X0164382Y0183003D01*
X0166618Y0183003D01*
X0168200Y0181422D01*
X0168200Y0179185D01*
X0166618Y0177603D01*
X0164382Y0177603D01*
X0162800Y0179185D01*
X0162800Y0179325D01*
X0130920Y0188702D01*
X0132200Y0187422D01*
X0132200Y0187264D01*
X0156257Y0180001D01*
X0156715Y0179998D01*
X0156906Y0179805D01*
X0157165Y0179727D01*
X0157382Y0179323D01*
X0193224Y0143003D01*
X0194618Y0143003D01*
X0195531Y0142090D01*
X0194916Y0144024D01*
X0189899Y0154930D01*
X0183579Y0165136D01*
X0176053Y0174488D01*
X0167435Y0182845D01*
X0157856Y0190079D01*
X0147459Y0196082D01*
X0136405Y0200761D01*
X0124858Y0204046D01*
X0112996Y0205887D01*
X0100997Y0206257D01*
X0089044Y0205149D01*
X0077318Y0202581D01*
X0065996Y0198591D01*
X0055250Y0193241D01*
X0045243Y0186610D01*
X0045243Y0186610D01*
X0036127Y0178800D01*
X0030387Y0172503D01*
X0032618Y0172503D01*
X0034200Y0170922D01*
X0034200Y0168685D01*
X0032618Y0167103D01*
X0032500Y0167103D01*
X0018754Y0118757D01*
X0024631Y0092991D01*
X0026200Y0091422D01*
X0026200Y0089690D01*
X0036012Y0099503D01*
X0034931Y0100584D01*
X0034200Y0102348D01*
X0034200Y0104258D01*
X0034931Y0106022D01*
X0036281Y0107372D01*
X0038045Y0108103D01*
X0039955Y0108103D01*
X0041719Y0107372D01*
X0043069Y0106022D01*
X0043800Y0104258D01*
X0043800Y0102348D01*
X0043069Y0100584D01*
X0041719Y0099234D01*
X0040693Y0098809D01*
X0028772Y0086888D01*
X0031519Y0088649D01*
X0031519Y0089538D01*
X0033265Y0091284D01*
X0035735Y0091284D01*
X0037481Y0089538D01*
X0037481Y0087068D01*
X0035735Y0085322D01*
X0033370Y0085322D01*
X0017700Y0075277D01*
X0017700Y0074685D01*
X0016118Y0073103D01*
X0013882Y0073103D01*
X0013206Y0073779D01*
X0015425Y0068052D01*
X0021104Y0057476D01*
X0028040Y0047678D01*
X0028437Y0047242D02*
X0031524Y0047242D01*
X0031524Y0047605D02*
X0031524Y0045635D01*
X0032278Y0043814D01*
X0033671Y0042421D01*
X0035491Y0041667D01*
X0037462Y0041667D01*
X0039282Y0042421D01*
X0040675Y0043814D01*
X0041429Y0045635D01*
X0041429Y0047605D01*
X0040675Y0049425D01*
X0039282Y0050819D01*
X0037462Y0051573D01*
X0035491Y0051573D01*
X0033671Y0050819D01*
X0032278Y0049425D01*
X0031524Y0047605D01*
X0031787Y0048241D02*
X0027641Y0048241D01*
X0026935Y0049239D02*
X0032201Y0049239D01*
X0033090Y0050238D02*
X0026228Y0050238D01*
X0025521Y0051236D02*
X0034679Y0051236D01*
X0038274Y0051236D02*
X0048235Y0051236D01*
X0048235Y0050736D02*
X0048235Y0052757D01*
X0048740Y0053632D01*
X0049175Y0054386D01*
X0049970Y0055763D01*
X0050315Y0056360D01*
X0050742Y0057100D01*
X0050770Y0057148D01*
X0050927Y0057421D01*
X0050927Y0057421D01*
X0050927Y0057421D01*
X0053166Y0058418D01*
X0053167Y0058418D01*
X0055564Y0057909D01*
X0055564Y0057909D01*
X0057204Y0056087D01*
X0057204Y0056087D01*
X0057460Y0053650D01*
X0057460Y0053650D01*
X0056847Y0052588D01*
X0056392Y0051800D01*
X0056392Y0051800D01*
X0055620Y0050462D01*
X0055273Y0049861D01*
X0055018Y0049419D01*
X0054818Y0049073D01*
X0054818Y0049073D01*
X0054767Y0048986D01*
X0054767Y0048985D01*
X0054767Y0048985D01*
X0053017Y0047975D01*
X0050996Y0047975D01*
X0049245Y0048986D01*
X0049245Y0048986D01*
X0048235Y0050736D01*
X0048522Y0050238D02*
X0039863Y0050238D01*
X0040752Y0049239D02*
X0049099Y0049239D01*
X0049245Y0048986D02*
X0049245Y0048986D01*
X0050535Y0048241D02*
X0041166Y0048241D01*
X0041429Y0047242D02*
X0054545Y0047242D01*
X0054868Y0047802D02*
X0050751Y0040670D01*
X0050751Y0042476D01*
X0049741Y0044226D01*
X0049741Y0044226D01*
X0049741Y0044226D01*
X0047990Y0045237D01*
X0045969Y0045237D01*
X0044218Y0044226D01*
X0043713Y0043351D01*
X0043258Y0042563D01*
X0042593Y0041411D01*
X0042138Y0040623D01*
X0041633Y0039748D01*
X0041633Y0037727D01*
X0042644Y0035976D01*
X0044394Y0034966D01*
X0046415Y0034966D01*
X0047979Y0035869D01*
X0046578Y0033442D01*
X0046814Y0032562D01*
X0056638Y0026890D01*
X0056957Y0026975D01*
X0057043Y0026657D01*
X0066867Y0020985D01*
X0067747Y0021220D01*
X0069148Y0023647D01*
X0069148Y0021841D01*
X0070159Y0020091D01*
X0071909Y0019080D01*
X0073930Y0019080D01*
X0075681Y0020091D01*
X0076186Y0020966D01*
X0076345Y0021241D01*
X0077306Y0022905D01*
X0077761Y0023694D01*
X0078266Y0024569D01*
X0078266Y0026590D01*
X0078132Y0026822D01*
X0079235Y0026822D01*
X0080516Y0028103D01*
X0084482Y0028103D01*
X0083300Y0026922D01*
X0083300Y0024685D01*
X0083971Y0024014D01*
X0083225Y0024014D01*
X0081405Y0023260D01*
X0080011Y0021866D01*
X0079257Y0020046D01*
X0079257Y0018076D01*
X0080011Y0016255D01*
X0081405Y0014862D01*
X0083225Y0014108D01*
X0085195Y0014108D01*
X0087016Y0014862D01*
X0088409Y0016255D01*
X0089163Y0018076D01*
X0089163Y0020046D01*
X0088409Y0021866D01*
X0087145Y0023130D01*
X0088700Y0024685D01*
X0088700Y0026099D01*
X0092204Y0029603D01*
X0092204Y0029603D01*
X0093200Y0030599D01*
X0093200Y0046685D01*
X0094200Y0047685D01*
X0094200Y0049922D01*
X0092618Y0051503D01*
X0090382Y0051503D01*
X0088800Y0049922D01*
X0088800Y0048821D01*
X0088618Y0049003D01*
X0086382Y0049003D01*
X0084800Y0047422D01*
X0084800Y0045185D01*
X0085800Y0044185D01*
X0085800Y0039728D01*
X0084443Y0041235D01*
X0084443Y0041235D01*
X0082045Y0041745D01*
X0079806Y0040748D01*
X0079194Y0039687D01*
X0078841Y0039077D01*
X0078074Y0037747D01*
X0077619Y0036959D01*
X0077113Y0036084D01*
X0077113Y0034063D01*
X0077852Y0032784D01*
X0076765Y0032784D01*
X0075019Y0031038D01*
X0075019Y0029351D01*
X0073484Y0029351D01*
X0071920Y0028448D01*
X0076038Y0035580D01*
X0075802Y0036460D01*
X0065977Y0042132D01*
X0065659Y0042047D01*
X0065573Y0042365D01*
X0055749Y0048037D01*
X0054868Y0047802D01*
X0054914Y0049239D02*
X0057299Y0049239D01*
X0056571Y0049659D02*
X0058958Y0048281D01*
X0060770Y0047235D01*
X0061650Y0047471D01*
X0063877Y0051329D01*
X0063859Y0051399D01*
X0071163Y0058703D01*
X0098696Y0058703D01*
X0098796Y0058603D01*
X0102704Y0058603D01*
X0103700Y0059599D01*
X0105934Y0061833D01*
X0105934Y0061641D01*
X0102796Y0058503D01*
X0086704Y0058503D01*
X0085296Y0058503D01*
X0073525Y0046732D01*
X0073520Y0046731D01*
X0073513Y0046720D01*
X0072937Y0046144D01*
X0072883Y0046129D01*
X0072829Y0046036D01*
X0072800Y0046007D01*
X0072800Y0045986D01*
X0070656Y0042272D01*
X0070891Y0041391D01*
X0072596Y0040407D01*
X0073811Y0039706D01*
X0073848Y0039569D01*
X0074045Y0039227D01*
X0074324Y0038947D01*
X0075348Y0038357D01*
X0076984Y0041190D01*
X0076984Y0041190D01*
X0078620Y0044023D01*
X0079643Y0043432D01*
X0079922Y0043153D01*
X0080120Y0042811D01*
X0080222Y0042430D01*
X0080222Y0042035D01*
X0080120Y0041653D01*
X0079135Y0039948D01*
X0076984Y0041190D01*
X0076984Y0041190D01*
X0078000Y0042213D01*
X0078000Y0042803D01*
X0078172Y0043248D02*
X0078172Y0043248D01*
X0078619Y0044023D02*
X0077596Y0044614D01*
X0077215Y0044716D01*
X0076820Y0044716D01*
X0076683Y0044680D01*
X0076428Y0044827D01*
X0086704Y0055103D01*
X0104204Y0055103D01*
X0109334Y0060233D01*
X0109334Y0066119D01*
X0109419Y0066204D01*
X0109419Y0072615D01*
X0108775Y0073259D01*
X0106493Y0073259D01*
X0106354Y0073121D01*
X0106215Y0073259D01*
X0103934Y0073259D01*
X0103795Y0073121D01*
X0103656Y0073259D01*
X0101663Y0073259D01*
X0101563Y0073360D01*
X0101221Y0073557D01*
X0100839Y0073659D01*
X0099957Y0073659D01*
X0099957Y0069410D01*
X0099957Y0069410D01*
X0099957Y0073659D01*
X0099074Y0073659D01*
X0098693Y0073557D01*
X0098351Y0073360D01*
X0098250Y0073259D01*
X0097643Y0073259D01*
X0100287Y0075903D01*
X0122560Y0075903D01*
X0123550Y0074914D01*
X0124461Y0074914D01*
X0127889Y0078342D01*
X0127889Y0079253D01*
X0127380Y0079763D01*
X0132040Y0084424D01*
X0132550Y0083914D01*
X0133461Y0083914D01*
X0136889Y0087342D01*
X0136889Y0088253D01*
X0135400Y0089743D01*
X0135400Y0096385D01*
X0136200Y0097185D01*
X0136200Y0099422D01*
X0135400Y0100222D01*
X0135400Y0108590D01*
X0134344Y0109646D01*
X0134344Y0110601D01*
X0133699Y0111246D01*
X0128064Y0111246D01*
X0127581Y0110763D01*
X0124068Y0110763D01*
X0124068Y0112078D01*
X0123555Y0112591D01*
X0123890Y0112784D01*
X0124169Y0113063D01*
X0124366Y0113405D01*
X0124468Y0113787D01*
X0124468Y0115665D01*
X0121484Y0115665D01*
X0121484Y0116634D01*
X0120516Y0116634D01*
X0120516Y0119815D01*
X0118834Y0119815D01*
X0118453Y0119713D01*
X0118110Y0119515D01*
X0117831Y0119236D01*
X0117634Y0118894D01*
X0117531Y0118512D01*
X0117531Y0116634D01*
X0120516Y0116634D01*
X0120516Y0115665D01*
X0117531Y0115665D01*
X0117531Y0113787D01*
X0117634Y0113405D01*
X0117831Y0113063D01*
X0118110Y0112784D01*
X0118445Y0112591D01*
X0117931Y0112078D01*
X0117931Y0106836D01*
X0118576Y0106191D01*
X0123424Y0106191D01*
X0124068Y0106836D01*
X0124068Y0107363D01*
X0127581Y0107363D01*
X0128064Y0106880D01*
X0131600Y0106880D01*
X0131600Y0100222D01*
X0130800Y0099422D01*
X0130800Y0097185D01*
X0131600Y0096385D01*
X0131600Y0094108D01*
X0130929Y0094780D01*
X0128819Y0092669D01*
X0128134Y0093354D01*
X0130244Y0095464D01*
X0128916Y0096793D01*
X0128573Y0096990D01*
X0128192Y0097093D01*
X0127797Y0097093D01*
X0127416Y0096990D01*
X0127073Y0096793D01*
X0125884Y0095604D01*
X0128134Y0093354D01*
X0127449Y0092669D01*
X0128134Y0091985D01*
X0126024Y0089874D01*
X0127352Y0088546D01*
X0127694Y0088349D01*
X0128075Y0088246D01*
X0128470Y0088246D01*
X0128843Y0088346D01*
X0128843Y0087620D01*
X0129353Y0087111D01*
X0124693Y0082450D01*
X0124183Y0082960D01*
X0123457Y0082960D01*
X0123557Y0083333D01*
X0123557Y0083728D01*
X0123455Y0084109D01*
X0123257Y0084451D01*
X0121929Y0085780D01*
X0119819Y0083669D01*
X0119134Y0084354D01*
X0121244Y0086464D01*
X0119916Y0087793D01*
X0119573Y0087990D01*
X0119192Y0088093D01*
X0118797Y0088093D01*
X0118416Y0087990D01*
X0118073Y0087793D01*
X0116884Y0086604D01*
X0119134Y0084354D01*
X0118449Y0083669D01*
X0119134Y0082985D01*
X0117024Y0080874D01*
X0118195Y0079703D01*
X0098713Y0079703D01*
X0097600Y0078590D01*
X0092939Y0073929D01*
X0092939Y0073659D01*
X0092280Y0073659D01*
X0092280Y0069410D01*
X0092279Y0069410D01*
X0092279Y0073659D01*
X0091397Y0073659D01*
X0091016Y0073557D01*
X0090673Y0073360D01*
X0090573Y0073259D01*
X0088580Y0073259D01*
X0088441Y0073121D01*
X0088302Y0073259D01*
X0086021Y0073259D01*
X0085882Y0073121D01*
X0085743Y0073259D01*
X0083750Y0073259D01*
X0083649Y0073360D01*
X0083307Y0073557D01*
X0082926Y0073659D01*
X0082043Y0073659D01*
X0081161Y0073659D01*
X0080779Y0073557D01*
X0080764Y0073548D01*
X0080748Y0073557D01*
X0080367Y0073659D01*
X0079484Y0073659D01*
X0078602Y0073659D01*
X0078220Y0073557D01*
X0077878Y0073360D01*
X0077778Y0073259D01*
X0075785Y0073259D01*
X0075646Y0073121D01*
X0075507Y0073259D01*
X0073225Y0073259D01*
X0072581Y0072615D01*
X0072581Y0066204D01*
X0073225Y0065559D01*
X0075507Y0065559D01*
X0075646Y0065698D01*
X0075785Y0065559D01*
X0077778Y0065559D01*
X0077878Y0065459D01*
X0078220Y0065262D01*
X0078602Y0065159D01*
X0079484Y0065159D01*
X0079484Y0069409D01*
X0079484Y0069409D01*
X0079484Y0065159D01*
X0080367Y0065159D01*
X0080748Y0065262D01*
X0080764Y0065271D01*
X0080779Y0065262D01*
X0081161Y0065159D01*
X0082043Y0065159D01*
X0082043Y0069409D01*
X0082043Y0069409D01*
X0079858Y0069409D01*
X0079484Y0069409D01*
X0079484Y0069409D01*
X0079484Y0069410D02*
X0079484Y0073659D01*
X0079484Y0069410D01*
X0079484Y0069410D01*
X0079484Y0069409D02*
X0082043Y0069409D01*
X0082043Y0069409D01*
X0082043Y0065159D01*
X0082926Y0065159D01*
X0083307Y0065262D01*
X0083649Y0065459D01*
X0083750Y0065559D01*
X0085743Y0065559D01*
X0085882Y0065698D01*
X0086021Y0065559D01*
X0088302Y0065559D01*
X0088441Y0065698D01*
X0088580Y0065559D01*
X0090573Y0065559D01*
X0090673Y0065459D01*
X0091016Y0065262D01*
X0091397Y0065159D01*
X0092279Y0065159D01*
X0092279Y0069409D01*
X0092280Y0069409D01*
X0092280Y0065159D01*
X0092452Y0065159D01*
X0092196Y0064903D01*
X0069837Y0064903D01*
X0059710Y0054776D01*
X0059533Y0054740D01*
X0059457Y0054625D01*
X0059443Y0054633D01*
X0058563Y0054397D01*
X0056335Y0050539D01*
X0056571Y0049659D01*
X0056416Y0050238D02*
X0055490Y0050238D01*
X0056067Y0051236D02*
X0056738Y0051236D01*
X0056643Y0052235D02*
X0057314Y0052235D01*
X0057220Y0053233D02*
X0057891Y0053233D01*
X0057399Y0054232D02*
X0058467Y0054232D01*
X0057294Y0055230D02*
X0060164Y0055230D01*
X0061163Y0056229D02*
X0057077Y0056229D01*
X0056177Y0057227D02*
X0062161Y0057227D01*
X0063160Y0058226D02*
X0054072Y0058226D01*
X0052734Y0058226D02*
X0020701Y0058226D01*
X0020165Y0059224D02*
X0064158Y0059224D01*
X0065157Y0060223D02*
X0019629Y0060223D01*
X0019093Y0061221D02*
X0052263Y0061221D01*
X0052382Y0061103D02*
X0054618Y0061103D01*
X0056200Y0062685D01*
X0056200Y0064099D01*
X0062704Y0070603D01*
X0064118Y0070603D01*
X0065700Y0072185D01*
X0065700Y0074422D01*
X0064118Y0076003D01*
X0061882Y0076003D01*
X0060300Y0074422D01*
X0060300Y0073007D01*
X0053796Y0066503D01*
X0052382Y0066503D01*
X0050800Y0064922D01*
X0050800Y0062685D01*
X0052382Y0061103D01*
X0051265Y0062220D02*
X0018556Y0062220D01*
X0018020Y0063218D02*
X0050800Y0063218D01*
X0050800Y0064217D02*
X0017484Y0064217D01*
X0016948Y0065215D02*
X0051094Y0065215D01*
X0052092Y0066214D02*
X0016412Y0066214D01*
X0015876Y0067212D02*
X0054505Y0067212D01*
X0055504Y0068211D02*
X0015363Y0068211D01*
X0014976Y0069209D02*
X0056502Y0069209D01*
X0057501Y0070208D02*
X0014589Y0070208D01*
X0014203Y0071206D02*
X0058499Y0071206D01*
X0059498Y0072205D02*
X0013816Y0072205D01*
X0013781Y0073203D02*
X0013429Y0073203D01*
X0016219Y0073203D02*
X0060300Y0073203D01*
X0060300Y0074202D02*
X0017217Y0074202D01*
X0017700Y0075200D02*
X0061079Y0075200D01*
X0064921Y0075200D02*
X0094210Y0075200D01*
X0093212Y0074202D02*
X0065700Y0074202D01*
X0065700Y0073203D02*
X0073169Y0073203D01*
X0072581Y0072205D02*
X0065700Y0072205D01*
X0064722Y0071206D02*
X0072581Y0071206D01*
X0072581Y0070208D02*
X0062309Y0070208D01*
X0061310Y0069209D02*
X0072581Y0069209D01*
X0072581Y0068211D02*
X0060312Y0068211D01*
X0059313Y0067212D02*
X0072581Y0067212D01*
X0072581Y0066214D02*
X0058315Y0066214D01*
X0057316Y0065215D02*
X0078393Y0065215D01*
X0079484Y0065215D02*
X0079484Y0065215D01*
X0079484Y0066214D02*
X0079484Y0066214D01*
X0079484Y0067212D02*
X0079484Y0067212D01*
X0079484Y0068211D02*
X0079484Y0068211D01*
X0079484Y0069209D02*
X0079484Y0069209D01*
X0079484Y0070208D02*
X0079484Y0070208D01*
X0079484Y0071206D02*
X0079484Y0071206D01*
X0079484Y0072205D02*
X0079484Y0072205D01*
X0079484Y0073203D02*
X0079484Y0073203D01*
X0082043Y0073203D02*
X0082043Y0073203D01*
X0082043Y0073659D02*
X0082043Y0069410D01*
X0082043Y0073659D01*
X0082043Y0072205D02*
X0082043Y0072205D01*
X0082043Y0071206D02*
X0082043Y0071206D01*
X0082043Y0070208D02*
X0082043Y0070208D01*
X0082043Y0069410D02*
X0082043Y0069410D01*
X0082043Y0069209D02*
X0082043Y0069209D01*
X0082043Y0068211D02*
X0082043Y0068211D01*
X0082043Y0067212D02*
X0082043Y0067212D01*
X0082043Y0066214D02*
X0082043Y0066214D01*
X0082043Y0065215D02*
X0082043Y0065215D01*
X0080952Y0065215D02*
X0080575Y0065215D01*
X0083134Y0065215D02*
X0091188Y0065215D01*
X0092279Y0065215D02*
X0092280Y0065215D01*
X0092279Y0066214D02*
X0092280Y0066214D01*
X0092279Y0067212D02*
X0092280Y0067212D01*
X0092279Y0068211D02*
X0092280Y0068211D01*
X0092279Y0069209D02*
X0092280Y0069209D01*
X0092279Y0070208D02*
X0092280Y0070208D01*
X0092279Y0071206D02*
X0092280Y0071206D01*
X0092279Y0072205D02*
X0092280Y0072205D01*
X0092279Y0073203D02*
X0092280Y0073203D01*
X0095209Y0076199D02*
X0019138Y0076199D01*
X0020696Y0077197D02*
X0096207Y0077197D01*
X0097206Y0078196D02*
X0022253Y0078196D01*
X0023811Y0079194D02*
X0098204Y0079194D01*
X0099584Y0075200D02*
X0123263Y0075200D01*
X0124748Y0075200D02*
X0166203Y0075200D01*
X0166192Y0074202D02*
X0098586Y0074202D01*
X0099957Y0073203D02*
X0099957Y0073203D01*
X0099957Y0072205D02*
X0099957Y0072205D01*
X0099957Y0071206D02*
X0099957Y0071206D01*
X0099957Y0070208D02*
X0099957Y0070208D01*
X0099957Y0069409D02*
X0099957Y0065159D01*
X0100839Y0065159D01*
X0101221Y0065262D01*
X0101563Y0065459D01*
X0101663Y0065559D01*
X0103375Y0065559D01*
X0103375Y0064082D01*
X0101296Y0062003D01*
X0098796Y0062003D01*
X0098696Y0061903D01*
X0094004Y0061903D01*
X0096539Y0064438D01*
X0096539Y0065559D01*
X0098250Y0065559D01*
X0098351Y0065459D01*
X0098693Y0065262D01*
X0099074Y0065159D01*
X0099957Y0065159D01*
X0099957Y0069409D01*
X0099957Y0069409D01*
X0099957Y0069209D02*
X0099957Y0069209D01*
X0099957Y0068211D02*
X0099957Y0068211D01*
X0099957Y0067212D02*
X0099957Y0067212D01*
X0099957Y0066214D02*
X0099957Y0066214D01*
X0099957Y0065215D02*
X0099957Y0065215D01*
X0101048Y0065215D02*
X0103375Y0065215D01*
X0103375Y0064217D02*
X0096318Y0064217D01*
X0096539Y0065215D02*
X0098866Y0065215D01*
X0101512Y0062220D02*
X0094321Y0062220D01*
X0095319Y0063218D02*
X0102511Y0063218D01*
X0104324Y0060223D02*
X0104515Y0060223D01*
X0105322Y0061221D02*
X0105514Y0061221D01*
X0103517Y0059224D02*
X0103325Y0059224D01*
X0105330Y0056229D02*
X0165990Y0056229D01*
X0166001Y0057227D02*
X0106328Y0057227D01*
X0107327Y0058226D02*
X0166013Y0058226D01*
X0166024Y0059224D02*
X0108325Y0059224D01*
X0109324Y0060223D02*
X0166035Y0060223D01*
X0166046Y0061221D02*
X0109334Y0061221D01*
X0109334Y0062220D02*
X0166057Y0062220D01*
X0166069Y0063218D02*
X0109334Y0063218D01*
X0109334Y0064217D02*
X0166080Y0064217D01*
X0166091Y0065215D02*
X0109334Y0065215D01*
X0109419Y0066214D02*
X0166102Y0066214D01*
X0166113Y0067212D02*
X0109419Y0067212D01*
X0109419Y0068211D02*
X0166125Y0068211D01*
X0166136Y0069209D02*
X0109419Y0069209D01*
X0109419Y0070208D02*
X0166147Y0070208D01*
X0166158Y0071206D02*
X0109419Y0071206D01*
X0109419Y0072205D02*
X0166170Y0072205D01*
X0166181Y0073203D02*
X0108831Y0073203D01*
X0106437Y0073203D02*
X0106272Y0073203D01*
X0103878Y0073203D02*
X0103712Y0073203D01*
X0093000Y0063303D02*
X0070500Y0063303D01*
X0060500Y0053303D01*
X0059254Y0051426D01*
X0061300Y0050245D02*
X0062500Y0052303D01*
X0070500Y0060303D01*
X0099500Y0060303D01*
X0104331Y0055230D02*
X0165979Y0055230D01*
X0165968Y0054232D02*
X0085833Y0054232D01*
X0084834Y0053233D02*
X0165956Y0053233D01*
X0165945Y0052235D02*
X0083836Y0052235D01*
X0082837Y0051236D02*
X0090115Y0051236D01*
X0089116Y0050238D02*
X0081839Y0050238D01*
X0080840Y0049239D02*
X0088800Y0049239D01*
X0085619Y0048241D02*
X0079842Y0048241D01*
X0078843Y0047242D02*
X0084800Y0047242D01*
X0084800Y0046244D02*
X0077845Y0046244D01*
X0076846Y0045245D02*
X0084800Y0045245D01*
X0085738Y0044247D02*
X0078233Y0044247D01*
X0078619Y0044023D02*
X0076984Y0041190D01*
X0079135Y0039948D01*
X0078151Y0038242D01*
X0077871Y0037963D01*
X0077529Y0037766D01*
X0077148Y0037664D01*
X0076753Y0037664D01*
X0076371Y0037766D01*
X0075348Y0038357D01*
X0076984Y0041190D01*
X0076984Y0041190D01*
X0077019Y0041251D02*
X0077019Y0041251D01*
X0076442Y0040253D02*
X0076443Y0040253D01*
X0075866Y0039254D02*
X0075866Y0039254D01*
X0075523Y0038256D02*
X0072691Y0038256D01*
X0074029Y0039254D02*
X0070962Y0039254D01*
X0069233Y0040253D02*
X0072864Y0040253D01*
X0072596Y0040407D02*
X0072596Y0040407D01*
X0071135Y0041251D02*
X0067503Y0041251D01*
X0065604Y0042250D02*
X0070661Y0042250D01*
X0071219Y0043248D02*
X0064044Y0043248D01*
X0062315Y0044247D02*
X0071796Y0044247D01*
X0072372Y0045245D02*
X0060585Y0045245D01*
X0058856Y0046244D02*
X0073036Y0046244D01*
X0074035Y0047242D02*
X0060796Y0047242D01*
X0060758Y0047242D02*
X0057126Y0047242D01*
X0058958Y0048281D02*
X0058958Y0048281D01*
X0059028Y0048241D02*
X0053477Y0048241D01*
X0053969Y0046244D02*
X0041429Y0046244D01*
X0041268Y0045245D02*
X0053392Y0045245D01*
X0052816Y0044247D02*
X0049705Y0044247D01*
X0050305Y0043248D02*
X0052239Y0043248D01*
X0051663Y0042250D02*
X0050751Y0042250D01*
X0050751Y0041251D02*
X0051086Y0041251D01*
X0047627Y0035260D02*
X0046925Y0035260D01*
X0047051Y0034261D02*
X0041432Y0034261D01*
X0042598Y0033263D02*
X0046626Y0033263D01*
X0047330Y0032264D02*
X0043763Y0032264D01*
X0044929Y0031266D02*
X0049059Y0031266D01*
X0050789Y0030267D02*
X0046343Y0030267D01*
X0047850Y0029269D02*
X0052518Y0029269D01*
X0054248Y0028270D02*
X0049357Y0028270D01*
X0050864Y0027272D02*
X0055977Y0027272D01*
X0057707Y0026273D02*
X0052371Y0026273D01*
X0053878Y0025275D02*
X0059436Y0025275D01*
X0061166Y0024276D02*
X0055429Y0024276D01*
X0057435Y0023278D02*
X0062895Y0023278D01*
X0064624Y0022279D02*
X0059440Y0022279D01*
X0061445Y0021281D02*
X0066354Y0021281D01*
X0067782Y0021281D02*
X0069472Y0021281D01*
X0069148Y0022279D02*
X0068359Y0022279D01*
X0068935Y0023278D02*
X0069148Y0023278D01*
X0070048Y0020282D02*
X0063450Y0020282D01*
X0065456Y0019284D02*
X0071556Y0019284D01*
X0070159Y0020091D02*
X0070159Y0020091D01*
X0070159Y0020091D01*
X0068066Y0018285D02*
X0079257Y0018285D01*
X0079257Y0019284D02*
X0074283Y0019284D01*
X0075681Y0020091D02*
X0075681Y0020091D01*
X0075681Y0020091D01*
X0075791Y0020282D02*
X0079355Y0020282D01*
X0079769Y0021281D02*
X0076368Y0021281D01*
X0076944Y0022279D02*
X0080424Y0022279D01*
X0081449Y0023278D02*
X0077521Y0023278D01*
X0077306Y0022905D02*
X0077306Y0022905D01*
X0078097Y0024276D02*
X0083708Y0024276D01*
X0083300Y0025275D02*
X0078266Y0025275D01*
X0078266Y0026273D02*
X0083300Y0026273D01*
X0083650Y0027272D02*
X0079685Y0027272D01*
X0075019Y0030267D02*
X0072971Y0030267D01*
X0073342Y0029269D02*
X0072394Y0029269D01*
X0073547Y0031266D02*
X0075247Y0031266D01*
X0076245Y0032264D02*
X0074124Y0032264D01*
X0074700Y0033263D02*
X0077575Y0033263D01*
X0077113Y0034261D02*
X0075277Y0034261D01*
X0075853Y0035260D02*
X0077113Y0035260D01*
X0077214Y0036258D02*
X0075856Y0036258D01*
X0074421Y0037257D02*
X0077791Y0037257D01*
X0078074Y0037747D02*
X0078074Y0037747D01*
X0078158Y0038256D02*
X0078367Y0038256D01*
X0078735Y0039254D02*
X0078944Y0039254D01*
X0078607Y0040253D02*
X0078607Y0040253D01*
X0079311Y0040253D02*
X0079520Y0040253D01*
X0079806Y0040748D02*
X0079806Y0040748D01*
X0079888Y0041251D02*
X0080936Y0041251D01*
X0082045Y0041745D02*
X0082045Y0041745D01*
X0080222Y0042250D02*
X0085800Y0042250D01*
X0085800Y0043248D02*
X0079827Y0043248D01*
X0077595Y0042250D02*
X0077596Y0042250D01*
X0074500Y0045303D02*
X0073233Y0043355D01*
X0075033Y0048241D02*
X0062095Y0048241D01*
X0062671Y0049239D02*
X0076032Y0049239D01*
X0077030Y0050238D02*
X0063248Y0050238D01*
X0063824Y0051236D02*
X0078029Y0051236D01*
X0079027Y0052235D02*
X0064694Y0052235D01*
X0065693Y0053233D02*
X0080026Y0053233D01*
X0081024Y0054232D02*
X0066691Y0054232D01*
X0067690Y0055230D02*
X0082023Y0055230D01*
X0083021Y0056229D02*
X0068688Y0056229D01*
X0069687Y0057227D02*
X0084020Y0057227D01*
X0085018Y0058226D02*
X0070685Y0058226D01*
X0067154Y0062220D02*
X0055735Y0062220D01*
X0056200Y0063218D02*
X0068152Y0063218D01*
X0069151Y0064217D02*
X0056318Y0064217D01*
X0054736Y0061221D02*
X0066155Y0061221D01*
X0075563Y0073203D02*
X0075728Y0073203D01*
X0085799Y0073203D02*
X0085965Y0073203D01*
X0088358Y0073203D02*
X0088524Y0073203D01*
X0088838Y0093947D02*
X0089720Y0093947D01*
X0089720Y0098197D01*
X0089720Y0102447D01*
X0088838Y0102447D01*
X0088456Y0102345D01*
X0088114Y0102147D01*
X0088014Y0102047D01*
X0086200Y0102047D01*
X0086200Y0102185D01*
X0087200Y0103185D01*
X0087200Y0105422D01*
X0085618Y0107003D01*
X0083382Y0107003D01*
X0082382Y0106003D01*
X0080704Y0106003D01*
X0080604Y0106103D01*
X0081618Y0106103D01*
X0083200Y0107685D01*
X0083200Y0109156D01*
X0083715Y0109691D01*
X0086924Y0109691D01*
X0087568Y0110336D01*
X0087568Y0115578D01*
X0086924Y0116222D01*
X0082076Y0116222D01*
X0081431Y0115578D01*
X0081431Y0112221D01*
X0080740Y0111503D01*
X0079382Y0111503D01*
X0077800Y0109922D01*
X0077800Y0108907D01*
X0077016Y0109691D01*
X0077424Y0109691D01*
X0078068Y0110336D01*
X0078068Y0115578D01*
X0077424Y0116222D01*
X0072576Y0116222D01*
X0071931Y0115578D01*
X0071931Y0110336D01*
X0072576Y0109691D01*
X0073300Y0109691D01*
X0073300Y0108599D01*
X0075396Y0106503D01*
X0073382Y0106503D01*
X0071800Y0104922D01*
X0071800Y0102685D01*
X0072666Y0101819D01*
X0072666Y0101488D01*
X0072581Y0101402D01*
X0072581Y0094991D01*
X0073225Y0094347D01*
X0075507Y0094347D01*
X0075646Y0094486D01*
X0075785Y0094347D01*
X0078066Y0094347D01*
X0078205Y0094486D01*
X0078344Y0094347D01*
X0080625Y0094347D01*
X0080764Y0094486D01*
X0080903Y0094347D01*
X0083184Y0094347D01*
X0083323Y0094486D01*
X0083462Y0094347D01*
X0085743Y0094347D01*
X0085882Y0094486D01*
X0086021Y0094347D01*
X0088014Y0094347D01*
X0088114Y0094247D01*
X0088456Y0094049D01*
X0088838Y0093947D01*
X0088243Y0094172D02*
X0036056Y0094172D01*
X0035057Y0093174D02*
X0123756Y0093174D01*
X0123711Y0093006D02*
X0123711Y0092611D01*
X0123813Y0092230D01*
X0124010Y0091888D01*
X0125339Y0090559D01*
X0127449Y0092669D01*
X0125199Y0094919D01*
X0124010Y0093730D01*
X0123813Y0093388D01*
X0123711Y0093006D01*
X0123844Y0092175D02*
X0034059Y0092175D01*
X0033158Y0091177D02*
X0033060Y0091177D01*
X0032159Y0090178D02*
X0032062Y0090178D01*
X0031519Y0089180D02*
X0031063Y0089180D01*
X0030789Y0088181D02*
X0030065Y0088181D01*
X0029231Y0087183D02*
X0029066Y0087183D01*
X0026688Y0090178D02*
X0026200Y0090178D01*
X0026200Y0091177D02*
X0027686Y0091177D01*
X0028685Y0092175D02*
X0025446Y0092175D01*
X0024589Y0093174D02*
X0029684Y0093174D01*
X0030682Y0094172D02*
X0024361Y0094172D01*
X0024134Y0095171D02*
X0031681Y0095171D01*
X0032679Y0096169D02*
X0023906Y0096169D01*
X0023678Y0097168D02*
X0033678Y0097168D01*
X0034676Y0098166D02*
X0023450Y0098166D01*
X0023223Y0099165D02*
X0035675Y0099165D01*
X0035352Y0100163D02*
X0022995Y0100163D01*
X0022767Y0101162D02*
X0034692Y0101162D01*
X0034278Y0102160D02*
X0022539Y0102160D01*
X0022312Y0103159D02*
X0034200Y0103159D01*
X0034200Y0104157D02*
X0022084Y0104157D01*
X0021856Y0105156D02*
X0034572Y0105156D01*
X0035063Y0106154D02*
X0021628Y0106154D01*
X0021401Y0107153D02*
X0036061Y0107153D01*
X0037004Y0108484D02*
X0036275Y0108856D01*
X0035612Y0109337D01*
X0035034Y0109916D01*
X0034553Y0110578D01*
X0034181Y0111307D01*
X0033928Y0112085D01*
X0033814Y0112803D01*
X0038500Y0112803D01*
X0039500Y0112803D01*
X0039500Y0108118D01*
X0040218Y0108231D01*
X0040996Y0108484D01*
X0041725Y0108856D01*
X0042388Y0109337D01*
X0042966Y0109916D01*
X0043447Y0110578D01*
X0043819Y0111307D01*
X0044072Y0112085D01*
X0044186Y0112803D01*
X0039500Y0112803D01*
X0039500Y0113803D01*
X0044186Y0113803D01*
X0044072Y0114521D01*
X0043819Y0115299D01*
X0043447Y0116029D01*
X0042966Y0116691D01*
X0042388Y0117269D01*
X0041725Y0117751D01*
X0040996Y0118122D01*
X0040218Y0118375D01*
X0039500Y0118489D01*
X0039500Y0113803D01*
X0038500Y0113803D01*
X0038500Y0112803D01*
X0038500Y0108118D01*
X0037782Y0108231D01*
X0037004Y0108484D01*
X0035870Y0109150D02*
X0020945Y0109150D01*
X0020718Y0110148D02*
X0034865Y0110148D01*
X0034263Y0111147D02*
X0020490Y0111147D01*
X0020262Y0112145D02*
X0033919Y0112145D01*
X0033814Y0113803D02*
X0038500Y0113803D01*
X0038500Y0118489D01*
X0037782Y0118375D01*
X0037004Y0118122D01*
X0036275Y0117751D01*
X0035612Y0117269D01*
X0035034Y0116691D01*
X0034553Y0116029D01*
X0034181Y0115299D01*
X0033928Y0114521D01*
X0033814Y0113803D01*
X0033868Y0114142D02*
X0019807Y0114142D01*
X0020034Y0113144D02*
X0038500Y0113144D01*
X0038500Y0114142D02*
X0039500Y0114142D01*
X0039500Y0113144D02*
X0071931Y0113144D01*
X0071931Y0114142D02*
X0044132Y0114142D01*
X0043870Y0115141D02*
X0071931Y0115141D01*
X0072493Y0116139D02*
X0043367Y0116139D01*
X0042519Y0117138D02*
X0071931Y0117138D01*
X0071931Y0117029D02*
X0072576Y0116384D01*
X0077424Y0116384D01*
X0078068Y0117029D01*
X0078068Y0122271D01*
X0077424Y0122915D01*
X0076600Y0122915D01*
X0076600Y0128140D01*
X0080400Y0131940D01*
X0080400Y0121487D01*
X0081431Y0120455D01*
X0081431Y0117029D01*
X0082076Y0116384D01*
X0086924Y0116384D01*
X0087568Y0117029D01*
X0087568Y0122271D01*
X0086924Y0122915D01*
X0083600Y0122915D01*
X0083600Y0131640D01*
X0084963Y0133003D01*
X0085563Y0133603D01*
X0085756Y0133603D01*
X0085800Y0133648D01*
X0085800Y0131003D01*
X0085382Y0131003D01*
X0083800Y0129422D01*
X0083800Y0127185D01*
X0085382Y0125603D01*
X0087618Y0125603D01*
X0088900Y0126885D01*
X0088900Y0117153D01*
X0089388Y0116664D01*
X0089388Y0113379D01*
X0090033Y0112735D01*
X0095275Y0112735D01*
X0095919Y0113379D01*
X0095919Y0116827D01*
X0096081Y0116664D01*
X0096081Y0113379D01*
X0096725Y0112735D01*
X0101967Y0112735D01*
X0102612Y0113379D01*
X0102612Y0118227D01*
X0101967Y0118872D01*
X0098682Y0118872D01*
X0097700Y0119854D01*
X0097700Y0120185D01*
X0098700Y0121185D01*
X0098700Y0122199D01*
X0102800Y0118099D01*
X0102800Y0111599D01*
X0104300Y0110099D01*
X0105296Y0109103D01*
X0110764Y0109103D01*
X0110796Y0109072D01*
X0110913Y0109072D01*
X0111882Y0108103D01*
X0114118Y0108103D01*
X0115700Y0109685D01*
X0115700Y0111922D01*
X0114118Y0113503D01*
X0111882Y0113503D01*
X0110882Y0112503D01*
X0106704Y0112503D01*
X0106200Y0113007D01*
X0106200Y0119507D01*
X0105204Y0120503D01*
X0098204Y0127503D01*
X0092300Y0127503D01*
X0092300Y0130599D01*
X0094796Y0128103D01*
X0101388Y0128103D01*
X0101388Y0127379D01*
X0102033Y0126735D01*
X0102800Y0126735D01*
X0102800Y0125099D01*
X0103796Y0124103D01*
X0107300Y0120599D01*
X0107300Y0120422D01*
X0106300Y0119422D01*
X0106300Y0117185D01*
X0107882Y0115603D01*
X0110118Y0115603D01*
X0111700Y0117185D01*
X0111700Y0119422D01*
X0110700Y0120422D01*
X0110700Y0122007D01*
X0106200Y0126507D01*
X0106200Y0126735D01*
X0107275Y0126735D01*
X0107919Y0127379D01*
X0107919Y0132227D01*
X0107275Y0132872D01*
X0102033Y0132872D01*
X0101388Y0132227D01*
X0101388Y0131503D01*
X0096204Y0131503D01*
X0095400Y0132307D01*
X0095400Y0133648D01*
X0095444Y0133603D01*
X0098356Y0133603D01*
X0098450Y0133698D01*
X0098544Y0133603D01*
X0101456Y0133603D01*
X0102100Y0134248D01*
X0102100Y0140703D01*
X0108556Y0140703D01*
X0109200Y0141348D01*
X0109200Y0144259D01*
X0109106Y0144353D01*
X0109200Y0144448D01*
X0109200Y0147359D01*
X0109056Y0147503D01*
X0109200Y0147648D01*
X0109200Y0150182D01*
X0109300Y0150282D01*
X0109498Y0150624D01*
X0109600Y0151006D01*
X0109600Y0152203D01*
X0105200Y0152203D01*
X0105200Y0152203D01*
X0100800Y0152203D01*
X0100800Y0151006D01*
X0100902Y0150624D01*
X0101100Y0150282D01*
X0101200Y0150182D01*
X0101200Y0147648D01*
X0101344Y0147503D01*
X0101200Y0147359D01*
X0101200Y0144448D01*
X0101294Y0144353D01*
X0101200Y0144259D01*
X0101200Y0141603D01*
X0098544Y0141603D01*
X0098450Y0141509D01*
X0098356Y0141603D01*
X0095444Y0141603D01*
X0095300Y0141459D01*
X0095156Y0141603D01*
X0092244Y0141603D01*
X0092150Y0141509D01*
X0092056Y0141603D01*
X0089144Y0141603D01*
X0089000Y0141459D01*
X0088856Y0141603D01*
X0085944Y0141603D01*
X0085850Y0141509D01*
X0085756Y0141603D01*
X0082844Y0141603D01*
X0082700Y0141459D01*
X0082556Y0141603D01*
X0079644Y0141603D01*
X0079550Y0141509D01*
X0079456Y0141603D01*
X0076800Y0141603D01*
X0076800Y0144259D01*
X0076706Y0144353D01*
X0076800Y0144448D01*
X0076800Y0147082D01*
X0076900Y0147182D01*
X0077098Y0147524D01*
X0077200Y0147906D01*
X0077200Y0149103D01*
X0072800Y0149103D01*
X0072800Y0149103D01*
X0068400Y0149103D01*
X0068400Y0147906D01*
X0068502Y0147524D01*
X0068700Y0147182D01*
X0068800Y0147082D01*
X0068800Y0144503D01*
X0068118Y0144503D01*
X0067118Y0145503D01*
X0064882Y0145503D01*
X0063300Y0143922D01*
X0063300Y0141685D01*
X0064882Y0140103D01*
X0067118Y0140103D01*
X0068118Y0141103D01*
X0069044Y0141103D01*
X0069444Y0140703D01*
X0075900Y0140703D01*
X0075900Y0134248D01*
X0076544Y0133603D01*
X0077537Y0133603D01*
X0074337Y0130403D01*
X0073400Y0129466D01*
X0073400Y0122915D01*
X0072576Y0122915D01*
X0071931Y0122271D01*
X0071931Y0117029D01*
X0071931Y0118136D02*
X0040952Y0118136D01*
X0039500Y0118136D02*
X0038500Y0118136D01*
X0038500Y0117138D02*
X0039500Y0117138D01*
X0039500Y0116139D02*
X0038500Y0116139D01*
X0038500Y0115141D02*
X0039500Y0115141D01*
X0037048Y0118136D02*
X0018896Y0118136D01*
X0018862Y0119135D02*
X0071931Y0119135D01*
X0071931Y0120133D02*
X0019146Y0120133D01*
X0019429Y0121132D02*
X0071931Y0121132D01*
X0071931Y0122130D02*
X0019713Y0122130D01*
X0019997Y0123129D02*
X0073400Y0123129D01*
X0073400Y0124127D02*
X0020281Y0124127D01*
X0020565Y0125126D02*
X0073400Y0125126D01*
X0073400Y0126125D02*
X0070140Y0126125D01*
X0070118Y0126103D02*
X0071700Y0127685D01*
X0071700Y0129922D01*
X0070118Y0131503D01*
X0069050Y0131503D01*
X0069389Y0131842D01*
X0069389Y0132753D01*
X0065683Y0136460D01*
X0064771Y0136460D01*
X0061343Y0133032D01*
X0061343Y0132120D01*
X0065050Y0128414D01*
X0065961Y0128414D01*
X0066300Y0128753D01*
X0066300Y0127685D01*
X0067882Y0126103D01*
X0070118Y0126103D01*
X0071138Y0127123D02*
X0073400Y0127123D01*
X0073400Y0128122D02*
X0071700Y0128122D01*
X0071700Y0129120D02*
X0073400Y0129120D01*
X0074053Y0130119D02*
X0071503Y0130119D01*
X0070504Y0131117D02*
X0075051Y0131117D01*
X0076050Y0132116D02*
X0069389Y0132116D01*
X0069029Y0133114D02*
X0077048Y0133114D01*
X0076035Y0134113D02*
X0068030Y0134113D01*
X0067032Y0135111D02*
X0075900Y0135111D01*
X0075900Y0136110D02*
X0066033Y0136110D01*
X0064657Y0136575D02*
X0064657Y0137486D01*
X0060950Y0141193D01*
X0060039Y0141193D01*
X0059700Y0140854D01*
X0059700Y0144099D01*
X0066104Y0150503D01*
X0068454Y0150503D01*
X0068400Y0150301D01*
X0068400Y0149103D01*
X0072800Y0149103D01*
X0072800Y0149103D01*
X0077200Y0149103D01*
X0077200Y0150301D01*
X0077137Y0150536D01*
X0079704Y0153103D01*
X0080700Y0154099D01*
X0080700Y0158099D01*
X0082604Y0160003D01*
X0101244Y0160003D01*
X0101200Y0159959D01*
X0101200Y0157048D01*
X0101294Y0156953D01*
X0101200Y0156859D01*
X0101200Y0154224D01*
X0101100Y0154124D01*
X0100902Y0153782D01*
X0100800Y0153401D01*
X0100800Y0152203D01*
X0105200Y0152203D01*
X0105200Y0152203D01*
X0109600Y0152203D01*
X0109600Y0153401D01*
X0109498Y0153782D01*
X0109300Y0154124D01*
X0109200Y0154224D01*
X0109200Y0156859D01*
X0109106Y0156953D01*
X0109200Y0157048D01*
X0109200Y0159959D01*
X0109056Y0160103D01*
X0110796Y0160103D01*
X0124515Y0146384D01*
X0123202Y0146384D01*
X0123153Y0146335D01*
X0123004Y0146484D01*
X0122662Y0146682D01*
X0122280Y0146784D01*
X0121041Y0146784D01*
X0121041Y0142963D01*
X0120959Y0142963D01*
X0120959Y0146784D01*
X0119720Y0146784D01*
X0119338Y0146682D01*
X0118996Y0146484D01*
X0118847Y0146335D01*
X0118798Y0146384D01*
X0115722Y0146384D01*
X0115077Y0145739D01*
X0115077Y0140104D01*
X0115560Y0139621D01*
X0115560Y0138839D01*
X0117300Y0137099D01*
X0118252Y0136147D01*
X0115722Y0136147D01*
X0115077Y0135502D01*
X0115077Y0131503D01*
X0114612Y0131503D01*
X0114612Y0132227D01*
X0113967Y0132872D01*
X0113046Y0132872D01*
X0113046Y0134661D01*
X0112200Y0135507D01*
X0112200Y0136922D01*
X0110618Y0138503D01*
X0108382Y0138503D01*
X0106800Y0136922D01*
X0106800Y0134685D01*
X0108382Y0133103D01*
X0109646Y0133103D01*
X0109646Y0132872D01*
X0108725Y0132872D01*
X0108081Y0132227D01*
X0108081Y0127379D01*
X0108725Y0126735D01*
X0113967Y0126735D01*
X0114612Y0127379D01*
X0114612Y0128103D01*
X0116296Y0128103D01*
X0116556Y0127843D01*
X0117800Y0126599D01*
X0118796Y0125603D01*
X0126704Y0125603D01*
X0139704Y0138603D01*
X0140700Y0139599D01*
X0140700Y0143817D01*
X0141618Y0144198D01*
X0142827Y0145407D01*
X0143482Y0146988D01*
X0143482Y0148698D01*
X0142827Y0150279D01*
X0141618Y0151488D01*
X0140037Y0152143D01*
X0138327Y0152143D01*
X0136746Y0151488D01*
X0135537Y0150279D01*
X0135232Y0149543D01*
X0126164Y0149543D01*
X0113200Y0162507D01*
X0112204Y0163503D01*
X0111604Y0163503D01*
X0112200Y0164099D01*
X0121704Y0173603D01*
X0130852Y0173603D01*
X0130382Y0173409D01*
X0129173Y0172199D01*
X0128518Y0170619D01*
X0128518Y0168908D01*
X0129173Y0167328D01*
X0130382Y0166118D01*
X0131963Y0165463D01*
X0133673Y0165463D01*
X0135254Y0166118D01*
X0136463Y0167328D01*
X0137118Y0168908D01*
X0137118Y0170619D01*
X0136650Y0171749D01*
X0137482Y0170917D01*
X0137482Y0165935D01*
X0136746Y0165630D01*
X0135537Y0164421D01*
X0134882Y0162840D01*
X0134882Y0161130D01*
X0135537Y0159549D01*
X0136746Y0158340D01*
X0138327Y0157685D01*
X0140037Y0157685D01*
X0141618Y0158340D01*
X0142827Y0159549D01*
X0143482Y0161130D01*
X0143482Y0162840D01*
X0142827Y0164421D01*
X0141618Y0165630D01*
X0140882Y0165935D01*
X0140882Y0170917D01*
X0140882Y0171517D01*
X0145260Y0167139D01*
X0145260Y0159571D01*
X0144524Y0159267D01*
X0143315Y0158057D01*
X0142660Y0156476D01*
X0142660Y0154766D01*
X0143315Y0153185D01*
X0144524Y0151976D01*
X0146105Y0151321D01*
X0147815Y0151321D01*
X0149396Y0151976D01*
X0150605Y0153185D01*
X0151260Y0154766D01*
X0151260Y0156476D01*
X0150605Y0158057D01*
X0149396Y0159267D01*
X0148660Y0159571D01*
X0148660Y0167139D01*
X0148660Y0168547D01*
X0138700Y0178507D01*
X0137704Y0179503D01*
X0103796Y0179503D01*
X0099296Y0175003D01*
X0098600Y0174307D01*
X0098600Y0175085D01*
X0099700Y0176185D01*
X0099700Y0178422D01*
X0098118Y0180003D01*
X0095882Y0180003D01*
X0094300Y0178422D01*
X0094300Y0176185D01*
X0095200Y0175285D01*
X0095200Y0173959D01*
X0095156Y0174003D01*
X0092244Y0174003D01*
X0092150Y0173909D01*
X0092056Y0174003D01*
X0089144Y0174003D01*
X0089000Y0173859D01*
X0088856Y0174003D01*
X0085944Y0174003D01*
X0085850Y0173909D01*
X0085756Y0174003D01*
X0082844Y0174003D01*
X0082800Y0173959D01*
X0082800Y0176691D01*
X0083424Y0176691D01*
X0084068Y0177336D01*
X0084068Y0182578D01*
X0083424Y0183222D01*
X0078576Y0183222D01*
X0077931Y0182578D01*
X0077931Y0177336D01*
X0078576Y0176691D01*
X0079400Y0176691D01*
X0079400Y0174003D01*
X0076544Y0174003D01*
X0075900Y0173359D01*
X0075900Y0166903D01*
X0069444Y0166903D01*
X0069124Y0166583D01*
X0066700Y0169007D01*
X0065704Y0170003D01*
X0062697Y0170003D01*
X0062687Y0170013D01*
X0062300Y0170013D01*
X0062300Y0170210D01*
X0062007Y0170503D01*
X0055993Y0170503D01*
X0055700Y0170210D01*
X0055700Y0170013D01*
X0055313Y0170013D01*
X0054927Y0169628D01*
X0054337Y0169628D01*
X0053400Y0168690D01*
X0053400Y0167365D01*
X0054337Y0166428D01*
X0054927Y0166428D01*
X0055313Y0166042D01*
X0055731Y0166042D01*
X0055700Y0166010D01*
X0055700Y0165649D01*
X0055440Y0165597D01*
X0055006Y0165417D01*
X0054615Y0165156D01*
X0054283Y0164824D01*
X0054022Y0164433D01*
X0053842Y0163999D01*
X0053750Y0163538D01*
X0053750Y0163303D01*
X0053750Y0163068D01*
X0053842Y0162607D01*
X0054022Y0162173D01*
X0054283Y0161782D01*
X0054615Y0161450D01*
X0055006Y0161189D01*
X0055440Y0161009D01*
X0055700Y0160957D01*
X0055700Y0160565D01*
X0055313Y0160565D01*
X0054927Y0160179D01*
X0054337Y0160179D01*
X0053400Y0159241D01*
X0053400Y0157916D01*
X0054337Y0156979D01*
X0054927Y0156979D01*
X0055313Y0156593D01*
X0055700Y0156593D01*
X0055700Y0156396D01*
X0055993Y0156103D01*
X0062007Y0156103D01*
X0062300Y0156396D01*
X0062300Y0156593D01*
X0062687Y0156593D01*
X0062973Y0156879D01*
X0063704Y0156879D01*
X0063929Y0157103D01*
X0066204Y0157103D01*
X0067200Y0158099D01*
X0068800Y0159699D01*
X0068800Y0157424D01*
X0068700Y0157324D01*
X0068502Y0156982D01*
X0068400Y0156601D01*
X0068400Y0155403D01*
X0068400Y0154206D01*
X0068481Y0153903D01*
X0064696Y0153903D01*
X0057296Y0146503D01*
X0056300Y0145507D01*
X0056300Y0139099D01*
X0057123Y0138276D01*
X0056611Y0137764D01*
X0056611Y0136853D01*
X0060317Y0133146D01*
X0061229Y0133146D01*
X0064657Y0136575D01*
X0064421Y0136110D02*
X0064192Y0136110D01*
X0064657Y0137108D02*
X0075900Y0137108D01*
X0075900Y0138107D02*
X0064036Y0138107D01*
X0063037Y0139105D02*
X0075900Y0139105D01*
X0075900Y0140104D02*
X0067119Y0140104D01*
X0068117Y0141102D02*
X0069045Y0141102D01*
X0068800Y0145096D02*
X0067525Y0145096D01*
X0068800Y0146095D02*
X0061696Y0146095D01*
X0062694Y0147093D02*
X0068789Y0147093D01*
X0068400Y0148092D02*
X0063693Y0148092D01*
X0064691Y0149090D02*
X0068400Y0149090D01*
X0068400Y0150089D02*
X0065690Y0150089D01*
X0062878Y0152086D02*
X0033446Y0152086D01*
X0033747Y0153084D02*
X0063877Y0153084D01*
X0061880Y0151087D02*
X0033145Y0151087D01*
X0032843Y0150089D02*
X0060881Y0150089D01*
X0059883Y0149090D02*
X0032542Y0149090D01*
X0032240Y0148092D02*
X0058884Y0148092D01*
X0057886Y0147093D02*
X0031939Y0147093D01*
X0031637Y0146095D02*
X0056887Y0146095D01*
X0056300Y0145096D02*
X0031336Y0145096D01*
X0031034Y0144098D02*
X0056300Y0144098D01*
X0056300Y0143099D02*
X0030733Y0143099D01*
X0030432Y0142101D02*
X0056300Y0142101D01*
X0056300Y0141102D02*
X0030130Y0141102D01*
X0029829Y0140104D02*
X0056300Y0140104D01*
X0056300Y0139105D02*
X0029527Y0139105D01*
X0029226Y0138107D02*
X0056953Y0138107D01*
X0056611Y0137108D02*
X0028924Y0137108D01*
X0028623Y0136110D02*
X0057354Y0136110D01*
X0058353Y0135111D02*
X0028322Y0135111D01*
X0028249Y0134872D02*
X0035501Y0158892D01*
X0046800Y0169901D01*
X0046800Y0168185D01*
X0048382Y0166603D01*
X0050618Y0166603D01*
X0052200Y0168185D01*
X0052200Y0169599D01*
X0069704Y0187103D01*
X0071204Y0187103D01*
X0083204Y0199103D01*
X0118882Y0199103D01*
X0119882Y0198103D01*
X0122118Y0198103D01*
X0123700Y0199685D01*
X0123700Y0201922D01*
X0122118Y0203503D01*
X0119882Y0203503D01*
X0118882Y0202503D01*
X0081796Y0202503D01*
X0080800Y0201507D01*
X0069796Y0190503D01*
X0068296Y0190503D01*
X0067300Y0189507D01*
X0049796Y0172003D01*
X0048957Y0172003D01*
X0072665Y0195103D01*
X0074118Y0195103D01*
X0075700Y0196685D01*
X0075700Y0198922D01*
X0074118Y0200503D01*
X0071882Y0200503D01*
X0070300Y0198922D01*
X0070300Y0197546D01*
X0032985Y0161188D01*
X0032576Y0160969D01*
X0032499Y0160714D01*
X0032309Y0160529D01*
X0032303Y0160065D01*
X0025039Y0136003D01*
X0024882Y0136003D01*
X0023300Y0134422D01*
X0023300Y0132185D01*
X0024882Y0130603D01*
X0027118Y0130603D01*
X0028700Y0132185D01*
X0028700Y0134422D01*
X0028249Y0134872D01*
X0028700Y0134113D02*
X0059351Y0134113D01*
X0061426Y0133114D02*
X0028700Y0133114D01*
X0028631Y0132116D02*
X0061348Y0132116D01*
X0062347Y0131117D02*
X0027632Y0131117D01*
X0024368Y0131117D02*
X0022268Y0131117D01*
X0021984Y0130119D02*
X0063345Y0130119D01*
X0064344Y0129120D02*
X0021701Y0129120D01*
X0021417Y0128122D02*
X0066300Y0128122D01*
X0066862Y0127123D02*
X0021133Y0127123D01*
X0020849Y0126125D02*
X0067860Y0126125D01*
X0069000Y0128803D02*
X0065366Y0132437D01*
X0062424Y0134113D02*
X0062195Y0134113D01*
X0063193Y0135111D02*
X0063423Y0135111D01*
X0062039Y0140104D02*
X0064881Y0140104D01*
X0063883Y0141102D02*
X0061040Y0141102D01*
X0059949Y0141102D02*
X0059700Y0141102D01*
X0059700Y0142101D02*
X0063300Y0142101D01*
X0063300Y0143099D02*
X0059700Y0143099D01*
X0059700Y0144098D02*
X0063476Y0144098D01*
X0064475Y0145096D02*
X0060697Y0145096D01*
X0068433Y0154083D02*
X0034049Y0154083D01*
X0034350Y0155081D02*
X0068400Y0155081D01*
X0068400Y0155403D02*
X0072800Y0155403D01*
X0072800Y0155403D01*
X0068400Y0155403D01*
X0068400Y0156080D02*
X0034652Y0156080D01*
X0034953Y0157078D02*
X0054238Y0157078D01*
X0053400Y0158077D02*
X0035255Y0158077D01*
X0035689Y0159075D02*
X0053400Y0159075D01*
X0054232Y0160074D02*
X0036714Y0160074D01*
X0037739Y0161072D02*
X0055287Y0161072D01*
X0054090Y0162071D02*
X0038763Y0162071D01*
X0039788Y0163069D02*
X0053750Y0163069D01*
X0053750Y0163303D02*
X0059000Y0163303D01*
X0059000Y0163303D01*
X0064250Y0163303D01*
X0064250Y0163068D01*
X0064158Y0162607D01*
X0063978Y0162173D01*
X0063717Y0161782D01*
X0063385Y0161450D01*
X0062994Y0161189D01*
X0062560Y0161009D01*
X0062300Y0160957D01*
X0062300Y0160565D01*
X0062687Y0160565D01*
X0062748Y0160503D01*
X0064796Y0160503D01*
X0067596Y0163303D01*
X0064296Y0166603D01*
X0063980Y0166603D01*
X0063704Y0166328D01*
X0062973Y0166328D01*
X0062687Y0166042D01*
X0062268Y0166042D01*
X0062300Y0166010D01*
X0062300Y0165649D01*
X0062560Y0165597D01*
X0062994Y0165417D01*
X0063385Y0165156D01*
X0063717Y0164824D01*
X0063978Y0164433D01*
X0064158Y0163999D01*
X0064250Y0163538D01*
X0064250Y0163303D01*
X0059000Y0163303D01*
X0059000Y0163303D01*
X0055000Y0163303D01*
X0053750Y0163303D02*
X0059000Y0163303D01*
X0063000Y0163303D01*
X0064250Y0163069D02*
X0067362Y0163069D01*
X0066831Y0164068D02*
X0064130Y0164068D01*
X0063475Y0165066D02*
X0065833Y0165066D01*
X0064834Y0166065D02*
X0062710Y0166065D01*
X0063000Y0168028D02*
X0059000Y0168028D01*
X0055000Y0168028D01*
X0053400Y0168062D02*
X0052077Y0168062D01*
X0052200Y0169060D02*
X0053770Y0169060D01*
X0052660Y0170059D02*
X0055700Y0170059D01*
X0054657Y0172056D02*
X0075900Y0172056D01*
X0075900Y0171058D02*
X0053659Y0171058D01*
X0055656Y0173055D02*
X0075900Y0173055D01*
X0075900Y0170059D02*
X0062300Y0170059D01*
X0066647Y0169060D02*
X0075900Y0169060D01*
X0075900Y0168062D02*
X0067645Y0168062D01*
X0068644Y0167063D02*
X0075900Y0167063D01*
X0079400Y0174053D02*
X0056654Y0174053D01*
X0057653Y0175052D02*
X0079400Y0175052D01*
X0079400Y0176050D02*
X0058651Y0176050D01*
X0059650Y0177049D02*
X0078219Y0177049D01*
X0077931Y0178047D02*
X0060648Y0178047D01*
X0061647Y0179046D02*
X0077931Y0179046D01*
X0077931Y0180044D02*
X0062645Y0180044D01*
X0063644Y0181043D02*
X0077931Y0181043D01*
X0077931Y0182041D02*
X0064642Y0182041D01*
X0065641Y0183040D02*
X0078393Y0183040D01*
X0077931Y0184038D02*
X0066639Y0184038D01*
X0067638Y0185037D02*
X0077931Y0185037D01*
X0077931Y0186035D02*
X0068636Y0186035D01*
X0069635Y0187034D02*
X0077931Y0187034D01*
X0077931Y0188032D02*
X0072133Y0188032D01*
X0073132Y0189031D02*
X0077931Y0189031D01*
X0075129Y0191028D02*
X0082320Y0191028D01*
X0082800Y0192026D02*
X0076127Y0192026D01*
X0077126Y0193025D02*
X0082903Y0193025D01*
X0083902Y0194023D02*
X0078124Y0194023D01*
X0079123Y0195022D02*
X0107263Y0195022D01*
X0110791Y0196020D02*
X0080121Y0196020D01*
X0081120Y0197019D02*
X0114095Y0197019D01*
X0114915Y0197019D02*
X0145245Y0197019D01*
X0147566Y0196020D02*
X0118086Y0196020D01*
X0118969Y0199016D02*
X0083117Y0199016D01*
X0082118Y0198017D02*
X0142886Y0198017D01*
X0140527Y0199016D02*
X0123031Y0199016D01*
X0123700Y0200014D02*
X0138168Y0200014D01*
X0135518Y0201013D02*
X0123700Y0201013D01*
X0123610Y0202011D02*
X0132009Y0202011D01*
X0128500Y0203010D02*
X0122612Y0203010D01*
X0124990Y0204008D02*
X0083835Y0204008D01*
X0081304Y0202011D02*
X0075701Y0202011D01*
X0074607Y0200014D02*
X0079307Y0200014D01*
X0078309Y0199016D02*
X0075606Y0199016D01*
X0075700Y0198017D02*
X0077310Y0198017D01*
X0076312Y0197019D02*
X0075700Y0197019D01*
X0075313Y0196020D02*
X0075036Y0196020D01*
X0074314Y0195022D02*
X0072581Y0195022D01*
X0073316Y0194023D02*
X0071557Y0194023D01*
X0072317Y0193025D02*
X0070532Y0193025D01*
X0071319Y0192026D02*
X0069507Y0192026D01*
X0070320Y0191028D02*
X0068482Y0191028D01*
X0067822Y0190029D02*
X0067457Y0190029D01*
X0066823Y0189031D02*
X0066433Y0189031D01*
X0065825Y0188032D02*
X0065408Y0188032D01*
X0064826Y0187034D02*
X0064383Y0187034D01*
X0063828Y0186035D02*
X0063358Y0186035D01*
X0062829Y0185037D02*
X0062334Y0185037D01*
X0061831Y0184038D02*
X0061309Y0184038D01*
X0060832Y0183040D02*
X0060284Y0183040D01*
X0059834Y0182041D02*
X0059259Y0182041D01*
X0058835Y0181043D02*
X0058234Y0181043D01*
X0057837Y0180044D02*
X0057210Y0180044D01*
X0056838Y0179046D02*
X0056185Y0179046D01*
X0055840Y0178047D02*
X0055160Y0178047D01*
X0054841Y0177049D02*
X0054135Y0177049D01*
X0053843Y0176050D02*
X0053110Y0176050D01*
X0052844Y0175052D02*
X0052086Y0175052D01*
X0051846Y0174053D02*
X0051061Y0174053D01*
X0050847Y0173055D02*
X0050036Y0173055D01*
X0049849Y0172056D02*
X0049011Y0172056D01*
X0046189Y0174053D02*
X0031800Y0174053D01*
X0032710Y0175052D02*
X0047214Y0175052D01*
X0048238Y0176050D02*
X0033620Y0176050D01*
X0034531Y0177049D02*
X0049263Y0177049D01*
X0050288Y0178047D02*
X0035441Y0178047D01*
X0036414Y0179046D02*
X0051313Y0179046D01*
X0052338Y0180044D02*
X0037580Y0180044D01*
X0038745Y0181043D02*
X0053362Y0181043D01*
X0054387Y0182041D02*
X0039911Y0182041D01*
X0041076Y0183040D02*
X0055412Y0183040D01*
X0056437Y0184038D02*
X0042241Y0184038D01*
X0043407Y0185037D02*
X0057462Y0185037D01*
X0058486Y0186035D02*
X0044572Y0186035D01*
X0045883Y0187034D02*
X0059511Y0187034D01*
X0060536Y0188032D02*
X0047390Y0188032D01*
X0048897Y0189031D02*
X0061561Y0189031D01*
X0062586Y0190029D02*
X0050403Y0190029D01*
X0051910Y0191028D02*
X0063610Y0191028D01*
X0064635Y0192026D02*
X0053417Y0192026D01*
X0054924Y0193025D02*
X0065660Y0193025D01*
X0066685Y0194023D02*
X0056822Y0194023D01*
X0058827Y0195022D02*
X0067709Y0195022D01*
X0068734Y0196020D02*
X0060832Y0196020D01*
X0062838Y0197019D02*
X0069759Y0197019D01*
X0070300Y0198017D02*
X0064843Y0198017D01*
X0067200Y0199016D02*
X0070394Y0199016D01*
X0070034Y0200014D02*
X0071393Y0200014D01*
X0072867Y0201013D02*
X0080306Y0201013D01*
X0079275Y0203010D02*
X0119388Y0203010D01*
X0118667Y0205007D02*
X0088394Y0205007D01*
X0098283Y0206005D02*
X0109160Y0206005D01*
X0121481Y0195022D02*
X0149295Y0195022D01*
X0151025Y0194023D02*
X0124876Y0194023D01*
X0123012Y0191028D02*
X0105636Y0191028D01*
X0103735Y0194023D02*
X0087098Y0194023D01*
X0088097Y0193025D02*
X0100207Y0193025D01*
X0096679Y0192026D02*
X0088200Y0192026D01*
X0088200Y0191028D02*
X0093151Y0191028D01*
X0095052Y0188032D02*
X0127411Y0188032D01*
X0126800Y0187034D02*
X0091524Y0187034D01*
X0090050Y0186035D02*
X0126800Y0186035D01*
X0126948Y0185037D02*
X0084068Y0185037D01*
X0084068Y0186035D02*
X0085950Y0186035D01*
X0085300Y0187034D02*
X0084068Y0187034D01*
X0084133Y0188032D02*
X0085300Y0188032D01*
X0085409Y0189031D02*
X0085132Y0189031D01*
X0081322Y0190029D02*
X0074130Y0190029D01*
X0084068Y0184038D02*
X0127947Y0184038D01*
X0131053Y0184038D02*
X0131120Y0184038D01*
X0134428Y0183040D02*
X0083607Y0183040D01*
X0084068Y0182041D02*
X0137736Y0182041D01*
X0141043Y0181043D02*
X0084068Y0181043D01*
X0084068Y0180044D02*
X0144351Y0180044D01*
X0147658Y0179046D02*
X0138162Y0179046D01*
X0139160Y0178047D02*
X0150966Y0178047D01*
X0152808Y0181043D02*
X0156961Y0181043D01*
X0156115Y0180044D02*
X0160356Y0180044D01*
X0158641Y0178047D02*
X0163938Y0178047D01*
X0162939Y0179046D02*
X0157656Y0179046D01*
X0159626Y0177049D02*
X0173413Y0177049D01*
X0172383Y0178047D02*
X0167062Y0178047D01*
X0168061Y0179046D02*
X0171354Y0179046D01*
X0170324Y0180044D02*
X0168200Y0180044D01*
X0168200Y0181043D02*
X0169294Y0181043D01*
X0168264Y0182041D02*
X0167580Y0182041D01*
X0167178Y0183040D02*
X0162221Y0183040D01*
X0164533Y0185037D02*
X0155431Y0185037D01*
X0153566Y0182041D02*
X0149500Y0182041D01*
X0150171Y0183040D02*
X0146193Y0183040D01*
X0146776Y0184038D02*
X0142885Y0184038D01*
X0143381Y0185037D02*
X0139577Y0185037D01*
X0139986Y0186035D02*
X0136270Y0186035D01*
X0136591Y0187034D02*
X0132962Y0187034D01*
X0133196Y0188032D02*
X0131589Y0188032D01*
X0129801Y0189031D02*
X0098580Y0189031D01*
X0102108Y0190029D02*
X0126407Y0190029D01*
X0128271Y0193025D02*
X0152754Y0193025D01*
X0154483Y0192026D02*
X0131666Y0192026D01*
X0135061Y0191028D02*
X0156213Y0191028D01*
X0157922Y0190029D02*
X0138456Y0190029D01*
X0141851Y0189031D02*
X0159244Y0189031D01*
X0160566Y0188032D02*
X0145246Y0188032D01*
X0148641Y0187034D02*
X0161889Y0187034D01*
X0163211Y0186035D02*
X0152036Y0186035D01*
X0158826Y0184038D02*
X0165855Y0184038D01*
X0160612Y0176050D02*
X0174443Y0176050D01*
X0175473Y0175052D02*
X0161597Y0175052D01*
X0162583Y0174053D02*
X0176404Y0174053D01*
X0177207Y0173055D02*
X0163568Y0173055D01*
X0164553Y0172056D02*
X0178011Y0172056D01*
X0178814Y0171058D02*
X0165539Y0171058D01*
X0166524Y0170059D02*
X0179618Y0170059D01*
X0180421Y0169060D02*
X0167509Y0169060D01*
X0168495Y0168062D02*
X0181225Y0168062D01*
X0182028Y0167063D02*
X0169480Y0167063D01*
X0170466Y0166065D02*
X0182832Y0166065D01*
X0183622Y0165066D02*
X0171451Y0165066D01*
X0172436Y0164068D02*
X0184241Y0164068D01*
X0184859Y0163069D02*
X0173422Y0163069D01*
X0174407Y0162071D02*
X0185477Y0162071D01*
X0186095Y0161072D02*
X0175392Y0161072D01*
X0176378Y0160074D02*
X0186714Y0160074D01*
X0187332Y0159075D02*
X0177363Y0159075D01*
X0178349Y0158077D02*
X0187950Y0158077D01*
X0188568Y0157078D02*
X0179334Y0157078D01*
X0180319Y0156080D02*
X0189187Y0156080D01*
X0189805Y0155081D02*
X0181305Y0155081D01*
X0182290Y0154083D02*
X0190288Y0154083D01*
X0190748Y0153084D02*
X0183275Y0153084D01*
X0184261Y0152086D02*
X0191207Y0152086D01*
X0191666Y0151087D02*
X0185246Y0151087D01*
X0186232Y0150089D02*
X0192126Y0150089D01*
X0192585Y0149090D02*
X0187217Y0149090D01*
X0188202Y0148092D02*
X0193045Y0148092D01*
X0193504Y0147093D02*
X0189188Y0147093D01*
X0190173Y0146095D02*
X0193963Y0146095D01*
X0194423Y0145096D02*
X0191158Y0145096D01*
X0192144Y0144098D02*
X0194882Y0144098D01*
X0195210Y0143099D02*
X0193129Y0143099D01*
X0195521Y0142101D02*
X0195528Y0142101D01*
X0196120Y0139105D02*
X0196481Y0139105D01*
X0196799Y0138107D02*
X0195122Y0138107D01*
X0197116Y0137108D02*
X0138209Y0137108D01*
X0137211Y0136110D02*
X0197434Y0136110D01*
X0197752Y0135111D02*
X0136212Y0135111D01*
X0135214Y0134113D02*
X0198069Y0134113D01*
X0198387Y0133114D02*
X0192093Y0133114D01*
X0193092Y0132116D02*
X0198643Y0132116D01*
X0198830Y0131117D02*
X0194090Y0131117D01*
X0195089Y0130119D02*
X0199016Y0130119D01*
X0199203Y0129120D02*
X0196087Y0129120D01*
X0197086Y0128122D02*
X0199390Y0128122D01*
X0199498Y0127123D02*
X0199576Y0127123D01*
X0199144Y0123129D02*
X0200323Y0123129D01*
X0200509Y0122130D02*
X0183731Y0122130D01*
X0182733Y0121132D02*
X0200696Y0121132D01*
X0200801Y0120133D02*
X0181734Y0120133D01*
X0180736Y0119135D02*
X0200863Y0119135D01*
X0200924Y0118136D02*
X0179737Y0118136D01*
X0178739Y0117138D02*
X0200986Y0117138D01*
X0201048Y0116139D02*
X0177740Y0116139D01*
X0176742Y0115141D02*
X0201109Y0115141D01*
X0201171Y0114142D02*
X0175743Y0114142D01*
X0174745Y0113144D02*
X0201232Y0113144D01*
X0201294Y0112145D02*
X0173746Y0112145D01*
X0172748Y0111147D02*
X0201355Y0111147D01*
X0201417Y0110148D02*
X0172700Y0110148D01*
X0172700Y0109150D02*
X0201479Y0109150D01*
X0201460Y0108151D02*
X0172700Y0108151D01*
X0172700Y0107153D02*
X0201398Y0107153D01*
X0201337Y0106154D02*
X0172700Y0106154D01*
X0172700Y0105156D02*
X0201275Y0105156D01*
X0201213Y0104157D02*
X0172700Y0104157D01*
X0172700Y0103159D02*
X0201152Y0103159D01*
X0201090Y0102160D02*
X0172700Y0102160D01*
X0172700Y0101162D02*
X0201029Y0101162D01*
X0200967Y0100163D02*
X0172700Y0100163D01*
X0172700Y0099165D02*
X0173543Y0099165D01*
X0176457Y0099165D02*
X0200906Y0099165D01*
X0200844Y0098166D02*
X0177455Y0098166D01*
X0177700Y0097168D02*
X0200782Y0097168D01*
X0200639Y0096169D02*
X0178038Y0096169D01*
X0179037Y0095171D02*
X0200452Y0095171D01*
X0200266Y0094172D02*
X0180035Y0094172D01*
X0181034Y0093174D02*
X0194052Y0093174D01*
X0196948Y0093174D02*
X0200079Y0093174D01*
X0199892Y0092175D02*
X0197946Y0092175D01*
X0198200Y0091177D02*
X0199706Y0091177D01*
X0199519Y0090178D02*
X0198200Y0090178D01*
X0197695Y0089180D02*
X0199332Y0089180D01*
X0199146Y0088181D02*
X0196696Y0088181D01*
X0194304Y0088181D02*
X0174526Y0088181D01*
X0173528Y0089180D02*
X0180219Y0089180D01*
X0179221Y0090178D02*
X0172700Y0090178D01*
X0172700Y0091177D02*
X0178222Y0091177D01*
X0177224Y0092175D02*
X0172700Y0092175D01*
X0172700Y0093174D02*
X0176225Y0093174D01*
X0173813Y0094172D02*
X0172700Y0094172D01*
X0172700Y0095171D02*
X0172814Y0095171D01*
X0169300Y0095171D02*
X0135400Y0095171D01*
X0135400Y0096169D02*
X0169300Y0096169D01*
X0169300Y0097168D02*
X0136183Y0097168D01*
X0136200Y0098166D02*
X0169300Y0098166D01*
X0169300Y0099165D02*
X0136200Y0099165D01*
X0135458Y0100163D02*
X0169300Y0100163D01*
X0169300Y0101162D02*
X0135400Y0101162D01*
X0135400Y0102160D02*
X0169300Y0102160D01*
X0169300Y0103159D02*
X0135400Y0103159D01*
X0135400Y0104157D02*
X0169300Y0104157D01*
X0169300Y0105156D02*
X0135400Y0105156D01*
X0135400Y0106154D02*
X0169300Y0106154D01*
X0169300Y0107153D02*
X0144209Y0107153D01*
X0144419Y0107363D02*
X0147464Y0107363D01*
X0148704Y0108603D01*
X0150118Y0108603D01*
X0151700Y0110185D01*
X0151700Y0112422D01*
X0150118Y0114003D01*
X0147882Y0114003D01*
X0146300Y0112422D01*
X0146300Y0111007D01*
X0146056Y0110763D01*
X0144645Y0110763D01*
X0144681Y0110799D01*
X0144878Y0111141D01*
X0144981Y0111523D01*
X0144981Y0112762D01*
X0141160Y0112762D01*
X0141160Y0112844D01*
X0144981Y0112844D01*
X0144981Y0114083D01*
X0144878Y0114465D01*
X0144681Y0114807D01*
X0144532Y0114956D01*
X0144581Y0115005D01*
X0144581Y0118082D01*
X0143936Y0118726D01*
X0141340Y0118726D01*
X0139700Y0120366D01*
X0139700Y0121922D01*
X0138862Y0122759D01*
X0138862Y0125319D01*
X0139831Y0125319D01*
X0139831Y0126287D01*
X0143012Y0126287D01*
X0143012Y0127969D01*
X0142910Y0128351D01*
X0142712Y0128693D01*
X0142433Y0128972D01*
X0142091Y0129169D01*
X0141709Y0129272D01*
X0139831Y0129272D01*
X0139831Y0126287D01*
X0138862Y0126287D01*
X0138862Y0129272D01*
X0136984Y0129272D01*
X0136602Y0129169D01*
X0136260Y0128972D01*
X0135981Y0128693D01*
X0135788Y0128358D01*
X0135275Y0128872D01*
X0130033Y0128872D01*
X0129388Y0128227D01*
X0129388Y0123379D01*
X0129780Y0122987D01*
X0129300Y0122507D01*
X0129300Y0118726D01*
X0128064Y0118726D01*
X0127419Y0118082D01*
X0127419Y0115005D01*
X0128064Y0114361D01*
X0133699Y0114361D01*
X0134344Y0115005D01*
X0134344Y0118082D01*
X0133699Y0118726D01*
X0132700Y0118726D01*
X0132700Y0121099D01*
X0134336Y0122735D01*
X0135113Y0122735D01*
X0134300Y0121922D01*
X0134300Y0119685D01*
X0135882Y0118103D01*
X0137154Y0118103D01*
X0137656Y0117601D01*
X0137656Y0115005D01*
X0137705Y0114956D01*
X0137556Y0114807D01*
X0137359Y0114465D01*
X0137256Y0114083D01*
X0137256Y0112844D01*
X0141077Y0112844D01*
X0141077Y0112762D01*
X0137256Y0112762D01*
X0137256Y0111523D01*
X0137359Y0111141D01*
X0137556Y0110799D01*
X0137705Y0110650D01*
X0137656Y0110601D01*
X0137656Y0107525D01*
X0138301Y0106880D01*
X0143936Y0106880D01*
X0144419Y0107363D01*
X0144880Y0111147D02*
X0146300Y0111147D01*
X0146300Y0112145D02*
X0144981Y0112145D01*
X0144981Y0113144D02*
X0147022Y0113144D01*
X0144965Y0114142D02*
X0170935Y0114142D01*
X0169937Y0113144D02*
X0150978Y0113144D01*
X0151700Y0112145D02*
X0169300Y0112145D01*
X0169300Y0111147D02*
X0151700Y0111147D01*
X0151664Y0110148D02*
X0169300Y0110148D01*
X0169300Y0109150D02*
X0150665Y0109150D01*
X0148252Y0108151D02*
X0169300Y0108151D01*
X0171934Y0115141D02*
X0144581Y0115141D01*
X0144581Y0116139D02*
X0172932Y0116139D01*
X0173931Y0117138D02*
X0144581Y0117138D01*
X0144526Y0118136D02*
X0174929Y0118136D01*
X0175928Y0119135D02*
X0140931Y0119135D01*
X0139933Y0120133D02*
X0176926Y0120133D01*
X0177925Y0121132D02*
X0139700Y0121132D01*
X0139491Y0122130D02*
X0178923Y0122130D01*
X0179922Y0123129D02*
X0142836Y0123129D01*
X0142910Y0123256D02*
X0143012Y0123637D01*
X0143012Y0125319D01*
X0139831Y0125319D01*
X0139831Y0122335D01*
X0141709Y0122335D01*
X0142091Y0122437D01*
X0142433Y0122634D01*
X0142712Y0122914D01*
X0142910Y0123256D01*
X0143012Y0124127D02*
X0168857Y0124127D01*
X0167859Y0125126D02*
X0143012Y0125126D01*
X0143012Y0127123D02*
X0167800Y0127123D01*
X0167800Y0126125D02*
X0139831Y0126125D01*
X0139831Y0127123D02*
X0138862Y0127123D01*
X0138862Y0128122D02*
X0139831Y0128122D01*
X0139831Y0129120D02*
X0138862Y0129120D01*
X0136517Y0129120D02*
X0130221Y0129120D01*
X0129388Y0128122D02*
X0129223Y0128122D01*
X0129388Y0127123D02*
X0128224Y0127123D01*
X0127226Y0126125D02*
X0129388Y0126125D01*
X0129388Y0125126D02*
X0107581Y0125126D01*
X0106583Y0126125D02*
X0118274Y0126125D01*
X0117276Y0127123D02*
X0114356Y0127123D01*
X0116556Y0127843D02*
X0116556Y0127843D01*
X0115077Y0132116D02*
X0114612Y0132116D01*
X0115077Y0133114D02*
X0113046Y0133114D01*
X0113046Y0134113D02*
X0115077Y0134113D01*
X0115077Y0135111D02*
X0112596Y0135111D01*
X0112200Y0136110D02*
X0115684Y0136110D01*
X0117291Y0137108D02*
X0112013Y0137108D01*
X0111015Y0138107D02*
X0116292Y0138107D01*
X0115560Y0139105D02*
X0102100Y0139105D01*
X0102100Y0138107D02*
X0107985Y0138107D01*
X0106987Y0137108D02*
X0102100Y0137108D01*
X0102100Y0136110D02*
X0106800Y0136110D01*
X0106800Y0135111D02*
X0102100Y0135111D01*
X0101965Y0134113D02*
X0107372Y0134113D01*
X0108371Y0133114D02*
X0095400Y0133114D01*
X0095592Y0132116D02*
X0101388Y0132116D01*
X0101644Y0127123D02*
X0098584Y0127123D01*
X0099583Y0126125D02*
X0102800Y0126125D01*
X0102800Y0125126D02*
X0100581Y0125126D01*
X0101580Y0124127D02*
X0103771Y0124127D01*
X0104770Y0123129D02*
X0102578Y0123129D01*
X0103577Y0122130D02*
X0105769Y0122130D01*
X0106767Y0121132D02*
X0104575Y0121132D01*
X0105574Y0120133D02*
X0107012Y0120133D01*
X0106300Y0119135D02*
X0106200Y0119135D01*
X0106200Y0118136D02*
X0106300Y0118136D01*
X0106347Y0117138D02*
X0106200Y0117138D01*
X0106200Y0116139D02*
X0107345Y0116139D01*
X0106200Y0115141D02*
X0117531Y0115141D01*
X0117531Y0114142D02*
X0106200Y0114142D01*
X0106200Y0113144D02*
X0111522Y0113144D01*
X0114478Y0113144D02*
X0117785Y0113144D01*
X0117999Y0112145D02*
X0115476Y0112145D01*
X0115700Y0111147D02*
X0117931Y0111147D01*
X0117931Y0110148D02*
X0115700Y0110148D01*
X0115165Y0109150D02*
X0117931Y0109150D01*
X0117931Y0108151D02*
X0114167Y0108151D01*
X0111833Y0108151D02*
X0083200Y0108151D01*
X0083200Y0109150D02*
X0105249Y0109150D01*
X0104251Y0110148D02*
X0087381Y0110148D01*
X0087568Y0111147D02*
X0103252Y0111147D01*
X0102800Y0112145D02*
X0087568Y0112145D01*
X0087568Y0113144D02*
X0089623Y0113144D01*
X0089388Y0114142D02*
X0087568Y0114142D01*
X0087568Y0115141D02*
X0089388Y0115141D01*
X0089388Y0116139D02*
X0087007Y0116139D01*
X0087568Y0117138D02*
X0088915Y0117138D01*
X0088900Y0118136D02*
X0087568Y0118136D01*
X0087568Y0119135D02*
X0088900Y0119135D01*
X0088900Y0120133D02*
X0087568Y0120133D01*
X0087568Y0121132D02*
X0088900Y0121132D01*
X0088900Y0122130D02*
X0087568Y0122130D01*
X0088900Y0123129D02*
X0083600Y0123129D01*
X0083600Y0124127D02*
X0088900Y0124127D01*
X0088900Y0125126D02*
X0083600Y0125126D01*
X0083600Y0126125D02*
X0084860Y0126125D01*
X0083862Y0127123D02*
X0083600Y0127123D01*
X0083600Y0128122D02*
X0083800Y0128122D01*
X0083800Y0129120D02*
X0083600Y0129120D01*
X0083600Y0130119D02*
X0084497Y0130119D01*
X0083600Y0131117D02*
X0085800Y0131117D01*
X0085800Y0132116D02*
X0084075Y0132116D01*
X0084963Y0133003D02*
X0084963Y0133003D01*
X0085074Y0133114D02*
X0085800Y0133114D01*
X0084300Y0134603D02*
X0082000Y0132303D01*
X0082000Y0122150D01*
X0084500Y0119650D01*
X0081431Y0120133D02*
X0078068Y0120133D01*
X0078068Y0119135D02*
X0081431Y0119135D01*
X0081431Y0118136D02*
X0078068Y0118136D01*
X0078068Y0117138D02*
X0081431Y0117138D01*
X0081993Y0116139D02*
X0077507Y0116139D01*
X0078068Y0115141D02*
X0081431Y0115141D01*
X0081431Y0114142D02*
X0078068Y0114142D01*
X0078068Y0113144D02*
X0081431Y0113144D01*
X0081359Y0112145D02*
X0078068Y0112145D01*
X0078068Y0111147D02*
X0079025Y0111147D01*
X0078027Y0110148D02*
X0077881Y0110148D01*
X0077800Y0109150D02*
X0077557Y0109150D01*
X0074746Y0107153D02*
X0041939Y0107153D01*
X0042937Y0106154D02*
X0073033Y0106154D01*
X0072034Y0105156D02*
X0043428Y0105156D01*
X0043800Y0104157D02*
X0071800Y0104157D01*
X0071800Y0103159D02*
X0043800Y0103159D01*
X0043722Y0102160D02*
X0072325Y0102160D01*
X0072581Y0101162D02*
X0043308Y0101162D01*
X0042648Y0100163D02*
X0072581Y0100163D01*
X0072581Y0099165D02*
X0041552Y0099165D01*
X0040050Y0098166D02*
X0072581Y0098166D01*
X0072581Y0097168D02*
X0039052Y0097168D01*
X0038053Y0096169D02*
X0072581Y0096169D01*
X0072581Y0095171D02*
X0037054Y0095171D01*
X0035842Y0091177D02*
X0124721Y0091177D01*
X0125956Y0091177D02*
X0127326Y0091177D01*
X0126955Y0092175D02*
X0127943Y0092175D01*
X0127953Y0093174D02*
X0126945Y0093174D01*
X0127316Y0094172D02*
X0125946Y0094172D01*
X0126317Y0095171D02*
X0109419Y0095171D01*
X0109419Y0094991D02*
X0108775Y0094347D01*
X0106493Y0094347D01*
X0106354Y0094486D01*
X0106215Y0094347D01*
X0103934Y0094347D01*
X0103795Y0094486D01*
X0103656Y0094347D01*
X0101375Y0094347D01*
X0101236Y0094486D01*
X0101097Y0094347D01*
X0098816Y0094347D01*
X0098677Y0094486D01*
X0098538Y0094347D01*
X0096257Y0094347D01*
X0096118Y0094486D01*
X0095979Y0094347D01*
X0093698Y0094347D01*
X0093559Y0094486D01*
X0093420Y0094347D01*
X0091427Y0094347D01*
X0091327Y0094247D01*
X0090984Y0094049D01*
X0090603Y0093947D01*
X0089721Y0093947D01*
X0089721Y0098197D01*
X0089720Y0098197D01*
X0089721Y0098197D01*
X0089721Y0102447D01*
X0090603Y0102447D01*
X0090984Y0102345D01*
X0091327Y0102147D01*
X0091427Y0102047D01*
X0093420Y0102047D01*
X0093559Y0101908D01*
X0093698Y0102047D01*
X0095979Y0102047D01*
X0096118Y0101908D01*
X0096257Y0102047D01*
X0098538Y0102047D01*
X0098677Y0101908D01*
X0098816Y0102047D01*
X0101097Y0102047D01*
X0101236Y0101908D01*
X0101375Y0102047D01*
X0103656Y0102047D01*
X0103795Y0101908D01*
X0103934Y0102047D01*
X0106215Y0102047D01*
X0106354Y0101908D01*
X0106493Y0102047D01*
X0108775Y0102047D01*
X0109419Y0101402D01*
X0109419Y0094991D01*
X0109419Y0096169D02*
X0126450Y0096169D01*
X0124453Y0094172D02*
X0091198Y0094172D01*
X0089721Y0094172D02*
X0089720Y0094172D01*
X0089720Y0095171D02*
X0089721Y0095171D01*
X0089720Y0096169D02*
X0089721Y0096169D01*
X0089720Y0097168D02*
X0089721Y0097168D01*
X0089720Y0098166D02*
X0089721Y0098166D01*
X0089720Y0099165D02*
X0089721Y0099165D01*
X0089720Y0100163D02*
X0089721Y0100163D01*
X0089720Y0101162D02*
X0089721Y0101162D01*
X0089720Y0102160D02*
X0089721Y0102160D01*
X0091304Y0102160D02*
X0112539Y0102160D01*
X0112882Y0102503D02*
X0111300Y0100922D01*
X0111300Y0098685D01*
X0112882Y0097103D01*
X0115118Y0097103D01*
X0116700Y0098685D01*
X0116700Y0100922D01*
X0115118Y0102503D01*
X0112882Y0102503D01*
X0111540Y0101162D02*
X0109419Y0101162D01*
X0109419Y0100163D02*
X0111300Y0100163D01*
X0111300Y0099165D02*
X0109419Y0099165D01*
X0109419Y0098166D02*
X0111819Y0098166D01*
X0112817Y0097168D02*
X0109419Y0097168D01*
X0115183Y0097168D02*
X0130817Y0097168D01*
X0130800Y0098166D02*
X0116181Y0098166D01*
X0116700Y0099165D02*
X0130800Y0099165D01*
X0131542Y0100163D02*
X0116700Y0100163D01*
X0116460Y0101162D02*
X0131600Y0101162D01*
X0131600Y0102160D02*
X0115461Y0102160D01*
X0117931Y0107153D02*
X0082668Y0107153D01*
X0082533Y0106154D02*
X0081670Y0106154D01*
X0086467Y0106154D02*
X0131600Y0106154D01*
X0131600Y0105156D02*
X0087200Y0105156D01*
X0087200Y0104157D02*
X0131600Y0104157D01*
X0131600Y0103159D02*
X0087174Y0103159D01*
X0088137Y0102160D02*
X0086200Y0102160D01*
X0095684Y0113144D02*
X0096316Y0113144D01*
X0096081Y0114142D02*
X0095919Y0114142D01*
X0095919Y0115141D02*
X0096081Y0115141D01*
X0096081Y0116139D02*
X0095919Y0116139D01*
X0098419Y0119135D02*
X0101764Y0119135D01*
X0102612Y0118136D02*
X0102763Y0118136D01*
X0102800Y0117138D02*
X0102612Y0117138D01*
X0102612Y0116139D02*
X0102800Y0116139D01*
X0102800Y0115141D02*
X0102612Y0115141D01*
X0102612Y0114142D02*
X0102800Y0114142D01*
X0102800Y0113144D02*
X0102377Y0113144D01*
X0100766Y0120133D02*
X0097700Y0120133D01*
X0098647Y0121132D02*
X0099767Y0121132D01*
X0098769Y0122130D02*
X0098700Y0122130D01*
X0094777Y0128122D02*
X0092300Y0128122D01*
X0092300Y0129120D02*
X0093779Y0129120D01*
X0092780Y0130119D02*
X0092300Y0130119D01*
X0088900Y0126125D02*
X0088140Y0126125D01*
X0086500Y0128303D02*
X0087400Y0129203D01*
X0087400Y0137603D01*
X0084300Y0137603D02*
X0084300Y0134603D01*
X0081100Y0134903D02*
X0081100Y0137603D01*
X0081100Y0134903D02*
X0075000Y0128803D01*
X0075000Y0119650D01*
X0078068Y0121132D02*
X0080755Y0121132D01*
X0080400Y0122130D02*
X0078068Y0122130D01*
X0076600Y0123129D02*
X0080400Y0123129D01*
X0080400Y0124127D02*
X0076600Y0124127D01*
X0076600Y0125126D02*
X0080400Y0125126D01*
X0080400Y0126125D02*
X0076600Y0126125D01*
X0076600Y0127123D02*
X0080400Y0127123D01*
X0080400Y0128122D02*
X0076600Y0128122D01*
X0077580Y0129120D02*
X0080400Y0129120D01*
X0080400Y0130119D02*
X0078578Y0130119D01*
X0079577Y0131117D02*
X0080400Y0131117D01*
X0076800Y0142101D02*
X0101200Y0142101D01*
X0101200Y0143099D02*
X0076800Y0143099D01*
X0076800Y0144098D02*
X0101200Y0144098D01*
X0101200Y0145096D02*
X0076800Y0145096D01*
X0076800Y0146095D02*
X0101200Y0146095D01*
X0101200Y0147093D02*
X0076811Y0147093D01*
X0077200Y0148092D02*
X0101200Y0148092D01*
X0101200Y0149090D02*
X0077200Y0149090D01*
X0077200Y0150089D02*
X0101200Y0150089D01*
X0100800Y0151087D02*
X0077688Y0151087D01*
X0078687Y0152086D02*
X0100800Y0152086D01*
X0100800Y0153084D02*
X0079685Y0153084D01*
X0080684Y0154083D02*
X0101076Y0154083D01*
X0101200Y0155081D02*
X0080700Y0155081D01*
X0080700Y0156080D02*
X0101200Y0156080D01*
X0101200Y0157078D02*
X0080700Y0157078D01*
X0080700Y0158077D02*
X0101200Y0158077D01*
X0101200Y0159075D02*
X0081676Y0159075D01*
X0068800Y0159075D02*
X0068176Y0159075D01*
X0068800Y0158077D02*
X0067178Y0158077D01*
X0068558Y0157078D02*
X0063904Y0157078D01*
X0063000Y0158579D02*
X0059000Y0158579D01*
X0055000Y0158579D01*
X0053870Y0164068D02*
X0040813Y0164068D01*
X0041838Y0165066D02*
X0054525Y0165066D01*
X0055290Y0166065D02*
X0042863Y0166065D01*
X0043887Y0167063D02*
X0047921Y0167063D01*
X0046923Y0168062D02*
X0044912Y0168062D01*
X0045937Y0169060D02*
X0046800Y0169060D01*
X0044139Y0172056D02*
X0033065Y0172056D01*
X0034064Y0171058D02*
X0043115Y0171058D01*
X0042090Y0170059D02*
X0034200Y0170059D01*
X0034200Y0169060D02*
X0041065Y0169060D01*
X0040040Y0168062D02*
X0033577Y0168062D01*
X0032488Y0167063D02*
X0039015Y0167063D01*
X0037991Y0166065D02*
X0032205Y0166065D01*
X0031921Y0165066D02*
X0036966Y0165066D01*
X0035941Y0164068D02*
X0031637Y0164068D01*
X0031353Y0163069D02*
X0034916Y0163069D01*
X0033891Y0162071D02*
X0031069Y0162071D01*
X0030785Y0161072D02*
X0032770Y0161072D01*
X0032303Y0160074D02*
X0030501Y0160074D01*
X0030217Y0159075D02*
X0032005Y0159075D01*
X0031703Y0158077D02*
X0029933Y0158077D01*
X0029650Y0157078D02*
X0031402Y0157078D01*
X0031100Y0156080D02*
X0029366Y0156080D01*
X0029082Y0155081D02*
X0030799Y0155081D01*
X0030497Y0154083D02*
X0028798Y0154083D01*
X0028514Y0153084D02*
X0030196Y0153084D01*
X0029894Y0152086D02*
X0028230Y0152086D01*
X0027946Y0151087D02*
X0029593Y0151087D01*
X0029292Y0150089D02*
X0027662Y0150089D01*
X0027378Y0149090D02*
X0028990Y0149090D01*
X0028689Y0148092D02*
X0027095Y0148092D01*
X0026811Y0147093D02*
X0028387Y0147093D01*
X0028086Y0146095D02*
X0026527Y0146095D01*
X0026243Y0145096D02*
X0027784Y0145096D01*
X0027483Y0144098D02*
X0025959Y0144098D01*
X0025675Y0143099D02*
X0027182Y0143099D01*
X0026880Y0142101D02*
X0025391Y0142101D01*
X0025107Y0141102D02*
X0026579Y0141102D01*
X0026277Y0140104D02*
X0024823Y0140104D01*
X0024539Y0139105D02*
X0025976Y0139105D01*
X0025674Y0138107D02*
X0024256Y0138107D01*
X0023972Y0137108D02*
X0025373Y0137108D01*
X0025071Y0136110D02*
X0023688Y0136110D01*
X0023404Y0135111D02*
X0023990Y0135111D01*
X0023300Y0134113D02*
X0023120Y0134113D01*
X0023300Y0133114D02*
X0022836Y0133114D01*
X0022552Y0132116D02*
X0023369Y0132116D01*
X0019301Y0133114D02*
X0016191Y0133114D01*
X0016119Y0132116D02*
X0019018Y0132116D01*
X0018734Y0131117D02*
X0016048Y0131117D01*
X0015977Y0130119D02*
X0018450Y0130119D01*
X0018166Y0129120D02*
X0015906Y0129120D01*
X0015834Y0128122D02*
X0017882Y0128122D01*
X0017598Y0127123D02*
X0015763Y0127123D01*
X0015692Y0126125D02*
X0017314Y0126125D01*
X0017030Y0125126D02*
X0015620Y0125126D01*
X0015549Y0124127D02*
X0016746Y0124127D01*
X0016463Y0123129D02*
X0015478Y0123129D01*
X0015406Y0122130D02*
X0016179Y0122130D01*
X0015895Y0121132D02*
X0015335Y0121132D01*
X0015264Y0120133D02*
X0015611Y0120133D01*
X0015431Y0119502D02*
X0015191Y0119120D01*
X0016542Y0138026D01*
X0017700Y0139185D01*
X0017700Y0141422D01*
X0016118Y0143003D01*
X0013882Y0143003D01*
X0012300Y0141422D01*
X0012300Y0139185D01*
X0013155Y0138330D01*
X0009958Y0093580D01*
X0008800Y0092422D01*
X0008800Y0090185D01*
X0009600Y0089385D01*
X0009600Y0087516D01*
X0010713Y0086403D01*
X0012713Y0084403D01*
X0024895Y0084403D01*
X0015691Y0078503D01*
X0013882Y0078503D01*
X0012300Y0076922D01*
X0012300Y0076118D01*
X0011088Y0079246D01*
X0008160Y0090888D01*
X0006685Y0102801D01*
X0006685Y0114805D01*
X0008160Y0126719D01*
X0011088Y0138361D01*
X0015425Y0149554D01*
X0021104Y0160130D01*
X0028040Y0169928D01*
X0028800Y0170762D01*
X0028800Y0168685D01*
X0029279Y0168206D01*
X0015431Y0119502D01*
X0015201Y0119135D02*
X0015192Y0119135D01*
X0019123Y0117138D02*
X0035481Y0117138D01*
X0034633Y0116139D02*
X0019351Y0116139D01*
X0019579Y0115141D02*
X0034130Y0115141D01*
X0038500Y0112145D02*
X0039500Y0112145D01*
X0039500Y0111147D02*
X0038500Y0111147D01*
X0038500Y0110148D02*
X0039500Y0110148D01*
X0039500Y0109150D02*
X0038500Y0109150D01*
X0038500Y0108151D02*
X0039500Y0108151D01*
X0039713Y0108151D02*
X0073748Y0108151D01*
X0073300Y0109150D02*
X0042130Y0109150D01*
X0043135Y0110148D02*
X0072119Y0110148D01*
X0071931Y0111147D02*
X0043737Y0111147D01*
X0044081Y0112145D02*
X0071931Y0112145D01*
X0102100Y0140104D02*
X0115077Y0140104D01*
X0115077Y0141102D02*
X0108955Y0141102D01*
X0109200Y0142101D02*
X0115077Y0142101D01*
X0115077Y0143099D02*
X0109200Y0143099D01*
X0109200Y0144098D02*
X0115077Y0144098D01*
X0115077Y0145096D02*
X0109200Y0145096D01*
X0109200Y0146095D02*
X0115432Y0146095D01*
X0109200Y0147093D02*
X0123806Y0147093D01*
X0122807Y0148092D02*
X0109200Y0148092D01*
X0109200Y0149090D02*
X0121809Y0149090D01*
X0120810Y0150089D02*
X0109200Y0150089D01*
X0109600Y0151087D02*
X0119812Y0151087D01*
X0118813Y0152086D02*
X0109600Y0152086D01*
X0109600Y0153084D02*
X0117815Y0153084D01*
X0116816Y0154083D02*
X0109324Y0154083D01*
X0109200Y0155081D02*
X0115818Y0155081D01*
X0114819Y0156080D02*
X0109200Y0156080D01*
X0109200Y0157078D02*
X0113821Y0157078D01*
X0112822Y0158077D02*
X0109200Y0158077D01*
X0109200Y0159075D02*
X0111824Y0159075D01*
X0110825Y0160074D02*
X0109085Y0160074D01*
X0112638Y0163069D02*
X0120453Y0163069D01*
X0120456Y0163086D02*
X0120340Y0162355D01*
X0120340Y0161615D01*
X0120456Y0160885D01*
X0120684Y0160181D01*
X0121020Y0159522D01*
X0121445Y0158936D01*
X0124494Y0161985D01*
X0125040Y0161439D01*
X0125586Y0161985D01*
X0128634Y0158936D01*
X0129060Y0159522D01*
X0129395Y0160181D01*
X0129624Y0160885D01*
X0129740Y0161615D01*
X0129740Y0162355D01*
X0129624Y0163086D01*
X0129395Y0163789D01*
X0129060Y0164448D01*
X0128634Y0165034D01*
X0125586Y0161985D01*
X0125040Y0162531D01*
X0128089Y0165580D01*
X0127503Y0166005D01*
X0126844Y0166341D01*
X0126140Y0166569D01*
X0125410Y0166685D01*
X0124670Y0166685D01*
X0123939Y0166569D01*
X0123236Y0166341D01*
X0122577Y0166005D01*
X0121991Y0165580D01*
X0125040Y0162531D01*
X0124494Y0161985D01*
X0121445Y0165034D01*
X0121020Y0164448D01*
X0120684Y0163789D01*
X0120456Y0163086D01*
X0120340Y0162071D02*
X0113636Y0162071D01*
X0114635Y0161072D02*
X0120426Y0161072D01*
X0120739Y0160074D02*
X0115633Y0160074D01*
X0116632Y0159075D02*
X0121344Y0159075D01*
X0121584Y0159075D02*
X0122676Y0159075D01*
X0121991Y0158391D02*
X0122577Y0157965D01*
X0123236Y0157629D01*
X0123939Y0157401D01*
X0124670Y0157285D01*
X0125410Y0157285D01*
X0126140Y0157401D01*
X0126844Y0157629D01*
X0127503Y0157965D01*
X0128089Y0158391D01*
X0125040Y0161439D01*
X0121991Y0158391D01*
X0122423Y0158077D02*
X0117630Y0158077D01*
X0118629Y0157078D02*
X0128767Y0157078D01*
X0128518Y0156476D02*
X0128518Y0154766D01*
X0129173Y0153185D01*
X0130382Y0151976D01*
X0131963Y0151321D01*
X0133673Y0151321D01*
X0135254Y0151976D01*
X0136463Y0153185D01*
X0137118Y0154766D01*
X0137118Y0156476D01*
X0136463Y0158057D01*
X0135254Y0159267D01*
X0133673Y0159921D01*
X0131963Y0159921D01*
X0130382Y0159267D01*
X0129173Y0158057D01*
X0128518Y0156476D01*
X0128518Y0156080D02*
X0119627Y0156080D01*
X0120626Y0155081D02*
X0128518Y0155081D01*
X0128801Y0154083D02*
X0121624Y0154083D01*
X0122623Y0153084D02*
X0129274Y0153084D01*
X0130272Y0152086D02*
X0123621Y0152086D01*
X0124620Y0151087D02*
X0136345Y0151087D01*
X0135458Y0150089D02*
X0125619Y0150089D01*
X0121041Y0146095D02*
X0120959Y0146095D01*
X0120959Y0145096D02*
X0121041Y0145096D01*
X0121041Y0144098D02*
X0120959Y0144098D01*
X0120959Y0143099D02*
X0121041Y0143099D01*
X0132218Y0131117D02*
X0172910Y0131117D01*
X0173908Y0132116D02*
X0133217Y0132116D01*
X0134215Y0133114D02*
X0174907Y0133114D01*
X0175721Y0129120D02*
X0191279Y0129120D01*
X0192277Y0128122D02*
X0186500Y0128122D01*
X0187498Y0127123D02*
X0193276Y0127123D01*
X0194274Y0126125D02*
X0187700Y0126125D01*
X0187700Y0125126D02*
X0194800Y0125126D01*
X0194857Y0124127D02*
X0187143Y0124127D01*
X0186144Y0123129D02*
X0195856Y0123129D01*
X0183500Y0128122D02*
X0174723Y0128122D01*
X0173724Y0127123D02*
X0182502Y0127123D01*
X0182300Y0126125D02*
X0173200Y0126125D01*
X0173141Y0125126D02*
X0181919Y0125126D01*
X0180920Y0124127D02*
X0172143Y0124127D01*
X0170913Y0129120D02*
X0142176Y0129120D01*
X0142971Y0128122D02*
X0168500Y0128122D01*
X0171911Y0130119D02*
X0131220Y0130119D01*
X0129388Y0124127D02*
X0108580Y0124127D01*
X0109578Y0123129D02*
X0129638Y0123129D01*
X0129300Y0122130D02*
X0110577Y0122130D01*
X0110700Y0121132D02*
X0129300Y0121132D01*
X0129300Y0120133D02*
X0110988Y0120133D01*
X0111700Y0119135D02*
X0117773Y0119135D01*
X0117531Y0118136D02*
X0111700Y0118136D01*
X0111653Y0117138D02*
X0117531Y0117138D01*
X0120516Y0117138D02*
X0121484Y0117138D01*
X0121484Y0116634D02*
X0121484Y0119815D01*
X0123166Y0119815D01*
X0123547Y0119713D01*
X0123890Y0119515D01*
X0124169Y0119236D01*
X0124366Y0118894D01*
X0124468Y0118512D01*
X0124468Y0116634D01*
X0121484Y0116634D01*
X0121484Y0116139D02*
X0127419Y0116139D01*
X0127419Y0115141D02*
X0124468Y0115141D01*
X0124468Y0114142D02*
X0137272Y0114142D01*
X0137256Y0113144D02*
X0124215Y0113144D01*
X0124001Y0112145D02*
X0137256Y0112145D01*
X0137357Y0111147D02*
X0133798Y0111147D01*
X0134344Y0110148D02*
X0137656Y0110148D01*
X0137656Y0109150D02*
X0134840Y0109150D01*
X0135400Y0108151D02*
X0137656Y0108151D01*
X0138028Y0107153D02*
X0135400Y0107153D01*
X0127791Y0107153D02*
X0124068Y0107153D01*
X0124068Y0111147D02*
X0127965Y0111147D01*
X0127419Y0117138D02*
X0124468Y0117138D01*
X0124468Y0118136D02*
X0127474Y0118136D01*
X0129300Y0119135D02*
X0124227Y0119135D01*
X0121484Y0119135D02*
X0120516Y0119135D01*
X0120516Y0118136D02*
X0121484Y0118136D01*
X0120516Y0116139D02*
X0110655Y0116139D01*
X0108337Y0127123D02*
X0107663Y0127123D01*
X0107919Y0128122D02*
X0108081Y0128122D01*
X0108081Y0129120D02*
X0107919Y0129120D01*
X0107919Y0130119D02*
X0108081Y0130119D01*
X0108081Y0131117D02*
X0107919Y0131117D01*
X0107919Y0132116D02*
X0108081Y0132116D01*
X0132733Y0121132D02*
X0134300Y0121132D01*
X0134300Y0120133D02*
X0132700Y0120133D01*
X0132700Y0119135D02*
X0134850Y0119135D01*
X0134289Y0118136D02*
X0135848Y0118136D01*
X0134344Y0117138D02*
X0137656Y0117138D01*
X0137656Y0116139D02*
X0134344Y0116139D01*
X0134344Y0115141D02*
X0137656Y0115141D01*
X0134509Y0122130D02*
X0133731Y0122130D01*
X0138862Y0123129D02*
X0139831Y0123129D01*
X0139831Y0124127D02*
X0138862Y0124127D01*
X0138862Y0125126D02*
X0139831Y0125126D01*
X0139208Y0138107D02*
X0191878Y0138107D01*
X0190880Y0139105D02*
X0140206Y0139105D01*
X0140700Y0140104D02*
X0190800Y0140104D01*
X0190323Y0141102D02*
X0140700Y0141102D01*
X0140700Y0142101D02*
X0189338Y0142101D01*
X0188352Y0143099D02*
X0140700Y0143099D01*
X0141377Y0144098D02*
X0187367Y0144098D01*
X0186382Y0145096D02*
X0142516Y0145096D01*
X0143112Y0146095D02*
X0185396Y0146095D01*
X0184411Y0147093D02*
X0143482Y0147093D01*
X0143482Y0148092D02*
X0183425Y0148092D01*
X0182440Y0149090D02*
X0143320Y0149090D01*
X0142906Y0150089D02*
X0181455Y0150089D01*
X0180469Y0151087D02*
X0142019Y0151087D01*
X0140175Y0152086D02*
X0144414Y0152086D01*
X0143416Y0153084D02*
X0136362Y0153084D01*
X0136835Y0154083D02*
X0142943Y0154083D01*
X0142660Y0155081D02*
X0137118Y0155081D01*
X0137118Y0156080D02*
X0142660Y0156080D01*
X0142909Y0157078D02*
X0136869Y0157078D01*
X0136443Y0158077D02*
X0137381Y0158077D01*
X0136011Y0159075D02*
X0135445Y0159075D01*
X0135319Y0160074D02*
X0129341Y0160074D01*
X0129654Y0161072D02*
X0134906Y0161072D01*
X0134882Y0162071D02*
X0129740Y0162071D01*
X0129627Y0163069D02*
X0134977Y0163069D01*
X0135390Y0164068D02*
X0129254Y0164068D01*
X0127668Y0164068D02*
X0126577Y0164068D01*
X0126670Y0163069D02*
X0125578Y0163069D01*
X0125500Y0162071D02*
X0125671Y0162071D01*
X0125407Y0161072D02*
X0126498Y0161072D01*
X0126405Y0160074D02*
X0127497Y0160074D01*
X0127404Y0159075D02*
X0128495Y0159075D01*
X0128735Y0159075D02*
X0130191Y0159075D01*
X0129193Y0158077D02*
X0127657Y0158077D01*
X0124673Y0161072D02*
X0123581Y0161072D01*
X0123674Y0160074D02*
X0122583Y0160074D01*
X0124408Y0162071D02*
X0124580Y0162071D01*
X0124501Y0163069D02*
X0123410Y0163069D01*
X0123503Y0164068D02*
X0122411Y0164068D01*
X0122504Y0165066D02*
X0113167Y0165066D01*
X0112169Y0164068D02*
X0120826Y0164068D01*
X0122694Y0166065D02*
X0114166Y0166065D01*
X0115164Y0167063D02*
X0129437Y0167063D01*
X0128868Y0168062D02*
X0116163Y0168062D01*
X0117162Y0169060D02*
X0128518Y0169060D01*
X0128518Y0170059D02*
X0118160Y0170059D01*
X0119159Y0171058D02*
X0128700Y0171058D01*
X0129113Y0172056D02*
X0120157Y0172056D01*
X0121156Y0173055D02*
X0130028Y0173055D01*
X0130510Y0166065D02*
X0127385Y0166065D01*
X0127575Y0165066D02*
X0136182Y0165066D01*
X0135126Y0166065D02*
X0137482Y0166065D01*
X0137482Y0167063D02*
X0136199Y0167063D01*
X0136768Y0168062D02*
X0137482Y0168062D01*
X0137482Y0169060D02*
X0137118Y0169060D01*
X0137118Y0170059D02*
X0137482Y0170059D01*
X0137341Y0171058D02*
X0136936Y0171058D01*
X0140882Y0171058D02*
X0141341Y0171058D01*
X0140882Y0170059D02*
X0142340Y0170059D01*
X0143338Y0169060D02*
X0140882Y0169060D01*
X0140882Y0168062D02*
X0144337Y0168062D01*
X0145260Y0167063D02*
X0140882Y0167063D01*
X0140882Y0166065D02*
X0145260Y0166065D01*
X0145260Y0165066D02*
X0142182Y0165066D01*
X0142974Y0164068D02*
X0145260Y0164068D01*
X0145260Y0163069D02*
X0143387Y0163069D01*
X0143482Y0162071D02*
X0145260Y0162071D01*
X0145260Y0161072D02*
X0143458Y0161072D01*
X0143045Y0160074D02*
X0145260Y0160074D01*
X0144333Y0159075D02*
X0142353Y0159075D01*
X0143335Y0158077D02*
X0140983Y0158077D01*
X0138189Y0152086D02*
X0135364Y0152086D01*
X0149506Y0152086D02*
X0157399Y0152086D01*
X0156800Y0152685D02*
X0158382Y0151103D01*
X0160618Y0151103D01*
X0162200Y0152685D01*
X0162200Y0154922D01*
X0161200Y0155922D01*
X0161200Y0158099D01*
X0162704Y0159603D01*
X0164118Y0159603D01*
X0165700Y0161185D01*
X0165700Y0163422D01*
X0164118Y0165003D01*
X0161882Y0165003D01*
X0160300Y0163422D01*
X0160300Y0162007D01*
X0157800Y0159507D01*
X0157800Y0155922D01*
X0156800Y0154922D01*
X0156800Y0152685D01*
X0156800Y0153084D02*
X0150504Y0153084D01*
X0150977Y0154083D02*
X0156800Y0154083D01*
X0156960Y0155081D02*
X0151260Y0155081D01*
X0151260Y0156080D02*
X0157800Y0156080D01*
X0157800Y0157078D02*
X0151011Y0157078D01*
X0150586Y0158077D02*
X0157800Y0158077D01*
X0157800Y0159075D02*
X0149587Y0159075D01*
X0148660Y0160074D02*
X0158367Y0160074D01*
X0159365Y0161072D02*
X0148660Y0161072D01*
X0148660Y0162071D02*
X0160300Y0162071D01*
X0160300Y0163069D02*
X0148660Y0163069D01*
X0148660Y0164068D02*
X0160946Y0164068D01*
X0164703Y0167063D02*
X0148660Y0167063D01*
X0148660Y0166065D02*
X0165689Y0166065D01*
X0166674Y0165066D02*
X0148660Y0165066D01*
X0148660Y0168062D02*
X0163718Y0168062D01*
X0162733Y0169060D02*
X0148147Y0169060D01*
X0147148Y0170059D02*
X0161747Y0170059D01*
X0160762Y0171058D02*
X0146150Y0171058D01*
X0145151Y0172056D02*
X0159777Y0172056D01*
X0158791Y0173055D02*
X0144153Y0173055D01*
X0143154Y0174053D02*
X0157806Y0174053D01*
X0156820Y0175052D02*
X0142156Y0175052D01*
X0141157Y0176050D02*
X0155835Y0176050D01*
X0154273Y0177049D02*
X0140159Y0177049D01*
X0119617Y0192026D02*
X0109164Y0192026D01*
X0112692Y0193025D02*
X0116222Y0193025D01*
X0103338Y0179046D02*
X0099076Y0179046D01*
X0099700Y0178047D02*
X0102340Y0178047D01*
X0101341Y0177049D02*
X0099700Y0177049D01*
X0099565Y0176050D02*
X0100343Y0176050D01*
X0099344Y0175052D02*
X0098600Y0175052D01*
X0095200Y0175052D02*
X0082800Y0175052D01*
X0082800Y0176050D02*
X0094435Y0176050D01*
X0094300Y0177049D02*
X0083781Y0177049D01*
X0084068Y0178047D02*
X0094300Y0178047D01*
X0094924Y0179046D02*
X0084068Y0179046D01*
X0082800Y0174053D02*
X0095200Y0174053D01*
X0089623Y0190029D02*
X0089592Y0190029D01*
X0066364Y0162071D02*
X0063910Y0162071D01*
X0062713Y0161072D02*
X0065365Y0161072D01*
X0053701Y0167063D02*
X0051079Y0167063D01*
X0045164Y0173055D02*
X0030890Y0173055D01*
X0028800Y0170059D02*
X0028159Y0170059D01*
X0028800Y0169060D02*
X0027425Y0169060D01*
X0026719Y0168062D02*
X0029238Y0168062D01*
X0028954Y0167063D02*
X0026012Y0167063D01*
X0025305Y0166065D02*
X0028670Y0166065D01*
X0028386Y0165066D02*
X0024598Y0165066D01*
X0023891Y0164068D02*
X0028102Y0164068D01*
X0027818Y0163069D02*
X0023184Y0163069D01*
X0022478Y0162071D02*
X0027534Y0162071D01*
X0027250Y0161072D02*
X0021771Y0161072D01*
X0021074Y0160074D02*
X0026966Y0160074D01*
X0026683Y0159075D02*
X0020537Y0159075D01*
X0020001Y0158077D02*
X0026399Y0158077D01*
X0026115Y0157078D02*
X0019465Y0157078D01*
X0018929Y0156080D02*
X0025831Y0156080D01*
X0025547Y0155081D02*
X0018393Y0155081D01*
X0017856Y0154083D02*
X0025263Y0154083D01*
X0024979Y0153084D02*
X0017320Y0153084D01*
X0016784Y0152086D02*
X0024695Y0152086D01*
X0024411Y0151087D02*
X0016248Y0151087D01*
X0015712Y0150089D02*
X0024128Y0150089D01*
X0023844Y0149090D02*
X0015245Y0149090D01*
X0014858Y0148092D02*
X0023560Y0148092D01*
X0023276Y0147093D02*
X0014471Y0147093D01*
X0014084Y0146095D02*
X0022992Y0146095D01*
X0022708Y0145096D02*
X0013698Y0145096D01*
X0013311Y0144098D02*
X0022424Y0144098D01*
X0022140Y0143099D02*
X0012924Y0143099D01*
X0012979Y0142101D02*
X0012537Y0142101D01*
X0012300Y0141102D02*
X0012150Y0141102D01*
X0012300Y0140104D02*
X0011763Y0140104D01*
X0011377Y0139105D02*
X0012380Y0139105D01*
X0013139Y0138107D02*
X0011024Y0138107D01*
X0010773Y0137108D02*
X0013067Y0137108D01*
X0012996Y0136110D02*
X0010522Y0136110D01*
X0010271Y0135111D02*
X0012925Y0135111D01*
X0012853Y0134113D02*
X0010020Y0134113D01*
X0009769Y0133114D02*
X0012782Y0133114D01*
X0012711Y0132116D02*
X0009517Y0132116D01*
X0009266Y0131117D02*
X0012640Y0131117D01*
X0012568Y0130119D02*
X0009015Y0130119D01*
X0008764Y0129120D02*
X0012497Y0129120D01*
X0012426Y0128122D02*
X0008513Y0128122D01*
X0008262Y0127123D02*
X0012354Y0127123D01*
X0012283Y0126125D02*
X0008087Y0126125D01*
X0007963Y0125126D02*
X0012212Y0125126D01*
X0012140Y0124127D02*
X0007839Y0124127D01*
X0007716Y0123129D02*
X0012069Y0123129D01*
X0011998Y0122130D02*
X0007592Y0122130D01*
X0007468Y0121132D02*
X0011926Y0121132D01*
X0011855Y0120133D02*
X0007345Y0120133D01*
X0007221Y0119135D02*
X0011784Y0119135D01*
X0011712Y0118136D02*
X0007097Y0118136D01*
X0006974Y0117138D02*
X0011641Y0117138D01*
X0011570Y0116139D02*
X0006850Y0116139D01*
X0006726Y0115141D02*
X0011498Y0115141D01*
X0011427Y0114142D02*
X0006685Y0114142D01*
X0006685Y0113144D02*
X0011356Y0113144D01*
X0011284Y0112145D02*
X0006685Y0112145D01*
X0006685Y0111147D02*
X0011213Y0111147D01*
X0011142Y0110148D02*
X0006685Y0110148D01*
X0006685Y0109150D02*
X0011070Y0109150D01*
X0010999Y0108151D02*
X0006685Y0108151D01*
X0006685Y0107153D02*
X0010928Y0107153D01*
X0010856Y0106154D02*
X0006685Y0106154D01*
X0006685Y0105156D02*
X0010785Y0105156D01*
X0010714Y0104157D02*
X0006685Y0104157D01*
X0006685Y0103159D02*
X0010642Y0103159D01*
X0010571Y0102160D02*
X0006764Y0102160D01*
X0006888Y0101162D02*
X0010500Y0101162D01*
X0010429Y0100163D02*
X0007012Y0100163D01*
X0007135Y0099165D02*
X0010357Y0099165D01*
X0010286Y0098166D02*
X0007259Y0098166D01*
X0007382Y0097168D02*
X0010215Y0097168D01*
X0010143Y0096169D02*
X0007506Y0096169D01*
X0007630Y0095171D02*
X0010072Y0095171D01*
X0010001Y0094172D02*
X0007753Y0094172D01*
X0007877Y0093174D02*
X0009552Y0093174D01*
X0008800Y0092175D02*
X0008001Y0092175D01*
X0008124Y0091177D02*
X0008800Y0091177D01*
X0008807Y0090178D02*
X0008339Y0090178D01*
X0008590Y0089180D02*
X0009600Y0089180D01*
X0009600Y0088181D02*
X0008841Y0088181D01*
X0009092Y0087183D02*
X0009934Y0087183D01*
X0009343Y0086184D02*
X0010932Y0086184D01*
X0011931Y0085186D02*
X0009594Y0085186D01*
X0009845Y0084187D02*
X0024558Y0084187D01*
X0023001Y0083189D02*
X0010097Y0083189D01*
X0010348Y0082190D02*
X0021443Y0082190D01*
X0019885Y0081191D02*
X0010599Y0081191D01*
X0010850Y0080193D02*
X0018327Y0080193D01*
X0016770Y0079194D02*
X0011108Y0079194D01*
X0011495Y0078196D02*
X0013574Y0078196D01*
X0012576Y0077197D02*
X0011882Y0077197D01*
X0012268Y0076199D02*
X0012300Y0076199D01*
X0025369Y0080193D02*
X0117705Y0080193D01*
X0117341Y0081191D02*
X0026927Y0081191D01*
X0028484Y0082190D02*
X0115708Y0082190D01*
X0116339Y0081559D02*
X0118449Y0083669D01*
X0116199Y0085919D01*
X0115010Y0084730D01*
X0114813Y0084388D01*
X0114711Y0084006D01*
X0114711Y0083611D01*
X0114813Y0083230D01*
X0115010Y0082888D01*
X0116339Y0081559D01*
X0116969Y0082190D02*
X0118339Y0082190D01*
X0117968Y0083189D02*
X0118930Y0083189D01*
X0118966Y0084187D02*
X0117931Y0084187D01*
X0118302Y0085186D02*
X0116933Y0085186D01*
X0117304Y0086184D02*
X0036597Y0086184D01*
X0037481Y0087183D02*
X0117463Y0087183D01*
X0115466Y0085186D02*
X0033157Y0085186D01*
X0031600Y0084187D02*
X0114759Y0084187D01*
X0114837Y0083189D02*
X0030042Y0083189D01*
X0037481Y0088181D02*
X0128843Y0088181D01*
X0129281Y0087183D02*
X0120526Y0087183D01*
X0120963Y0086184D02*
X0128427Y0086184D01*
X0127428Y0085186D02*
X0122523Y0085186D01*
X0121335Y0085186D02*
X0119965Y0085186D01*
X0120336Y0084187D02*
X0119301Y0084187D01*
X0123410Y0084187D02*
X0126430Y0084187D01*
X0125431Y0083189D02*
X0123518Y0083189D01*
X0127809Y0080193D02*
X0166259Y0080193D01*
X0166271Y0081191D02*
X0128808Y0081191D01*
X0129806Y0082190D02*
X0165795Y0082190D01*
X0165300Y0083189D02*
X0130805Y0083189D01*
X0131803Y0084187D02*
X0132277Y0084187D01*
X0133734Y0084187D02*
X0165300Y0084187D01*
X0165564Y0085186D02*
X0134733Y0085186D01*
X0135731Y0086184D02*
X0166563Y0086184D01*
X0169437Y0086184D02*
X0171715Y0086184D01*
X0172713Y0085186D02*
X0170436Y0085186D01*
X0170700Y0084187D02*
X0173712Y0084187D01*
X0174300Y0083189D02*
X0170700Y0083189D01*
X0170205Y0082190D02*
X0174300Y0082190D01*
X0174300Y0081191D02*
X0169671Y0081191D01*
X0169660Y0080193D02*
X0174300Y0080193D01*
X0174300Y0079194D02*
X0169648Y0079194D01*
X0169637Y0078196D02*
X0174300Y0078196D01*
X0174300Y0077197D02*
X0169626Y0077197D01*
X0169615Y0076199D02*
X0174300Y0076199D01*
X0174300Y0075200D02*
X0169603Y0075200D01*
X0169592Y0074202D02*
X0174300Y0074202D01*
X0174300Y0073203D02*
X0169581Y0073203D01*
X0169570Y0072205D02*
X0174300Y0072205D01*
X0174300Y0071206D02*
X0169559Y0071206D01*
X0169547Y0070208D02*
X0174300Y0070208D01*
X0174300Y0069209D02*
X0169536Y0069209D01*
X0169525Y0068211D02*
X0174300Y0068211D01*
X0174300Y0067212D02*
X0169514Y0067212D01*
X0169502Y0066214D02*
X0174300Y0066214D01*
X0174300Y0065215D02*
X0169491Y0065215D01*
X0169480Y0064217D02*
X0174300Y0064217D01*
X0174300Y0063218D02*
X0169469Y0063218D01*
X0169458Y0062220D02*
X0174300Y0062220D01*
X0174300Y0061221D02*
X0169446Y0061221D01*
X0169435Y0060223D02*
X0174300Y0060223D01*
X0174300Y0059224D02*
X0169424Y0059224D01*
X0169413Y0058226D02*
X0174300Y0058226D01*
X0174300Y0057227D02*
X0169401Y0057227D01*
X0169390Y0056229D02*
X0174300Y0056229D01*
X0174300Y0055230D02*
X0169379Y0055230D01*
X0169368Y0054232D02*
X0174300Y0054232D01*
X0174300Y0053233D02*
X0169357Y0053233D01*
X0169345Y0052235D02*
X0174300Y0052235D01*
X0174300Y0051236D02*
X0169334Y0051236D01*
X0169323Y0050238D02*
X0174300Y0050238D01*
X0174118Y0049239D02*
X0169312Y0049239D01*
X0169301Y0048241D02*
X0173300Y0048241D01*
X0173300Y0047242D02*
X0169289Y0047242D01*
X0169278Y0046244D02*
X0173300Y0046244D01*
X0174240Y0045245D02*
X0169267Y0045245D01*
X0169256Y0044247D02*
X0176962Y0044247D01*
X0177760Y0045245D02*
X0177765Y0045245D01*
X0178700Y0047242D02*
X0179372Y0047242D01*
X0178700Y0048241D02*
X0180176Y0048241D01*
X0180979Y0049239D02*
X0177882Y0049239D01*
X0177700Y0050238D02*
X0181783Y0050238D01*
X0182586Y0051236D02*
X0177700Y0051236D01*
X0177700Y0052235D02*
X0183390Y0052235D01*
X0184052Y0053233D02*
X0177700Y0053233D01*
X0177700Y0054232D02*
X0184670Y0054232D01*
X0185288Y0055230D02*
X0177700Y0055230D01*
X0177700Y0056229D02*
X0185906Y0056229D01*
X0186525Y0057227D02*
X0177700Y0057227D01*
X0177700Y0058226D02*
X0187143Y0058226D01*
X0187761Y0059224D02*
X0177700Y0059224D01*
X0177700Y0060223D02*
X0188379Y0060223D01*
X0188998Y0061221D02*
X0177700Y0061221D01*
X0177700Y0062220D02*
X0189616Y0062220D01*
X0190148Y0063218D02*
X0177700Y0063218D01*
X0177700Y0064217D02*
X0190607Y0064217D01*
X0191067Y0065215D02*
X0177700Y0065215D01*
X0177700Y0066214D02*
X0191526Y0066214D01*
X0191985Y0067212D02*
X0177700Y0067212D01*
X0177700Y0068211D02*
X0192445Y0068211D01*
X0192904Y0069209D02*
X0177700Y0069209D01*
X0177700Y0070208D02*
X0193364Y0070208D01*
X0193823Y0071206D02*
X0177700Y0071206D01*
X0177700Y0072205D02*
X0194282Y0072205D01*
X0194742Y0073203D02*
X0177700Y0073203D01*
X0177700Y0074202D02*
X0195113Y0074202D01*
X0195431Y0075200D02*
X0177700Y0075200D01*
X0177700Y0076199D02*
X0195749Y0076199D01*
X0196066Y0077197D02*
X0177700Y0077197D01*
X0177700Y0078196D02*
X0196384Y0078196D01*
X0196701Y0079194D02*
X0177700Y0079194D01*
X0177700Y0080193D02*
X0197019Y0080193D01*
X0197337Y0081191D02*
X0177700Y0081191D01*
X0177700Y0082190D02*
X0197654Y0082190D01*
X0197972Y0083189D02*
X0177700Y0083189D01*
X0177700Y0084187D02*
X0198290Y0084187D01*
X0198586Y0085186D02*
X0177522Y0085186D01*
X0176523Y0086184D02*
X0198773Y0086184D01*
X0198959Y0087183D02*
X0175525Y0087183D01*
X0170716Y0087183D02*
X0136730Y0087183D01*
X0136889Y0088181D02*
X0169718Y0088181D01*
X0169300Y0089180D02*
X0135963Y0089180D01*
X0135400Y0090178D02*
X0169300Y0090178D01*
X0169300Y0091177D02*
X0135400Y0091177D01*
X0135400Y0092175D02*
X0169300Y0092175D01*
X0169300Y0093174D02*
X0135400Y0093174D01*
X0135400Y0094172D02*
X0169300Y0094172D01*
X0166248Y0079194D02*
X0127889Y0079194D01*
X0127743Y0078196D02*
X0166237Y0078196D01*
X0166226Y0077197D02*
X0126745Y0077197D01*
X0125746Y0076199D02*
X0166214Y0076199D01*
X0165934Y0051236D02*
X0092885Y0051236D01*
X0093884Y0050238D02*
X0165923Y0050238D01*
X0165912Y0049239D02*
X0159882Y0049239D01*
X0159618Y0049503D02*
X0157382Y0049503D01*
X0156382Y0048503D01*
X0125796Y0048503D01*
X0099796Y0022503D01*
X0098800Y0021507D01*
X0098800Y0017422D01*
X0097800Y0016422D01*
X0097800Y0014185D01*
X0099382Y0012603D01*
X0101618Y0012603D01*
X0103200Y0014185D01*
X0103200Y0016422D01*
X0102200Y0017422D01*
X0102200Y0020099D01*
X0127204Y0045103D01*
X0156382Y0045103D01*
X0157382Y0044103D01*
X0159618Y0044103D01*
X0161200Y0045685D01*
X0161200Y0047922D01*
X0159618Y0049503D01*
X0160881Y0048241D02*
X0165900Y0048241D01*
X0165889Y0047242D02*
X0161200Y0047242D01*
X0161200Y0046244D02*
X0165878Y0046244D01*
X0165867Y0045245D02*
X0160760Y0045245D01*
X0159762Y0044247D02*
X0165855Y0044247D01*
X0165844Y0043248D02*
X0125349Y0043248D01*
X0124351Y0042250D02*
X0165833Y0042250D01*
X0165822Y0041251D02*
X0123352Y0041251D01*
X0122354Y0040253D02*
X0165811Y0040253D01*
X0164308Y0039254D02*
X0121355Y0039254D01*
X0120357Y0038256D02*
X0162774Y0038256D01*
X0161239Y0037257D02*
X0119358Y0037257D01*
X0118359Y0036258D02*
X0159705Y0036258D01*
X0158171Y0035260D02*
X0117361Y0035260D01*
X0116362Y0034261D02*
X0156636Y0034261D01*
X0155102Y0033263D02*
X0115364Y0033263D01*
X0114365Y0032264D02*
X0153568Y0032264D01*
X0152034Y0031266D02*
X0113367Y0031266D01*
X0112368Y0030267D02*
X0150499Y0030267D01*
X0148965Y0029269D02*
X0111370Y0029269D01*
X0110371Y0028270D02*
X0147431Y0028270D01*
X0145896Y0027272D02*
X0109373Y0027272D01*
X0108374Y0026273D02*
X0144362Y0026273D01*
X0142828Y0025275D02*
X0107376Y0025275D01*
X0106377Y0024276D02*
X0141293Y0024276D01*
X0139759Y0023278D02*
X0105379Y0023278D01*
X0104380Y0022279D02*
X0138225Y0022279D01*
X0139855Y0019284D02*
X0142165Y0019284D01*
X0141389Y0020282D02*
X0144524Y0020282D01*
X0142924Y0021281D02*
X0146883Y0021281D01*
X0148767Y0022279D02*
X0144458Y0022279D01*
X0145992Y0023278D02*
X0150496Y0023278D01*
X0152225Y0024276D02*
X0147527Y0024276D01*
X0149061Y0025275D02*
X0153955Y0025275D01*
X0155684Y0026273D02*
X0150595Y0026273D01*
X0152130Y0027272D02*
X0157414Y0027272D01*
X0158840Y0028270D02*
X0153664Y0028270D01*
X0155198Y0029269D02*
X0160162Y0029269D01*
X0161485Y0030267D02*
X0156732Y0030267D01*
X0158267Y0031266D02*
X0162807Y0031266D01*
X0164129Y0032264D02*
X0159801Y0032264D01*
X0161335Y0033263D02*
X0165451Y0033263D01*
X0166774Y0034261D02*
X0162870Y0034261D01*
X0164404Y0035260D02*
X0167950Y0035260D01*
X0168979Y0036258D02*
X0165938Y0036258D01*
X0167473Y0037257D02*
X0170009Y0037257D01*
X0169007Y0038256D02*
X0171039Y0038256D01*
X0172069Y0039254D02*
X0169227Y0039254D01*
X0169211Y0040253D02*
X0173098Y0040253D01*
X0174128Y0041251D02*
X0169222Y0041251D01*
X0169233Y0042250D02*
X0175158Y0042250D01*
X0176158Y0043248D02*
X0169244Y0043248D01*
X0157238Y0044247D02*
X0126348Y0044247D01*
X0123536Y0046244D02*
X0093200Y0046244D01*
X0093200Y0045245D02*
X0122538Y0045245D01*
X0121539Y0044247D02*
X0093200Y0044247D01*
X0093200Y0043248D02*
X0120541Y0043248D01*
X0119542Y0042250D02*
X0093200Y0042250D01*
X0093200Y0041251D02*
X0118544Y0041251D01*
X0117545Y0040253D02*
X0093200Y0040253D01*
X0093200Y0039254D02*
X0116547Y0039254D01*
X0115548Y0038256D02*
X0093200Y0038256D01*
X0093200Y0037257D02*
X0114550Y0037257D01*
X0113551Y0036258D02*
X0093200Y0036258D01*
X0093200Y0035260D02*
X0112553Y0035260D01*
X0111554Y0034261D02*
X0093200Y0034261D01*
X0093200Y0033263D02*
X0110556Y0033263D01*
X0109557Y0032264D02*
X0093200Y0032264D01*
X0093200Y0031266D02*
X0108559Y0031266D01*
X0107560Y0030267D02*
X0092868Y0030267D01*
X0091870Y0029269D02*
X0106562Y0029269D01*
X0105563Y0028270D02*
X0090871Y0028270D01*
X0089873Y0027272D02*
X0104565Y0027272D01*
X0103566Y0026273D02*
X0088874Y0026273D01*
X0088700Y0025275D02*
X0102568Y0025275D01*
X0101569Y0024276D02*
X0088292Y0024276D01*
X0087293Y0023278D02*
X0100571Y0023278D01*
X0099572Y0022279D02*
X0087996Y0022279D01*
X0088651Y0021281D02*
X0098800Y0021281D01*
X0098800Y0020282D02*
X0089065Y0020282D01*
X0089163Y0019284D02*
X0098800Y0019284D01*
X0098800Y0018285D02*
X0089163Y0018285D01*
X0088836Y0017287D02*
X0098665Y0017287D01*
X0097800Y0016288D02*
X0088423Y0016288D01*
X0087443Y0015290D02*
X0097800Y0015290D01*
X0097800Y0014291D02*
X0085638Y0014291D01*
X0085228Y0013293D02*
X0098692Y0013293D01*
X0102308Y0013293D02*
X0123134Y0013293D01*
X0127427Y0014291D02*
X0103200Y0014291D01*
X0103200Y0015290D02*
X0130936Y0015290D01*
X0133698Y0017287D02*
X0102335Y0017287D01*
X0102200Y0018285D02*
X0133300Y0018285D01*
X0133300Y0019284D02*
X0102200Y0019284D01*
X0102383Y0020282D02*
X0133661Y0020282D01*
X0134659Y0021281D02*
X0103382Y0021281D01*
X0103200Y0016288D02*
X0134446Y0016288D01*
X0138700Y0018285D02*
X0139806Y0018285D01*
X0116701Y0012294D02*
X0090801Y0012294D01*
X0082783Y0014291D02*
X0080669Y0014291D01*
X0080977Y0015290D02*
X0076567Y0015290D01*
X0073733Y0016288D02*
X0079998Y0016288D01*
X0079584Y0017287D02*
X0070900Y0017287D01*
X0085328Y0040253D02*
X0085800Y0040253D01*
X0085800Y0041251D02*
X0084369Y0041251D01*
X0084443Y0041235D02*
X0084443Y0041235D01*
X0093757Y0047242D02*
X0124535Y0047242D01*
X0125533Y0048241D02*
X0094200Y0048241D01*
X0094200Y0049239D02*
X0157118Y0049239D01*
X0126718Y0089180D02*
X0037481Y0089180D01*
X0036841Y0090178D02*
X0126327Y0090178D01*
X0128314Y0093174D02*
X0129323Y0093174D01*
X0128952Y0094172D02*
X0130321Y0094172D01*
X0129950Y0095171D02*
X0131600Y0095171D01*
X0131600Y0096169D02*
X0129539Y0096169D01*
X0131536Y0094172D02*
X0131600Y0094172D01*
X0161601Y0152086D02*
X0179484Y0152086D01*
X0178499Y0153084D02*
X0162200Y0153084D01*
X0162200Y0154083D02*
X0177513Y0154083D01*
X0176528Y0155081D02*
X0162040Y0155081D01*
X0161200Y0156080D02*
X0175542Y0156080D01*
X0174557Y0157078D02*
X0161200Y0157078D01*
X0161200Y0158077D02*
X0173572Y0158077D01*
X0172586Y0159075D02*
X0162176Y0159075D01*
X0164589Y0160074D02*
X0171601Y0160074D01*
X0170616Y0161072D02*
X0165588Y0161072D01*
X0165700Y0162071D02*
X0169630Y0162071D01*
X0168645Y0163069D02*
X0165700Y0163069D01*
X0165054Y0164068D02*
X0167659Y0164068D01*
X0050815Y0057227D02*
X0021280Y0057227D01*
X0021987Y0056229D02*
X0050239Y0056229D01*
X0049662Y0055230D02*
X0022694Y0055230D01*
X0023400Y0054232D02*
X0049086Y0054232D01*
X0048509Y0053233D02*
X0024107Y0053233D01*
X0024814Y0052235D02*
X0048235Y0052235D01*
X0044254Y0044247D02*
X0040854Y0044247D01*
X0040109Y0043248D02*
X0043654Y0043248D01*
X0043258Y0042563D02*
X0043258Y0042563D01*
X0043077Y0042250D02*
X0038868Y0042250D01*
X0041924Y0040253D02*
X0034809Y0040253D01*
X0033899Y0041251D02*
X0042501Y0041251D01*
X0042593Y0041411D02*
X0042593Y0041411D01*
X0041633Y0039254D02*
X0035719Y0039254D01*
X0036770Y0038256D02*
X0041633Y0038256D01*
X0041904Y0037257D02*
X0037936Y0037257D01*
X0039101Y0036258D02*
X0042481Y0036258D01*
X0042644Y0035976D02*
X0042644Y0035976D01*
X0042644Y0035976D01*
X0043885Y0035260D02*
X0040267Y0035260D01*
X0034085Y0042250D02*
X0032988Y0042250D01*
X0032844Y0043248D02*
X0032078Y0043248D01*
X0032099Y0044247D02*
X0031168Y0044247D01*
X0031685Y0045245D02*
X0030258Y0045245D01*
X0029347Y0046244D02*
X0031524Y0046244D01*
X0044218Y0044226D02*
X0044218Y0044226D01*
X0044218Y0044226D01*
X0038287Y0108151D02*
X0021173Y0108151D01*
X0019585Y0134113D02*
X0016262Y0134113D01*
X0016333Y0135111D02*
X0019869Y0135111D01*
X0020153Y0136110D02*
X0016405Y0136110D01*
X0016476Y0137108D02*
X0020437Y0137108D01*
X0020721Y0138107D02*
X0016622Y0138107D01*
X0017620Y0139105D02*
X0021005Y0139105D01*
X0021289Y0140104D02*
X0017700Y0140104D01*
X0017700Y0141102D02*
X0021573Y0141102D01*
X0021856Y0142101D02*
X0017021Y0142101D01*
D18*
X0130881Y0116543D03*
X0130881Y0109063D03*
X0141119Y0109063D03*
X0141119Y0112803D03*
X0141119Y0116543D03*
D19*
X0124740Y0132685D03*
X0117260Y0132685D03*
X0117260Y0142922D03*
X0121000Y0142922D03*
X0124740Y0142922D03*
D20*
X0039000Y0113303D03*
X0039000Y0103303D03*
D21*
G36*
X0047760Y0033288D02*
X0055594Y0046856D01*
X0064628Y0041640D01*
X0056794Y0028072D01*
X0047760Y0033288D01*
G37*
G36*
X0057988Y0027382D02*
X0065822Y0040950D01*
X0074856Y0035734D01*
X0067022Y0022166D01*
X0057988Y0027382D01*
G37*
D22*
G36*
X0059287Y0053451D02*
X0060991Y0052467D01*
X0059221Y0049401D01*
X0057517Y0050385D01*
X0059287Y0053451D01*
G37*
D23*
G36*
X0059904Y0049007D02*
X0061674Y0052073D01*
X0062696Y0051483D01*
X0060926Y0048417D01*
X0059904Y0049007D01*
G37*
G36*
X0071837Y0042117D02*
X0073607Y0045183D01*
X0074629Y0044593D01*
X0072859Y0041527D01*
X0071837Y0042117D01*
G37*
G36*
X0073542Y0041133D02*
X0075312Y0044199D01*
X0076334Y0043609D01*
X0074564Y0040543D01*
X0073542Y0041133D01*
G37*
D24*
G36*
X0075247Y0040149D02*
X0077017Y0043215D01*
X0078721Y0042231D01*
X0076951Y0039165D01*
X0075247Y0040149D01*
G37*
D25*
X0078000Y0042803D02*
X0088500Y0053303D01*
X0093500Y0053303D01*
X0091500Y0048803D02*
X0091500Y0031303D01*
X0086000Y0025803D01*
X0084000Y0029803D02*
X0078000Y0029803D01*
X0084000Y0029803D02*
X0087500Y0033303D01*
X0087500Y0046303D01*
X0086000Y0056803D02*
X0074500Y0045303D01*
X0086000Y0056803D02*
X0103500Y0056803D01*
X0107634Y0060937D01*
X0107634Y0069409D01*
X0105075Y0069409D02*
X0105075Y0063378D01*
X0102000Y0060303D01*
X0099500Y0060303D01*
X0099500Y0064303D02*
X0099957Y0064760D01*
X0099957Y0069409D01*
X0094839Y0069409D02*
X0094839Y0065142D01*
X0093000Y0063303D01*
X0092280Y0069409D02*
X0092280Y0074524D01*
X0088000Y0078803D01*
X0079500Y0078803D01*
X0082043Y0076260D01*
X0082043Y0069409D01*
X0063000Y0073303D02*
X0053500Y0063803D01*
X0023500Y0090303D02*
X0017000Y0118803D01*
X0031500Y0169803D01*
X0034000Y0159803D02*
X0026000Y0133303D01*
X0015000Y0140303D02*
X0011500Y0091303D01*
X0058000Y0139803D02*
X0060634Y0137169D01*
X0058000Y0139803D02*
X0058000Y0144803D01*
X0065400Y0152203D01*
X0072800Y0152203D01*
X0076400Y0152203D01*
X0079000Y0154803D01*
X0079000Y0158803D01*
X0073100Y0158803D01*
X0072800Y0158503D01*
X0072800Y0161703D02*
X0068400Y0161703D01*
X0065500Y0158803D01*
X0063224Y0158803D01*
X0063000Y0158579D01*
X0068500Y0164803D02*
X0065000Y0168303D01*
X0063276Y0168303D01*
X0063000Y0168028D01*
X0068500Y0164803D02*
X0072800Y0164803D01*
X0079000Y0158803D02*
X0081900Y0161703D01*
X0105200Y0161703D01*
X0105300Y0161803D01*
X0111500Y0161803D01*
X0125460Y0147843D01*
X0136500Y0147843D01*
X0136500Y0147303D01*
X0136500Y0147843D02*
X0139182Y0147843D01*
X0139000Y0147661D01*
X0139000Y0140303D01*
X0126000Y0127303D01*
X0119500Y0127303D01*
X0117260Y0129543D01*
X0117000Y0129803D01*
X0111346Y0129803D01*
X0111346Y0133957D01*
X0109500Y0135803D01*
X0104654Y0129803D02*
X0104500Y0129650D01*
X0104500Y0125803D01*
X0109000Y0121303D01*
X0109000Y0118303D01*
X0104500Y0118803D02*
X0104500Y0112303D01*
X0106000Y0110803D01*
X0111469Y0110803D01*
X0113000Y0110803D01*
X0111500Y0110772D02*
X0111469Y0110803D01*
X0121000Y0109457D02*
X0121394Y0109063D01*
X0130881Y0109063D01*
X0130881Y0116543D02*
X0131000Y0116662D01*
X0131000Y0121803D01*
X0132654Y0123457D01*
X0132654Y0125803D01*
X0137000Y0120803D02*
X0137000Y0120662D01*
X0141119Y0116543D01*
X0141119Y0112803D02*
X0144000Y0112803D01*
X0147500Y0116303D01*
X0147500Y0120803D01*
X0142500Y0125803D01*
X0139346Y0125803D01*
X0149000Y0111303D02*
X0146760Y0109063D01*
X0141119Y0109063D01*
X0121000Y0116150D02*
X0121000Y0120803D01*
X0117260Y0129543D02*
X0117260Y0132685D01*
X0119000Y0137803D02*
X0123500Y0137803D01*
X0124740Y0139043D01*
X0124740Y0142922D01*
X0125122Y0143303D01*
X0130500Y0143303D01*
X0121000Y0142922D02*
X0121000Y0146303D01*
X0117500Y0149803D01*
X0115000Y0152303D01*
X0105300Y0152303D01*
X0105200Y0152203D01*
X0117260Y0142922D02*
X0117260Y0139543D01*
X0119000Y0137803D01*
X0104654Y0129803D02*
X0095500Y0129803D01*
X0093700Y0131603D01*
X0093700Y0137603D01*
X0090600Y0137603D02*
X0090600Y0125303D01*
X0091100Y0125803D01*
X0097500Y0125803D01*
X0104500Y0118803D01*
X0099346Y0115803D02*
X0096000Y0119150D01*
X0096000Y0122303D01*
X0090600Y0125303D02*
X0090600Y0117857D01*
X0092654Y0115803D01*
X0084500Y0112957D02*
X0084500Y0112803D01*
X0084500Y0112957D02*
X0080500Y0108803D01*
X0080000Y0104303D02*
X0084500Y0104303D01*
X0084500Y0098299D01*
X0084602Y0098197D01*
X0089720Y0098197D02*
X0089720Y0102524D01*
X0091500Y0104303D01*
X0094000Y0104303D01*
X0091500Y0104303D02*
X0087500Y0108303D01*
X0080000Y0104303D02*
X0075000Y0109303D01*
X0075000Y0112957D01*
X0084300Y0119650D02*
X0084500Y0119650D01*
X0074500Y0103803D02*
X0074366Y0102669D01*
X0074366Y0098197D01*
X0072800Y0142803D02*
X0066000Y0142803D01*
X0055000Y0163303D02*
X0051000Y0163303D01*
X0049500Y0169303D02*
X0069000Y0188803D01*
X0070500Y0188803D01*
X0082500Y0200803D01*
X0121000Y0200803D01*
X0114500Y0195303D02*
X0088000Y0187803D01*
X0085500Y0191803D02*
X0081000Y0187303D01*
X0081000Y0186650D01*
X0081000Y0179957D02*
X0081100Y0179857D01*
X0081100Y0170003D01*
X0096900Y0170003D02*
X0096900Y0177203D01*
X0097000Y0177303D01*
X0100000Y0173303D02*
X0100000Y0170003D01*
X0100000Y0173303D02*
X0104500Y0177803D01*
X0137000Y0177803D01*
X0146960Y0167843D01*
X0146960Y0155621D01*
X0139182Y0161985D02*
X0139182Y0171621D01*
X0135500Y0175303D01*
X0121000Y0175303D01*
X0110500Y0164803D01*
X0105200Y0164803D01*
X0129500Y0186303D02*
X0156000Y0178303D01*
X0193500Y0140303D01*
X0191000Y0131803D02*
X0197500Y0125303D01*
X0191000Y0131803D02*
X0176000Y0131803D01*
X0170500Y0126303D01*
X0171000Y0111803D02*
X0185000Y0125803D01*
X0171000Y0111803D02*
X0171000Y0089303D01*
X0176000Y0084303D01*
X0176000Y0047303D01*
X0167500Y0039303D02*
X0168000Y0083803D01*
X0181000Y0090803D02*
X0175000Y0096803D01*
X0181000Y0090803D02*
X0195500Y0090803D01*
X0158500Y0046803D02*
X0126500Y0046803D01*
X0100500Y0020803D01*
X0100500Y0015303D01*
X0136000Y0018803D02*
X0167500Y0039303D01*
X0159500Y0153803D02*
X0159500Y0158803D01*
X0163000Y0162303D01*
X0165500Y0180303D02*
X0114500Y0195303D01*
X0073000Y0197803D02*
X0034000Y0159803D01*
D26*
X0031500Y0169803D03*
X0049500Y0169303D03*
X0051000Y0163303D03*
X0066000Y0142803D03*
X0069000Y0128803D03*
X0086500Y0128303D03*
X0096000Y0122303D03*
X0109000Y0118303D03*
X0113000Y0110803D03*
X0121000Y0120803D03*
X0109500Y0135803D03*
X0117500Y0149803D03*
X0130500Y0143303D03*
X0137000Y0120803D03*
X0147500Y0116303D03*
X0149000Y0111303D03*
X0133500Y0098303D03*
X0114000Y0099803D03*
X0094000Y0104303D03*
X0087500Y0108303D03*
X0084500Y0104303D03*
X0080500Y0108803D03*
X0074500Y0103803D03*
X0063000Y0073303D03*
X0053500Y0063803D03*
X0087500Y0046303D03*
X0091500Y0048803D03*
X0093500Y0053303D03*
X0099500Y0064303D03*
X0086000Y0025803D03*
X0100500Y0015303D03*
X0126500Y0017303D03*
X0136000Y0018803D03*
X0158500Y0046803D03*
X0176000Y0047303D03*
X0168000Y0083803D03*
X0175000Y0096803D03*
X0195500Y0090803D03*
X0197500Y0125303D03*
X0185000Y0125803D03*
X0170500Y0126303D03*
X0193500Y0140303D03*
X0163000Y0162303D03*
X0159500Y0153803D03*
X0165500Y0180303D03*
X0129500Y0186303D03*
X0121000Y0200803D03*
X0097000Y0177303D03*
X0088000Y0187803D03*
X0085500Y0191803D03*
X0073000Y0197803D03*
X0015000Y0140303D03*
X0018500Y0136303D03*
X0026000Y0133303D03*
X0011500Y0091303D03*
X0023500Y0090303D03*
X0015000Y0075803D03*
D27*
X0034500Y0088303D03*
X0079500Y0078803D03*
X0078000Y0029803D03*
D28*
X0079484Y0069409D02*
X0079484Y0078787D01*
X0079500Y0078803D01*
X0089720Y0089024D01*
X0089720Y0098197D01*
X0100866Y0083669D02*
X0119134Y0083669D01*
X0128134Y0092669D01*
X0132866Y0087937D02*
X0133500Y0088571D01*
X0133500Y0098303D01*
X0133500Y0107803D01*
X0132240Y0109063D01*
X0130881Y0109063D01*
X0132866Y0087937D02*
X0123866Y0078937D01*
X0123134Y0078937D01*
X0122000Y0077803D01*
X0099500Y0077803D01*
X0094839Y0073142D01*
X0094839Y0069409D01*
X0092280Y0069409D02*
X0092280Y0075083D01*
X0100866Y0083669D01*
X0039000Y0099803D02*
X0025500Y0086303D01*
X0013500Y0086303D01*
X0011500Y0088303D01*
X0011500Y0091303D01*
X0015000Y0075803D02*
X0015500Y0075803D01*
X0015000Y0075803D02*
X0034500Y0088303D01*
X0039000Y0099803D02*
X0039000Y0103303D01*
D29*
X0039000Y0113303D02*
X0045000Y0113303D01*
X0079500Y0078803D01*
M02*
