G75*
%MOIN*%
%OFA0B0*%
%FSLAX25Y25*%
%IPPOS*%
%LPD*%
%AMOC8*
5,1,8,0,0,1.08239X$1,22.5*
%
%ADD10C,0.00600*%
%ADD11C,0.01500*%
%ADD12C,0.00300*%
%ADD13R,0.03000X0.01800*%
%ADD14C,0.00100*%
%ADD15C,0.00400*%
%ADD16C,0.00591*%
%ADD17C,0.00800*%
%ADD18R,0.01800X0.03000*%
%ADD19C,0.01000*%
%ADD20C,0.00500*%
%ADD21C,0.00394*%
D10*
X0070528Y0072287D02*
X0070528Y0095319D01*
X0111472Y0095319D01*
X0111472Y0072287D01*
X0070528Y0072287D01*
X0072557Y0091480D02*
X0072559Y0091565D01*
X0072565Y0091649D01*
X0072575Y0091734D01*
X0072589Y0091817D01*
X0072606Y0091900D01*
X0072628Y0091982D01*
X0072654Y0092063D01*
X0072683Y0092143D01*
X0072716Y0092221D01*
X0072752Y0092297D01*
X0072792Y0092372D01*
X0072836Y0092445D01*
X0072883Y0092516D01*
X0072933Y0092584D01*
X0072986Y0092650D01*
X0073043Y0092713D01*
X0073102Y0092774D01*
X0073164Y0092832D01*
X0073229Y0092887D01*
X0073296Y0092939D01*
X0073365Y0092987D01*
X0073437Y0093032D01*
X0073511Y0093074D01*
X0073587Y0093112D01*
X0073664Y0093147D01*
X0073743Y0093178D01*
X0073823Y0093206D01*
X0073905Y0093229D01*
X0073987Y0093249D01*
X0074070Y0093265D01*
X0074154Y0093277D01*
X0074239Y0093285D01*
X0074324Y0093289D01*
X0074408Y0093289D01*
X0074493Y0093285D01*
X0074578Y0093277D01*
X0074662Y0093265D01*
X0074745Y0093249D01*
X0074827Y0093229D01*
X0074909Y0093206D01*
X0074989Y0093178D01*
X0075068Y0093147D01*
X0075145Y0093112D01*
X0075221Y0093074D01*
X0075295Y0093032D01*
X0075367Y0092987D01*
X0075436Y0092939D01*
X0075503Y0092887D01*
X0075568Y0092832D01*
X0075630Y0092774D01*
X0075689Y0092713D01*
X0075746Y0092650D01*
X0075799Y0092584D01*
X0075849Y0092516D01*
X0075896Y0092445D01*
X0075940Y0092372D01*
X0075980Y0092297D01*
X0076016Y0092221D01*
X0076049Y0092143D01*
X0076078Y0092063D01*
X0076104Y0091982D01*
X0076126Y0091900D01*
X0076143Y0091817D01*
X0076157Y0091734D01*
X0076167Y0091649D01*
X0076173Y0091565D01*
X0076175Y0091480D01*
X0076173Y0091395D01*
X0076167Y0091311D01*
X0076157Y0091226D01*
X0076143Y0091143D01*
X0076126Y0091060D01*
X0076104Y0090978D01*
X0076078Y0090897D01*
X0076049Y0090817D01*
X0076016Y0090739D01*
X0075980Y0090663D01*
X0075940Y0090588D01*
X0075896Y0090515D01*
X0075849Y0090444D01*
X0075799Y0090376D01*
X0075746Y0090310D01*
X0075689Y0090247D01*
X0075630Y0090186D01*
X0075568Y0090128D01*
X0075503Y0090073D01*
X0075436Y0090021D01*
X0075367Y0089973D01*
X0075295Y0089928D01*
X0075221Y0089886D01*
X0075145Y0089848D01*
X0075068Y0089813D01*
X0074989Y0089782D01*
X0074909Y0089754D01*
X0074827Y0089731D01*
X0074745Y0089711D01*
X0074662Y0089695D01*
X0074578Y0089683D01*
X0074493Y0089675D01*
X0074408Y0089671D01*
X0074324Y0089671D01*
X0074239Y0089675D01*
X0074154Y0089683D01*
X0074070Y0089695D01*
X0073987Y0089711D01*
X0073905Y0089731D01*
X0073823Y0089754D01*
X0073743Y0089782D01*
X0073664Y0089813D01*
X0073587Y0089848D01*
X0073511Y0089886D01*
X0073437Y0089928D01*
X0073365Y0089973D01*
X0073296Y0090021D01*
X0073229Y0090073D01*
X0073164Y0090128D01*
X0073102Y0090186D01*
X0073043Y0090247D01*
X0072986Y0090310D01*
X0072933Y0090376D01*
X0072883Y0090444D01*
X0072836Y0090515D01*
X0072792Y0090588D01*
X0072752Y0090663D01*
X0072716Y0090739D01*
X0072683Y0090817D01*
X0072654Y0090897D01*
X0072628Y0090978D01*
X0072606Y0091060D01*
X0072589Y0091143D01*
X0072575Y0091226D01*
X0072565Y0091311D01*
X0072559Y0091395D01*
X0072557Y0091480D01*
X0084300Y0129303D02*
X0084300Y0133403D01*
X0078500Y0141703D02*
X0076900Y0143303D01*
X0081100Y0174203D02*
X0081100Y0178203D01*
X0109400Y0155303D02*
X0113400Y0155303D01*
X0114119Y0019509D02*
X0114119Y0013103D01*
X0111984Y0013103D02*
X0116255Y0013103D01*
X0116255Y0017373D02*
X0114119Y0019509D01*
X0118430Y0017373D02*
X0120565Y0013103D01*
X0122700Y0017373D01*
X0109809Y0014171D02*
X0109809Y0013103D01*
X0108741Y0013103D01*
X0108741Y0014171D01*
X0109809Y0014171D01*
X0106586Y0014171D02*
X0106586Y0018441D01*
X0105519Y0019509D01*
X0103384Y0019509D01*
X0102316Y0018441D01*
X0106586Y0014171D01*
X0105519Y0013103D01*
X0103384Y0013103D01*
X0102316Y0014171D01*
X0102316Y0018441D01*
D11*
X0121422Y0081225D02*
X0121578Y0081381D01*
X0130422Y0090225D02*
X0130578Y0090381D01*
X0121110Y0112803D02*
X0120890Y0112803D01*
D12*
X0121998Y0105656D02*
X0121381Y0105039D01*
X0121998Y0105656D02*
X0123233Y0105656D01*
X0123850Y0105039D01*
X0123850Y0102570D01*
X0123233Y0101953D01*
X0121998Y0101953D01*
X0121381Y0102570D01*
X0120167Y0101953D02*
X0117698Y0101953D01*
X0118932Y0101953D02*
X0118932Y0105656D01*
X0120167Y0104422D01*
X0105716Y0106453D02*
X0105716Y0110156D01*
X0103865Y0110156D01*
X0103248Y0109539D01*
X0103248Y0108305D01*
X0103865Y0107688D01*
X0105716Y0107688D01*
X0104482Y0107688D02*
X0103248Y0106453D01*
X0102033Y0107070D02*
X0101416Y0106453D01*
X0100182Y0106453D01*
X0099564Y0107070D01*
X0099564Y0108305D01*
X0100182Y0108922D01*
X0100799Y0108922D01*
X0102033Y0108305D01*
X0102033Y0110156D01*
X0099564Y0110156D01*
X0112064Y0123070D02*
X0112064Y0123688D01*
X0112682Y0124305D01*
X0114533Y0124305D01*
X0114533Y0123070D01*
X0113916Y0122453D01*
X0112682Y0122453D01*
X0112064Y0123070D01*
X0113299Y0125539D02*
X0114533Y0124305D01*
X0115748Y0124305D02*
X0116365Y0123688D01*
X0118216Y0123688D01*
X0116982Y0123688D02*
X0115748Y0122453D01*
X0115748Y0124305D02*
X0115748Y0125539D01*
X0116365Y0126156D01*
X0118216Y0126156D01*
X0118216Y0122453D01*
X0113299Y0125539D02*
X0112064Y0126156D01*
X0129064Y0132070D02*
X0129682Y0131453D01*
X0130916Y0131453D01*
X0131533Y0132070D01*
X0132748Y0132070D02*
X0132748Y0135156D01*
X0131533Y0134539D02*
X0130916Y0135156D01*
X0129682Y0135156D01*
X0129064Y0134539D01*
X0129064Y0133922D01*
X0129682Y0133305D01*
X0129064Y0132688D01*
X0129064Y0132070D01*
X0129682Y0133305D02*
X0130299Y0133305D01*
X0132748Y0132070D02*
X0133365Y0131453D01*
X0134599Y0131453D01*
X0135216Y0132070D01*
X0135216Y0135156D01*
X0144315Y0127656D02*
X0146167Y0125805D01*
X0143698Y0125805D01*
X0144315Y0127656D02*
X0144315Y0123953D01*
X0147381Y0123953D02*
X0148616Y0125188D01*
X0147998Y0125188D02*
X0149850Y0125188D01*
X0149850Y0123953D02*
X0149850Y0127656D01*
X0147998Y0127656D01*
X0147381Y0127039D01*
X0147381Y0125805D01*
X0147998Y0125188D01*
X0148216Y0104656D02*
X0148216Y0101570D01*
X0147599Y0100953D01*
X0146365Y0100953D01*
X0145748Y0101570D01*
X0145748Y0104656D01*
X0144533Y0104039D02*
X0143916Y0104656D01*
X0142682Y0104656D01*
X0142064Y0104039D01*
X0142064Y0103422D01*
X0144533Y0100953D01*
X0142064Y0100953D01*
X0137801Y0086194D02*
X0136928Y0086194D01*
X0136492Y0085757D01*
X0136492Y0082266D01*
X0134746Y0084012D01*
X0137787Y0081844D02*
X0137787Y0080971D01*
X0138660Y0080098D01*
X0139533Y0080098D01*
X0141278Y0081844D01*
X0141278Y0082717D01*
X0140405Y0083590D01*
X0139533Y0083590D01*
X0138674Y0084448D02*
X0138674Y0085321D01*
X0137801Y0086194D01*
X0129489Y0076364D02*
X0129489Y0073745D01*
X0127743Y0075491D01*
X0126871Y0073745D02*
X0129489Y0076364D01*
X0131221Y0073759D02*
X0132093Y0073759D01*
X0132966Y0072887D01*
X0132966Y0072014D01*
X0131221Y0070268D01*
X0130348Y0070268D01*
X0129475Y0071141D01*
X0129475Y0072014D01*
X0124399Y0070656D02*
X0124399Y0067570D01*
X0123782Y0066953D01*
X0122548Y0066953D01*
X0121931Y0067570D01*
X0121931Y0070656D01*
X0120716Y0070039D02*
X0120099Y0070656D01*
X0118865Y0070656D01*
X0118248Y0070039D01*
X0117033Y0069422D02*
X0115799Y0070656D01*
X0115799Y0066953D01*
X0117033Y0066953D02*
X0114564Y0066953D01*
X0118248Y0067570D02*
X0118248Y0068188D01*
X0118865Y0068805D01*
X0120099Y0068805D01*
X0120716Y0069422D01*
X0120716Y0070039D01*
X0119482Y0071273D02*
X0119482Y0066336D01*
X0120099Y0066953D02*
X0118865Y0066953D01*
X0118248Y0067570D01*
X0120099Y0066953D02*
X0120716Y0067570D01*
X0072716Y0109453D02*
X0072716Y0113156D01*
X0070865Y0113156D01*
X0070248Y0112539D01*
X0070248Y0111305D01*
X0070865Y0110688D01*
X0072716Y0110688D01*
X0071482Y0110688D02*
X0070248Y0109453D01*
X0069033Y0109453D02*
X0066564Y0111922D01*
X0066564Y0112539D01*
X0067182Y0113156D01*
X0068416Y0113156D01*
X0069033Y0112539D01*
X0069033Y0109453D02*
X0066564Y0109453D01*
X0059096Y0126662D02*
X0061715Y0129280D01*
X0060405Y0130590D01*
X0059533Y0130590D01*
X0058660Y0129717D01*
X0058660Y0128844D01*
X0059969Y0127535D01*
X0059096Y0128407D02*
X0057351Y0128407D01*
X0056928Y0129703D02*
X0056055Y0129703D01*
X0055183Y0130575D01*
X0055183Y0131448D01*
X0055619Y0131885D01*
X0056492Y0131885D01*
X0056928Y0131448D01*
X0056492Y0131885D02*
X0056492Y0132757D01*
X0056928Y0133194D01*
X0057801Y0133194D01*
X0058674Y0132321D01*
X0058674Y0131448D01*
X0065250Y0138133D02*
X0068386Y0141269D01*
X0065250Y0138133D01*
X0066818Y0138133D02*
X0066818Y0141269D01*
X0066818Y0138133D01*
X0068386Y0138133D02*
X0065250Y0141269D01*
X0068386Y0138133D01*
X0068386Y0139701D02*
X0065250Y0139701D01*
X0068386Y0139701D01*
X0047850Y0156039D02*
X0046616Y0154805D01*
X0046616Y0152953D01*
X0046616Y0154805D02*
X0045381Y0156039D01*
X0045381Y0156656D01*
X0044167Y0155422D02*
X0042932Y0156656D01*
X0042932Y0152953D01*
X0041698Y0152953D02*
X0044167Y0152953D01*
X0047850Y0156039D02*
X0047850Y0156656D01*
X0078667Y0190953D02*
X0078667Y0191570D01*
X0076198Y0194039D01*
X0076198Y0194656D01*
X0078667Y0194656D01*
X0079881Y0194039D02*
X0079881Y0192805D01*
X0080498Y0192188D01*
X0082350Y0192188D01*
X0081116Y0192188D02*
X0079881Y0190953D01*
X0082350Y0190953D02*
X0082350Y0194656D01*
X0080498Y0194656D01*
X0079881Y0194039D01*
D13*
X0081000Y0183303D03*
X0084500Y0116303D03*
X0075000Y0116303D03*
D14*
X0080422Y0123753D02*
X0081423Y0123753D01*
X0081896Y0123753D02*
X0082396Y0124254D01*
X0082146Y0124254D02*
X0082897Y0124254D01*
X0082897Y0123753D02*
X0082897Y0125254D01*
X0082146Y0125254D01*
X0081896Y0125004D01*
X0081896Y0124504D01*
X0082146Y0124254D01*
X0081423Y0124754D02*
X0080923Y0125254D01*
X0080923Y0123753D01*
D15*
X0077799Y0130103D02*
X0076598Y0130103D01*
X0075998Y0130704D01*
X0075998Y0133706D01*
X0074717Y0132505D02*
X0073516Y0133706D01*
X0073516Y0130103D01*
X0074717Y0130103D02*
X0072315Y0130103D01*
X0077799Y0130103D02*
X0078400Y0130704D01*
X0078400Y0133706D01*
D16*
X0126036Y0076571D02*
X0126038Y0076598D01*
X0126044Y0076625D01*
X0126053Y0076651D01*
X0126066Y0076675D01*
X0126082Y0076698D01*
X0126101Y0076717D01*
X0126123Y0076734D01*
X0126147Y0076748D01*
X0126172Y0076758D01*
X0126199Y0076765D01*
X0126226Y0076768D01*
X0126254Y0076767D01*
X0126281Y0076762D01*
X0126307Y0076754D01*
X0126331Y0076742D01*
X0126354Y0076726D01*
X0126375Y0076708D01*
X0126392Y0076687D01*
X0126407Y0076663D01*
X0126418Y0076638D01*
X0126426Y0076612D01*
X0126430Y0076585D01*
X0126430Y0076557D01*
X0126426Y0076530D01*
X0126418Y0076504D01*
X0126407Y0076479D01*
X0126392Y0076455D01*
X0126375Y0076434D01*
X0126354Y0076416D01*
X0126332Y0076400D01*
X0126307Y0076388D01*
X0126281Y0076380D01*
X0126254Y0076375D01*
X0126226Y0076374D01*
X0126199Y0076377D01*
X0126172Y0076384D01*
X0126147Y0076394D01*
X0126123Y0076408D01*
X0126101Y0076425D01*
X0126082Y0076444D01*
X0126066Y0076467D01*
X0126053Y0076491D01*
X0126044Y0076517D01*
X0126038Y0076544D01*
X0126036Y0076571D01*
D17*
X0134309Y0107803D02*
X0137691Y0107803D01*
X0133209Y0111746D02*
X0133209Y0113860D01*
X0134309Y0117803D02*
X0137691Y0117803D01*
X0126000Y0136113D02*
X0126000Y0139494D01*
X0122057Y0135013D02*
X0119943Y0135013D01*
X0116000Y0136113D02*
X0116000Y0139494D01*
X0061599Y0155907D02*
X0056481Y0155907D01*
X0056481Y0170670D02*
X0061599Y0170670D01*
D18*
G36*
X0063424Y0136500D02*
X0064697Y0135227D01*
X0062576Y0133106D01*
X0061303Y0134379D01*
X0063424Y0136500D01*
G37*
X0096000Y0115803D03*
X0108000Y0129803D03*
X0136000Y0125803D03*
D19*
X0140000Y0119103D03*
X0114700Y0141803D03*
D20*
X0041311Y0035191D02*
X0036981Y0027690D01*
X0067564Y0010032D01*
X0071895Y0017533D01*
X0080470Y0012583D01*
X0077887Y0014074D01*
X0074478Y0016042D02*
X0071895Y0017533D01*
X0041311Y0035191D01*
X0032736Y0040142D01*
X0035319Y0038651D01*
X0038729Y0036682D02*
X0041311Y0035191D01*
X0046400Y0032253D01*
X0049810Y0030284D02*
X0054898Y0027346D01*
X0058308Y0025378D02*
X0063397Y0022440D01*
X0066806Y0020471D02*
X0071895Y0017533D01*
X0080470Y0012583D02*
X0080629Y0012494D01*
X0080790Y0012409D01*
X0080953Y0012327D01*
X0081118Y0012250D01*
X0081285Y0012177D01*
X0081453Y0012108D01*
X0081623Y0012043D01*
X0081795Y0011982D01*
X0081968Y0011925D01*
X0082142Y0011872D01*
X0082318Y0011824D01*
X0082495Y0011780D01*
X0082673Y0011741D01*
X0082851Y0011705D01*
X0083031Y0011675D01*
X0083211Y0011648D01*
X0083392Y0011626D01*
X0083573Y0011608D01*
X0083755Y0011595D01*
X0083937Y0011586D01*
X0084119Y0011582D01*
X0084301Y0011582D01*
X0084483Y0011586D01*
X0084665Y0011595D01*
X0084847Y0011608D01*
X0085028Y0011626D01*
X0085209Y0011648D01*
X0085389Y0011675D01*
X0085569Y0011705D01*
X0085747Y0011741D01*
X0085925Y0011780D01*
X0086102Y0011824D01*
X0086278Y0011872D01*
X0086452Y0011925D01*
X0086625Y0011982D01*
X0086797Y0012043D01*
X0086967Y0012108D01*
X0087135Y0012177D01*
X0087302Y0012250D01*
X0087467Y0012327D01*
X0087630Y0012409D01*
X0087791Y0012494D01*
X0087950Y0012583D01*
X0088107Y0012676D01*
X0088261Y0012773D01*
X0088413Y0012873D01*
X0088562Y0012978D01*
X0088709Y0013085D01*
X0088853Y0013197D01*
X0088995Y0013312D01*
X0089133Y0013430D01*
X0089269Y0013551D01*
X0089402Y0013676D01*
X0089531Y0013804D01*
X0089658Y0013935D01*
X0089781Y0014069D01*
X0089901Y0014207D01*
X0090017Y0014347D01*
X0090130Y0014489D01*
X0090240Y0014635D01*
X0090346Y0014783D01*
X0090448Y0014934D01*
X0090547Y0015087D01*
X0090642Y0015242D01*
X0090733Y0015400D01*
X0090820Y0015560D01*
X0090903Y0015722D01*
X0090983Y0015886D01*
X0091058Y0016052D01*
X0091129Y0016220D01*
X0091196Y0016389D01*
X0091259Y0016560D01*
X0091318Y0016732D01*
X0091373Y0016906D01*
X0091423Y0017081D01*
X0091469Y0017257D01*
X0091511Y0017435D01*
X0091548Y0017613D01*
X0091582Y0017792D01*
X0091610Y0017972D01*
X0091635Y0018152D01*
X0091655Y0018333D01*
X0091670Y0018515D01*
X0091681Y0018697D01*
X0091688Y0018879D01*
X0091690Y0019061D01*
X0091688Y0019243D01*
X0091681Y0019425D01*
X0091670Y0019607D01*
X0091655Y0019789D01*
X0091635Y0019970D01*
X0091610Y0020150D01*
X0091582Y0020330D01*
X0091548Y0020509D01*
X0091511Y0020687D01*
X0091469Y0020865D01*
X0091423Y0021041D01*
X0091373Y0021216D01*
X0091318Y0021390D01*
X0091259Y0021562D01*
X0091196Y0021733D01*
X0091129Y0021902D01*
X0091058Y0022070D01*
X0090983Y0022236D01*
X0090903Y0022400D01*
X0090820Y0022562D01*
X0090733Y0022722D01*
X0090642Y0022880D01*
X0090547Y0023035D01*
X0090448Y0023188D01*
X0090346Y0023339D01*
X0090240Y0023487D01*
X0090130Y0023633D01*
X0090017Y0023775D01*
X0089901Y0023915D01*
X0089781Y0024053D01*
X0089658Y0024187D01*
X0089531Y0024318D01*
X0089402Y0024446D01*
X0089269Y0024571D01*
X0089133Y0024692D01*
X0088995Y0024810D01*
X0088853Y0024925D01*
X0088709Y0025037D01*
X0088562Y0025144D01*
X0088413Y0025249D01*
X0088261Y0025349D01*
X0088107Y0025446D01*
X0087950Y0025539D01*
X0040217Y0053098D01*
X0040216Y0053098D02*
X0040057Y0053187D01*
X0039896Y0053272D01*
X0039733Y0053354D01*
X0039568Y0053431D01*
X0039401Y0053504D01*
X0039233Y0053573D01*
X0039063Y0053638D01*
X0038891Y0053699D01*
X0038718Y0053756D01*
X0038544Y0053809D01*
X0038368Y0053857D01*
X0038191Y0053901D01*
X0038013Y0053940D01*
X0037835Y0053976D01*
X0037655Y0054006D01*
X0037475Y0054033D01*
X0037294Y0054055D01*
X0037113Y0054073D01*
X0036931Y0054086D01*
X0036749Y0054095D01*
X0036567Y0054099D01*
X0036385Y0054099D01*
X0036203Y0054095D01*
X0036021Y0054086D01*
X0035839Y0054073D01*
X0035658Y0054055D01*
X0035477Y0054033D01*
X0035297Y0054006D01*
X0035117Y0053976D01*
X0034939Y0053940D01*
X0034761Y0053901D01*
X0034584Y0053857D01*
X0034408Y0053809D01*
X0034234Y0053756D01*
X0034061Y0053699D01*
X0033889Y0053638D01*
X0033719Y0053573D01*
X0033551Y0053504D01*
X0033384Y0053431D01*
X0033219Y0053354D01*
X0033056Y0053272D01*
X0032895Y0053187D01*
X0032736Y0053098D01*
X0032579Y0053005D01*
X0032425Y0052908D01*
X0032273Y0052808D01*
X0032124Y0052703D01*
X0031977Y0052596D01*
X0031833Y0052484D01*
X0031691Y0052369D01*
X0031553Y0052251D01*
X0031417Y0052130D01*
X0031284Y0052005D01*
X0031155Y0051877D01*
X0031028Y0051746D01*
X0030905Y0051612D01*
X0030785Y0051474D01*
X0030669Y0051334D01*
X0030556Y0051192D01*
X0030446Y0051046D01*
X0030340Y0050898D01*
X0030238Y0050747D01*
X0030139Y0050594D01*
X0030044Y0050439D01*
X0029953Y0050281D01*
X0029866Y0050121D01*
X0029783Y0049959D01*
X0029703Y0049795D01*
X0029628Y0049629D01*
X0029557Y0049461D01*
X0029490Y0049292D01*
X0029427Y0049121D01*
X0029368Y0048949D01*
X0029313Y0048775D01*
X0029263Y0048600D01*
X0029217Y0048424D01*
X0029175Y0048246D01*
X0029138Y0048068D01*
X0029104Y0047889D01*
X0029076Y0047709D01*
X0029051Y0047529D01*
X0029031Y0047348D01*
X0029016Y0047166D01*
X0029005Y0046984D01*
X0028998Y0046802D01*
X0028996Y0046620D01*
X0028998Y0046438D01*
X0029005Y0046256D01*
X0029016Y0046074D01*
X0029031Y0045892D01*
X0029051Y0045711D01*
X0029076Y0045531D01*
X0029104Y0045351D01*
X0029138Y0045172D01*
X0029175Y0044994D01*
X0029217Y0044816D01*
X0029263Y0044640D01*
X0029313Y0044465D01*
X0029368Y0044291D01*
X0029427Y0044119D01*
X0029490Y0043948D01*
X0029557Y0043779D01*
X0029628Y0043611D01*
X0029703Y0043445D01*
X0029783Y0043281D01*
X0029866Y0043119D01*
X0029953Y0042959D01*
X0030044Y0042801D01*
X0030139Y0042646D01*
X0030238Y0042493D01*
X0030340Y0042342D01*
X0030446Y0042194D01*
X0030556Y0042048D01*
X0030669Y0041906D01*
X0030785Y0041766D01*
X0030905Y0041628D01*
X0031028Y0041494D01*
X0031155Y0041363D01*
X0031284Y0041235D01*
X0031417Y0041110D01*
X0031553Y0040989D01*
X0031691Y0040871D01*
X0031833Y0040756D01*
X0031977Y0040644D01*
X0032124Y0040537D01*
X0032273Y0040432D01*
X0032425Y0040332D01*
X0032579Y0040235D01*
X0032736Y0040142D01*
D21*
X0029998Y0050360D02*
X0090688Y0015321D01*
X0074495Y0025579D02*
X0072920Y0022852D01*
X0080885Y0035073D02*
X0082460Y0037801D01*
X0053581Y0054474D02*
X0052006Y0051747D01*
X0046979Y0041465D02*
X0045405Y0038738D01*
M02*
