%
M48
M72
T01C0.01800
T02C0.02362
T03C0.03543
T04C0.04000
T05C0.05906
%
T01
X53500Y63803
X63000Y73303
X74500Y103803
X80500Y108803
X84500Y104303
X87500Y108303
X94000Y104303
X109000Y118303
X113000Y110803
X121000Y120803
X109500Y135803
X117500Y149803
X130500Y143303
X137000Y120803
X147500Y116303
X149000Y111303
X133500Y98303
X114000Y99803
X96000Y122303
X86500Y128303
X69000Y128803
X66000Y142803
X51000Y163303
X49500Y169303
X31500Y169803
X15000Y140303
X18500Y136303
X26000Y133303
X11500Y91303
X23500Y90303
X15000Y75803
X87500Y46303
X91500Y48803
X93500Y53303
X99500Y64303
X86000Y25803
X100500Y15303
X126500Y17303
X136000Y18803
X158500Y46803
X176000Y47303
X168000Y83803
X175000Y96803
X195500Y90803
X197500Y125303
X185000Y125803
X170500Y126303
X193500Y140303
X163000Y162303
X159500Y153803
X165500Y180303
X129500Y186303
X121000Y200803
X97000Y177303
X88000Y187803
X85500Y191803
X73000Y197803
T02
X34500Y88303
X79500Y78803
X78000Y29803
T03
X139182Y147843
X132818Y155621
X139182Y161985
X146960Y155621
X132818Y169763
X125040Y161985
T04
X39000Y113303
X39000Y103303
T05
X36476Y46620
X84210Y19061
M30
