G75*
%MOIN*%
%OFA0B0*%
%FSLAX25Y25*%
%IPPOS*%
%LPD*%
%AMOC8*
5,1,8,0,0,1.08239X$1,22.5*
%
%ADD10R,0.04331X0.03937*%
%ADD11R,0.01181X0.03150*%
%ADD12R,0.03150X0.01181*%
%ADD13R,0.03937X0.04331*%
%ADD14R,0.06500X0.03937*%
%ADD15R,0.03937X0.06500*%
D10*
X0047154Y0142803D03*
X0053846Y0142803D03*
X0106154Y0154303D03*
X0112846Y0154303D03*
D11*
X0105969Y0113823D03*
X0104000Y0113823D03*
X0102031Y0113823D03*
X0102031Y0103783D03*
X0104000Y0103783D03*
X0105969Y0103783D03*
D12*
X0109020Y0104866D03*
X0109020Y0106835D03*
X0109020Y0108803D03*
X0109020Y0110772D03*
X0109020Y0112740D03*
X0098980Y0112740D03*
X0098980Y0110772D03*
X0098980Y0108803D03*
X0098980Y0106835D03*
X0098980Y0104866D03*
D13*
X0118500Y0105957D03*
X0118500Y0112650D03*
X0125500Y0112650D03*
X0125500Y0105957D03*
X0133500Y0105957D03*
X0133500Y0112650D03*
D14*
G36*
X0047234Y0036750D02*
X0052862Y0033500D01*
X0050894Y0030092D01*
X0045266Y0033342D01*
X0047234Y0036750D01*
G37*
G36*
X0053533Y0047660D02*
X0059161Y0044410D01*
X0057193Y0041002D01*
X0051565Y0044252D01*
X0053533Y0047660D01*
G37*
G36*
X0040107Y0063464D02*
X0043357Y0057836D01*
X0039949Y0055868D01*
X0036699Y0061496D01*
X0040107Y0063464D01*
G37*
G36*
X0029197Y0057165D02*
X0032447Y0051537D01*
X0029039Y0049569D01*
X0025789Y0055197D01*
X0029197Y0057165D01*
G37*
G36*
X0019051Y0074738D02*
X0022301Y0069110D01*
X0018893Y0067142D01*
X0015643Y0072770D01*
X0019051Y0074738D01*
G37*
G36*
X0029961Y0081037D02*
X0033211Y0075409D01*
X0029803Y0073441D01*
X0026553Y0079069D01*
X0029961Y0081037D01*
G37*
G36*
X0071106Y0037515D02*
X0076734Y0034265D01*
X0074766Y0030857D01*
X0069138Y0034107D01*
X0071106Y0037515D01*
G37*
G36*
X0064807Y0026604D02*
X0070435Y0023354D01*
X0068467Y0019946D01*
X0062839Y0023196D01*
X0064807Y0026604D01*
G37*
X0093854Y0028602D03*
X0093854Y0016004D03*
X0114146Y0016004D03*
X0114146Y0028602D03*
G36*
X0131266Y0034265D02*
X0136894Y0037515D01*
X0138862Y0034107D01*
X0133234Y0030857D01*
X0131266Y0034265D01*
G37*
G36*
X0137565Y0023354D02*
X0143193Y0026604D01*
X0145161Y0023196D01*
X0139533Y0019946D01*
X0137565Y0023354D01*
G37*
G36*
X0155138Y0033500D02*
X0160766Y0036750D01*
X0162734Y0033342D01*
X0157106Y0030092D01*
X0155138Y0033500D01*
G37*
G36*
X0148839Y0044410D02*
X0154467Y0047660D01*
X0156435Y0044252D01*
X0150807Y0041002D01*
X0148839Y0044410D01*
G37*
G36*
X0164643Y0057836D02*
X0167893Y0063464D01*
X0171301Y0061496D01*
X0168051Y0055868D01*
X0164643Y0057836D01*
G37*
G36*
X0175553Y0051537D02*
X0178803Y0057165D01*
X0182211Y0055197D01*
X0178961Y0049569D01*
X0175553Y0051537D01*
G37*
G36*
X0185699Y0069110D02*
X0188949Y0074738D01*
X0192357Y0072770D01*
X0189107Y0067142D01*
X0185699Y0069110D01*
G37*
G36*
X0174789Y0075409D02*
X0178039Y0081037D01*
X0181447Y0079069D01*
X0178197Y0073441D01*
X0174789Y0075409D01*
G37*
G36*
X0178039Y0135569D02*
X0174789Y0141197D01*
X0178197Y0143165D01*
X0181447Y0137537D01*
X0178039Y0135569D01*
G37*
G36*
X0188949Y0141868D02*
X0185699Y0147496D01*
X0189107Y0149464D01*
X0192357Y0143836D01*
X0188949Y0141868D01*
G37*
G36*
X0178803Y0159441D02*
X0175553Y0165069D01*
X0178961Y0167037D01*
X0182211Y0161409D01*
X0178803Y0159441D01*
G37*
G36*
X0167893Y0153142D02*
X0164643Y0158770D01*
X0168051Y0160738D01*
X0171301Y0155110D01*
X0167893Y0153142D01*
G37*
G36*
X0154467Y0168946D02*
X0148839Y0172196D01*
X0150807Y0175604D01*
X0156435Y0172354D01*
X0154467Y0168946D01*
G37*
G36*
X0160766Y0179857D02*
X0155138Y0183107D01*
X0157106Y0186515D01*
X0162734Y0183265D01*
X0160766Y0179857D01*
G37*
G36*
X0143193Y0190002D02*
X0137565Y0193252D01*
X0139533Y0196660D01*
X0145161Y0193410D01*
X0143193Y0190002D01*
G37*
G36*
X0136894Y0179092D02*
X0131266Y0182342D01*
X0133234Y0185750D01*
X0138862Y0182500D01*
X0136894Y0179092D01*
G37*
X0114146Y0188004D03*
X0114146Y0200602D03*
X0093854Y0200602D03*
X0093854Y0188004D03*
G36*
X0076734Y0182342D02*
X0071106Y0179092D01*
X0069138Y0182500D01*
X0074766Y0185750D01*
X0076734Y0182342D01*
G37*
G36*
X0070435Y0193252D02*
X0064807Y0190002D01*
X0062839Y0193410D01*
X0068467Y0196660D01*
X0070435Y0193252D01*
G37*
G36*
X0052862Y0183107D02*
X0047234Y0179857D01*
X0045266Y0183265D01*
X0050894Y0186515D01*
X0052862Y0183107D01*
G37*
G36*
X0059161Y0172196D02*
X0053533Y0168946D01*
X0051565Y0172354D01*
X0057193Y0175604D01*
X0059161Y0172196D01*
G37*
G36*
X0043357Y0158770D02*
X0040107Y0153142D01*
X0036699Y0155110D01*
X0039949Y0160738D01*
X0043357Y0158770D01*
G37*
G36*
X0032447Y0165069D02*
X0029197Y0159441D01*
X0025789Y0161409D01*
X0029039Y0167037D01*
X0032447Y0165069D01*
G37*
G36*
X0022301Y0147496D02*
X0019051Y0141868D01*
X0015643Y0143836D01*
X0018893Y0149464D01*
X0022301Y0147496D01*
G37*
G36*
X0033211Y0141197D02*
X0029961Y0135569D01*
X0026553Y0137537D01*
X0029803Y0143165D01*
X0033211Y0141197D01*
G37*
D15*
X0024299Y0118449D03*
X0011701Y0118449D03*
X0011701Y0098157D03*
X0024299Y0098157D03*
X0183701Y0098157D03*
X0196299Y0098157D03*
X0196299Y0118449D03*
X0183701Y0118449D03*
M02*
