G75*
%MOIN*%
%OFA0B0*%
%FSLAX25Y25*%
%IPPOS*%
%LPD*%
%AMOC8*
5,1,8,0,0,1.08239X$1,22.5*
%
%ADD10R,0.04831X0.04437*%
%ADD11C,0.06900*%
%ADD12R,0.01681X0.03650*%
%ADD13R,0.03650X0.01681*%
%ADD14R,0.04437X0.04831*%
%ADD15R,0.07000X0.04437*%
%ADD16R,0.04437X0.07000*%
%ADD17C,0.07900*%
%ADD18C,0.06406*%
%ADD19OC8,0.03700*%
%ADD20OC8,0.04262*%
D10*
X0047154Y0142803D03*
X0053846Y0142803D03*
X0106154Y0154303D03*
X0112846Y0154303D03*
D11*
X0125040Y0161985D03*
X0132818Y0155621D03*
X0139182Y0161985D03*
X0146960Y0155621D03*
X0139182Y0147843D03*
X0132818Y0169763D03*
D12*
X0105969Y0113823D03*
X0104000Y0113823D03*
X0102031Y0113823D03*
X0102031Y0103783D03*
X0104000Y0103783D03*
X0105969Y0103783D03*
D13*
X0109020Y0104866D03*
X0109020Y0106835D03*
X0109020Y0108803D03*
X0109020Y0110772D03*
X0109020Y0112740D03*
X0098980Y0112740D03*
X0098980Y0110772D03*
X0098980Y0108803D03*
X0098980Y0106835D03*
X0098980Y0104866D03*
D14*
X0118500Y0105957D03*
X0118500Y0112650D03*
X0125500Y0112650D03*
X0125500Y0105957D03*
X0133500Y0105957D03*
X0133500Y0112650D03*
D15*
G36*
X0167802Y0152800D02*
X0164302Y0158862D01*
X0168142Y0161080D01*
X0171642Y0155018D01*
X0167802Y0152800D01*
G37*
G36*
X0178712Y0159099D02*
X0175212Y0165161D01*
X0179052Y0167379D01*
X0182552Y0161317D01*
X0178712Y0159099D01*
G37*
G36*
X0188858Y0141526D02*
X0185358Y0147588D01*
X0189198Y0149806D01*
X0192698Y0143744D01*
X0188858Y0141526D01*
G37*
G36*
X0177948Y0135227D02*
X0174448Y0141289D01*
X0178288Y0143507D01*
X0181788Y0137445D01*
X0177948Y0135227D01*
G37*
G36*
X0154559Y0168605D02*
X0148497Y0172105D01*
X0150715Y0175945D01*
X0156777Y0172445D01*
X0154559Y0168605D01*
G37*
G36*
X0160858Y0179516D02*
X0154796Y0183016D01*
X0157014Y0186856D01*
X0163076Y0183356D01*
X0160858Y0179516D01*
G37*
G36*
X0143285Y0189661D02*
X0137223Y0193161D01*
X0139441Y0197001D01*
X0145503Y0193501D01*
X0143285Y0189661D01*
G37*
G36*
X0136986Y0178751D02*
X0130924Y0182251D01*
X0133142Y0186091D01*
X0139204Y0182591D01*
X0136986Y0178751D01*
G37*
X0114146Y0188004D03*
X0114146Y0200602D03*
X0093854Y0200602D03*
X0093854Y0188004D03*
G36*
X0077076Y0182251D02*
X0071014Y0178751D01*
X0068796Y0182591D01*
X0074858Y0186091D01*
X0077076Y0182251D01*
G37*
G36*
X0070777Y0193161D02*
X0064715Y0189661D01*
X0062497Y0193501D01*
X0068559Y0197001D01*
X0070777Y0193161D01*
G37*
G36*
X0059503Y0172105D02*
X0053441Y0168605D01*
X0051223Y0172445D01*
X0057285Y0175945D01*
X0059503Y0172105D01*
G37*
G36*
X0053204Y0183016D02*
X0047142Y0179516D01*
X0044924Y0183356D01*
X0050986Y0186856D01*
X0053204Y0183016D01*
G37*
G36*
X0032788Y0165161D02*
X0029288Y0159099D01*
X0025448Y0161317D01*
X0028948Y0167379D01*
X0032788Y0165161D01*
G37*
G36*
X0043698Y0158862D02*
X0040198Y0152800D01*
X0036358Y0155018D01*
X0039858Y0161080D01*
X0043698Y0158862D01*
G37*
G36*
X0033552Y0141289D02*
X0030052Y0135227D01*
X0026212Y0137445D01*
X0029712Y0143507D01*
X0033552Y0141289D01*
G37*
G36*
X0022642Y0147588D02*
X0019142Y0141526D01*
X0015302Y0143744D01*
X0018802Y0149806D01*
X0022642Y0147588D01*
G37*
G36*
X0030052Y0081379D02*
X0033552Y0075317D01*
X0029712Y0073099D01*
X0026212Y0079161D01*
X0030052Y0081379D01*
G37*
G36*
X0019142Y0075080D02*
X0022642Y0069018D01*
X0018802Y0066800D01*
X0015302Y0072862D01*
X0019142Y0075080D01*
G37*
G36*
X0029288Y0057507D02*
X0032788Y0051445D01*
X0028948Y0049227D01*
X0025448Y0055289D01*
X0029288Y0057507D01*
G37*
G36*
X0040198Y0063806D02*
X0043698Y0057744D01*
X0039858Y0055526D01*
X0036358Y0061588D01*
X0040198Y0063806D01*
G37*
G36*
X0053441Y0048001D02*
X0059503Y0044501D01*
X0057285Y0040661D01*
X0051223Y0044161D01*
X0053441Y0048001D01*
G37*
G36*
X0047142Y0037091D02*
X0053204Y0033591D01*
X0050986Y0029751D01*
X0044924Y0033251D01*
X0047142Y0037091D01*
G37*
G36*
X0064715Y0026945D02*
X0070777Y0023445D01*
X0068559Y0019605D01*
X0062497Y0023105D01*
X0064715Y0026945D01*
G37*
G36*
X0071014Y0037856D02*
X0077076Y0034356D01*
X0074858Y0030516D01*
X0068796Y0034016D01*
X0071014Y0037856D01*
G37*
X0093854Y0028602D03*
X0093854Y0016004D03*
X0114146Y0016004D03*
X0114146Y0028602D03*
G36*
X0130924Y0034356D02*
X0136986Y0037856D01*
X0139204Y0034016D01*
X0133142Y0030516D01*
X0130924Y0034356D01*
G37*
G36*
X0137223Y0023445D02*
X0143285Y0026945D01*
X0145503Y0023105D01*
X0139441Y0019605D01*
X0137223Y0023445D01*
G37*
G36*
X0154796Y0033591D02*
X0160858Y0037091D01*
X0163076Y0033251D01*
X0157014Y0029751D01*
X0154796Y0033591D01*
G37*
G36*
X0148497Y0044501D02*
X0154559Y0048001D01*
X0156777Y0044161D01*
X0150715Y0040661D01*
X0148497Y0044501D01*
G37*
G36*
X0164302Y0057744D02*
X0167802Y0063806D01*
X0171642Y0061588D01*
X0168142Y0055526D01*
X0164302Y0057744D01*
G37*
G36*
X0175212Y0051445D02*
X0178712Y0057507D01*
X0182552Y0055289D01*
X0179052Y0049227D01*
X0175212Y0051445D01*
G37*
G36*
X0185358Y0069018D02*
X0188858Y0075080D01*
X0192698Y0072862D01*
X0189198Y0066800D01*
X0185358Y0069018D01*
G37*
G36*
X0174448Y0075317D02*
X0177948Y0081379D01*
X0181788Y0079161D01*
X0178288Y0073099D01*
X0174448Y0075317D01*
G37*
D16*
X0183701Y0098157D03*
X0196299Y0098157D03*
X0196299Y0118449D03*
X0183701Y0118449D03*
X0024299Y0118449D03*
X0011701Y0118449D03*
X0011701Y0098157D03*
X0024299Y0098157D03*
D17*
X0039000Y0103303D03*
X0039000Y0113303D03*
D18*
X0036476Y0046620D03*
X0084210Y0019061D03*
D19*
X0086000Y0025803D03*
X0100500Y0015303D03*
X0126500Y0017303D03*
X0136000Y0018803D03*
X0158500Y0046803D03*
X0176000Y0047303D03*
X0168000Y0083803D03*
X0175000Y0096803D03*
X0195500Y0090803D03*
X0197500Y0125303D03*
X0185000Y0125803D03*
X0170500Y0126303D03*
X0149000Y0111303D03*
X0147500Y0116303D03*
X0137000Y0120803D03*
X0121000Y0120803D03*
X0113000Y0110803D03*
X0109000Y0118303D03*
X0096000Y0122303D03*
X0086500Y0128303D03*
X0069000Y0128803D03*
X0066000Y0142803D03*
X0051000Y0163303D03*
X0049500Y0169303D03*
X0031500Y0169803D03*
X0015000Y0140303D03*
X0018500Y0136303D03*
X0026000Y0133303D03*
X0011500Y0091303D03*
X0023500Y0090303D03*
X0015000Y0075803D03*
X0053500Y0063803D03*
X0063000Y0073303D03*
X0074500Y0103803D03*
X0080500Y0108803D03*
X0084500Y0104303D03*
X0087500Y0108303D03*
X0094000Y0104303D03*
X0114000Y0099803D03*
X0133500Y0098303D03*
X0099500Y0064303D03*
X0093500Y0053303D03*
X0091500Y0048803D03*
X0087500Y0046303D03*
X0109500Y0135803D03*
X0117500Y0149803D03*
X0130500Y0143303D03*
X0159500Y0153803D03*
X0163000Y0162303D03*
X0165500Y0180303D03*
X0129500Y0186303D03*
X0121000Y0200803D03*
X0097000Y0177303D03*
X0088000Y0187803D03*
X0085500Y0191803D03*
X0073000Y0197803D03*
X0193500Y0140303D03*
D20*
X0079500Y0078803D03*
X0034500Y0088303D03*
X0078000Y0029803D03*
M02*
