G75*
%MOIN*%
%OFA0B0*%
%FSLAX25Y25*%
%IPPOS*%
%LPD*%
%AMOC8*
5,1,8,0,0,1.08239X$1,22.5*
%
%ADD10R,0.04331X0.03937*%
%ADD11C,0.06400*%
%ADD12R,0.01181X0.03150*%
%ADD13R,0.03150X0.01181*%
%ADD14R,0.03937X0.04331*%
%ADD15R,0.06500X0.03937*%
%ADD16R,0.03937X0.06500*%
%ADD17C,0.07400*%
%ADD18C,0.01200*%
%ADD19OC8,0.03200*%
%ADD20OC8,0.03762*%
%ADD21C,0.01000*%
%ADD22C,0.01600*%
D10*
X0047154Y0142803D03*
X0053846Y0142803D03*
X0106154Y0154303D03*
X0112846Y0154303D03*
D11*
X0125040Y0161985D03*
X0132818Y0155621D03*
X0139182Y0161985D03*
X0146960Y0155621D03*
X0139182Y0147843D03*
X0132818Y0169763D03*
D12*
X0105969Y0113823D03*
X0104000Y0113823D03*
X0102031Y0113823D03*
X0102031Y0103783D03*
X0104000Y0103783D03*
X0105969Y0103783D03*
D13*
X0109020Y0104866D03*
X0109020Y0106835D03*
X0109020Y0108803D03*
X0109020Y0110772D03*
X0109020Y0112740D03*
X0098980Y0112740D03*
X0098980Y0110772D03*
X0098980Y0108803D03*
X0098980Y0106835D03*
X0098980Y0104866D03*
D14*
X0118500Y0105957D03*
X0118500Y0112650D03*
X0125500Y0112650D03*
X0125500Y0105957D03*
X0133500Y0105957D03*
X0133500Y0112650D03*
D15*
G36*
X0167893Y0153142D02*
X0164643Y0158770D01*
X0168051Y0160738D01*
X0171301Y0155110D01*
X0167893Y0153142D01*
G37*
G36*
X0178803Y0159441D02*
X0175553Y0165069D01*
X0178961Y0167037D01*
X0182211Y0161409D01*
X0178803Y0159441D01*
G37*
G36*
X0188949Y0141868D02*
X0185699Y0147496D01*
X0189107Y0149464D01*
X0192357Y0143836D01*
X0188949Y0141868D01*
G37*
G36*
X0178039Y0135569D02*
X0174789Y0141197D01*
X0178197Y0143165D01*
X0181447Y0137537D01*
X0178039Y0135569D01*
G37*
G36*
X0154467Y0168946D02*
X0148839Y0172196D01*
X0150807Y0175604D01*
X0156435Y0172354D01*
X0154467Y0168946D01*
G37*
G36*
X0160766Y0179857D02*
X0155138Y0183107D01*
X0157106Y0186515D01*
X0162734Y0183265D01*
X0160766Y0179857D01*
G37*
G36*
X0143193Y0190002D02*
X0137565Y0193252D01*
X0139533Y0196660D01*
X0145161Y0193410D01*
X0143193Y0190002D01*
G37*
G36*
X0136894Y0179092D02*
X0131266Y0182342D01*
X0133234Y0185750D01*
X0138862Y0182500D01*
X0136894Y0179092D01*
G37*
X0114146Y0188004D03*
X0114146Y0200602D03*
X0093854Y0200602D03*
X0093854Y0188004D03*
G36*
X0076734Y0182342D02*
X0071106Y0179092D01*
X0069138Y0182500D01*
X0074766Y0185750D01*
X0076734Y0182342D01*
G37*
G36*
X0070435Y0193252D02*
X0064807Y0190002D01*
X0062839Y0193410D01*
X0068467Y0196660D01*
X0070435Y0193252D01*
G37*
G36*
X0052862Y0183107D02*
X0047234Y0179857D01*
X0045266Y0183265D01*
X0050894Y0186515D01*
X0052862Y0183107D01*
G37*
G36*
X0059161Y0172196D02*
X0053533Y0168946D01*
X0051565Y0172354D01*
X0057193Y0175604D01*
X0059161Y0172196D01*
G37*
G36*
X0043357Y0158770D02*
X0040107Y0153142D01*
X0036699Y0155110D01*
X0039949Y0160738D01*
X0043357Y0158770D01*
G37*
G36*
X0032447Y0165069D02*
X0029197Y0159441D01*
X0025789Y0161409D01*
X0029039Y0167037D01*
X0032447Y0165069D01*
G37*
G36*
X0022301Y0147496D02*
X0019051Y0141868D01*
X0015643Y0143836D01*
X0018893Y0149464D01*
X0022301Y0147496D01*
G37*
G36*
X0033211Y0141197D02*
X0029961Y0135569D01*
X0026553Y0137537D01*
X0029803Y0143165D01*
X0033211Y0141197D01*
G37*
G36*
X0029961Y0081037D02*
X0033211Y0075409D01*
X0029803Y0073441D01*
X0026553Y0079069D01*
X0029961Y0081037D01*
G37*
G36*
X0019051Y0074738D02*
X0022301Y0069110D01*
X0018893Y0067142D01*
X0015643Y0072770D01*
X0019051Y0074738D01*
G37*
G36*
X0029197Y0057165D02*
X0032447Y0051537D01*
X0029039Y0049569D01*
X0025789Y0055197D01*
X0029197Y0057165D01*
G37*
G36*
X0040107Y0063464D02*
X0043357Y0057836D01*
X0039949Y0055868D01*
X0036699Y0061496D01*
X0040107Y0063464D01*
G37*
G36*
X0053533Y0047660D02*
X0059161Y0044410D01*
X0057193Y0041002D01*
X0051565Y0044252D01*
X0053533Y0047660D01*
G37*
G36*
X0047234Y0036750D02*
X0052862Y0033500D01*
X0050894Y0030092D01*
X0045266Y0033342D01*
X0047234Y0036750D01*
G37*
G36*
X0064807Y0026604D02*
X0070435Y0023354D01*
X0068467Y0019946D01*
X0062839Y0023196D01*
X0064807Y0026604D01*
G37*
G36*
X0071106Y0037515D02*
X0076734Y0034265D01*
X0074766Y0030857D01*
X0069138Y0034107D01*
X0071106Y0037515D01*
G37*
X0093854Y0028602D03*
X0093854Y0016004D03*
X0114146Y0016004D03*
X0114146Y0028602D03*
G36*
X0131266Y0034265D02*
X0136894Y0037515D01*
X0138862Y0034107D01*
X0133234Y0030857D01*
X0131266Y0034265D01*
G37*
G36*
X0137565Y0023354D02*
X0143193Y0026604D01*
X0145161Y0023196D01*
X0139533Y0019946D01*
X0137565Y0023354D01*
G37*
G36*
X0155138Y0033500D02*
X0160766Y0036750D01*
X0162734Y0033342D01*
X0157106Y0030092D01*
X0155138Y0033500D01*
G37*
G36*
X0148839Y0044410D02*
X0154467Y0047660D01*
X0156435Y0044252D01*
X0150807Y0041002D01*
X0148839Y0044410D01*
G37*
G36*
X0164643Y0057836D02*
X0167893Y0063464D01*
X0171301Y0061496D01*
X0168051Y0055868D01*
X0164643Y0057836D01*
G37*
G36*
X0175553Y0051537D02*
X0178803Y0057165D01*
X0182211Y0055197D01*
X0178961Y0049569D01*
X0175553Y0051537D01*
G37*
G36*
X0185699Y0069110D02*
X0188949Y0074738D01*
X0192357Y0072770D01*
X0189107Y0067142D01*
X0185699Y0069110D01*
G37*
G36*
X0174789Y0075409D02*
X0178039Y0081037D01*
X0181447Y0079069D01*
X0178197Y0073441D01*
X0174789Y0075409D01*
G37*
D16*
X0183701Y0098157D03*
X0196299Y0098157D03*
X0196299Y0118449D03*
X0183701Y0118449D03*
X0024299Y0118449D03*
X0011701Y0118449D03*
X0011701Y0098157D03*
X0024299Y0098157D03*
D17*
X0039000Y0103303D03*
X0039000Y0113303D03*
D18*
X0035000Y0113303D01*
X0029445Y0113303D01*
X0024299Y0118449D01*
X0017000Y0110303D02*
X0010701Y0116602D01*
X0011701Y0118449D01*
X0017000Y0110303D02*
X0017000Y0081394D01*
X0040028Y0059666D01*
X0042564Y0052867D02*
X0053500Y0063803D01*
X0057500Y0064803D02*
X0057500Y0060803D01*
X0055500Y0058803D01*
X0052500Y0058803D01*
X0042000Y0048303D01*
X0042000Y0043303D01*
X0040000Y0041303D01*
X0040000Y0036303D01*
X0042882Y0033421D01*
X0049064Y0033421D01*
X0055363Y0044331D02*
X0062335Y0051303D01*
X0075500Y0051303D01*
X0084500Y0042303D01*
X0092000Y0042303D01*
X0096500Y0046803D01*
X0096500Y0031248D01*
X0093854Y0028602D01*
X0087500Y0025803D02*
X0092000Y0021303D01*
X0104000Y0021303D01*
X0114146Y0016004D01*
X0147500Y0032803D01*
X0158936Y0033421D01*
X0179500Y0064803D01*
X0189028Y0070940D01*
X0191000Y0108303D01*
X0196299Y0118449D01*
X0197500Y0125303D02*
X0194000Y0128803D01*
X0178500Y0151303D01*
X0178500Y0162857D01*
X0178882Y0163239D01*
X0147500Y0183303D01*
X0141363Y0193331D01*
X0104000Y0195303D01*
X0093854Y0200602D01*
X0060500Y0183303D01*
X0049064Y0183186D01*
X0029000Y0151803D01*
X0018972Y0145666D01*
X0015000Y0140303D01*
X0026000Y0133303D02*
X0029882Y0139367D01*
X0041500Y0145803D02*
X0041500Y0127303D01*
X0048000Y0120803D01*
X0048000Y0099303D01*
X0043000Y0094303D01*
X0032000Y0094303D01*
X0030000Y0092303D01*
X0030000Y0086303D01*
X0034500Y0081803D01*
X0040500Y0081803D01*
X0057500Y0064803D01*
X0060500Y0067803D02*
X0040000Y0088303D01*
X0034500Y0088303D01*
X0027500Y0093803D02*
X0027500Y0079622D01*
X0029882Y0077239D01*
X0018972Y0070940D02*
X0015000Y0075803D01*
X0023500Y0090303D02*
X0024299Y0098157D01*
X0027500Y0093803D02*
X0031000Y0097303D01*
X0031000Y0109303D01*
X0035000Y0113303D01*
X0047154Y0133150D02*
X0063500Y0116803D01*
X0063500Y0102303D01*
X0073500Y0092303D01*
X0124000Y0092303D01*
X0130000Y0098303D01*
X0133500Y0098303D01*
X0133500Y0105957D02*
X0125500Y0105957D01*
X0124500Y0102803D01*
X0121500Y0099803D01*
X0114000Y0099803D01*
X0112500Y0098303D01*
X0105000Y0098303D01*
X0102031Y0101272D01*
X0102031Y0103783D01*
X0102031Y0101335D01*
X0099000Y0098303D01*
X0072500Y0098303D01*
X0069000Y0101803D01*
X0069000Y0112803D01*
X0078500Y0122303D01*
X0096000Y0122303D01*
X0096000Y0127803D01*
X0104000Y0135803D01*
X0109500Y0135803D01*
X0106154Y0139150D01*
X0106154Y0154303D01*
X0117500Y0149803D02*
X0121000Y0146303D01*
X0121000Y0120803D01*
X0119500Y0122303D01*
X0106500Y0122303D01*
X0104000Y0119803D01*
X0104000Y0113823D01*
X0105969Y0113823D02*
X0105969Y0115272D01*
X0109000Y0118303D01*
X0111000Y0115803D02*
X0113846Y0115803D01*
X0118500Y0112650D01*
X0118500Y0118303D01*
X0121000Y0120803D01*
X0125500Y0116303D01*
X0125500Y0112650D01*
X0133500Y0112650D01*
X0143846Y0112650D01*
X0144000Y0112803D01*
X0144000Y0112303D01*
X0166000Y0090303D01*
X0175846Y0090303D01*
X0183701Y0098157D01*
X0178118Y0103741D01*
X0178118Y0139367D01*
X0175000Y0138303D02*
X0159500Y0153803D01*
X0153500Y0152303D02*
X0153500Y0160303D01*
X0139000Y0174803D01*
X0112000Y0174803D01*
X0103500Y0183303D01*
X0090500Y0183303D01*
X0066000Y0158803D01*
X0066000Y0142803D01*
X0053846Y0142803D01*
X0047154Y0142803D02*
X0047154Y0133150D01*
X0041500Y0145803D02*
X0052000Y0156303D01*
X0056000Y0156303D01*
X0080000Y0180303D01*
X0080000Y0186803D01*
X0085000Y0191803D01*
X0085500Y0191803D01*
X0088000Y0187803D02*
X0093854Y0188004D01*
X0092500Y0180803D02*
X0086500Y0174803D01*
X0086500Y0128303D01*
X0086846Y0115303D02*
X0086846Y0115150D01*
X0080500Y0108803D01*
X0074500Y0103803D01*
X0074366Y0102669D01*
X0084500Y0104303D02*
X0089500Y0104303D01*
X0094000Y0108803D01*
X0098980Y0108803D01*
X0098980Y0106835D02*
X0096531Y0106835D01*
X0094000Y0104303D01*
X0089969Y0110772D02*
X0087500Y0108303D01*
X0089969Y0110772D02*
X0098980Y0110772D01*
X0098980Y0112740D02*
X0097563Y0112740D01*
X0095000Y0115303D01*
X0086846Y0115303D01*
X0109020Y0113823D02*
X0109020Y0112740D01*
X0109020Y0113823D02*
X0111000Y0115803D01*
X0109051Y0110803D02*
X0109020Y0110772D01*
X0109051Y0110803D02*
X0113000Y0110803D01*
X0112969Y0106835D02*
X0109020Y0106835D01*
X0109020Y0104866D02*
X0109020Y0104783D01*
X0114000Y0099803D01*
X0114000Y0105803D02*
X0116846Y0105803D01*
X0118500Y0105957D01*
X0114000Y0105803D02*
X0112969Y0106835D01*
X0116909Y0112740D02*
X0118500Y0112650D01*
X0137000Y0120803D02*
X0124500Y0133303D01*
X0124500Y0142803D01*
X0128500Y0146803D01*
X0132000Y0146803D01*
X0137500Y0141303D01*
X0142500Y0141303D01*
X0153500Y0152303D01*
X0163000Y0162303D02*
X0163909Y0162303D01*
X0167972Y0156940D01*
X0175000Y0138303D02*
X0175000Y0096803D01*
X0168000Y0083803D02*
X0178118Y0077239D01*
X0167972Y0059666D02*
X0160545Y0059666D01*
X0135064Y0034186D01*
X0115946Y0053303D01*
X0093500Y0053303D01*
X0096500Y0050303D01*
X0096500Y0046803D01*
X0091500Y0048803D02*
X0067000Y0073303D01*
X0063000Y0073303D01*
X0060500Y0067803D02*
X0066000Y0067803D01*
X0087500Y0046303D01*
X0093500Y0053303D02*
X0093500Y0058303D01*
X0099500Y0064303D01*
X0094000Y0064303D01*
X0079500Y0078803D01*
X0042564Y0052867D02*
X0029118Y0053367D01*
X0011500Y0091303D02*
X0011701Y0098157D01*
X0040028Y0156940D02*
X0046391Y0163303D01*
X0051000Y0163303D01*
X0053818Y0163303D01*
X0072936Y0182421D01*
X0066637Y0193331D02*
X0073000Y0197803D01*
X0092500Y0180803D02*
X0101000Y0180803D01*
X0112040Y0169763D01*
X0112540Y0169763D01*
X0132818Y0169763D01*
X0135064Y0182421D02*
X0129500Y0186303D01*
X0121000Y0200803D02*
X0114146Y0200602D01*
X0100000Y0177303D02*
X0097000Y0177303D01*
X0100000Y0177303D02*
X0125000Y0152303D01*
X0129500Y0152303D01*
X0132818Y0155621D01*
X0130500Y0143303D02*
X0147500Y0126303D01*
X0170500Y0126303D01*
X0185000Y0125803D02*
X0183701Y0118449D01*
X0196299Y0098157D02*
X0197299Y0092602D01*
X0195500Y0090803D01*
X0178882Y0053367D02*
X0176000Y0047303D01*
X0158500Y0046803D02*
X0152637Y0044331D01*
X0141363Y0023275D02*
X0136000Y0018803D01*
X0100500Y0015303D02*
X0093854Y0016004D01*
X0087500Y0025803D02*
X0086000Y0025803D01*
X0080500Y0025803D01*
X0079500Y0024803D01*
X0079500Y0022303D01*
X0075500Y0018303D01*
X0070000Y0018303D01*
X0066637Y0021666D01*
X0066637Y0023275D01*
X0144000Y0112803D02*
X0147500Y0116303D01*
X0109500Y0135803D02*
X0109154Y0136150D01*
X0158936Y0183186D02*
X0165500Y0180303D01*
X0189028Y0145666D02*
X0193500Y0140303D01*
X0055363Y0172275D02*
X0049500Y0169303D01*
X0031500Y0169803D02*
X0029118Y0163239D01*
D19*
X0031500Y0169803D03*
X0049500Y0169303D03*
X0051000Y0163303D03*
X0066000Y0142803D03*
X0069000Y0128803D03*
X0086500Y0128303D03*
X0096000Y0122303D03*
X0109000Y0118303D03*
X0113000Y0110803D03*
X0121000Y0120803D03*
X0109500Y0135803D03*
X0117500Y0149803D03*
X0130500Y0143303D03*
X0137000Y0120803D03*
X0147500Y0116303D03*
X0149000Y0111303D03*
X0133500Y0098303D03*
X0114000Y0099803D03*
X0094000Y0104303D03*
X0087500Y0108303D03*
X0084500Y0104303D03*
X0080500Y0108803D03*
X0074500Y0103803D03*
X0063000Y0073303D03*
X0053500Y0063803D03*
X0087500Y0046303D03*
X0091500Y0048803D03*
X0093500Y0053303D03*
X0099500Y0064303D03*
X0086000Y0025803D03*
X0100500Y0015303D03*
X0126500Y0017303D03*
X0136000Y0018803D03*
X0158500Y0046803D03*
X0176000Y0047303D03*
X0168000Y0083803D03*
X0175000Y0096803D03*
X0195500Y0090803D03*
X0197500Y0125303D03*
X0185000Y0125803D03*
X0170500Y0126303D03*
X0193500Y0140303D03*
X0163000Y0162303D03*
X0159500Y0153803D03*
X0165500Y0180303D03*
X0129500Y0186303D03*
X0121000Y0200803D03*
X0097000Y0177303D03*
X0088000Y0187803D03*
X0085500Y0191803D03*
X0073000Y0197803D03*
X0015000Y0140303D03*
X0018500Y0136303D03*
X0026000Y0133303D03*
X0011500Y0091303D03*
X0023500Y0090303D03*
X0015000Y0075803D03*
D20*
X0034500Y0088303D03*
X0079500Y0078803D03*
X0078000Y0029803D03*
D21*
X0036127Y0038807D02*
X0028040Y0047678D01*
X0021104Y0057476D01*
X0015425Y0068052D01*
X0013206Y0073779D01*
X0013882Y0073103D01*
X0014592Y0073103D01*
X0014462Y0072615D01*
X0018167Y0066197D01*
X0019048Y0065961D01*
X0023246Y0068385D01*
X0023482Y0069265D01*
X0019776Y0075683D01*
X0018896Y0075919D01*
X0017700Y0075229D01*
X0017700Y0076922D01*
X0016118Y0078503D01*
X0013882Y0078503D01*
X0012300Y0076922D01*
X0012300Y0076118D01*
X0011088Y0079246D01*
X0008160Y0090888D01*
X0006685Y0102801D01*
X0006685Y0114805D01*
X0008160Y0126719D01*
X0011088Y0138361D01*
X0015425Y0149554D01*
X0021104Y0160130D01*
X0028040Y0169928D01*
X0028800Y0170762D01*
X0028800Y0168685D01*
X0029156Y0168329D01*
X0029108Y0168196D01*
X0028313Y0167983D01*
X0024607Y0161564D01*
X0024843Y0160684D01*
X0029042Y0158260D01*
X0029922Y0158496D01*
X0033628Y0164914D01*
X0033392Y0165794D01*
X0032120Y0166529D01*
X0032329Y0167103D01*
X0032618Y0167103D01*
X0034200Y0168685D01*
X0034200Y0170922D01*
X0032618Y0172503D01*
X0030387Y0172503D01*
X0036127Y0178800D01*
X0045243Y0186610D01*
X0055250Y0193241D01*
X0065996Y0198591D01*
X0077318Y0202581D01*
X0089044Y0205149D01*
X0100997Y0206257D01*
X0112996Y0205887D01*
X0124858Y0204046D01*
X0136405Y0200761D01*
X0147459Y0196082D01*
X0157856Y0190079D01*
X0167435Y0182845D01*
X0176053Y0174488D01*
X0183579Y0165136D01*
X0189899Y0154930D01*
X0194916Y0144024D01*
X0195531Y0142090D01*
X0194618Y0143003D01*
X0193462Y0143003D01*
X0193319Y0143174D01*
X0193538Y0143991D01*
X0189833Y0150410D01*
X0188952Y0150646D01*
X0184754Y0148221D01*
X0184518Y0147341D01*
X0188224Y0140923D01*
X0189104Y0140687D01*
X0190361Y0141413D01*
X0190800Y0140887D01*
X0190800Y0139185D01*
X0192382Y0137603D01*
X0194618Y0137603D01*
X0196200Y0139185D01*
X0196200Y0139988D01*
X0198555Y0132585D01*
X0199594Y0127027D01*
X0198618Y0128003D01*
X0197204Y0128003D01*
X0195312Y0129895D01*
X0180200Y0151832D01*
X0180200Y0158977D01*
X0183157Y0160684D01*
X0183393Y0161564D01*
X0179687Y0167983D01*
X0178807Y0168218D01*
X0176412Y0166836D01*
X0148746Y0184524D01*
X0144915Y0190784D01*
X0146342Y0193256D01*
X0146107Y0194136D01*
X0139688Y0197841D01*
X0138808Y0197606D01*
X0137443Y0195241D01*
X0104459Y0196981D01*
X0098204Y0200248D01*
X0098204Y0203027D01*
X0097560Y0203671D01*
X0090149Y0203671D01*
X0089504Y0203027D01*
X0089504Y0200261D01*
X0060077Y0184999D01*
X0053082Y0184927D01*
X0051619Y0187460D01*
X0050739Y0187696D01*
X0044321Y0183990D01*
X0044085Y0183110D01*
X0045467Y0180716D01*
X0027779Y0153049D01*
X0021519Y0149218D01*
X0019048Y0150646D01*
X0018167Y0150410D01*
X0014462Y0143991D01*
X0014698Y0143111D01*
X0014884Y0143003D01*
X0013882Y0143003D01*
X0012300Y0141422D01*
X0012300Y0139185D01*
X0013882Y0137603D01*
X0016118Y0137603D01*
X0017700Y0139185D01*
X0017700Y0141092D01*
X0017848Y0141292D01*
X0018896Y0140687D01*
X0019776Y0140923D01*
X0022672Y0145937D01*
X0029644Y0150204D01*
X0030053Y0150294D01*
X0030221Y0150558D01*
X0030488Y0150721D01*
X0030586Y0151128D01*
X0048672Y0179416D01*
X0052314Y0181519D01*
X0060246Y0181600D01*
X0060658Y0181470D01*
X0060923Y0181607D01*
X0061222Y0181610D01*
X0061524Y0181919D01*
X0082867Y0192989D01*
X0082800Y0192922D01*
X0082800Y0192007D01*
X0079296Y0188503D01*
X0078300Y0187507D01*
X0078300Y0181007D01*
X0055296Y0158003D01*
X0051296Y0158003D01*
X0040796Y0147503D01*
X0039800Y0146507D01*
X0039800Y0126599D01*
X0046300Y0120099D01*
X0046300Y0100007D01*
X0042296Y0096003D01*
X0031296Y0096003D01*
X0029296Y0094003D01*
X0028300Y0093007D01*
X0028300Y0085599D01*
X0032800Y0081099D01*
X0033796Y0080103D01*
X0039796Y0080103D01*
X0053396Y0066503D01*
X0052382Y0066503D01*
X0050800Y0064922D01*
X0050800Y0063507D01*
X0041886Y0054593D01*
X0031735Y0054971D01*
X0029922Y0058111D01*
X0029042Y0058346D01*
X0024843Y0055922D01*
X0024607Y0055042D01*
X0028313Y0048624D01*
X0029193Y0048388D01*
X0033392Y0050812D01*
X0033576Y0051500D01*
X0035173Y0051441D01*
X0033671Y0050819D01*
X0032278Y0049425D01*
X0031524Y0047605D01*
X0031524Y0045635D01*
X0032278Y0043814D01*
X0033671Y0042421D01*
X0035491Y0041667D01*
X0037462Y0041667D01*
X0038312Y0042019D01*
X0038300Y0042007D01*
X0038300Y0036945D01*
X0036127Y0038807D01*
X0035719Y0039254D02*
X0038300Y0039254D01*
X0038300Y0038256D02*
X0036770Y0038256D01*
X0037936Y0037257D02*
X0038300Y0037257D01*
X0038300Y0040253D02*
X0034809Y0040253D01*
X0033899Y0041251D02*
X0038300Y0041251D01*
X0034085Y0042250D02*
X0032988Y0042250D01*
X0032844Y0043248D02*
X0032078Y0043248D01*
X0032099Y0044247D02*
X0031168Y0044247D01*
X0031685Y0045245D02*
X0030258Y0045245D01*
X0029347Y0046244D02*
X0031524Y0046244D01*
X0031524Y0047242D02*
X0028437Y0047242D01*
X0027641Y0048241D02*
X0031787Y0048241D01*
X0032201Y0049239D02*
X0030668Y0049239D01*
X0032397Y0050238D02*
X0033090Y0050238D01*
X0033506Y0051236D02*
X0034679Y0051236D01*
X0031585Y0055230D02*
X0039046Y0055230D01*
X0039224Y0054923D02*
X0040104Y0054687D01*
X0044302Y0057111D01*
X0044538Y0057991D01*
X0040833Y0064410D01*
X0039952Y0064646D01*
X0038262Y0063670D01*
X0029454Y0071981D01*
X0029605Y0071940D01*
X0030000Y0071940D01*
X0030382Y0072043D01*
X0031838Y0072883D01*
X0029705Y0076578D01*
X0027121Y0075086D01*
X0028266Y0073101D01*
X0018700Y0082128D01*
X0018700Y0111007D01*
X0014769Y0114938D01*
X0014769Y0122154D01*
X0014125Y0122799D01*
X0009277Y0122799D01*
X0008632Y0122154D01*
X0008632Y0114743D01*
X0009277Y0114099D01*
X0010800Y0114099D01*
X0015300Y0109599D01*
X0015300Y0082070D01*
X0015280Y0082049D01*
X0015300Y0081370D01*
X0015300Y0080690D01*
X0015320Y0080670D01*
X0015321Y0080641D01*
X0015815Y0080175D01*
X0016296Y0079694D01*
X0016325Y0079694D01*
X0035570Y0061536D01*
X0035518Y0061341D01*
X0039224Y0054923D01*
X0038470Y0056229D02*
X0031009Y0056229D01*
X0030432Y0057227D02*
X0037893Y0057227D01*
X0037317Y0058226D02*
X0029492Y0058226D01*
X0028833Y0058226D02*
X0020701Y0058226D01*
X0020165Y0059224D02*
X0036740Y0059224D01*
X0036164Y0060223D02*
X0019629Y0060223D01*
X0019093Y0061221D02*
X0035587Y0061221D01*
X0034845Y0062220D02*
X0018556Y0062220D01*
X0018020Y0063218D02*
X0033787Y0063218D01*
X0032728Y0064217D02*
X0017484Y0064217D01*
X0016948Y0065215D02*
X0031670Y0065215D01*
X0030612Y0066214D02*
X0019486Y0066214D01*
X0018157Y0066214D02*
X0016412Y0066214D01*
X0015876Y0067212D02*
X0017581Y0067212D01*
X0017004Y0068211D02*
X0015363Y0068211D01*
X0014976Y0069209D02*
X0016428Y0069209D01*
X0015851Y0070208D02*
X0014589Y0070208D01*
X0014203Y0071206D02*
X0015275Y0071206D01*
X0014698Y0072205D02*
X0013816Y0072205D01*
X0013781Y0073203D02*
X0013429Y0073203D01*
X0012300Y0076199D02*
X0012268Y0076199D01*
X0012576Y0077197D02*
X0011882Y0077197D01*
X0011495Y0078196D02*
X0013574Y0078196D01*
X0011108Y0079194D02*
X0016854Y0079194D01*
X0016426Y0078196D02*
X0017913Y0078196D01*
X0017424Y0077197D02*
X0018971Y0077197D01*
X0020029Y0076199D02*
X0017700Y0076199D01*
X0020055Y0075200D02*
X0021087Y0075200D01*
X0020632Y0074202D02*
X0022146Y0074202D01*
X0021208Y0073203D02*
X0023204Y0073203D01*
X0024262Y0072205D02*
X0021785Y0072205D01*
X0022361Y0071206D02*
X0025320Y0071206D01*
X0026379Y0070208D02*
X0022938Y0070208D01*
X0023467Y0069209D02*
X0027437Y0069209D01*
X0028495Y0068211D02*
X0022945Y0068211D01*
X0021215Y0067212D02*
X0029554Y0067212D01*
X0031333Y0070208D02*
X0049691Y0070208D01*
X0048693Y0071206D02*
X0030275Y0071206D01*
X0030663Y0072205D02*
X0047694Y0072205D01*
X0046696Y0073203D02*
X0031653Y0073203D01*
X0032677Y0073368D02*
X0030544Y0077062D01*
X0030060Y0077901D01*
X0032644Y0079393D01*
X0031162Y0081959D01*
X0030883Y0082238D01*
X0030541Y0082436D01*
X0030160Y0082538D01*
X0029765Y0082538D01*
X0029383Y0082436D01*
X0027927Y0081595D01*
X0030060Y0077901D01*
X0029221Y0077416D01*
X0029705Y0076578D01*
X0030544Y0077062D01*
X0033128Y0078554D01*
X0034610Y0075988D01*
X0034712Y0075606D01*
X0034712Y0075211D01*
X0034610Y0074830D01*
X0034413Y0074488D01*
X0034133Y0074209D01*
X0032677Y0073368D01*
X0032195Y0074202D02*
X0031077Y0074202D01*
X0031619Y0075200D02*
X0030500Y0075200D01*
X0031042Y0076199D02*
X0029924Y0076199D01*
X0029049Y0076199D02*
X0027112Y0076199D01*
X0026636Y0075924D02*
X0025155Y0078491D01*
X0025053Y0078872D01*
X0025053Y0079267D01*
X0025155Y0079648D01*
X0025352Y0079991D01*
X0025632Y0080270D01*
X0027088Y0081111D01*
X0029221Y0077416D01*
X0026636Y0075924D01*
X0026478Y0076199D02*
X0024983Y0076199D01*
X0025901Y0077197D02*
X0023925Y0077197D01*
X0022867Y0078196D02*
X0025325Y0078196D01*
X0025053Y0079194D02*
X0021809Y0079194D01*
X0020750Y0080193D02*
X0025555Y0080193D01*
X0027618Y0080193D02*
X0028736Y0080193D01*
X0028194Y0079194D02*
X0029313Y0079194D01*
X0028771Y0078196D02*
X0029889Y0078196D01*
X0030571Y0078196D02*
X0032508Y0078196D01*
X0033335Y0078196D02*
X0041703Y0078196D01*
X0040705Y0079194D02*
X0032301Y0079194D01*
X0032182Y0080193D02*
X0033706Y0080193D01*
X0032707Y0081191D02*
X0031606Y0081191D01*
X0031709Y0082190D02*
X0030931Y0082190D01*
X0030710Y0083189D02*
X0018700Y0083189D01*
X0018700Y0084187D02*
X0029712Y0084187D01*
X0028713Y0085186D02*
X0018700Y0085186D01*
X0018700Y0086184D02*
X0028300Y0086184D01*
X0028300Y0087183D02*
X0018700Y0087183D01*
X0018700Y0088181D02*
X0021804Y0088181D01*
X0022382Y0087603D02*
X0024618Y0087603D01*
X0026200Y0089185D01*
X0026200Y0091422D01*
X0025404Y0092218D01*
X0025565Y0093807D01*
X0026723Y0093807D01*
X0027368Y0094452D01*
X0027368Y0101863D01*
X0026723Y0102507D01*
X0021875Y0102507D01*
X0021231Y0101863D01*
X0021231Y0094452D01*
X0021875Y0093807D01*
X0022148Y0093807D01*
X0022030Y0092652D01*
X0020800Y0091422D01*
X0020800Y0089185D01*
X0022382Y0087603D01*
X0020805Y0089180D02*
X0018700Y0089180D01*
X0018700Y0090178D02*
X0020800Y0090178D01*
X0020800Y0091177D02*
X0018700Y0091177D01*
X0018700Y0092175D02*
X0021554Y0092175D01*
X0022083Y0093174D02*
X0018700Y0093174D01*
X0018700Y0094172D02*
X0021510Y0094172D01*
X0021231Y0095171D02*
X0018700Y0095171D01*
X0018700Y0096169D02*
X0021231Y0096169D01*
X0021231Y0097168D02*
X0018700Y0097168D01*
X0018700Y0098166D02*
X0021231Y0098166D01*
X0021231Y0099165D02*
X0018700Y0099165D01*
X0018700Y0100163D02*
X0021231Y0100163D01*
X0021231Y0101162D02*
X0018700Y0101162D01*
X0018700Y0102160D02*
X0021528Y0102160D01*
X0018700Y0103159D02*
X0034200Y0103159D01*
X0034200Y0102348D02*
X0034931Y0100584D01*
X0036281Y0099234D01*
X0038045Y0098503D01*
X0039955Y0098503D01*
X0041719Y0099234D01*
X0043069Y0100584D01*
X0043800Y0102348D01*
X0043800Y0104258D01*
X0043069Y0106022D01*
X0041719Y0107372D01*
X0039955Y0108103D01*
X0038045Y0108103D01*
X0036281Y0107372D01*
X0034931Y0106022D01*
X0034200Y0104258D01*
X0034200Y0102348D01*
X0034278Y0102160D02*
X0027071Y0102160D01*
X0027368Y0101162D02*
X0034692Y0101162D01*
X0035352Y0100163D02*
X0027368Y0100163D01*
X0027368Y0099165D02*
X0036448Y0099165D01*
X0041552Y0099165D02*
X0045457Y0099165D01*
X0046300Y0100163D02*
X0042648Y0100163D01*
X0043308Y0101162D02*
X0046300Y0101162D01*
X0046300Y0102160D02*
X0043722Y0102160D01*
X0043800Y0103159D02*
X0046300Y0103159D01*
X0046300Y0104157D02*
X0043800Y0104157D01*
X0043428Y0105156D02*
X0046300Y0105156D01*
X0046300Y0106154D02*
X0042937Y0106154D01*
X0041939Y0107153D02*
X0046300Y0107153D01*
X0046300Y0108151D02*
X0039713Y0108151D01*
X0039500Y0108151D02*
X0038500Y0108151D01*
X0038500Y0108118D02*
X0038500Y0112803D01*
X0039500Y0112803D01*
X0039500Y0108118D01*
X0040218Y0108231D01*
X0040996Y0108484D01*
X0041725Y0108856D01*
X0042388Y0109337D01*
X0042966Y0109916D01*
X0043447Y0110578D01*
X0043819Y0111307D01*
X0044072Y0112085D01*
X0044186Y0112803D01*
X0039500Y0112803D01*
X0039500Y0113803D01*
X0044186Y0113803D01*
X0044072Y0114521D01*
X0043819Y0115299D01*
X0043447Y0116029D01*
X0042966Y0116691D01*
X0042388Y0117269D01*
X0041725Y0117751D01*
X0040996Y0118122D01*
X0040218Y0118375D01*
X0039500Y0118489D01*
X0039500Y0113803D01*
X0038500Y0113803D01*
X0038500Y0112803D01*
X0033814Y0112803D01*
X0033928Y0112085D01*
X0034181Y0111307D01*
X0034553Y0110578D01*
X0035034Y0109916D01*
X0035612Y0109337D01*
X0036275Y0108856D01*
X0037004Y0108484D01*
X0037782Y0108231D01*
X0038500Y0108118D01*
X0038287Y0108151D02*
X0018700Y0108151D01*
X0018700Y0107153D02*
X0036061Y0107153D01*
X0035063Y0106154D02*
X0018700Y0106154D01*
X0018700Y0105156D02*
X0034572Y0105156D01*
X0034200Y0104157D02*
X0018700Y0104157D01*
X0015300Y0104157D02*
X0006685Y0104157D01*
X0006685Y0103159D02*
X0015300Y0103159D01*
X0015300Y0102160D02*
X0014472Y0102160D01*
X0014769Y0101863D02*
X0014125Y0102507D01*
X0009277Y0102507D01*
X0008632Y0101863D01*
X0008632Y0094452D01*
X0009277Y0093807D01*
X0009873Y0093807D01*
X0009863Y0093485D01*
X0008800Y0092422D01*
X0008800Y0090185D01*
X0010382Y0088603D01*
X0012618Y0088603D01*
X0014200Y0090185D01*
X0014200Y0092422D01*
X0013261Y0093361D01*
X0013274Y0093807D01*
X0014125Y0093807D01*
X0014769Y0094452D01*
X0014769Y0101863D01*
X0014769Y0101162D02*
X0015300Y0101162D01*
X0015300Y0100163D02*
X0014769Y0100163D01*
X0014769Y0099165D02*
X0015300Y0099165D01*
X0015300Y0098166D02*
X0014769Y0098166D01*
X0014769Y0097168D02*
X0015300Y0097168D01*
X0015300Y0096169D02*
X0014769Y0096169D01*
X0014769Y0095171D02*
X0015300Y0095171D01*
X0015300Y0094172D02*
X0014490Y0094172D01*
X0015300Y0093174D02*
X0013448Y0093174D01*
X0014200Y0092175D02*
X0015300Y0092175D01*
X0015300Y0091177D02*
X0014200Y0091177D01*
X0014193Y0090178D02*
X0015300Y0090178D01*
X0015300Y0089180D02*
X0013195Y0089180D01*
X0015300Y0088181D02*
X0008841Y0088181D01*
X0009092Y0087183D02*
X0015300Y0087183D01*
X0015300Y0086184D02*
X0009343Y0086184D01*
X0009594Y0085186D02*
X0015300Y0085186D01*
X0015300Y0084187D02*
X0009845Y0084187D01*
X0010097Y0083189D02*
X0015300Y0083189D01*
X0015300Y0082190D02*
X0010348Y0082190D01*
X0010599Y0081191D02*
X0015300Y0081191D01*
X0015796Y0080193D02*
X0010850Y0080193D01*
X0018700Y0082190D02*
X0028958Y0082190D01*
X0028160Y0081191D02*
X0019692Y0081191D01*
X0026042Y0075200D02*
X0027320Y0075200D01*
X0027100Y0074202D02*
X0027631Y0074202D01*
X0028158Y0073203D02*
X0028207Y0073203D01*
X0028842Y0077197D02*
X0029347Y0077197D01*
X0030466Y0077197D02*
X0030779Y0077197D01*
X0033912Y0077197D02*
X0042702Y0077197D01*
X0043700Y0076199D02*
X0034488Y0076199D01*
X0034709Y0075200D02*
X0044699Y0075200D01*
X0045697Y0074202D02*
X0034122Y0074202D01*
X0032391Y0069209D02*
X0050690Y0069209D01*
X0051688Y0068211D02*
X0033449Y0068211D01*
X0034508Y0067212D02*
X0052687Y0067212D01*
X0052092Y0066214D02*
X0035566Y0066214D01*
X0036624Y0065215D02*
X0051094Y0065215D01*
X0050800Y0064217D02*
X0040944Y0064217D01*
X0041521Y0063218D02*
X0050511Y0063218D01*
X0049512Y0062220D02*
X0042097Y0062220D01*
X0042674Y0061221D02*
X0048514Y0061221D01*
X0047515Y0060223D02*
X0043250Y0060223D01*
X0043827Y0059224D02*
X0046517Y0059224D01*
X0045518Y0058226D02*
X0044403Y0058226D01*
X0044334Y0057227D02*
X0044520Y0057227D01*
X0043521Y0056229D02*
X0042774Y0056229D01*
X0042523Y0055230D02*
X0041044Y0055230D01*
X0046339Y0050238D02*
X0048522Y0050238D01*
X0048235Y0050736D02*
X0049245Y0048986D01*
X0049245Y0048986D01*
X0049245Y0048986D01*
X0050996Y0047975D01*
X0051982Y0047975D01*
X0051492Y0047126D01*
X0055186Y0044993D01*
X0056678Y0047577D01*
X0054503Y0048833D01*
X0054767Y0048985D01*
X0054767Y0048985D01*
X0054818Y0049073D01*
X0054989Y0049369D01*
X0055273Y0049861D01*
X0055626Y0050472D01*
X0056392Y0051800D01*
X0056392Y0051800D01*
X0056847Y0052588D01*
X0057460Y0053650D01*
X0057204Y0056087D01*
X0057204Y0056087D01*
X0056249Y0057148D01*
X0057200Y0058099D01*
X0059200Y0060099D01*
X0059200Y0065507D01*
X0058204Y0066503D01*
X0041204Y0083503D01*
X0035204Y0083503D01*
X0033385Y0085322D01*
X0035735Y0085322D01*
X0037016Y0086603D01*
X0039296Y0086603D01*
X0059796Y0066103D01*
X0065296Y0066103D01*
X0084800Y0046599D01*
X0084800Y0045185D01*
X0086382Y0043603D01*
X0088618Y0043603D01*
X0090200Y0045185D01*
X0090200Y0046285D01*
X0090382Y0046103D01*
X0092618Y0046103D01*
X0094200Y0047685D01*
X0094200Y0049922D01*
X0092618Y0051503D01*
X0091204Y0051503D01*
X0067704Y0075003D01*
X0065118Y0075003D01*
X0064118Y0076003D01*
X0061882Y0076003D01*
X0060300Y0074422D01*
X0060300Y0072185D01*
X0061882Y0070603D01*
X0064118Y0070603D01*
X0065118Y0071603D01*
X0066296Y0071603D01*
X0088800Y0049099D01*
X0088800Y0048821D01*
X0088618Y0049003D01*
X0087204Y0049003D01*
X0067700Y0068507D01*
X0066704Y0069503D01*
X0061204Y0069503D01*
X0041700Y0089007D01*
X0040704Y0090003D01*
X0037016Y0090003D01*
X0035735Y0091284D01*
X0033265Y0091284D01*
X0031700Y0089719D01*
X0031700Y0091599D01*
X0032704Y0092603D01*
X0043704Y0092603D01*
X0044700Y0093599D01*
X0049700Y0098599D01*
X0049700Y0121507D01*
X0048704Y0122503D01*
X0043200Y0128007D01*
X0043200Y0145099D01*
X0052704Y0154603D01*
X0056704Y0154603D01*
X0081700Y0179599D01*
X0081700Y0186099D01*
X0084704Y0189103D01*
X0085482Y0189103D01*
X0085300Y0188922D01*
X0085300Y0186685D01*
X0086882Y0185103D01*
X0089118Y0185103D01*
X0089550Y0185534D01*
X0090081Y0185003D01*
X0089796Y0185003D01*
X0065296Y0160503D01*
X0064300Y0159507D01*
X0064300Y0144922D01*
X0063882Y0144503D01*
X0057112Y0144503D01*
X0057112Y0145227D01*
X0056467Y0145872D01*
X0051225Y0145872D01*
X0050581Y0145227D01*
X0050581Y0140379D01*
X0051225Y0139735D01*
X0056467Y0139735D01*
X0057112Y0140379D01*
X0057112Y0141103D01*
X0063882Y0141103D01*
X0064882Y0140103D01*
X0067118Y0140103D01*
X0068700Y0141685D01*
X0068700Y0143922D01*
X0067700Y0144922D01*
X0067700Y0158099D01*
X0084800Y0175199D01*
X0084800Y0130422D01*
X0084282Y0129903D01*
X0071700Y0129903D01*
X0071700Y0129922D01*
X0070118Y0131503D01*
X0067882Y0131503D01*
X0066300Y0129922D01*
X0066300Y0127685D01*
X0067882Y0126103D01*
X0070118Y0126103D01*
X0070718Y0126703D01*
X0084282Y0126703D01*
X0085382Y0125603D01*
X0087618Y0125603D01*
X0089200Y0127185D01*
X0089200Y0129422D01*
X0088200Y0130422D01*
X0088200Y0174099D01*
X0093204Y0179103D01*
X0094982Y0179103D01*
X0094300Y0178422D01*
X0094300Y0176185D01*
X0095882Y0174603D01*
X0098118Y0174603D01*
X0099118Y0175603D01*
X0099296Y0175603D01*
X0124296Y0150603D01*
X0130204Y0150603D01*
X0131200Y0151599D01*
X0131227Y0151626D01*
X0131963Y0151321D01*
X0133673Y0151321D01*
X0135254Y0151976D01*
X0136463Y0153185D01*
X0137118Y0154766D01*
X0137118Y0156476D01*
X0136463Y0158057D01*
X0135254Y0159267D01*
X0133673Y0159921D01*
X0131963Y0159921D01*
X0130382Y0159267D01*
X0129173Y0158057D01*
X0128518Y0156476D01*
X0128518Y0154766D01*
X0128823Y0154030D01*
X0128796Y0154003D01*
X0125704Y0154003D01*
X0111644Y0168063D01*
X0128868Y0168063D01*
X0129173Y0167328D01*
X0130382Y0166118D01*
X0131963Y0165463D01*
X0133673Y0165463D01*
X0135254Y0166118D01*
X0136463Y0167328D01*
X0137118Y0168908D01*
X0137118Y0170619D01*
X0136463Y0172199D01*
X0135559Y0173103D01*
X0138296Y0173103D01*
X0151800Y0159599D01*
X0151800Y0153007D01*
X0141796Y0143003D01*
X0138204Y0143003D01*
X0137196Y0144011D01*
X0138327Y0143543D01*
X0140037Y0143543D01*
X0141618Y0144198D01*
X0142827Y0145407D01*
X0143482Y0146988D01*
X0143482Y0148698D01*
X0142827Y0150279D01*
X0141618Y0151488D01*
X0140037Y0152143D01*
X0138327Y0152143D01*
X0136746Y0151488D01*
X0135537Y0150279D01*
X0134882Y0148698D01*
X0134882Y0146988D01*
X0135350Y0145857D01*
X0132704Y0148503D01*
X0127796Y0148503D01*
X0126800Y0147507D01*
X0122800Y0143507D01*
X0122800Y0132599D01*
X0123796Y0131603D01*
X0134300Y0121099D01*
X0134300Y0119685D01*
X0135882Y0118103D01*
X0138118Y0118103D01*
X0139700Y0119685D01*
X0139700Y0121922D01*
X0138118Y0123503D01*
X0136704Y0123503D01*
X0126200Y0134007D01*
X0126200Y0142099D01*
X0127800Y0143699D01*
X0127800Y0142185D01*
X0129382Y0140603D01*
X0130796Y0140603D01*
X0145800Y0125599D01*
X0146796Y0124603D01*
X0166537Y0124603D01*
X0154837Y0112903D01*
X0151218Y0112903D01*
X0150118Y0114003D01*
X0147882Y0114003D01*
X0146300Y0112422D01*
X0146300Y0110185D01*
X0147882Y0108603D01*
X0150118Y0108603D01*
X0151218Y0109703D01*
X0156163Y0109703D01*
X0170063Y0123603D01*
X0171618Y0123603D01*
X0173200Y0125185D01*
X0173200Y0127422D01*
X0171618Y0129003D01*
X0169382Y0129003D01*
X0168382Y0128003D01*
X0148204Y0128003D01*
X0133200Y0143007D01*
X0133200Y0143199D01*
X0135800Y0140599D01*
X0136796Y0139603D01*
X0143204Y0139603D01*
X0154204Y0150603D01*
X0155200Y0151599D01*
X0155200Y0161007D01*
X0140700Y0175507D01*
X0139704Y0176503D01*
X0112704Y0176503D01*
X0105200Y0184007D01*
X0104204Y0185003D01*
X0097628Y0185003D01*
X0098204Y0185580D01*
X0098204Y0190428D01*
X0097560Y0191072D01*
X0090149Y0191072D01*
X0089504Y0190428D01*
X0089504Y0190117D01*
X0089118Y0190503D01*
X0088018Y0190503D01*
X0088200Y0190685D01*
X0088200Y0192922D01*
X0086618Y0194503D01*
X0085787Y0194503D01*
X0091630Y0197534D01*
X0096057Y0197534D01*
X0102941Y0193938D01*
X0103207Y0193643D01*
X0103541Y0193625D01*
X0103837Y0193470D01*
X0104216Y0193589D01*
X0137854Y0191814D01*
X0141634Y0189632D01*
X0145901Y0182659D01*
X0145991Y0182250D01*
X0146254Y0182082D01*
X0146418Y0181815D01*
X0146825Y0181717D01*
X0175113Y0163632D01*
X0176800Y0160709D01*
X0176800Y0151458D01*
X0176701Y0150919D01*
X0176800Y0150774D01*
X0176800Y0150599D01*
X0177188Y0150211D01*
X0192300Y0128274D01*
X0192300Y0128099D01*
X0192688Y0127711D01*
X0193000Y0127259D01*
X0193172Y0127227D01*
X0194800Y0125599D01*
X0194800Y0124185D01*
X0195900Y0123085D01*
X0195900Y0122799D01*
X0193875Y0122799D01*
X0193231Y0122154D01*
X0193231Y0116246D01*
X0189635Y0109362D01*
X0189339Y0109096D01*
X0189322Y0108762D01*
X0189167Y0108466D01*
X0189286Y0108087D01*
X0187511Y0074449D01*
X0185246Y0070526D01*
X0178845Y0066403D01*
X0178464Y0066324D01*
X0178276Y0066037D01*
X0177987Y0065851D01*
X0177905Y0065471D01*
X0159401Y0037233D01*
X0155419Y0034933D01*
X0147728Y0034518D01*
X0147364Y0034638D01*
X0147053Y0034481D01*
X0146705Y0034463D01*
X0146449Y0034177D01*
X0116459Y0019072D01*
X0111943Y0019072D01*
X0105018Y0022689D01*
X0104704Y0023003D01*
X0104417Y0023003D01*
X0104163Y0023136D01*
X0103740Y0023003D01*
X0092704Y0023003D01*
X0090573Y0025134D01*
X0093370Y0025134D01*
X0093370Y0028118D01*
X0094339Y0028118D01*
X0094339Y0029087D01*
X0098604Y0029087D01*
X0098604Y0030768D01*
X0098502Y0031150D01*
X0098305Y0031492D01*
X0098025Y0031771D01*
X0097683Y0031969D01*
X0097302Y0032071D01*
X0094339Y0032071D01*
X0094339Y0029087D01*
X0093370Y0029087D01*
X0093370Y0032071D01*
X0090407Y0032071D01*
X0090025Y0031969D01*
X0089683Y0031771D01*
X0089404Y0031492D01*
X0089207Y0031150D01*
X0089104Y0030768D01*
X0089104Y0029087D01*
X0093370Y0029087D01*
X0093370Y0028118D01*
X0089104Y0028118D01*
X0089104Y0026603D01*
X0088204Y0027503D01*
X0088118Y0027503D01*
X0087118Y0028503D01*
X0084882Y0028503D01*
X0083882Y0027503D01*
X0079916Y0027503D01*
X0080981Y0028568D01*
X0080981Y0031038D01*
X0080717Y0031302D01*
X0081896Y0031302D01*
X0083646Y0032312D01*
X0083646Y0032312D01*
X0083646Y0032312D01*
X0083696Y0032399D01*
X0083696Y0032399D01*
X0083816Y0032607D01*
X0084151Y0033187D01*
X0084606Y0033976D01*
X0085271Y0035127D01*
X0085271Y0035127D01*
X0085726Y0035915D01*
X0086339Y0036976D01*
X0086339Y0036976D01*
X0086083Y0039414D01*
X0084443Y0041235D01*
X0082045Y0041745D01*
X0079806Y0040748D01*
X0079194Y0039687D01*
X0078846Y0039085D01*
X0078074Y0037747D01*
X0077619Y0036959D01*
X0077113Y0036084D01*
X0077113Y0035317D01*
X0071261Y0038696D01*
X0070381Y0038460D01*
X0067957Y0034261D01*
X0068193Y0033381D01*
X0074611Y0029675D01*
X0075019Y0029785D01*
X0075019Y0029351D01*
X0073484Y0029351D01*
X0071734Y0028340D01*
X0071733Y0028340D01*
X0071228Y0027465D01*
X0071141Y0027314D01*
X0069921Y0025200D01*
X0069800Y0024992D01*
X0064962Y0027785D01*
X0064082Y0027549D01*
X0061658Y0023351D01*
X0061893Y0022470D01*
X0065526Y0020373D01*
X0067367Y0018532D01*
X0065996Y0019015D01*
X0055250Y0024366D01*
X0045243Y0030996D01*
X0044398Y0031721D01*
X0045871Y0031721D01*
X0050739Y0028910D01*
X0051619Y0029146D01*
X0054043Y0033345D01*
X0053807Y0034225D01*
X0048818Y0037106D01*
X0050171Y0039449D01*
X0050246Y0039579D01*
X0050751Y0040455D01*
X0050751Y0042476D01*
X0049741Y0044226D01*
X0049741Y0044226D01*
X0049741Y0044226D01*
X0047990Y0045237D01*
X0045969Y0045237D01*
X0044218Y0044226D01*
X0043872Y0043627D01*
X0043700Y0043328D01*
X0043700Y0047599D01*
X0048235Y0052134D01*
X0048235Y0050736D01*
X0048235Y0051236D02*
X0047337Y0051236D01*
X0049099Y0049239D02*
X0045340Y0049239D01*
X0044342Y0048241D02*
X0050535Y0048241D01*
X0051559Y0047242D02*
X0043700Y0047242D01*
X0043700Y0046244D02*
X0050982Y0046244D01*
X0051007Y0046287D02*
X0050167Y0044830D01*
X0050064Y0044449D01*
X0050064Y0044054D01*
X0050167Y0043673D01*
X0050364Y0043330D01*
X0050643Y0043051D01*
X0053210Y0041570D01*
X0054702Y0044154D01*
X0055540Y0043670D01*
X0054048Y0041085D01*
X0056615Y0039604D01*
X0056996Y0039501D01*
X0057391Y0039501D01*
X0057772Y0039604D01*
X0058115Y0039801D01*
X0058394Y0040080D01*
X0059235Y0041537D01*
X0055540Y0043670D01*
X0056025Y0044508D01*
X0059719Y0042376D01*
X0060560Y0043832D01*
X0060662Y0044214D01*
X0060662Y0044609D01*
X0060560Y0044990D01*
X0060362Y0045332D01*
X0060083Y0045611D01*
X0057517Y0047093D01*
X0056025Y0044509D01*
X0055186Y0044993D01*
X0054702Y0044154D01*
X0051007Y0046287D01*
X0051082Y0046244D02*
X0053019Y0046244D01*
X0052812Y0045245D02*
X0054749Y0045245D01*
X0055332Y0045245D02*
X0056450Y0045245D01*
X0056478Y0044247D02*
X0055874Y0044247D01*
X0056271Y0043248D02*
X0058208Y0043248D01*
X0058000Y0042250D02*
X0148816Y0042250D01*
X0148239Y0043248D02*
X0060223Y0043248D01*
X0060662Y0044247D02*
X0085738Y0044247D01*
X0084800Y0045245D02*
X0060413Y0045245D01*
X0058988Y0046244D02*
X0084800Y0046244D01*
X0084157Y0047242D02*
X0056485Y0047242D01*
X0057026Y0046244D02*
X0055908Y0046244D01*
X0055529Y0048241D02*
X0083158Y0048241D01*
X0082160Y0049239D02*
X0054914Y0049239D01*
X0054818Y0049073D02*
X0054818Y0049073D01*
X0055490Y0050238D02*
X0081161Y0050238D01*
X0080163Y0051236D02*
X0056067Y0051236D01*
X0056643Y0052235D02*
X0079164Y0052235D01*
X0078166Y0053233D02*
X0057220Y0053233D01*
X0057460Y0053650D02*
X0057460Y0053650D01*
X0057399Y0054232D02*
X0077167Y0054232D01*
X0076169Y0055230D02*
X0057294Y0055230D01*
X0057077Y0056229D02*
X0075170Y0056229D01*
X0074172Y0057227D02*
X0056328Y0057227D01*
X0057327Y0058226D02*
X0073173Y0058226D01*
X0072175Y0059224D02*
X0058325Y0059224D01*
X0059200Y0060223D02*
X0071176Y0060223D01*
X0070178Y0061221D02*
X0059200Y0061221D01*
X0059200Y0062220D02*
X0069179Y0062220D01*
X0068181Y0063218D02*
X0059200Y0063218D01*
X0059200Y0064217D02*
X0067182Y0064217D01*
X0066184Y0065215D02*
X0059200Y0065215D01*
X0059685Y0066214D02*
X0058493Y0066214D01*
X0058687Y0067212D02*
X0057495Y0067212D01*
X0057688Y0068211D02*
X0056496Y0068211D01*
X0056690Y0069209D02*
X0055498Y0069209D01*
X0055691Y0070208D02*
X0054499Y0070208D01*
X0054693Y0071206D02*
X0053501Y0071206D01*
X0053694Y0072205D02*
X0052502Y0072205D01*
X0052696Y0073203D02*
X0051504Y0073203D01*
X0051697Y0074202D02*
X0050505Y0074202D01*
X0050699Y0075200D02*
X0049507Y0075200D01*
X0049700Y0076199D02*
X0048508Y0076199D01*
X0048702Y0077197D02*
X0047510Y0077197D01*
X0047703Y0078196D02*
X0046511Y0078196D01*
X0046705Y0079194D02*
X0045513Y0079194D01*
X0045706Y0080193D02*
X0044514Y0080193D01*
X0044707Y0081191D02*
X0043516Y0081191D01*
X0043709Y0082190D02*
X0042517Y0082190D01*
X0042710Y0083189D02*
X0041519Y0083189D01*
X0041712Y0084187D02*
X0034520Y0084187D01*
X0033522Y0085186D02*
X0040713Y0085186D01*
X0039715Y0086184D02*
X0036597Y0086184D01*
X0036841Y0090178D02*
X0188341Y0090178D01*
X0188288Y0089180D02*
X0041528Y0089180D01*
X0042526Y0088181D02*
X0188236Y0088181D01*
X0188183Y0087183D02*
X0043525Y0087183D01*
X0044523Y0086184D02*
X0166563Y0086184D01*
X0166882Y0086503D02*
X0165300Y0084922D01*
X0165300Y0082685D01*
X0166882Y0081103D01*
X0169038Y0081103D01*
X0174689Y0077437D01*
X0173607Y0075564D01*
X0173843Y0074684D01*
X0178042Y0072260D01*
X0178922Y0072496D01*
X0182628Y0078914D01*
X0182392Y0079794D01*
X0178193Y0082218D01*
X0177313Y0081983D01*
X0176391Y0080386D01*
X0170700Y0084078D01*
X0170700Y0084922D01*
X0169118Y0086503D01*
X0166882Y0086503D01*
X0165564Y0085186D02*
X0045522Y0085186D01*
X0046520Y0084187D02*
X0165300Y0084187D01*
X0165300Y0083189D02*
X0047519Y0083189D01*
X0048517Y0082190D02*
X0165795Y0082190D01*
X0166793Y0081191D02*
X0049516Y0081191D01*
X0050514Y0080193D02*
X0170441Y0080193D01*
X0171980Y0079194D02*
X0051513Y0079194D01*
X0052511Y0078196D02*
X0173519Y0078196D01*
X0174550Y0077197D02*
X0053510Y0077197D01*
X0054508Y0076199D02*
X0173974Y0076199D01*
X0173705Y0075200D02*
X0064921Y0075200D01*
X0064722Y0071206D02*
X0066693Y0071206D01*
X0067691Y0070208D02*
X0060499Y0070208D01*
X0061278Y0071206D02*
X0059501Y0071206D01*
X0060300Y0072205D02*
X0058502Y0072205D01*
X0057504Y0073203D02*
X0060300Y0073203D01*
X0060300Y0074202D02*
X0056505Y0074202D01*
X0055507Y0075200D02*
X0061079Y0075200D01*
X0066998Y0069209D02*
X0068690Y0069209D01*
X0067996Y0068211D02*
X0069688Y0068211D01*
X0068995Y0067212D02*
X0070687Y0067212D01*
X0069993Y0066214D02*
X0071685Y0066214D01*
X0070992Y0065215D02*
X0072684Y0065215D01*
X0071990Y0064217D02*
X0073682Y0064217D01*
X0072989Y0063218D02*
X0074681Y0063218D01*
X0073988Y0062220D02*
X0075679Y0062220D01*
X0074986Y0061221D02*
X0076678Y0061221D01*
X0075985Y0060223D02*
X0077676Y0060223D01*
X0076983Y0059224D02*
X0078675Y0059224D01*
X0077982Y0058226D02*
X0079673Y0058226D01*
X0078980Y0057227D02*
X0080672Y0057227D01*
X0079979Y0056229D02*
X0081670Y0056229D01*
X0080977Y0055230D02*
X0082669Y0055230D01*
X0081976Y0054232D02*
X0083667Y0054232D01*
X0082974Y0053233D02*
X0084666Y0053233D01*
X0083973Y0052235D02*
X0085664Y0052235D01*
X0084971Y0051236D02*
X0086663Y0051236D01*
X0085970Y0050238D02*
X0087661Y0050238D01*
X0086968Y0049239D02*
X0088660Y0049239D01*
X0090473Y0052235D02*
X0169232Y0052235D01*
X0169886Y0053233D02*
X0089474Y0053233D01*
X0088476Y0054232D02*
X0170540Y0054232D01*
X0171195Y0055230D02*
X0169416Y0055230D01*
X0169252Y0054946D02*
X0170734Y0057513D01*
X0168149Y0059005D01*
X0166016Y0055311D01*
X0167473Y0054470D01*
X0167854Y0054368D01*
X0168249Y0054368D01*
X0168631Y0054470D01*
X0168973Y0054667D01*
X0169252Y0054946D01*
X0169992Y0056229D02*
X0171849Y0056229D01*
X0172503Y0057227D02*
X0170569Y0057227D01*
X0171218Y0058351D02*
X0172699Y0060918D01*
X0172802Y0061299D01*
X0172802Y0061694D01*
X0172699Y0062076D01*
X0172502Y0062418D01*
X0172223Y0062697D01*
X0170766Y0063538D01*
X0168633Y0059844D01*
X0167795Y0060328D01*
X0169927Y0064022D01*
X0168471Y0064863D01*
X0168090Y0064965D01*
X0167695Y0064965D01*
X0167313Y0064863D01*
X0166971Y0064665D01*
X0166692Y0064386D01*
X0165210Y0061820D01*
X0167795Y0060328D01*
X0167310Y0059489D01*
X0164726Y0060981D01*
X0163244Y0058415D01*
X0163142Y0058033D01*
X0163142Y0057639D01*
X0163244Y0057257D01*
X0163442Y0056915D01*
X0163721Y0056636D01*
X0165177Y0055795D01*
X0167310Y0059489D01*
X0168149Y0059005D01*
X0168633Y0059844D01*
X0171218Y0058351D01*
X0171722Y0059224D02*
X0173812Y0059224D01*
X0173158Y0058226D02*
X0169499Y0058226D01*
X0169706Y0059224D02*
X0168276Y0059224D01*
X0167769Y0059224D02*
X0167157Y0059224D01*
X0167699Y0058226D02*
X0166581Y0058226D01*
X0167123Y0057227D02*
X0166004Y0057227D01*
X0166546Y0056229D02*
X0165428Y0056229D01*
X0164426Y0056229D02*
X0086479Y0056229D01*
X0087477Y0055230D02*
X0166155Y0055230D01*
X0163262Y0057227D02*
X0085480Y0057227D01*
X0084482Y0058226D02*
X0163194Y0058226D01*
X0163712Y0059224D02*
X0083483Y0059224D01*
X0082485Y0060223D02*
X0164288Y0060223D01*
X0166040Y0060223D02*
X0167734Y0060223D01*
X0167977Y0060223D02*
X0168852Y0060223D01*
X0168310Y0061221D02*
X0169429Y0061221D01*
X0168887Y0062220D02*
X0170005Y0062220D01*
X0169463Y0063218D02*
X0170582Y0063218D01*
X0171320Y0063218D02*
X0176429Y0063218D01*
X0175775Y0062220D02*
X0172616Y0062220D01*
X0172781Y0061221D02*
X0175120Y0061221D01*
X0174466Y0060223D02*
X0172298Y0060223D01*
X0169590Y0064217D02*
X0177083Y0064217D01*
X0177738Y0065215D02*
X0077492Y0065215D01*
X0078490Y0064217D02*
X0166594Y0064217D01*
X0166018Y0063218D02*
X0079489Y0063218D01*
X0080488Y0062220D02*
X0165441Y0062220D01*
X0166247Y0061221D02*
X0081486Y0061221D01*
X0076493Y0066214D02*
X0178392Y0066214D01*
X0180101Y0067212D02*
X0075495Y0067212D01*
X0074496Y0068211D02*
X0181651Y0068211D01*
X0183202Y0069209D02*
X0073498Y0069209D01*
X0072499Y0070208D02*
X0184752Y0070208D01*
X0185639Y0071206D02*
X0071501Y0071206D01*
X0070502Y0072205D02*
X0186215Y0072205D01*
X0186792Y0073203D02*
X0179331Y0073203D01*
X0179907Y0074202D02*
X0187368Y0074202D01*
X0187551Y0075200D02*
X0180484Y0075200D01*
X0181060Y0076199D02*
X0187603Y0076199D01*
X0187656Y0077197D02*
X0181637Y0077197D01*
X0182213Y0078196D02*
X0187709Y0078196D01*
X0187761Y0079194D02*
X0182553Y0079194D01*
X0181701Y0080193D02*
X0187814Y0080193D01*
X0187867Y0081191D02*
X0179972Y0081191D01*
X0178242Y0082190D02*
X0187920Y0082190D01*
X0187972Y0083189D02*
X0172071Y0083189D01*
X0170700Y0084187D02*
X0188025Y0084187D01*
X0188078Y0085186D02*
X0170436Y0085186D01*
X0169437Y0086184D02*
X0188130Y0086184D01*
X0191535Y0086184D02*
X0198773Y0086184D01*
X0198959Y0087183D02*
X0191588Y0087183D01*
X0191640Y0088181D02*
X0194304Y0088181D01*
X0194382Y0088103D02*
X0196618Y0088103D01*
X0198200Y0089685D01*
X0198200Y0091037D01*
X0198293Y0091054D01*
X0198609Y0091508D01*
X0198999Y0091898D01*
X0198999Y0092070D01*
X0199097Y0092211D01*
X0198999Y0092754D01*
X0198999Y0093307D01*
X0198878Y0093428D01*
X0198796Y0093881D01*
X0199368Y0094452D01*
X0199368Y0101863D01*
X0198723Y0102507D01*
X0193875Y0102507D01*
X0193231Y0101863D01*
X0193231Y0094452D01*
X0193875Y0093807D01*
X0195355Y0093807D01*
X0195410Y0093503D01*
X0194382Y0093503D01*
X0192800Y0091922D01*
X0192800Y0089685D01*
X0194382Y0088103D01*
X0193305Y0089180D02*
X0191693Y0089180D01*
X0191746Y0090178D02*
X0192800Y0090178D01*
X0192800Y0091177D02*
X0191798Y0091177D01*
X0191851Y0092175D02*
X0193054Y0092175D01*
X0194052Y0093174D02*
X0191904Y0093174D01*
X0191957Y0094172D02*
X0193510Y0094172D01*
X0193231Y0095171D02*
X0192009Y0095171D01*
X0192062Y0096169D02*
X0193231Y0096169D01*
X0193231Y0097168D02*
X0192115Y0097168D01*
X0192167Y0098166D02*
X0193231Y0098166D01*
X0193231Y0099165D02*
X0192220Y0099165D01*
X0192273Y0100163D02*
X0193231Y0100163D01*
X0193231Y0101162D02*
X0192325Y0101162D01*
X0192378Y0102160D02*
X0193528Y0102160D01*
X0192431Y0103159D02*
X0201152Y0103159D01*
X0201213Y0104157D02*
X0192484Y0104157D01*
X0192536Y0105156D02*
X0201275Y0105156D01*
X0201337Y0106154D02*
X0192589Y0106154D01*
X0192642Y0107153D02*
X0201398Y0107153D01*
X0201460Y0108151D02*
X0192839Y0108151D01*
X0192678Y0107844D02*
X0195945Y0114099D01*
X0198723Y0114099D01*
X0199368Y0114743D01*
X0199368Y0122154D01*
X0199100Y0122422D01*
X0199100Y0123085D01*
X0200137Y0124122D01*
X0200761Y0120785D01*
X0201500Y0108803D01*
X0200761Y0096822D01*
X0198555Y0085022D01*
X0194916Y0073582D01*
X0189899Y0062677D01*
X0183579Y0052470D01*
X0178700Y0046407D01*
X0178700Y0048422D01*
X0178634Y0048488D01*
X0178807Y0048388D01*
X0179687Y0048624D01*
X0183393Y0055042D01*
X0183157Y0055922D01*
X0178958Y0058346D01*
X0178078Y0058111D01*
X0174372Y0051692D01*
X0174608Y0050812D01*
X0175532Y0050279D01*
X0175401Y0050003D01*
X0174882Y0050003D01*
X0173300Y0048422D01*
X0173300Y0046185D01*
X0174882Y0044603D01*
X0177118Y0044603D01*
X0177785Y0045270D01*
X0176053Y0043118D01*
X0167435Y0034761D01*
X0157856Y0027527D01*
X0147459Y0021525D01*
X0138700Y0017817D01*
X0138700Y0018841D01*
X0138871Y0018984D01*
X0139688Y0018765D01*
X0146107Y0022470D01*
X0146342Y0023351D01*
X0143918Y0027549D01*
X0143038Y0027785D01*
X0136620Y0024080D01*
X0136384Y0023199D01*
X0137110Y0021942D01*
X0136584Y0021503D01*
X0134882Y0021503D01*
X0133300Y0019922D01*
X0133300Y0017685D01*
X0134641Y0016344D01*
X0124858Y0013560D01*
X0112996Y0011719D01*
X0100997Y0011349D01*
X0089044Y0012457D01*
X0077318Y0015025D01*
X0072840Y0016603D01*
X0076204Y0016603D01*
X0079257Y0019656D01*
X0079257Y0018076D01*
X0080011Y0016255D01*
X0081405Y0014862D01*
X0083225Y0014108D01*
X0085195Y0014108D01*
X0087016Y0014862D01*
X0088409Y0016255D01*
X0089163Y0018076D01*
X0089163Y0020046D01*
X0088409Y0021866D01*
X0087145Y0023130D01*
X0087457Y0023442D01*
X0090300Y0020599D01*
X0091296Y0019603D01*
X0103583Y0019603D01*
X0109796Y0016358D01*
X0109796Y0013580D01*
X0110440Y0012935D01*
X0117851Y0012935D01*
X0118496Y0013580D01*
X0118496Y0016291D01*
X0147947Y0031125D01*
X0155018Y0031507D01*
X0156381Y0029146D01*
X0157261Y0028910D01*
X0163679Y0032616D01*
X0163915Y0033496D01*
X0162558Y0035847D01*
X0180724Y0063569D01*
X0186571Y0067335D01*
X0188952Y0065961D01*
X0189833Y0066197D01*
X0193538Y0072615D01*
X0193302Y0073495D01*
X0190937Y0074861D01*
X0192678Y0107844D01*
X0193360Y0109150D02*
X0201479Y0109150D01*
X0201417Y0110148D02*
X0193882Y0110148D01*
X0194403Y0111147D02*
X0201355Y0111147D01*
X0201294Y0112145D02*
X0194925Y0112145D01*
X0195446Y0113144D02*
X0201232Y0113144D01*
X0201171Y0114142D02*
X0198767Y0114142D01*
X0199368Y0115141D02*
X0201109Y0115141D01*
X0201048Y0116139D02*
X0199368Y0116139D01*
X0199368Y0117138D02*
X0200986Y0117138D01*
X0200924Y0118136D02*
X0199368Y0118136D01*
X0199368Y0119135D02*
X0200863Y0119135D01*
X0200801Y0120133D02*
X0199368Y0120133D01*
X0199368Y0121132D02*
X0200696Y0121132D01*
X0200509Y0122130D02*
X0199368Y0122130D01*
X0199144Y0123129D02*
X0200323Y0123129D01*
X0197500Y0125303D02*
X0197500Y0118650D01*
X0196299Y0118449D01*
X0193231Y0118136D02*
X0186769Y0118136D01*
X0186769Y0117138D02*
X0193231Y0117138D01*
X0193175Y0116139D02*
X0186769Y0116139D01*
X0186769Y0115141D02*
X0192654Y0115141D01*
X0192132Y0114142D02*
X0186168Y0114142D01*
X0186125Y0114099D02*
X0186769Y0114743D01*
X0186769Y0122154D01*
X0186185Y0122739D01*
X0186277Y0123262D01*
X0187700Y0124685D01*
X0187700Y0126922D01*
X0186118Y0128503D01*
X0183882Y0128503D01*
X0182300Y0126922D01*
X0182300Y0124685D01*
X0182960Y0124025D01*
X0182743Y0122799D01*
X0181277Y0122799D01*
X0180632Y0122154D01*
X0180632Y0114743D01*
X0181277Y0114099D01*
X0186125Y0114099D01*
X0181233Y0114142D02*
X0176700Y0114142D01*
X0176700Y0113144D02*
X0191610Y0113144D01*
X0191089Y0112145D02*
X0176700Y0112145D01*
X0176700Y0111147D02*
X0190567Y0111147D01*
X0190046Y0110148D02*
X0176700Y0110148D01*
X0176700Y0109150D02*
X0189399Y0109150D01*
X0189266Y0108151D02*
X0176700Y0108151D01*
X0176700Y0107153D02*
X0189237Y0107153D01*
X0189184Y0106154D02*
X0176700Y0106154D01*
X0176700Y0105156D02*
X0189132Y0105156D01*
X0189079Y0104157D02*
X0176700Y0104157D01*
X0176700Y0103159D02*
X0189026Y0103159D01*
X0188973Y0102160D02*
X0186967Y0102160D01*
X0186870Y0102328D02*
X0186590Y0102608D01*
X0186248Y0102805D01*
X0185867Y0102907D01*
X0184185Y0102907D01*
X0184185Y0098642D01*
X0183217Y0098642D01*
X0183217Y0102907D01*
X0181535Y0102907D01*
X0181153Y0102805D01*
X0180811Y0102608D01*
X0180532Y0102328D01*
X0180335Y0101986D01*
X0180232Y0101605D01*
X0180232Y0098642D01*
X0183216Y0098642D01*
X0183216Y0097673D01*
X0180232Y0097673D01*
X0180232Y0094710D01*
X0180335Y0094328D01*
X0180532Y0093986D01*
X0180811Y0093707D01*
X0181153Y0093510D01*
X0181535Y0093407D01*
X0183217Y0093407D01*
X0183217Y0097673D01*
X0184185Y0097673D01*
X0184185Y0093407D01*
X0185867Y0093407D01*
X0186248Y0093510D01*
X0186590Y0093707D01*
X0186870Y0093986D01*
X0187067Y0094328D01*
X0187169Y0094710D01*
X0187169Y0097673D01*
X0184185Y0097673D01*
X0184185Y0098642D01*
X0187169Y0098642D01*
X0187169Y0101605D01*
X0187067Y0101986D01*
X0186870Y0102328D01*
X0187169Y0101162D02*
X0188921Y0101162D01*
X0188868Y0100163D02*
X0187169Y0100163D01*
X0187169Y0099165D02*
X0188815Y0099165D01*
X0188763Y0098166D02*
X0184185Y0098166D01*
X0183216Y0098166D02*
X0177455Y0098166D01*
X0177700Y0097922D02*
X0176700Y0098922D01*
X0176700Y0134885D01*
X0176837Y0134647D01*
X0177117Y0134368D01*
X0177459Y0134171D01*
X0177840Y0134068D01*
X0178235Y0134068D01*
X0178617Y0134171D01*
X0180073Y0135011D01*
X0177940Y0138706D01*
X0178779Y0139190D01*
X0178295Y0140029D01*
X0180879Y0141521D01*
X0179398Y0144087D01*
X0179118Y0144366D01*
X0178776Y0144564D01*
X0178395Y0144666D01*
X0178000Y0144666D01*
X0177618Y0144564D01*
X0176162Y0143723D01*
X0178295Y0140029D01*
X0177456Y0139544D01*
X0175323Y0143239D01*
X0173867Y0142398D01*
X0173588Y0142119D01*
X0162200Y0153507D01*
X0162200Y0154922D01*
X0160618Y0156503D01*
X0158382Y0156503D01*
X0156800Y0154922D01*
X0156800Y0152685D01*
X0158382Y0151103D01*
X0159796Y0151103D01*
X0173300Y0137599D01*
X0173300Y0098922D01*
X0172300Y0097922D01*
X0172300Y0095685D01*
X0173882Y0094103D01*
X0176118Y0094103D01*
X0177700Y0095685D01*
X0177700Y0097922D01*
X0177700Y0097168D02*
X0180232Y0097168D01*
X0180232Y0096169D02*
X0177700Y0096169D01*
X0177186Y0095171D02*
X0180232Y0095171D01*
X0180425Y0094172D02*
X0176187Y0094172D01*
X0173813Y0094172D02*
X0128273Y0094172D01*
X0127275Y0093174D02*
X0188499Y0093174D01*
X0188552Y0094172D02*
X0186977Y0094172D01*
X0187169Y0095171D02*
X0188605Y0095171D01*
X0188657Y0096169D02*
X0187169Y0096169D01*
X0187169Y0097168D02*
X0188710Y0097168D01*
X0184185Y0097168D02*
X0183217Y0097168D01*
X0183217Y0096169D02*
X0184185Y0096169D01*
X0184185Y0095171D02*
X0183217Y0095171D01*
X0183217Y0094172D02*
X0184185Y0094172D01*
X0188446Y0092175D02*
X0126276Y0092175D01*
X0125278Y0091177D02*
X0188394Y0091177D01*
X0191482Y0085186D02*
X0198586Y0085186D01*
X0198290Y0084187D02*
X0191430Y0084187D01*
X0191377Y0083189D02*
X0197972Y0083189D01*
X0197654Y0082190D02*
X0191324Y0082190D01*
X0191271Y0081191D02*
X0197337Y0081191D01*
X0197019Y0080193D02*
X0191219Y0080193D01*
X0191166Y0079194D02*
X0196701Y0079194D01*
X0196384Y0078196D02*
X0191113Y0078196D01*
X0191061Y0077197D02*
X0196066Y0077197D01*
X0195749Y0076199D02*
X0191008Y0076199D01*
X0190955Y0075200D02*
X0195431Y0075200D01*
X0195113Y0074202D02*
X0192078Y0074202D01*
X0193381Y0073203D02*
X0194742Y0073203D01*
X0194282Y0072205D02*
X0193302Y0072205D01*
X0193823Y0071206D02*
X0192725Y0071206D01*
X0192149Y0070208D02*
X0193364Y0070208D01*
X0192904Y0069209D02*
X0191572Y0069209D01*
X0190996Y0068211D02*
X0192445Y0068211D01*
X0191985Y0067212D02*
X0190419Y0067212D01*
X0189843Y0066214D02*
X0191526Y0066214D01*
X0191067Y0065215D02*
X0183279Y0065215D01*
X0181729Y0064217D02*
X0190607Y0064217D01*
X0190148Y0063218D02*
X0180494Y0063218D01*
X0179840Y0062220D02*
X0189616Y0062220D01*
X0188998Y0061221D02*
X0179185Y0061221D01*
X0178531Y0060223D02*
X0188379Y0060223D01*
X0187761Y0059224D02*
X0177877Y0059224D01*
X0178508Y0058226D02*
X0177222Y0058226D01*
X0177568Y0057227D02*
X0176568Y0057227D01*
X0176991Y0056229D02*
X0175914Y0056229D01*
X0176415Y0055230D02*
X0175260Y0055230D01*
X0175838Y0054232D02*
X0174605Y0054232D01*
X0173951Y0053233D02*
X0175262Y0053233D01*
X0174685Y0052235D02*
X0173297Y0052235D01*
X0172642Y0051236D02*
X0174494Y0051236D01*
X0175513Y0050238D02*
X0171988Y0050238D01*
X0171334Y0049239D02*
X0174118Y0049239D01*
X0173300Y0048241D02*
X0170680Y0048241D01*
X0170025Y0047242D02*
X0173300Y0047242D01*
X0173300Y0046244D02*
X0169371Y0046244D01*
X0168717Y0045245D02*
X0174240Y0045245D01*
X0176158Y0043248D02*
X0167408Y0043248D01*
X0166754Y0042250D02*
X0175158Y0042250D01*
X0174128Y0041251D02*
X0166099Y0041251D01*
X0165445Y0040253D02*
X0173098Y0040253D01*
X0172069Y0039254D02*
X0164791Y0039254D01*
X0164137Y0038256D02*
X0171039Y0038256D01*
X0170009Y0037257D02*
X0163482Y0037257D01*
X0162828Y0036258D02*
X0168979Y0036258D01*
X0167950Y0035260D02*
X0162897Y0035260D01*
X0163474Y0034261D02*
X0166774Y0034261D01*
X0165451Y0033263D02*
X0163853Y0033263D01*
X0164129Y0032264D02*
X0163070Y0032264D01*
X0162807Y0031266D02*
X0161341Y0031266D01*
X0161485Y0030267D02*
X0159611Y0030267D01*
X0160162Y0029269D02*
X0157882Y0029269D01*
X0158840Y0028270D02*
X0142280Y0028270D01*
X0142149Y0027272D02*
X0140297Y0027272D01*
X0140419Y0026273D02*
X0138315Y0026273D01*
X0138690Y0025275D02*
X0136332Y0025275D01*
X0136961Y0024276D02*
X0134350Y0024276D01*
X0132367Y0023278D02*
X0136405Y0023278D01*
X0136915Y0022279D02*
X0130384Y0022279D01*
X0128402Y0021281D02*
X0134659Y0021281D01*
X0133661Y0020282D02*
X0126419Y0020282D01*
X0124437Y0019284D02*
X0133300Y0019284D01*
X0133300Y0018285D02*
X0122454Y0018285D01*
X0120472Y0017287D02*
X0133698Y0017287D01*
X0134446Y0016288D02*
X0118496Y0016288D01*
X0118496Y0015290D02*
X0130936Y0015290D01*
X0127427Y0014291D02*
X0118496Y0014291D01*
X0118209Y0013293D02*
X0123134Y0013293D01*
X0116701Y0012294D02*
X0090801Y0012294D01*
X0090149Y0012935D02*
X0097560Y0012935D01*
X0098204Y0013580D01*
X0098204Y0013780D01*
X0099382Y0012603D01*
X0101618Y0012603D01*
X0103200Y0014185D01*
X0103200Y0016422D01*
X0101618Y0018003D01*
X0099382Y0018003D01*
X0098592Y0017214D01*
X0098204Y0017255D01*
X0098204Y0018428D01*
X0097560Y0019072D01*
X0090149Y0019072D01*
X0089504Y0018428D01*
X0089504Y0013580D01*
X0090149Y0012935D01*
X0089791Y0013293D02*
X0085228Y0013293D01*
X0085638Y0014291D02*
X0089504Y0014291D01*
X0089504Y0015290D02*
X0087443Y0015290D01*
X0088423Y0016288D02*
X0089504Y0016288D01*
X0089504Y0017287D02*
X0088836Y0017287D01*
X0089163Y0018285D02*
X0089504Y0018285D01*
X0089163Y0019284D02*
X0104194Y0019284D01*
X0106106Y0018285D02*
X0098204Y0018285D01*
X0098204Y0017287D02*
X0098665Y0017287D01*
X0102335Y0017287D02*
X0108018Y0017287D01*
X0109796Y0016288D02*
X0103200Y0016288D01*
X0103200Y0015290D02*
X0109796Y0015290D01*
X0109796Y0014291D02*
X0103200Y0014291D01*
X0102308Y0013293D02*
X0110083Y0013293D01*
X0111538Y0019284D02*
X0116879Y0019284D01*
X0118861Y0020282D02*
X0109626Y0020282D01*
X0107715Y0021281D02*
X0120844Y0021281D01*
X0122826Y0022279D02*
X0105803Y0022279D01*
X0109796Y0026178D02*
X0110440Y0025534D01*
X0117851Y0025534D01*
X0118496Y0026178D01*
X0118496Y0031027D01*
X0117851Y0031671D01*
X0110440Y0031671D01*
X0109796Y0031027D01*
X0109796Y0026178D01*
X0109796Y0026273D02*
X0098561Y0026273D01*
X0098604Y0026436D02*
X0098604Y0028118D01*
X0094339Y0028118D01*
X0094339Y0025134D01*
X0097302Y0025134D01*
X0097683Y0025236D01*
X0098025Y0025434D01*
X0098305Y0025713D01*
X0098502Y0026055D01*
X0098604Y0026436D01*
X0098604Y0027272D02*
X0109796Y0027272D01*
X0109796Y0028270D02*
X0094339Y0028270D01*
X0093370Y0028270D02*
X0087351Y0028270D01*
X0088435Y0027272D02*
X0089104Y0027272D01*
X0089104Y0029269D02*
X0080981Y0029269D01*
X0080981Y0030267D02*
X0089104Y0030267D01*
X0089274Y0031266D02*
X0080753Y0031266D01*
X0083563Y0032264D02*
X0130688Y0032264D01*
X0130708Y0032230D02*
X0134402Y0034363D01*
X0134887Y0033524D01*
X0135725Y0034008D01*
X0137218Y0031424D01*
X0139784Y0032906D01*
X0140063Y0033185D01*
X0140261Y0033527D01*
X0140363Y0033908D01*
X0140363Y0034303D01*
X0140261Y0034685D01*
X0139420Y0036141D01*
X0135726Y0034008D01*
X0135241Y0034847D01*
X0134402Y0034363D01*
X0132910Y0036947D01*
X0130344Y0035466D01*
X0130065Y0035186D01*
X0129867Y0034844D01*
X0129765Y0034463D01*
X0129765Y0034068D01*
X0129867Y0033686D01*
X0130708Y0032230D01*
X0130768Y0032264D02*
X0132705Y0032264D01*
X0132497Y0033263D02*
X0134434Y0033263D01*
X0134887Y0033524D02*
X0131192Y0031391D01*
X0132033Y0029935D01*
X0132313Y0029656D01*
X0132655Y0029458D01*
X0133036Y0029356D01*
X0133431Y0029356D01*
X0133813Y0029458D01*
X0136379Y0030940D01*
X0134887Y0033524D01*
X0135037Y0033263D02*
X0136156Y0033263D01*
X0136164Y0034261D02*
X0135579Y0034261D01*
X0135241Y0034847D02*
X0138935Y0036980D01*
X0138095Y0038436D01*
X0137815Y0038716D01*
X0137473Y0038913D01*
X0137092Y0039015D01*
X0136697Y0039015D01*
X0136315Y0038913D01*
X0133749Y0037432D01*
X0135241Y0034847D01*
X0135003Y0035260D02*
X0133884Y0035260D01*
X0134227Y0034261D02*
X0134461Y0034261D01*
X0135956Y0035260D02*
X0137893Y0035260D01*
X0137686Y0036258D02*
X0157714Y0036258D01*
X0159417Y0037257D02*
X0138775Y0037257D01*
X0138199Y0038256D02*
X0160072Y0038256D01*
X0160726Y0039254D02*
X0086100Y0039254D01*
X0086083Y0039414D02*
X0086083Y0039414D01*
X0085328Y0040253D02*
X0149969Y0040253D01*
X0150082Y0040057D02*
X0150962Y0039821D01*
X0157380Y0043527D01*
X0157535Y0044103D01*
X0159618Y0044103D01*
X0161200Y0045685D01*
X0161200Y0047922D01*
X0159618Y0049503D01*
X0157382Y0049503D01*
X0155800Y0047922D01*
X0155800Y0047552D01*
X0155192Y0048606D01*
X0154312Y0048841D01*
X0147893Y0045136D01*
X0147658Y0044256D01*
X0150082Y0040057D01*
X0149392Y0041251D02*
X0084369Y0041251D01*
X0084443Y0041235D02*
X0084443Y0041235D01*
X0082045Y0041745D02*
X0082045Y0041745D01*
X0080936Y0041251D02*
X0059070Y0041251D01*
X0058493Y0040253D02*
X0079520Y0040253D01*
X0079806Y0040748D02*
X0079806Y0040748D01*
X0079806Y0040748D01*
X0078944Y0039254D02*
X0050058Y0039254D01*
X0049482Y0038256D02*
X0070263Y0038256D01*
X0069686Y0037257D02*
X0048905Y0037257D01*
X0050286Y0036258D02*
X0069110Y0036258D01*
X0068533Y0035260D02*
X0052015Y0035260D01*
X0053745Y0034261D02*
X0067957Y0034261D01*
X0068397Y0033263D02*
X0053996Y0033263D01*
X0053419Y0032264D02*
X0070127Y0032264D01*
X0071856Y0031266D02*
X0052843Y0031266D01*
X0052266Y0030267D02*
X0073585Y0030267D01*
X0073342Y0029269D02*
X0051690Y0029269D01*
X0050118Y0029269D02*
X0047850Y0029269D01*
X0048389Y0030267D02*
X0046343Y0030267D01*
X0046659Y0031266D02*
X0044929Y0031266D01*
X0049357Y0028270D02*
X0071693Y0028270D01*
X0071733Y0028340D02*
X0071733Y0028340D01*
X0071117Y0027272D02*
X0065851Y0027272D01*
X0063921Y0027272D02*
X0050864Y0027272D01*
X0052371Y0026273D02*
X0063345Y0026273D01*
X0062768Y0025275D02*
X0053878Y0025275D01*
X0055429Y0024276D02*
X0062192Y0024276D01*
X0061677Y0023278D02*
X0057435Y0023278D01*
X0059440Y0022279D02*
X0062224Y0022279D01*
X0061445Y0021281D02*
X0063954Y0021281D01*
X0063450Y0020282D02*
X0065617Y0020282D01*
X0065456Y0019284D02*
X0066615Y0019284D01*
X0069310Y0025275D02*
X0069964Y0025275D01*
X0070540Y0026273D02*
X0067580Y0026273D01*
X0073733Y0016288D02*
X0079998Y0016288D01*
X0079584Y0017287D02*
X0076888Y0017287D01*
X0077886Y0018285D02*
X0079257Y0018285D01*
X0079257Y0019284D02*
X0078885Y0019284D01*
X0080977Y0015290D02*
X0076567Y0015290D01*
X0080669Y0014291D02*
X0082783Y0014291D01*
X0089065Y0020282D02*
X0090617Y0020282D01*
X0089618Y0021281D02*
X0088651Y0021281D01*
X0088620Y0022279D02*
X0087996Y0022279D01*
X0087621Y0023278D02*
X0087293Y0023278D01*
X0091431Y0024276D02*
X0126791Y0024276D01*
X0124809Y0023278D02*
X0092429Y0023278D01*
X0093370Y0025275D02*
X0094339Y0025275D01*
X0094339Y0026273D02*
X0093370Y0026273D01*
X0093370Y0027272D02*
X0094339Y0027272D01*
X0094339Y0029269D02*
X0093370Y0029269D01*
X0093370Y0030267D02*
X0094339Y0030267D01*
X0094339Y0031266D02*
X0093370Y0031266D01*
X0098435Y0031266D02*
X0110035Y0031266D01*
X0109796Y0030267D02*
X0098604Y0030267D01*
X0098604Y0029269D02*
X0109796Y0029269D01*
X0118256Y0031266D02*
X0131265Y0031266D01*
X0131841Y0030267D02*
X0118496Y0030267D01*
X0118496Y0029269D02*
X0136704Y0029269D01*
X0135214Y0030267D02*
X0138686Y0030267D01*
X0138673Y0032264D02*
X0142651Y0032264D01*
X0140669Y0031266D02*
X0136190Y0031266D01*
X0136732Y0032264D02*
X0135614Y0032264D01*
X0134721Y0028270D02*
X0118496Y0028270D01*
X0118496Y0027272D02*
X0132739Y0027272D01*
X0130756Y0026273D02*
X0118496Y0026273D01*
X0128774Y0025275D02*
X0097750Y0025275D01*
X0097917Y0013293D02*
X0098692Y0013293D01*
X0084649Y0028270D02*
X0080683Y0028270D01*
X0084195Y0033263D02*
X0130112Y0033263D01*
X0129765Y0034261D02*
X0084771Y0034261D01*
X0085348Y0035260D02*
X0130138Y0035260D01*
X0131717Y0036258D02*
X0085924Y0036258D01*
X0086310Y0037257D02*
X0133850Y0037257D01*
X0133308Y0036258D02*
X0134426Y0036258D01*
X0135176Y0038256D02*
X0086205Y0038256D01*
X0089262Y0044247D02*
X0147663Y0044247D01*
X0148083Y0045245D02*
X0090200Y0045245D01*
X0090200Y0046244D02*
X0090241Y0046244D01*
X0092759Y0046244D02*
X0149812Y0046244D01*
X0151542Y0047242D02*
X0093757Y0047242D01*
X0094200Y0048241D02*
X0153271Y0048241D01*
X0155403Y0048241D02*
X0156119Y0048241D01*
X0157118Y0049239D02*
X0094200Y0049239D01*
X0093884Y0050238D02*
X0167923Y0050238D01*
X0168577Y0051236D02*
X0092885Y0051236D01*
X0078367Y0038256D02*
X0072024Y0038256D01*
X0073753Y0037257D02*
X0077791Y0037257D01*
X0078074Y0037747D02*
X0078074Y0037747D01*
X0077214Y0036258D02*
X0075483Y0036258D01*
X0055491Y0040253D02*
X0050634Y0040253D01*
X0050751Y0041251D02*
X0054144Y0041251D01*
X0053602Y0042250D02*
X0054720Y0042250D01*
X0054179Y0043248D02*
X0055297Y0043248D01*
X0054755Y0044247D02*
X0054541Y0044247D01*
X0052032Y0042250D02*
X0050751Y0042250D01*
X0050446Y0043248D02*
X0050305Y0043248D01*
X0050064Y0044247D02*
X0049705Y0044247D01*
X0050406Y0045245D02*
X0043700Y0045245D01*
X0043700Y0044247D02*
X0044254Y0044247D01*
X0044218Y0044226D02*
X0044218Y0044226D01*
X0044218Y0044226D01*
X0027958Y0049239D02*
X0026935Y0049239D01*
X0027381Y0050238D02*
X0026228Y0050238D01*
X0026805Y0051236D02*
X0025521Y0051236D01*
X0024814Y0052235D02*
X0026228Y0052235D01*
X0025652Y0053233D02*
X0024107Y0053233D01*
X0023400Y0054232D02*
X0025075Y0054232D01*
X0024658Y0055230D02*
X0022694Y0055230D01*
X0021987Y0056229D02*
X0025374Y0056229D01*
X0027103Y0057227D02*
X0021280Y0057227D01*
X0037682Y0064217D02*
X0039210Y0064217D01*
X0028300Y0088181D02*
X0025196Y0088181D01*
X0026195Y0089180D02*
X0028300Y0089180D01*
X0028300Y0090178D02*
X0026200Y0090178D01*
X0026200Y0091177D02*
X0028300Y0091177D01*
X0028300Y0092175D02*
X0025446Y0092175D01*
X0025501Y0093174D02*
X0028466Y0093174D01*
X0029465Y0094172D02*
X0027088Y0094172D01*
X0027368Y0095171D02*
X0030463Y0095171D01*
X0027368Y0096169D02*
X0042462Y0096169D01*
X0043460Y0097168D02*
X0027368Y0097168D01*
X0027368Y0098166D02*
X0044459Y0098166D01*
X0046272Y0095171D02*
X0068228Y0095171D01*
X0067230Y0096169D02*
X0047270Y0096169D01*
X0048269Y0097168D02*
X0066231Y0097168D01*
X0065233Y0098166D02*
X0049267Y0098166D01*
X0049700Y0099165D02*
X0064234Y0099165D01*
X0063236Y0100163D02*
X0049700Y0100163D01*
X0049700Y0101162D02*
X0062237Y0101162D01*
X0061800Y0101599D02*
X0071800Y0091599D01*
X0072796Y0090603D01*
X0124704Y0090603D01*
X0130704Y0096603D01*
X0131382Y0096603D01*
X0132382Y0095603D01*
X0134618Y0095603D01*
X0136200Y0097185D01*
X0136200Y0099422D01*
X0134618Y0101003D01*
X0132382Y0101003D01*
X0131382Y0100003D01*
X0129296Y0100003D01*
X0128300Y0099007D01*
X0123296Y0094003D01*
X0074204Y0094003D01*
X0065200Y0103007D01*
X0065200Y0117507D01*
X0064204Y0118503D01*
X0048854Y0133854D01*
X0048854Y0139735D01*
X0049775Y0139735D01*
X0050419Y0140379D01*
X0050419Y0145227D01*
X0049775Y0145872D01*
X0044533Y0145872D01*
X0043888Y0145227D01*
X0043888Y0140379D01*
X0044533Y0139735D01*
X0045454Y0139735D01*
X0045454Y0132445D01*
X0061800Y0116099D01*
X0061800Y0101599D01*
X0061800Y0102160D02*
X0049700Y0102160D01*
X0049700Y0103159D02*
X0061800Y0103159D01*
X0061800Y0104157D02*
X0049700Y0104157D01*
X0049700Y0105156D02*
X0061800Y0105156D01*
X0061800Y0106154D02*
X0049700Y0106154D01*
X0049700Y0107153D02*
X0061800Y0107153D01*
X0061800Y0108151D02*
X0049700Y0108151D01*
X0049700Y0109150D02*
X0061800Y0109150D01*
X0061800Y0110148D02*
X0049700Y0110148D01*
X0049700Y0111147D02*
X0061800Y0111147D01*
X0061800Y0112145D02*
X0049700Y0112145D01*
X0049700Y0113144D02*
X0061800Y0113144D01*
X0061800Y0114142D02*
X0049700Y0114142D01*
X0049700Y0115141D02*
X0061800Y0115141D01*
X0061760Y0116139D02*
X0049700Y0116139D01*
X0049700Y0117138D02*
X0060761Y0117138D01*
X0059763Y0118136D02*
X0049700Y0118136D01*
X0049700Y0119135D02*
X0058764Y0119135D01*
X0057766Y0120133D02*
X0049700Y0120133D01*
X0049700Y0121132D02*
X0056767Y0121132D01*
X0055769Y0122130D02*
X0049077Y0122130D01*
X0048078Y0123129D02*
X0054770Y0123129D01*
X0053771Y0124127D02*
X0047080Y0124127D01*
X0046081Y0125126D02*
X0052773Y0125126D01*
X0051774Y0126125D02*
X0045083Y0126125D01*
X0044084Y0127123D02*
X0050776Y0127123D01*
X0049777Y0128122D02*
X0043200Y0128122D01*
X0043200Y0129120D02*
X0048779Y0129120D01*
X0047780Y0130119D02*
X0043200Y0130119D01*
X0043200Y0131117D02*
X0046782Y0131117D01*
X0045783Y0132116D02*
X0043200Y0132116D01*
X0043200Y0133114D02*
X0045454Y0133114D01*
X0045454Y0134113D02*
X0043200Y0134113D01*
X0043200Y0135111D02*
X0045454Y0135111D01*
X0045454Y0136110D02*
X0043200Y0136110D01*
X0043200Y0137108D02*
X0045454Y0137108D01*
X0045454Y0138107D02*
X0043200Y0138107D01*
X0043200Y0139105D02*
X0045454Y0139105D01*
X0044164Y0140104D02*
X0043200Y0140104D01*
X0043200Y0141102D02*
X0043888Y0141102D01*
X0043888Y0142101D02*
X0043200Y0142101D01*
X0043200Y0143099D02*
X0043888Y0143099D01*
X0043888Y0144098D02*
X0043200Y0144098D01*
X0043200Y0145096D02*
X0043888Y0145096D01*
X0044196Y0146095D02*
X0064300Y0146095D01*
X0064300Y0147093D02*
X0045194Y0147093D01*
X0046193Y0148092D02*
X0064300Y0148092D01*
X0064300Y0149090D02*
X0047191Y0149090D01*
X0048190Y0150089D02*
X0064300Y0150089D01*
X0064300Y0151087D02*
X0049188Y0151087D01*
X0050187Y0152086D02*
X0064300Y0152086D01*
X0064300Y0153084D02*
X0051185Y0153084D01*
X0052184Y0154083D02*
X0064300Y0154083D01*
X0064300Y0155081D02*
X0057182Y0155081D01*
X0058181Y0156080D02*
X0064300Y0156080D01*
X0064300Y0157078D02*
X0059179Y0157078D01*
X0060178Y0158077D02*
X0064300Y0158077D01*
X0064300Y0159075D02*
X0061176Y0159075D01*
X0062175Y0160074D02*
X0064867Y0160074D01*
X0065865Y0161072D02*
X0063173Y0161072D01*
X0064172Y0162071D02*
X0066864Y0162071D01*
X0067862Y0163069D02*
X0065170Y0163069D01*
X0066169Y0164068D02*
X0068861Y0164068D01*
X0069859Y0165066D02*
X0067167Y0165066D01*
X0068166Y0166065D02*
X0070858Y0166065D01*
X0071856Y0167063D02*
X0069164Y0167063D01*
X0070163Y0168062D02*
X0072855Y0168062D01*
X0073853Y0169060D02*
X0071162Y0169060D01*
X0072160Y0170059D02*
X0074852Y0170059D01*
X0075850Y0171058D02*
X0073159Y0171058D01*
X0074157Y0172056D02*
X0076849Y0172056D01*
X0077847Y0173055D02*
X0075156Y0173055D01*
X0076154Y0174053D02*
X0078846Y0174053D01*
X0079844Y0175052D02*
X0077153Y0175052D01*
X0078151Y0176050D02*
X0080843Y0176050D01*
X0081841Y0177049D02*
X0079150Y0177049D01*
X0080148Y0178047D02*
X0082840Y0178047D01*
X0083838Y0179046D02*
X0081147Y0179046D01*
X0081700Y0180044D02*
X0084837Y0180044D01*
X0085835Y0181043D02*
X0081700Y0181043D01*
X0081700Y0182041D02*
X0086834Y0182041D01*
X0087832Y0183040D02*
X0081700Y0183040D01*
X0081700Y0184038D02*
X0088831Y0184038D01*
X0090047Y0185037D02*
X0081700Y0185037D01*
X0081700Y0186035D02*
X0085950Y0186035D01*
X0085300Y0187034D02*
X0082635Y0187034D01*
X0083633Y0188032D02*
X0085300Y0188032D01*
X0085409Y0189031D02*
X0084632Y0189031D01*
X0081820Y0191028D02*
X0079086Y0191028D01*
X0080822Y0190029D02*
X0077161Y0190029D01*
X0075236Y0189031D02*
X0079823Y0189031D01*
X0078825Y0188032D02*
X0073310Y0188032D01*
X0073989Y0187034D02*
X0071385Y0187034D01*
X0072260Y0186035D02*
X0069460Y0186035D01*
X0070530Y0185037D02*
X0067535Y0185037D01*
X0068216Y0183701D02*
X0067937Y0183421D01*
X0067739Y0183079D01*
X0067637Y0182698D01*
X0067637Y0182303D01*
X0067739Y0181921D01*
X0068580Y0180465D01*
X0072274Y0182598D01*
X0072759Y0181759D01*
X0073598Y0182243D01*
X0075090Y0179659D01*
X0077656Y0181141D01*
X0077935Y0181420D01*
X0078133Y0181762D01*
X0078235Y0182143D01*
X0078235Y0182538D01*
X0078133Y0182920D01*
X0077292Y0184376D01*
X0073598Y0182243D01*
X0073113Y0183082D01*
X0072274Y0182598D01*
X0070782Y0185182D01*
X0068216Y0183701D01*
X0068801Y0184038D02*
X0065610Y0184038D01*
X0063684Y0183040D02*
X0067729Y0183040D01*
X0067707Y0182041D02*
X0061759Y0182041D01*
X0060150Y0185037D02*
X0053018Y0185037D01*
X0052442Y0186035D02*
X0062075Y0186035D01*
X0064000Y0187034D02*
X0051865Y0187034D01*
X0049592Y0187034D02*
X0045883Y0187034D01*
X0045243Y0186610D02*
X0045243Y0186610D01*
X0044572Y0186035D02*
X0047863Y0186035D01*
X0046133Y0185037D02*
X0043407Y0185037D01*
X0044404Y0184038D02*
X0042241Y0184038D01*
X0041076Y0183040D02*
X0044125Y0183040D01*
X0044702Y0182041D02*
X0039911Y0182041D01*
X0038745Y0181043D02*
X0045278Y0181043D01*
X0045038Y0180044D02*
X0037580Y0180044D01*
X0036414Y0179046D02*
X0044399Y0179046D01*
X0043761Y0178047D02*
X0035441Y0178047D01*
X0034531Y0177049D02*
X0043123Y0177049D01*
X0042484Y0176050D02*
X0033620Y0176050D01*
X0032710Y0175052D02*
X0041846Y0175052D01*
X0041207Y0174053D02*
X0031800Y0174053D01*
X0030890Y0173055D02*
X0040569Y0173055D01*
X0039931Y0172056D02*
X0033065Y0172056D01*
X0034064Y0171058D02*
X0039292Y0171058D01*
X0038654Y0170059D02*
X0034200Y0170059D01*
X0034200Y0169060D02*
X0038016Y0169060D01*
X0037377Y0168062D02*
X0033577Y0168062D01*
X0032314Y0167063D02*
X0036739Y0167063D01*
X0036100Y0166065D02*
X0032923Y0166065D01*
X0033587Y0165066D02*
X0035462Y0165066D01*
X0034824Y0164068D02*
X0033139Y0164068D01*
X0032563Y0163069D02*
X0034185Y0163069D01*
X0033547Y0162071D02*
X0031986Y0162071D01*
X0031410Y0161072D02*
X0032908Y0161072D01*
X0032270Y0160074D02*
X0030833Y0160074D01*
X0030257Y0159075D02*
X0031632Y0159075D01*
X0030993Y0158077D02*
X0020001Y0158077D01*
X0020537Y0159075D02*
X0027629Y0159075D01*
X0025900Y0160074D02*
X0021074Y0160074D01*
X0021771Y0161072D02*
X0024739Y0161072D01*
X0024900Y0162071D02*
X0022478Y0162071D01*
X0023184Y0163069D02*
X0025476Y0163069D01*
X0026053Y0164068D02*
X0023891Y0164068D01*
X0024598Y0165066D02*
X0026629Y0165066D01*
X0027206Y0166065D02*
X0025305Y0166065D01*
X0026012Y0167063D02*
X0027782Y0167063D01*
X0028609Y0168062D02*
X0026719Y0168062D01*
X0027425Y0169060D02*
X0028800Y0169060D01*
X0028800Y0170059D02*
X0028159Y0170059D01*
X0038221Y0163069D02*
X0060362Y0163069D01*
X0059364Y0162071D02*
X0040641Y0162071D01*
X0040527Y0162137D02*
X0040146Y0162239D01*
X0039751Y0162239D01*
X0039369Y0162137D01*
X0039027Y0161939D01*
X0038748Y0161660D01*
X0037266Y0159094D01*
X0039851Y0157601D01*
X0039367Y0156763D01*
X0036782Y0158255D01*
X0035301Y0155689D01*
X0035198Y0155307D01*
X0035198Y0154912D01*
X0035301Y0154531D01*
X0035498Y0154189D01*
X0035777Y0153909D01*
X0037234Y0153068D01*
X0039367Y0156763D01*
X0040205Y0156278D01*
X0038072Y0152584D01*
X0039529Y0151743D01*
X0039910Y0151641D01*
X0040305Y0151641D01*
X0040687Y0151743D01*
X0041029Y0151941D01*
X0041308Y0152220D01*
X0042790Y0154786D01*
X0040205Y0156278D01*
X0040690Y0157117D01*
X0043274Y0155625D01*
X0044756Y0158191D01*
X0044858Y0158573D01*
X0044858Y0158968D01*
X0044756Y0159349D01*
X0044558Y0159691D01*
X0044279Y0159971D01*
X0042822Y0160811D01*
X0040690Y0157117D01*
X0039851Y0157602D01*
X0041984Y0161296D01*
X0040527Y0162137D01*
X0039256Y0162071D02*
X0037582Y0162071D01*
X0036944Y0161072D02*
X0038409Y0161072D01*
X0037832Y0160074D02*
X0036306Y0160074D01*
X0035667Y0159075D02*
X0037298Y0159075D01*
X0037090Y0158077D02*
X0039027Y0158077D01*
X0038820Y0157078D02*
X0039549Y0157078D01*
X0040667Y0157078D02*
X0040757Y0157078D01*
X0040549Y0156080D02*
X0042486Y0156080D01*
X0042279Y0155081D02*
X0048374Y0155081D01*
X0047376Y0154083D02*
X0042384Y0154083D01*
X0041807Y0153084D02*
X0046377Y0153084D01*
X0045379Y0152086D02*
X0041174Y0152086D01*
X0038936Y0152086D02*
X0031198Y0152086D01*
X0030576Y0151087D02*
X0044380Y0151087D01*
X0043381Y0150089D02*
X0029455Y0150089D01*
X0027824Y0149090D02*
X0042383Y0149090D01*
X0041384Y0148092D02*
X0026192Y0148092D01*
X0024560Y0147093D02*
X0040386Y0147093D01*
X0040796Y0147503D02*
X0040796Y0147503D01*
X0039800Y0146095D02*
X0022929Y0146095D01*
X0022186Y0145096D02*
X0039800Y0145096D01*
X0039800Y0144098D02*
X0030389Y0144098D01*
X0029958Y0144346D02*
X0034157Y0141922D01*
X0034393Y0141042D01*
X0030687Y0134624D01*
X0029807Y0134388D01*
X0029008Y0134849D01*
X0028700Y0134367D01*
X0028700Y0132185D01*
X0027118Y0130603D01*
X0024882Y0130603D01*
X0023300Y0132185D01*
X0023300Y0134422D01*
X0024882Y0136003D01*
X0025710Y0136003D01*
X0026061Y0136551D01*
X0025608Y0136812D01*
X0025372Y0137692D01*
X0029078Y0144111D01*
X0029958Y0144346D01*
X0029070Y0144098D02*
X0021609Y0144098D01*
X0021033Y0143099D02*
X0028494Y0143099D01*
X0027917Y0142101D02*
X0020456Y0142101D01*
X0019880Y0141102D02*
X0027341Y0141102D01*
X0026764Y0140104D02*
X0017700Y0140104D01*
X0017707Y0141102D02*
X0018177Y0141102D01*
X0017620Y0139105D02*
X0026188Y0139105D01*
X0025612Y0138107D02*
X0016622Y0138107D01*
X0013378Y0138107D02*
X0011024Y0138107D01*
X0010773Y0137108D02*
X0025529Y0137108D01*
X0025778Y0136110D02*
X0010522Y0136110D01*
X0010271Y0135111D02*
X0023990Y0135111D01*
X0023300Y0134113D02*
X0010020Y0134113D01*
X0009769Y0133114D02*
X0023300Y0133114D01*
X0023369Y0132116D02*
X0009517Y0132116D01*
X0009266Y0131117D02*
X0024368Y0131117D01*
X0027632Y0131117D02*
X0039800Y0131117D01*
X0039800Y0130119D02*
X0009015Y0130119D01*
X0008764Y0129120D02*
X0039800Y0129120D01*
X0039800Y0128122D02*
X0008513Y0128122D01*
X0008262Y0127123D02*
X0039800Y0127123D01*
X0040274Y0126125D02*
X0008087Y0126125D01*
X0007963Y0125126D02*
X0041273Y0125126D01*
X0042271Y0124127D02*
X0007839Y0124127D01*
X0007716Y0123129D02*
X0021873Y0123129D01*
X0021752Y0123097D02*
X0021410Y0122899D01*
X0021130Y0122620D01*
X0020933Y0122278D01*
X0020831Y0121896D01*
X0020831Y0118933D01*
X0023815Y0118933D01*
X0023815Y0117965D01*
X0020831Y0117965D01*
X0020831Y0115001D01*
X0020933Y0114620D01*
X0021130Y0114278D01*
X0021410Y0113999D01*
X0021752Y0113801D01*
X0022133Y0113699D01*
X0023815Y0113699D01*
X0023815Y0117964D01*
X0024783Y0117964D01*
X0024783Y0113699D01*
X0026465Y0113699D01*
X0026847Y0113801D01*
X0027189Y0113999D01*
X0027468Y0114278D01*
X0027665Y0114620D01*
X0027768Y0115001D01*
X0027768Y0117965D01*
X0024784Y0117965D01*
X0024784Y0118933D01*
X0027768Y0118933D01*
X0027768Y0121896D01*
X0027665Y0122278D01*
X0027468Y0122620D01*
X0027189Y0122899D01*
X0026847Y0123097D01*
X0026465Y0123199D01*
X0024783Y0123199D01*
X0024783Y0118933D01*
X0023815Y0118933D01*
X0023815Y0123199D01*
X0022133Y0123199D01*
X0021752Y0123097D01*
X0020893Y0122130D02*
X0014769Y0122130D01*
X0014769Y0121132D02*
X0020831Y0121132D01*
X0020831Y0120133D02*
X0014769Y0120133D01*
X0014769Y0119135D02*
X0020831Y0119135D01*
X0020831Y0117138D02*
X0014769Y0117138D01*
X0014769Y0118136D02*
X0023815Y0118136D01*
X0024784Y0118136D02*
X0037048Y0118136D01*
X0037004Y0118122D02*
X0036275Y0117751D01*
X0035612Y0117269D01*
X0035034Y0116691D01*
X0034553Y0116029D01*
X0034181Y0115299D01*
X0033928Y0114521D01*
X0033814Y0113803D01*
X0038500Y0113803D01*
X0038500Y0118489D01*
X0037782Y0118375D01*
X0037004Y0118122D01*
X0038500Y0118136D02*
X0039500Y0118136D01*
X0039500Y0117138D02*
X0038500Y0117138D01*
X0038500Y0116139D02*
X0039500Y0116139D01*
X0039500Y0115141D02*
X0038500Y0115141D01*
X0038500Y0114142D02*
X0039500Y0114142D01*
X0039500Y0113144D02*
X0046300Y0113144D01*
X0046300Y0114142D02*
X0044132Y0114142D01*
X0043870Y0115141D02*
X0046300Y0115141D01*
X0046300Y0116139D02*
X0043367Y0116139D01*
X0042519Y0117138D02*
X0046300Y0117138D01*
X0046300Y0118136D02*
X0040952Y0118136D01*
X0044269Y0122130D02*
X0027705Y0122130D01*
X0027768Y0121132D02*
X0045267Y0121132D01*
X0046266Y0120133D02*
X0027768Y0120133D01*
X0027768Y0119135D02*
X0046300Y0119135D01*
X0043270Y0123129D02*
X0026726Y0123129D01*
X0024783Y0123129D02*
X0023815Y0123129D01*
X0023815Y0122130D02*
X0024783Y0122130D01*
X0024783Y0121132D02*
X0023815Y0121132D01*
X0023815Y0120133D02*
X0024783Y0120133D01*
X0024783Y0119135D02*
X0023815Y0119135D01*
X0023815Y0117138D02*
X0024783Y0117138D01*
X0024783Y0116139D02*
X0023815Y0116139D01*
X0023815Y0115141D02*
X0024783Y0115141D01*
X0024783Y0114142D02*
X0023815Y0114142D01*
X0027333Y0114142D02*
X0033868Y0114142D01*
X0034130Y0115141D02*
X0027768Y0115141D01*
X0027768Y0116139D02*
X0034633Y0116139D01*
X0035481Y0117138D02*
X0027768Y0117138D01*
X0020831Y0116139D02*
X0014769Y0116139D01*
X0014769Y0115141D02*
X0020831Y0115141D01*
X0021266Y0114142D02*
X0015565Y0114142D01*
X0016563Y0113144D02*
X0038500Y0113144D01*
X0038500Y0112145D02*
X0039500Y0112145D01*
X0039500Y0111147D02*
X0038500Y0111147D01*
X0038500Y0110148D02*
X0039500Y0110148D01*
X0039500Y0109150D02*
X0038500Y0109150D01*
X0035870Y0109150D02*
X0018700Y0109150D01*
X0018700Y0110148D02*
X0034865Y0110148D01*
X0034263Y0111147D02*
X0018560Y0111147D01*
X0017562Y0112145D02*
X0033919Y0112145D01*
X0042130Y0109150D02*
X0046300Y0109150D01*
X0046300Y0110148D02*
X0043135Y0110148D01*
X0043737Y0111147D02*
X0046300Y0111147D01*
X0046300Y0112145D02*
X0044081Y0112145D01*
X0057581Y0125126D02*
X0094300Y0125126D01*
X0094300Y0124422D02*
X0093882Y0124003D01*
X0077796Y0124003D01*
X0076800Y0123007D01*
X0067300Y0113507D01*
X0067300Y0101099D01*
X0068296Y0100103D01*
X0071796Y0096603D01*
X0099704Y0096603D01*
X0100700Y0097599D01*
X0102000Y0098899D01*
X0103300Y0097599D01*
X0104296Y0096603D01*
X0113204Y0096603D01*
X0113704Y0097103D01*
X0115118Y0097103D01*
X0116118Y0098103D01*
X0122204Y0098103D01*
X0123200Y0099099D01*
X0125516Y0101415D01*
X0125908Y0101618D01*
X0125995Y0101894D01*
X0126200Y0102099D01*
X0126200Y0102540D01*
X0126248Y0102691D01*
X0127924Y0102691D01*
X0128568Y0103336D01*
X0128568Y0104257D01*
X0130431Y0104257D01*
X0130431Y0103336D01*
X0131076Y0102691D01*
X0135924Y0102691D01*
X0136568Y0103336D01*
X0136568Y0108578D01*
X0136055Y0109091D01*
X0136390Y0109284D01*
X0136669Y0109563D01*
X0136866Y0109905D01*
X0136968Y0110287D01*
X0136968Y0112165D01*
X0133984Y0112165D01*
X0133984Y0113134D01*
X0133016Y0113134D01*
X0133016Y0116315D01*
X0131334Y0116315D01*
X0130953Y0116213D01*
X0130610Y0116015D01*
X0130331Y0115736D01*
X0130134Y0115394D01*
X0130031Y0115012D01*
X0130031Y0113134D01*
X0133016Y0113134D01*
X0133016Y0112165D01*
X0130031Y0112165D01*
X0130031Y0110287D01*
X0130134Y0109905D01*
X0130331Y0109563D01*
X0130610Y0109284D01*
X0130945Y0109091D01*
X0130431Y0108578D01*
X0130431Y0107657D01*
X0128568Y0107657D01*
X0128568Y0108578D01*
X0128055Y0109091D01*
X0128390Y0109284D01*
X0128669Y0109563D01*
X0128866Y0109905D01*
X0128968Y0110287D01*
X0128968Y0112165D01*
X0125984Y0112165D01*
X0125984Y0113134D01*
X0125016Y0113134D01*
X0125016Y0116315D01*
X0123334Y0116315D01*
X0122953Y0116213D01*
X0122610Y0116015D01*
X0122331Y0115736D01*
X0122134Y0115394D01*
X0122031Y0115012D01*
X0122031Y0113134D01*
X0125016Y0113134D01*
X0125016Y0112165D01*
X0122031Y0112165D01*
X0122031Y0110287D01*
X0122134Y0109905D01*
X0122331Y0109563D01*
X0122610Y0109284D01*
X0122945Y0109091D01*
X0122431Y0108578D01*
X0122431Y0103336D01*
X0122530Y0103237D01*
X0120796Y0101503D01*
X0116118Y0101503D01*
X0115118Y0102503D01*
X0113704Y0102503D01*
X0111694Y0104513D01*
X0111694Y0105135D01*
X0112264Y0105135D01*
X0112300Y0105099D01*
X0113296Y0104103D01*
X0115431Y0104103D01*
X0115431Y0103336D01*
X0116076Y0102691D01*
X0120924Y0102691D01*
X0121568Y0103336D01*
X0121568Y0108578D01*
X0121055Y0109091D01*
X0121390Y0109284D01*
X0121669Y0109563D01*
X0121866Y0109905D01*
X0121968Y0110287D01*
X0121968Y0112165D01*
X0118984Y0112165D01*
X0118984Y0113134D01*
X0118016Y0113134D01*
X0118016Y0116315D01*
X0116334Y0116315D01*
X0115953Y0116213D01*
X0115610Y0116015D01*
X0115331Y0115736D01*
X0115134Y0115394D01*
X0115031Y0115012D01*
X0115031Y0113134D01*
X0118016Y0113134D01*
X0118016Y0112165D01*
X0115456Y0112165D01*
X0114118Y0113503D01*
X0112094Y0113503D01*
X0112094Y0113528D01*
X0111992Y0113910D01*
X0111795Y0114252D01*
X0111516Y0114531D01*
X0111173Y0114728D01*
X0110792Y0114831D01*
X0109020Y0114831D01*
X0109020Y0112740D01*
X0109020Y0112740D01*
X0109020Y0114831D01*
X0107932Y0114831D01*
X0108704Y0115603D01*
X0110118Y0115603D01*
X0111700Y0117185D01*
X0111700Y0119422D01*
X0110118Y0121003D01*
X0107882Y0121003D01*
X0106300Y0119422D01*
X0106300Y0118007D01*
X0105105Y0116813D01*
X0104788Y0116898D01*
X0104000Y0116898D01*
X0103212Y0116898D01*
X0102830Y0116795D01*
X0102488Y0116598D01*
X0102388Y0116498D01*
X0100985Y0116498D01*
X0100341Y0115853D01*
X0100341Y0114431D01*
X0099694Y0114431D01*
X0099684Y0114440D01*
X0098267Y0114440D01*
X0096700Y0116007D01*
X0095704Y0117003D01*
X0086142Y0117003D01*
X0085146Y0116007D01*
X0085146Y0115854D01*
X0080796Y0111503D01*
X0079382Y0111503D01*
X0077800Y0109922D01*
X0077800Y0108766D01*
X0075085Y0106503D01*
X0073382Y0106503D01*
X0071800Y0104922D01*
X0071800Y0102685D01*
X0073382Y0101103D01*
X0073436Y0101103D01*
X0073468Y0101064D01*
X0074866Y0100898D01*
X0075126Y0101103D01*
X0075618Y0101103D01*
X0077200Y0102685D01*
X0077200Y0103840D01*
X0079915Y0106103D01*
X0081618Y0106103D01*
X0083200Y0107685D01*
X0083200Y0109099D01*
X0087704Y0113603D01*
X0094296Y0113603D01*
X0095997Y0111902D01*
X0095906Y0111560D01*
X0095906Y0110772D01*
X0098980Y0110772D01*
X0098980Y0110772D01*
X0095906Y0110772D01*
X0095906Y0110503D01*
X0093296Y0110503D01*
X0088796Y0106003D01*
X0086618Y0106003D01*
X0085618Y0107003D01*
X0083382Y0107003D01*
X0081800Y0105422D01*
X0081800Y0103185D01*
X0083382Y0101603D01*
X0085618Y0101603D01*
X0086618Y0102603D01*
X0090204Y0102603D01*
X0091200Y0103599D01*
X0094704Y0107103D01*
X0095906Y0107103D01*
X0095906Y0106835D01*
X0098980Y0106835D01*
X0098980Y0106835D01*
X0095906Y0106835D01*
X0095906Y0106047D01*
X0096008Y0105665D01*
X0096205Y0105323D01*
X0096306Y0105223D01*
X0096306Y0103820D01*
X0096950Y0103176D01*
X0100331Y0103176D01*
X0100331Y0102039D01*
X0098296Y0100003D01*
X0073204Y0100003D01*
X0070700Y0102507D01*
X0070700Y0112099D01*
X0079204Y0120603D01*
X0093882Y0120603D01*
X0094882Y0119603D01*
X0097118Y0119603D01*
X0098700Y0121185D01*
X0098700Y0123422D01*
X0097700Y0124422D01*
X0097700Y0127099D01*
X0104704Y0134103D01*
X0107382Y0134103D01*
X0108382Y0133103D01*
X0110618Y0133103D01*
X0112200Y0134685D01*
X0112200Y0136922D01*
X0110618Y0138503D01*
X0109204Y0138503D01*
X0107854Y0139854D01*
X0107854Y0151235D01*
X0108775Y0151235D01*
X0109288Y0151748D01*
X0109481Y0151414D01*
X0109760Y0151134D01*
X0110102Y0150937D01*
X0110484Y0150835D01*
X0112362Y0150835D01*
X0112362Y0153819D01*
X0113331Y0153819D01*
X0113331Y0154787D01*
X0116512Y0154787D01*
X0116512Y0156469D01*
X0116410Y0156851D01*
X0116212Y0157193D01*
X0115933Y0157472D01*
X0115591Y0157669D01*
X0115209Y0157772D01*
X0113331Y0157772D01*
X0113331Y0154787D01*
X0112362Y0154787D01*
X0112362Y0157772D01*
X0110484Y0157772D01*
X0110102Y0157669D01*
X0109760Y0157472D01*
X0109481Y0157193D01*
X0109288Y0156858D01*
X0108775Y0157372D01*
X0103533Y0157372D01*
X0102888Y0156727D01*
X0102888Y0151879D01*
X0103533Y0151235D01*
X0104454Y0151235D01*
X0104454Y0138445D01*
X0105396Y0137503D01*
X0103296Y0137503D01*
X0095296Y0129503D01*
X0094300Y0128507D01*
X0094300Y0124422D01*
X0094006Y0124127D02*
X0058580Y0124127D01*
X0059578Y0123129D02*
X0076922Y0123129D01*
X0075923Y0122130D02*
X0060577Y0122130D01*
X0061575Y0121132D02*
X0074925Y0121132D01*
X0073926Y0120133D02*
X0062574Y0120133D01*
X0063572Y0119135D02*
X0072928Y0119135D01*
X0071929Y0118136D02*
X0064571Y0118136D01*
X0065200Y0117138D02*
X0070931Y0117138D01*
X0069932Y0116139D02*
X0065200Y0116139D01*
X0065200Y0115141D02*
X0068934Y0115141D01*
X0067935Y0114142D02*
X0065200Y0114142D01*
X0065200Y0113144D02*
X0067300Y0113144D01*
X0067300Y0112145D02*
X0065200Y0112145D01*
X0065200Y0111147D02*
X0067300Y0111147D01*
X0067300Y0110148D02*
X0065200Y0110148D01*
X0065200Y0109150D02*
X0067300Y0109150D01*
X0067300Y0108151D02*
X0065200Y0108151D01*
X0065200Y0107153D02*
X0067300Y0107153D01*
X0067300Y0106154D02*
X0065200Y0106154D01*
X0065200Y0105156D02*
X0067300Y0105156D01*
X0067300Y0104157D02*
X0065200Y0104157D01*
X0065200Y0103159D02*
X0067300Y0103159D01*
X0067300Y0102160D02*
X0066047Y0102160D01*
X0067046Y0101162D02*
X0067300Y0101162D01*
X0068044Y0100163D02*
X0068236Y0100163D01*
X0069043Y0099165D02*
X0069234Y0099165D01*
X0070041Y0098166D02*
X0070233Y0098166D01*
X0071040Y0097168D02*
X0071231Y0097168D01*
X0072038Y0096169D02*
X0125462Y0096169D01*
X0124463Y0095171D02*
X0073037Y0095171D01*
X0074035Y0094172D02*
X0123465Y0094172D01*
X0122267Y0098166D02*
X0127459Y0098166D01*
X0126460Y0097168D02*
X0115183Y0097168D01*
X0115461Y0102160D02*
X0121453Y0102160D01*
X0121392Y0103159D02*
X0122451Y0103159D01*
X0122431Y0104157D02*
X0121568Y0104157D01*
X0121568Y0105156D02*
X0122431Y0105156D01*
X0122431Y0106154D02*
X0121568Y0106154D01*
X0121568Y0107153D02*
X0122431Y0107153D01*
X0122431Y0108151D02*
X0121568Y0108151D01*
X0121157Y0109150D02*
X0122843Y0109150D01*
X0122069Y0110148D02*
X0121931Y0110148D01*
X0121968Y0111147D02*
X0122031Y0111147D01*
X0122031Y0112145D02*
X0121968Y0112145D01*
X0121968Y0113134D02*
X0118984Y0113134D01*
X0118984Y0116315D01*
X0120666Y0116315D01*
X0121047Y0116213D01*
X0121390Y0116015D01*
X0121669Y0115736D01*
X0121866Y0115394D01*
X0121968Y0115012D01*
X0121968Y0113134D01*
X0121968Y0113144D02*
X0122031Y0113144D01*
X0122031Y0114142D02*
X0121968Y0114142D01*
X0121934Y0115141D02*
X0122066Y0115141D01*
X0122826Y0116139D02*
X0121174Y0116139D01*
X0118984Y0116139D02*
X0118016Y0116139D01*
X0118016Y0115141D02*
X0118984Y0115141D01*
X0118984Y0114142D02*
X0118016Y0114142D01*
X0118016Y0113144D02*
X0118984Y0113144D01*
X0115826Y0116139D02*
X0110655Y0116139D01*
X0111653Y0117138D02*
X0159072Y0117138D01*
X0160071Y0118136D02*
X0138152Y0118136D01*
X0139150Y0119135D02*
X0161069Y0119135D01*
X0162068Y0120133D02*
X0139700Y0120133D01*
X0139700Y0121132D02*
X0163066Y0121132D01*
X0164065Y0122130D02*
X0139491Y0122130D01*
X0138493Y0123129D02*
X0165063Y0123129D01*
X0166062Y0124127D02*
X0136080Y0124127D01*
X0135081Y0125126D02*
X0146273Y0125126D01*
X0145274Y0126125D02*
X0134083Y0126125D01*
X0133084Y0127123D02*
X0144276Y0127123D01*
X0143277Y0128122D02*
X0132086Y0128122D01*
X0131087Y0129120D02*
X0142279Y0129120D01*
X0141280Y0130119D02*
X0130089Y0130119D01*
X0129090Y0131117D02*
X0140282Y0131117D01*
X0139283Y0132116D02*
X0128092Y0132116D01*
X0127093Y0133114D02*
X0138285Y0133114D01*
X0137286Y0134113D02*
X0126200Y0134113D01*
X0126200Y0135111D02*
X0136288Y0135111D01*
X0135289Y0136110D02*
X0126200Y0136110D01*
X0126200Y0137108D02*
X0134291Y0137108D01*
X0133292Y0138107D02*
X0126200Y0138107D01*
X0126200Y0139105D02*
X0132294Y0139105D01*
X0131295Y0140104D02*
X0126200Y0140104D01*
X0126200Y0141102D02*
X0128883Y0141102D01*
X0127884Y0142101D02*
X0126202Y0142101D01*
X0127200Y0143099D02*
X0127800Y0143099D01*
X0124389Y0145096D02*
X0107854Y0145096D01*
X0107854Y0144098D02*
X0123390Y0144098D01*
X0122800Y0143099D02*
X0107854Y0143099D01*
X0107854Y0142101D02*
X0122800Y0142101D01*
X0122800Y0141102D02*
X0107854Y0141102D01*
X0107854Y0140104D02*
X0122800Y0140104D01*
X0122800Y0139105D02*
X0108602Y0139105D01*
X0111015Y0138107D02*
X0122800Y0138107D01*
X0122800Y0137108D02*
X0112013Y0137108D01*
X0112200Y0136110D02*
X0122800Y0136110D01*
X0122800Y0135111D02*
X0112200Y0135111D01*
X0111628Y0134113D02*
X0122800Y0134113D01*
X0122800Y0133114D02*
X0110629Y0133114D01*
X0108371Y0133114D02*
X0103715Y0133114D01*
X0102717Y0132116D02*
X0123283Y0132116D01*
X0124282Y0131117D02*
X0101718Y0131117D01*
X0100720Y0130119D02*
X0125280Y0130119D01*
X0126279Y0129120D02*
X0099721Y0129120D01*
X0098723Y0128122D02*
X0127277Y0128122D01*
X0128276Y0127123D02*
X0097724Y0127123D01*
X0097700Y0126125D02*
X0129274Y0126125D01*
X0130273Y0125126D02*
X0097700Y0125126D01*
X0097994Y0124127D02*
X0131271Y0124127D01*
X0132270Y0123129D02*
X0098700Y0123129D01*
X0098700Y0122130D02*
X0133269Y0122130D01*
X0134267Y0121132D02*
X0098647Y0121132D01*
X0097649Y0120133D02*
X0107012Y0120133D01*
X0106300Y0119135D02*
X0077736Y0119135D01*
X0078734Y0120133D02*
X0094351Y0120133D01*
X0096568Y0116139D02*
X0100627Y0116139D01*
X0100341Y0115141D02*
X0097566Y0115141D01*
X0094755Y0113144D02*
X0087245Y0113144D01*
X0086246Y0112145D02*
X0095754Y0112145D01*
X0095906Y0111147D02*
X0085248Y0111147D01*
X0084249Y0110148D02*
X0092941Y0110148D01*
X0091943Y0109150D02*
X0083251Y0109150D01*
X0083200Y0108151D02*
X0090944Y0108151D01*
X0089945Y0107153D02*
X0082668Y0107153D01*
X0082533Y0106154D02*
X0081670Y0106154D01*
X0081800Y0105156D02*
X0078779Y0105156D01*
X0077580Y0104157D02*
X0081800Y0104157D01*
X0081826Y0103159D02*
X0077200Y0103159D01*
X0076675Y0102160D02*
X0082825Y0102160D01*
X0086175Y0102160D02*
X0100331Y0102160D01*
X0100331Y0103159D02*
X0090760Y0103159D01*
X0091758Y0104157D02*
X0096306Y0104157D01*
X0096306Y0105156D02*
X0092757Y0105156D01*
X0093755Y0106154D02*
X0095906Y0106154D01*
X0098980Y0106835D02*
X0098980Y0106835D01*
X0102055Y0106835D01*
X0102055Y0107623D01*
X0101953Y0108004D01*
X0101755Y0108346D01*
X0101655Y0108446D01*
X0101655Y0109160D01*
X0101755Y0109260D01*
X0101953Y0109602D01*
X0102055Y0109984D01*
X0102055Y0110772D01*
X0102055Y0111148D01*
X0102388Y0111148D01*
X0102488Y0111048D01*
X0102830Y0110850D01*
X0103212Y0110748D01*
X0104000Y0110748D01*
X0104788Y0110748D01*
X0105170Y0110850D01*
X0105512Y0111048D01*
X0105612Y0111148D01*
X0106325Y0111148D01*
X0106345Y0111128D01*
X0106345Y0109725D01*
X0106345Y0107881D01*
X0106345Y0106458D01*
X0102055Y0106458D01*
X0102055Y0106835D01*
X0098980Y0106835D01*
X0102055Y0107153D02*
X0106345Y0107153D01*
X0106345Y0108151D02*
X0101868Y0108151D01*
X0101655Y0109150D02*
X0106345Y0109150D01*
X0106345Y0110148D02*
X0102055Y0110148D01*
X0102055Y0110772D02*
X0098980Y0110772D01*
X0102055Y0110772D01*
X0102055Y0111147D02*
X0102389Y0111147D01*
X0104000Y0111147D02*
X0104000Y0111147D01*
X0104000Y0110748D02*
X0104000Y0113823D01*
X0104000Y0113823D01*
X0104000Y0116898D01*
X0104000Y0113823D01*
X0104000Y0113823D01*
X0104000Y0110748D01*
X0104000Y0112145D02*
X0104000Y0112145D01*
X0104000Y0113144D02*
X0104000Y0113144D01*
X0104000Y0114142D02*
X0104000Y0114142D01*
X0104000Y0115141D02*
X0104000Y0115141D01*
X0104000Y0116139D02*
X0104000Y0116139D01*
X0105431Y0117138D02*
X0075739Y0117138D01*
X0076737Y0118136D02*
X0106300Y0118136D01*
X0108242Y0115141D02*
X0115066Y0115141D01*
X0115031Y0114142D02*
X0111858Y0114142D01*
X0114478Y0113144D02*
X0115031Y0113144D01*
X0111700Y0118136D02*
X0135848Y0118136D01*
X0134850Y0119135D02*
X0111700Y0119135D01*
X0110988Y0120133D02*
X0134300Y0120133D01*
X0133984Y0116315D02*
X0133984Y0113134D01*
X0136968Y0113134D01*
X0136968Y0115012D01*
X0136866Y0115394D01*
X0136669Y0115736D01*
X0136390Y0116015D01*
X0136047Y0116213D01*
X0135666Y0116315D01*
X0133984Y0116315D01*
X0133984Y0116139D02*
X0133016Y0116139D01*
X0133016Y0115141D02*
X0133984Y0115141D01*
X0133984Y0114142D02*
X0133016Y0114142D01*
X0133016Y0113144D02*
X0133984Y0113144D01*
X0136934Y0115141D02*
X0157075Y0115141D01*
X0158074Y0116139D02*
X0136174Y0116139D01*
X0136968Y0114142D02*
X0156077Y0114142D01*
X0155078Y0113144D02*
X0150978Y0113144D01*
X0149000Y0111303D02*
X0155500Y0111303D01*
X0170500Y0126303D01*
X0168500Y0128122D02*
X0148086Y0128122D01*
X0147087Y0129120D02*
X0173300Y0129120D01*
X0173300Y0128122D02*
X0172500Y0128122D01*
X0173200Y0127123D02*
X0173300Y0127123D01*
X0173300Y0126125D02*
X0173200Y0126125D01*
X0173141Y0125126D02*
X0173300Y0125126D01*
X0173300Y0124127D02*
X0172143Y0124127D01*
X0173300Y0123129D02*
X0169589Y0123129D01*
X0168590Y0122130D02*
X0173300Y0122130D01*
X0173300Y0121132D02*
X0167592Y0121132D01*
X0166593Y0120133D02*
X0173300Y0120133D01*
X0173300Y0119135D02*
X0165595Y0119135D01*
X0164596Y0118136D02*
X0173300Y0118136D01*
X0173300Y0117138D02*
X0163597Y0117138D01*
X0162599Y0116139D02*
X0173300Y0116139D01*
X0173300Y0115141D02*
X0161600Y0115141D01*
X0160602Y0114142D02*
X0173300Y0114142D01*
X0173300Y0113144D02*
X0159603Y0113144D01*
X0158605Y0112145D02*
X0173300Y0112145D01*
X0173300Y0111147D02*
X0157606Y0111147D01*
X0156608Y0110148D02*
X0173300Y0110148D01*
X0173300Y0109150D02*
X0150665Y0109150D01*
X0147335Y0109150D02*
X0136157Y0109150D01*
X0136568Y0108151D02*
X0173300Y0108151D01*
X0173300Y0107153D02*
X0136568Y0107153D01*
X0136568Y0106154D02*
X0173300Y0106154D01*
X0173300Y0105156D02*
X0136568Y0105156D01*
X0136568Y0104157D02*
X0173300Y0104157D01*
X0173300Y0103159D02*
X0136392Y0103159D01*
X0135458Y0100163D02*
X0173300Y0100163D01*
X0173300Y0099165D02*
X0136200Y0099165D01*
X0136200Y0098166D02*
X0172545Y0098166D01*
X0172300Y0097168D02*
X0136183Y0097168D01*
X0135184Y0096169D02*
X0172300Y0096169D01*
X0172814Y0095171D02*
X0129272Y0095171D01*
X0130270Y0096169D02*
X0131816Y0096169D01*
X0128457Y0099165D02*
X0123266Y0099165D01*
X0124264Y0100163D02*
X0131542Y0100163D01*
X0130608Y0103159D02*
X0128392Y0103159D01*
X0128568Y0104157D02*
X0130431Y0104157D01*
X0130431Y0108151D02*
X0128568Y0108151D01*
X0128157Y0109150D02*
X0130843Y0109150D01*
X0130069Y0110148D02*
X0128931Y0110148D01*
X0128968Y0111147D02*
X0130031Y0111147D01*
X0130031Y0112145D02*
X0128968Y0112145D01*
X0128968Y0113134D02*
X0128968Y0115012D01*
X0128866Y0115394D01*
X0128669Y0115736D01*
X0128390Y0116015D01*
X0128047Y0116213D01*
X0127666Y0116315D01*
X0125984Y0116315D01*
X0125984Y0113134D01*
X0128968Y0113134D01*
X0128968Y0113144D02*
X0130031Y0113144D01*
X0130031Y0114142D02*
X0128968Y0114142D01*
X0128934Y0115141D02*
X0130066Y0115141D01*
X0130826Y0116139D02*
X0128174Y0116139D01*
X0125984Y0116139D02*
X0125016Y0116139D01*
X0125016Y0115141D02*
X0125984Y0115141D01*
X0125984Y0114142D02*
X0125016Y0114142D01*
X0125016Y0113144D02*
X0125984Y0113144D01*
X0126200Y0102160D02*
X0173300Y0102160D01*
X0173300Y0101162D02*
X0125263Y0101162D01*
X0115608Y0103159D02*
X0113049Y0103159D01*
X0113242Y0104157D02*
X0112050Y0104157D01*
X0106326Y0111147D02*
X0105611Y0111147D01*
X0109020Y0113144D02*
X0109020Y0113144D01*
X0109020Y0114142D02*
X0109020Y0114142D01*
X0098980Y0110772D02*
X0098980Y0110772D01*
X0099454Y0101162D02*
X0075677Y0101162D01*
X0073323Y0101162D02*
X0072046Y0101162D01*
X0072325Y0102160D02*
X0071047Y0102160D01*
X0070700Y0103159D02*
X0071800Y0103159D01*
X0071800Y0104157D02*
X0070700Y0104157D01*
X0070700Y0105156D02*
X0072034Y0105156D01*
X0073033Y0106154D02*
X0070700Y0106154D01*
X0070700Y0107153D02*
X0075864Y0107153D01*
X0077062Y0108151D02*
X0070700Y0108151D01*
X0070700Y0109150D02*
X0077800Y0109150D01*
X0078027Y0110148D02*
X0070700Y0110148D01*
X0070700Y0111147D02*
X0079025Y0111147D01*
X0081438Y0112145D02*
X0070746Y0112145D01*
X0071745Y0113144D02*
X0082437Y0113144D01*
X0083435Y0114142D02*
X0072743Y0114142D01*
X0073742Y0115141D02*
X0084434Y0115141D01*
X0085279Y0116139D02*
X0074740Y0116139D01*
X0070140Y0126125D02*
X0084860Y0126125D01*
X0086500Y0128303D02*
X0069500Y0128303D01*
X0069000Y0128803D01*
X0066862Y0127123D02*
X0055584Y0127123D01*
X0054586Y0128122D02*
X0066300Y0128122D01*
X0066300Y0129120D02*
X0053587Y0129120D01*
X0052589Y0130119D02*
X0066497Y0130119D01*
X0067496Y0131117D02*
X0051590Y0131117D01*
X0050592Y0132116D02*
X0084800Y0132116D01*
X0084800Y0133114D02*
X0049593Y0133114D01*
X0048854Y0134113D02*
X0084800Y0134113D01*
X0084800Y0135111D02*
X0048854Y0135111D01*
X0048854Y0136110D02*
X0084800Y0136110D01*
X0084800Y0137108D02*
X0048854Y0137108D01*
X0048854Y0138107D02*
X0084800Y0138107D01*
X0084800Y0139105D02*
X0048854Y0139105D01*
X0050144Y0140104D02*
X0050856Y0140104D01*
X0050581Y0141102D02*
X0050419Y0141102D01*
X0050419Y0142101D02*
X0050581Y0142101D01*
X0050581Y0143099D02*
X0050419Y0143099D01*
X0050419Y0144098D02*
X0050581Y0144098D01*
X0050581Y0145096D02*
X0050419Y0145096D01*
X0057112Y0145096D02*
X0064300Y0145096D01*
X0067700Y0145096D02*
X0084800Y0145096D01*
X0084800Y0144098D02*
X0068524Y0144098D01*
X0068700Y0143099D02*
X0084800Y0143099D01*
X0084800Y0142101D02*
X0068700Y0142101D01*
X0068117Y0141102D02*
X0084800Y0141102D01*
X0084800Y0140104D02*
X0067119Y0140104D01*
X0064881Y0140104D02*
X0056836Y0140104D01*
X0057112Y0141102D02*
X0063883Y0141102D01*
X0067700Y0146095D02*
X0084800Y0146095D01*
X0084800Y0147093D02*
X0067700Y0147093D01*
X0067700Y0148092D02*
X0084800Y0148092D01*
X0084800Y0149090D02*
X0067700Y0149090D01*
X0067700Y0150089D02*
X0084800Y0150089D01*
X0084800Y0151087D02*
X0067700Y0151087D01*
X0067700Y0152086D02*
X0084800Y0152086D01*
X0084800Y0153084D02*
X0067700Y0153084D01*
X0067700Y0154083D02*
X0084800Y0154083D01*
X0084800Y0155081D02*
X0067700Y0155081D01*
X0067700Y0156080D02*
X0084800Y0156080D01*
X0084800Y0157078D02*
X0067700Y0157078D01*
X0067700Y0158077D02*
X0084800Y0158077D01*
X0084800Y0159075D02*
X0068676Y0159075D01*
X0069675Y0160074D02*
X0084800Y0160074D01*
X0084800Y0161072D02*
X0070673Y0161072D01*
X0071672Y0162071D02*
X0084800Y0162071D01*
X0084800Y0163069D02*
X0072670Y0163069D01*
X0073669Y0164068D02*
X0084800Y0164068D01*
X0084800Y0165066D02*
X0074667Y0165066D01*
X0075666Y0166065D02*
X0084800Y0166065D01*
X0084800Y0167063D02*
X0076664Y0167063D01*
X0077663Y0168062D02*
X0084800Y0168062D01*
X0084800Y0169060D02*
X0078661Y0169060D01*
X0079660Y0170059D02*
X0084800Y0170059D01*
X0084800Y0171058D02*
X0080659Y0171058D01*
X0081657Y0172056D02*
X0084800Y0172056D01*
X0084800Y0173055D02*
X0082656Y0173055D01*
X0083654Y0174053D02*
X0084800Y0174053D01*
X0084800Y0175052D02*
X0084653Y0175052D01*
X0088200Y0174053D02*
X0100846Y0174053D01*
X0101844Y0173055D02*
X0088200Y0173055D01*
X0088200Y0172056D02*
X0102843Y0172056D01*
X0103841Y0171058D02*
X0088200Y0171058D01*
X0088200Y0170059D02*
X0104840Y0170059D01*
X0105838Y0169060D02*
X0088200Y0169060D01*
X0088200Y0168062D02*
X0106837Y0168062D01*
X0107836Y0167063D02*
X0088200Y0167063D01*
X0088200Y0166065D02*
X0108834Y0166065D01*
X0109833Y0165066D02*
X0088200Y0165066D01*
X0088200Y0164068D02*
X0110831Y0164068D01*
X0111830Y0163069D02*
X0088200Y0163069D01*
X0088200Y0162071D02*
X0112828Y0162071D01*
X0113827Y0161072D02*
X0088200Y0161072D01*
X0088200Y0160074D02*
X0114825Y0160074D01*
X0115824Y0159075D02*
X0088200Y0159075D01*
X0088200Y0158077D02*
X0116822Y0158077D01*
X0116278Y0157078D02*
X0117821Y0157078D01*
X0118819Y0156080D02*
X0116512Y0156080D01*
X0116512Y0155081D02*
X0119818Y0155081D01*
X0120816Y0154083D02*
X0113331Y0154083D01*
X0113331Y0153819D02*
X0116512Y0153819D01*
X0116512Y0152137D01*
X0116410Y0151756D01*
X0116212Y0151414D01*
X0115933Y0151134D01*
X0115591Y0150937D01*
X0115209Y0150835D01*
X0113331Y0150835D01*
X0113331Y0153819D01*
X0113331Y0153084D02*
X0112362Y0153084D01*
X0112362Y0152086D02*
X0113331Y0152086D01*
X0113331Y0151087D02*
X0112362Y0151087D01*
X0109842Y0151087D02*
X0107854Y0151087D01*
X0107854Y0150089D02*
X0135458Y0150089D01*
X0135044Y0149090D02*
X0107854Y0149090D01*
X0107854Y0148092D02*
X0127384Y0148092D01*
X0126386Y0147093D02*
X0107854Y0147093D01*
X0107854Y0146095D02*
X0125387Y0146095D01*
X0123812Y0151087D02*
X0115851Y0151087D01*
X0116498Y0152086D02*
X0122813Y0152086D01*
X0121815Y0153084D02*
X0116512Y0153084D01*
X0113331Y0155081D02*
X0112362Y0155081D01*
X0112362Y0156080D02*
X0113331Y0156080D01*
X0113331Y0157078D02*
X0112362Y0157078D01*
X0109415Y0157078D02*
X0109068Y0157078D01*
X0103239Y0157078D02*
X0088200Y0157078D01*
X0088200Y0156080D02*
X0102888Y0156080D01*
X0102888Y0155081D02*
X0088200Y0155081D01*
X0088200Y0154083D02*
X0102888Y0154083D01*
X0102888Y0153084D02*
X0088200Y0153084D01*
X0088200Y0152086D02*
X0102888Y0152086D01*
X0104454Y0151087D02*
X0088200Y0151087D01*
X0088200Y0150089D02*
X0104454Y0150089D01*
X0104454Y0149090D02*
X0088200Y0149090D01*
X0088200Y0148092D02*
X0104454Y0148092D01*
X0104454Y0147093D02*
X0088200Y0147093D01*
X0088200Y0146095D02*
X0104454Y0146095D01*
X0104454Y0145096D02*
X0088200Y0145096D01*
X0088200Y0144098D02*
X0104454Y0144098D01*
X0104454Y0143099D02*
X0088200Y0143099D01*
X0088200Y0142101D02*
X0104454Y0142101D01*
X0104454Y0141102D02*
X0088200Y0141102D01*
X0088200Y0140104D02*
X0104454Y0140104D01*
X0104454Y0139105D02*
X0088200Y0139105D01*
X0088200Y0138107D02*
X0104792Y0138107D01*
X0102901Y0137108D02*
X0088200Y0137108D01*
X0088200Y0136110D02*
X0101902Y0136110D01*
X0100904Y0135111D02*
X0088200Y0135111D01*
X0088200Y0134113D02*
X0099905Y0134113D01*
X0098907Y0133114D02*
X0088200Y0133114D01*
X0088200Y0132116D02*
X0097908Y0132116D01*
X0096910Y0131117D02*
X0088200Y0131117D01*
X0088503Y0130119D02*
X0095911Y0130119D01*
X0094913Y0129120D02*
X0089200Y0129120D01*
X0089200Y0128122D02*
X0094300Y0128122D01*
X0094300Y0127123D02*
X0089138Y0127123D01*
X0088140Y0126125D02*
X0094300Y0126125D01*
X0084497Y0130119D02*
X0071503Y0130119D01*
X0070504Y0131117D02*
X0084800Y0131117D01*
X0067860Y0126125D02*
X0056583Y0126125D01*
X0039800Y0132116D02*
X0028631Y0132116D01*
X0028700Y0133114D02*
X0039800Y0133114D01*
X0039800Y0134113D02*
X0028700Y0134113D01*
X0030968Y0135111D02*
X0039800Y0135111D01*
X0039800Y0136110D02*
X0031545Y0136110D01*
X0032121Y0137108D02*
X0039800Y0137108D01*
X0039800Y0138107D02*
X0032698Y0138107D01*
X0033274Y0139105D02*
X0039800Y0139105D01*
X0039800Y0140104D02*
X0033851Y0140104D01*
X0034377Y0141102D02*
X0039800Y0141102D01*
X0039800Y0142101D02*
X0033848Y0142101D01*
X0032118Y0143099D02*
X0039800Y0143099D01*
X0038361Y0153084D02*
X0037243Y0153084D01*
X0037206Y0153084D02*
X0031837Y0153084D01*
X0032475Y0154083D02*
X0035604Y0154083D01*
X0035198Y0155081D02*
X0033114Y0155081D01*
X0033752Y0156080D02*
X0035526Y0156080D01*
X0036103Y0157078D02*
X0034390Y0157078D01*
X0035029Y0158077D02*
X0036679Y0158077D01*
X0038972Y0156080D02*
X0040091Y0156080D01*
X0039514Y0155081D02*
X0038396Y0155081D01*
X0038938Y0154083D02*
X0037819Y0154083D01*
X0040125Y0158077D02*
X0041244Y0158077D01*
X0040702Y0159075D02*
X0041820Y0159075D01*
X0041278Y0160074D02*
X0042397Y0160074D01*
X0041855Y0161072D02*
X0058365Y0161072D01*
X0057367Y0160074D02*
X0044100Y0160074D01*
X0044829Y0159075D02*
X0056368Y0159075D01*
X0055370Y0158077D02*
X0044690Y0158077D01*
X0044113Y0157078D02*
X0050371Y0157078D01*
X0049373Y0156080D02*
X0043537Y0156080D01*
X0038859Y0164068D02*
X0061361Y0164068D01*
X0062359Y0165066D02*
X0039497Y0165066D01*
X0040136Y0166065D02*
X0063358Y0166065D01*
X0064356Y0167063D02*
X0051079Y0167063D01*
X0050618Y0166603D02*
X0052200Y0168185D01*
X0052200Y0168766D01*
X0052329Y0168831D01*
X0052808Y0168001D01*
X0053688Y0167765D01*
X0060107Y0171470D01*
X0060342Y0172351D01*
X0057918Y0176549D01*
X0057038Y0176785D01*
X0050620Y0173080D01*
X0050384Y0172199D01*
X0050497Y0172003D01*
X0048382Y0172003D01*
X0046800Y0170422D01*
X0046800Y0168185D01*
X0048382Y0166603D01*
X0050618Y0166603D01*
X0052077Y0168062D02*
X0052773Y0168062D01*
X0054203Y0168062D02*
X0065355Y0168062D01*
X0066353Y0169060D02*
X0055932Y0169060D01*
X0057662Y0170059D02*
X0067352Y0170059D01*
X0068350Y0171058D02*
X0059391Y0171058D01*
X0060264Y0172056D02*
X0069349Y0172056D01*
X0070347Y0173055D02*
X0059936Y0173055D01*
X0059360Y0174053D02*
X0071346Y0174053D01*
X0072344Y0175052D02*
X0058783Y0175052D01*
X0058207Y0176050D02*
X0073343Y0176050D01*
X0074341Y0177049D02*
X0047158Y0177049D01*
X0047796Y0178047D02*
X0070028Y0178047D01*
X0069905Y0178170D02*
X0070185Y0177891D01*
X0070527Y0177693D01*
X0070908Y0177591D01*
X0071303Y0177591D01*
X0071685Y0177693D01*
X0074251Y0179175D01*
X0072759Y0181759D01*
X0069065Y0179626D01*
X0069905Y0178170D01*
X0069400Y0179046D02*
X0048435Y0179046D01*
X0049760Y0180044D02*
X0069788Y0180044D01*
X0069581Y0181043D02*
X0071518Y0181043D01*
X0071310Y0182041D02*
X0072596Y0182041D01*
X0073247Y0182041D02*
X0073714Y0182041D01*
X0073172Y0181043D02*
X0074291Y0181043D01*
X0073749Y0180044D02*
X0074867Y0180044D01*
X0075757Y0180044D02*
X0077337Y0180044D01*
X0077486Y0181043D02*
X0078300Y0181043D01*
X0078300Y0182041D02*
X0078207Y0182041D01*
X0078300Y0183040D02*
X0078063Y0183040D01*
X0078300Y0184038D02*
X0077487Y0184038D01*
X0076706Y0184038D02*
X0074769Y0184038D01*
X0074977Y0183040D02*
X0073138Y0183040D01*
X0073113Y0183082D02*
X0076807Y0185215D01*
X0075967Y0186671D01*
X0075687Y0186951D01*
X0075345Y0187148D01*
X0074964Y0187250D01*
X0074569Y0187250D01*
X0074187Y0187148D01*
X0071621Y0185667D01*
X0073113Y0183082D01*
X0073039Y0183040D02*
X0072019Y0183040D01*
X0072561Y0184038D02*
X0071443Y0184038D01*
X0071985Y0185037D02*
X0070866Y0185037D01*
X0068247Y0181043D02*
X0051489Y0181043D01*
X0054035Y0175052D02*
X0045881Y0175052D01*
X0046520Y0176050D02*
X0055765Y0176050D01*
X0052306Y0174053D02*
X0045243Y0174053D01*
X0044605Y0173055D02*
X0050613Y0173055D01*
X0050467Y0172056D02*
X0043966Y0172056D01*
X0043328Y0171058D02*
X0047436Y0171058D01*
X0046800Y0170059D02*
X0042689Y0170059D01*
X0042051Y0169060D02*
X0046800Y0169060D01*
X0046923Y0168062D02*
X0041413Y0168062D01*
X0040774Y0167063D02*
X0047921Y0167063D01*
X0030355Y0157078D02*
X0019465Y0157078D01*
X0018929Y0156080D02*
X0029717Y0156080D01*
X0029078Y0155081D02*
X0018393Y0155081D01*
X0017856Y0154083D02*
X0028440Y0154083D01*
X0027801Y0153084D02*
X0017320Y0153084D01*
X0016784Y0152086D02*
X0026205Y0152086D01*
X0024573Y0151087D02*
X0016248Y0151087D01*
X0015712Y0150089D02*
X0017982Y0150089D01*
X0017405Y0149090D02*
X0015245Y0149090D01*
X0014858Y0148092D02*
X0016829Y0148092D01*
X0016252Y0147093D02*
X0014471Y0147093D01*
X0014084Y0146095D02*
X0015676Y0146095D01*
X0015100Y0145096D02*
X0013698Y0145096D01*
X0013311Y0144098D02*
X0014523Y0144098D01*
X0014718Y0143099D02*
X0012924Y0143099D01*
X0012979Y0142101D02*
X0012537Y0142101D01*
X0012300Y0141102D02*
X0012150Y0141102D01*
X0012300Y0140104D02*
X0011763Y0140104D01*
X0011377Y0139105D02*
X0012380Y0139105D01*
X0014884Y0143003D02*
X0014884Y0143003D01*
X0020012Y0150089D02*
X0022942Y0150089D01*
X0008632Y0122130D02*
X0007592Y0122130D01*
X0007468Y0121132D02*
X0008632Y0121132D01*
X0008632Y0120133D02*
X0007345Y0120133D01*
X0007221Y0119135D02*
X0008632Y0119135D01*
X0008632Y0118136D02*
X0007097Y0118136D01*
X0006974Y0117138D02*
X0008632Y0117138D01*
X0008632Y0116139D02*
X0006850Y0116139D01*
X0006726Y0115141D02*
X0008632Y0115141D01*
X0009233Y0114142D02*
X0006685Y0114142D01*
X0006685Y0113144D02*
X0011755Y0113144D01*
X0012754Y0112145D02*
X0006685Y0112145D01*
X0006685Y0111147D02*
X0013752Y0111147D01*
X0014751Y0110148D02*
X0006685Y0110148D01*
X0006685Y0109150D02*
X0015300Y0109150D01*
X0015300Y0108151D02*
X0006685Y0108151D01*
X0006685Y0107153D02*
X0015300Y0107153D01*
X0015300Y0106154D02*
X0006685Y0106154D01*
X0006685Y0105156D02*
X0015300Y0105156D01*
X0008929Y0102160D02*
X0006764Y0102160D01*
X0006888Y0101162D02*
X0008632Y0101162D01*
X0008632Y0100163D02*
X0007012Y0100163D01*
X0007135Y0099165D02*
X0008632Y0099165D01*
X0008632Y0098166D02*
X0007259Y0098166D01*
X0007382Y0097168D02*
X0008632Y0097168D01*
X0008632Y0096169D02*
X0007506Y0096169D01*
X0007630Y0095171D02*
X0008632Y0095171D01*
X0008912Y0094172D02*
X0007753Y0094172D01*
X0007877Y0093174D02*
X0009552Y0093174D01*
X0008800Y0092175D02*
X0008001Y0092175D01*
X0008124Y0091177D02*
X0008800Y0091177D01*
X0008807Y0090178D02*
X0008339Y0090178D01*
X0008590Y0089180D02*
X0009805Y0089180D01*
X0031700Y0090178D02*
X0032159Y0090178D01*
X0031700Y0091177D02*
X0033158Y0091177D01*
X0032276Y0092175D02*
X0071224Y0092175D01*
X0072222Y0091177D02*
X0035842Y0091177D01*
X0044275Y0093174D02*
X0070225Y0093174D01*
X0069227Y0094172D02*
X0045273Y0094172D01*
X0068505Y0074202D02*
X0174678Y0074202D01*
X0176408Y0073203D02*
X0069504Y0073203D01*
X0073044Y0100163D02*
X0098456Y0100163D01*
X0101267Y0098166D02*
X0102733Y0098166D01*
X0103731Y0097168D02*
X0100269Y0097168D01*
X0088947Y0106154D02*
X0086467Y0106154D01*
X0130688Y0151087D02*
X0136345Y0151087D01*
X0135364Y0152086D02*
X0138189Y0152086D01*
X0140175Y0152086D02*
X0144414Y0152086D01*
X0144524Y0151976D02*
X0146105Y0151321D01*
X0147815Y0151321D01*
X0149396Y0151976D01*
X0150605Y0153185D01*
X0151260Y0154766D01*
X0151260Y0156476D01*
X0150605Y0158057D01*
X0149396Y0159267D01*
X0147815Y0159921D01*
X0146105Y0159921D01*
X0144524Y0159267D01*
X0143315Y0158057D01*
X0142660Y0156476D01*
X0142660Y0154766D01*
X0143315Y0153185D01*
X0144524Y0151976D01*
X0143416Y0153084D02*
X0136362Y0153084D01*
X0136835Y0154083D02*
X0142943Y0154083D01*
X0142660Y0155081D02*
X0137118Y0155081D01*
X0137118Y0156080D02*
X0142660Y0156080D01*
X0142909Y0157078D02*
X0136869Y0157078D01*
X0136443Y0158077D02*
X0137381Y0158077D01*
X0136746Y0158340D02*
X0138327Y0157685D01*
X0140037Y0157685D01*
X0141618Y0158340D01*
X0142827Y0159549D01*
X0143482Y0161130D01*
X0143482Y0162840D01*
X0142827Y0164421D01*
X0141618Y0165630D01*
X0140037Y0166285D01*
X0138327Y0166285D01*
X0136746Y0165630D01*
X0135537Y0164421D01*
X0134882Y0162840D01*
X0134882Y0161130D01*
X0135537Y0159549D01*
X0136746Y0158340D01*
X0136011Y0159075D02*
X0135445Y0159075D01*
X0135319Y0160074D02*
X0129341Y0160074D01*
X0129395Y0160181D02*
X0129624Y0160885D01*
X0129740Y0161615D01*
X0129740Y0162355D01*
X0129624Y0163086D01*
X0129395Y0163789D01*
X0129060Y0164448D01*
X0128634Y0165034D01*
X0125586Y0161985D01*
X0128634Y0158936D01*
X0129060Y0159522D01*
X0129395Y0160181D01*
X0129654Y0161072D02*
X0134906Y0161072D01*
X0134882Y0162071D02*
X0129740Y0162071D01*
X0129627Y0163069D02*
X0134977Y0163069D01*
X0135390Y0164068D02*
X0129254Y0164068D01*
X0127668Y0164068D02*
X0126577Y0164068D01*
X0126670Y0163069D02*
X0125578Y0163069D01*
X0125040Y0162531D02*
X0128089Y0165580D01*
X0127503Y0166005D01*
X0126844Y0166341D01*
X0126140Y0166569D01*
X0125410Y0166685D01*
X0124670Y0166685D01*
X0123939Y0166569D01*
X0123236Y0166341D01*
X0122577Y0166005D01*
X0121991Y0165580D01*
X0125040Y0162531D01*
X0125586Y0161985D01*
X0125040Y0161439D01*
X0128089Y0158391D01*
X0127503Y0157965D01*
X0126844Y0157629D01*
X0126140Y0157401D01*
X0125410Y0157285D01*
X0124670Y0157285D01*
X0123939Y0157401D01*
X0123236Y0157629D01*
X0122577Y0157965D01*
X0121991Y0158391D01*
X0125040Y0161439D01*
X0124494Y0161985D01*
X0121445Y0158936D01*
X0121020Y0159522D01*
X0120684Y0160181D01*
X0120456Y0160885D01*
X0120340Y0161615D01*
X0120340Y0162355D01*
X0120456Y0163086D01*
X0120684Y0163789D01*
X0121020Y0164448D01*
X0121445Y0165034D01*
X0124494Y0161985D01*
X0125040Y0162531D01*
X0125500Y0162071D02*
X0125671Y0162071D01*
X0125407Y0161072D02*
X0126498Y0161072D01*
X0126405Y0160074D02*
X0127497Y0160074D01*
X0127404Y0159075D02*
X0128495Y0159075D01*
X0128735Y0159075D02*
X0130191Y0159075D01*
X0129193Y0158077D02*
X0127657Y0158077D01*
X0128767Y0157078D02*
X0122629Y0157078D01*
X0122423Y0158077D02*
X0121630Y0158077D01*
X0121584Y0159075D02*
X0122676Y0159075D01*
X0122583Y0160074D02*
X0123674Y0160074D01*
X0123581Y0161072D02*
X0124673Y0161072D01*
X0124580Y0162071D02*
X0124408Y0162071D01*
X0124501Y0163069D02*
X0123410Y0163069D01*
X0123503Y0164068D02*
X0122411Y0164068D01*
X0122504Y0165066D02*
X0114641Y0165066D01*
X0115639Y0164068D02*
X0120826Y0164068D01*
X0120453Y0163069D02*
X0116638Y0163069D01*
X0117636Y0162071D02*
X0120340Y0162071D01*
X0120426Y0161072D02*
X0118635Y0161072D01*
X0119633Y0160074D02*
X0120739Y0160074D01*
X0120632Y0159075D02*
X0121344Y0159075D01*
X0123627Y0156080D02*
X0128518Y0156080D01*
X0128518Y0155081D02*
X0124626Y0155081D01*
X0125624Y0154083D02*
X0128801Y0154083D01*
X0131200Y0151599D02*
X0131200Y0151599D01*
X0133116Y0148092D02*
X0134882Y0148092D01*
X0134882Y0147093D02*
X0134114Y0147093D01*
X0135113Y0146095D02*
X0135252Y0146095D01*
X0133300Y0143099D02*
X0133200Y0143099D01*
X0134107Y0142101D02*
X0134298Y0142101D01*
X0135105Y0141102D02*
X0135297Y0141102D01*
X0136104Y0140104D02*
X0136295Y0140104D01*
X0137102Y0139105D02*
X0171794Y0139105D01*
X0172792Y0138107D02*
X0138101Y0138107D01*
X0139099Y0137108D02*
X0173300Y0137108D01*
X0173300Y0136110D02*
X0140098Y0136110D01*
X0141096Y0135111D02*
X0173300Y0135111D01*
X0173300Y0134113D02*
X0142095Y0134113D01*
X0143093Y0133114D02*
X0173300Y0133114D01*
X0173300Y0132116D02*
X0144092Y0132116D01*
X0145090Y0131117D02*
X0173300Y0131117D01*
X0173300Y0130119D02*
X0146089Y0130119D01*
X0143705Y0140104D02*
X0170795Y0140104D01*
X0169797Y0141102D02*
X0144703Y0141102D01*
X0145702Y0142101D02*
X0168798Y0142101D01*
X0167800Y0143099D02*
X0146700Y0143099D01*
X0147699Y0144098D02*
X0166801Y0144098D01*
X0165803Y0145096D02*
X0148697Y0145096D01*
X0149696Y0146095D02*
X0164804Y0146095D01*
X0163806Y0147093D02*
X0150694Y0147093D01*
X0151693Y0148092D02*
X0162807Y0148092D01*
X0161809Y0149090D02*
X0152691Y0149090D01*
X0153690Y0150089D02*
X0160810Y0150089D01*
X0159812Y0151087D02*
X0154688Y0151087D01*
X0155200Y0152086D02*
X0157399Y0152086D01*
X0156800Y0153084D02*
X0155200Y0153084D01*
X0155200Y0154083D02*
X0156800Y0154083D01*
X0156960Y0155081D02*
X0155200Y0155081D01*
X0155200Y0156080D02*
X0157958Y0156080D01*
X0155200Y0157078D02*
X0164349Y0157078D01*
X0164925Y0156080D02*
X0161042Y0156080D01*
X0162040Y0155081D02*
X0165502Y0155081D01*
X0166078Y0154083D02*
X0162200Y0154083D01*
X0162623Y0153084D02*
X0166655Y0153084D01*
X0167167Y0152197D02*
X0168048Y0151961D01*
X0172246Y0154385D01*
X0172482Y0155265D01*
X0168776Y0161683D01*
X0167896Y0161919D01*
X0166808Y0161291D01*
X0165700Y0162754D01*
X0165700Y0163422D01*
X0164118Y0165003D01*
X0161882Y0165003D01*
X0160300Y0163422D01*
X0160300Y0161185D01*
X0161882Y0159603D01*
X0163821Y0159603D01*
X0163841Y0159578D01*
X0163698Y0159495D01*
X0163462Y0158615D01*
X0167167Y0152197D01*
X0167580Y0152086D02*
X0163621Y0152086D01*
X0164620Y0151087D02*
X0176732Y0151087D01*
X0176800Y0152086D02*
X0168264Y0152086D01*
X0169994Y0153084D02*
X0176800Y0153084D01*
X0176800Y0154083D02*
X0171723Y0154083D01*
X0172433Y0155081D02*
X0176800Y0155081D01*
X0176800Y0156080D02*
X0172012Y0156080D01*
X0171435Y0157078D02*
X0176800Y0157078D01*
X0176800Y0158077D02*
X0170859Y0158077D01*
X0170282Y0159075D02*
X0176800Y0159075D01*
X0176800Y0160074D02*
X0169706Y0160074D01*
X0169129Y0161072D02*
X0176590Y0161072D01*
X0176014Y0162071D02*
X0166217Y0162071D01*
X0165700Y0163069D02*
X0175437Y0163069D01*
X0174430Y0164068D02*
X0165054Y0164068D01*
X0168183Y0168062D02*
X0155689Y0168062D01*
X0155667Y0168024D02*
X0156508Y0169481D01*
X0152814Y0171613D01*
X0151322Y0169029D01*
X0153888Y0167547D01*
X0154270Y0167445D01*
X0154665Y0167445D01*
X0155046Y0167547D01*
X0155388Y0167745D01*
X0155667Y0168024D01*
X0156266Y0169060D02*
X0166621Y0169060D01*
X0165059Y0170059D02*
X0155507Y0170059D01*
X0155714Y0171058D02*
X0153777Y0171058D01*
X0153985Y0172056D02*
X0153070Y0172056D01*
X0153298Y0172452D02*
X0156993Y0170319D01*
X0157833Y0171776D01*
X0157936Y0172157D01*
X0157936Y0172552D01*
X0157833Y0172934D01*
X0157636Y0173276D01*
X0157357Y0173555D01*
X0154790Y0175037D01*
X0153298Y0172452D01*
X0152814Y0171613D01*
X0151975Y0172098D01*
X0148281Y0174231D01*
X0147440Y0172774D01*
X0147338Y0172393D01*
X0147338Y0171998D01*
X0147440Y0171616D01*
X0147638Y0171274D01*
X0147917Y0170995D01*
X0150483Y0169513D01*
X0151975Y0172098D01*
X0152459Y0172937D01*
X0148765Y0175069D01*
X0149606Y0176526D01*
X0149885Y0176805D01*
X0150227Y0177003D01*
X0150609Y0177105D01*
X0151004Y0177105D01*
X0151385Y0177003D01*
X0153952Y0175521D01*
X0152460Y0172937D01*
X0153298Y0172452D01*
X0153646Y0173055D02*
X0152528Y0173055D01*
X0152255Y0173055D02*
X0150318Y0173055D01*
X0150526Y0174053D02*
X0148589Y0174053D01*
X0148179Y0174053D02*
X0142154Y0174053D01*
X0141156Y0175052D02*
X0148796Y0175052D01*
X0149332Y0176050D02*
X0140157Y0176050D01*
X0137619Y0178146D02*
X0136739Y0177910D01*
X0130321Y0181616D01*
X0130085Y0182496D01*
X0130630Y0183441D01*
X0130399Y0183603D01*
X0128382Y0183603D01*
X0126800Y0185185D01*
X0126800Y0187422D01*
X0128382Y0189003D01*
X0130618Y0189003D01*
X0132200Y0187422D01*
X0132200Y0186492D01*
X0132337Y0186397D01*
X0132509Y0186695D01*
X0133389Y0186931D01*
X0139807Y0183225D01*
X0140043Y0182345D01*
X0137619Y0178146D01*
X0137249Y0178047D02*
X0152565Y0178047D01*
X0151214Y0177049D02*
X0154127Y0177049D01*
X0153035Y0176050D02*
X0155689Y0176050D01*
X0157250Y0175052D02*
X0153681Y0175052D01*
X0154223Y0174053D02*
X0153104Y0174053D01*
X0152047Y0172056D02*
X0151951Y0172056D01*
X0152493Y0171058D02*
X0151375Y0171058D01*
X0151917Y0170059D02*
X0150798Y0170059D01*
X0151340Y0169060D02*
X0147147Y0169060D01*
X0148145Y0168062D02*
X0152997Y0168062D01*
X0150142Y0166065D02*
X0171307Y0166065D01*
X0172868Y0165066D02*
X0151141Y0165066D01*
X0152139Y0164068D02*
X0160946Y0164068D01*
X0160300Y0163069D02*
X0153138Y0163069D01*
X0154136Y0162071D02*
X0160300Y0162071D01*
X0160412Y0161072D02*
X0155135Y0161072D01*
X0155200Y0160074D02*
X0161411Y0160074D01*
X0163585Y0159075D02*
X0155200Y0159075D01*
X0155200Y0158077D02*
X0163772Y0158077D01*
X0165619Y0150089D02*
X0177272Y0150089D01*
X0177960Y0149090D02*
X0166617Y0149090D01*
X0167616Y0148092D02*
X0178648Y0148092D01*
X0179336Y0147093D02*
X0168614Y0147093D01*
X0169613Y0146095D02*
X0180024Y0146095D01*
X0180712Y0145096D02*
X0170611Y0145096D01*
X0171610Y0144098D02*
X0176811Y0144098D01*
X0176522Y0143099D02*
X0175404Y0143099D01*
X0175082Y0143099D02*
X0172608Y0143099D01*
X0175980Y0142101D02*
X0177098Y0142101D01*
X0176557Y0141102D02*
X0177675Y0141102D01*
X0177133Y0140104D02*
X0178251Y0140104D01*
X0178425Y0140104D02*
X0180362Y0140104D01*
X0180154Y0141102D02*
X0183463Y0141102D01*
X0184151Y0140104D02*
X0181697Y0140104D01*
X0181363Y0140682D02*
X0178779Y0139190D01*
X0180912Y0135496D01*
X0182368Y0136337D01*
X0182648Y0136616D01*
X0182845Y0136958D01*
X0182947Y0137339D01*
X0182947Y0137734D01*
X0182845Y0138116D01*
X0181363Y0140682D01*
X0180544Y0142101D02*
X0182775Y0142101D01*
X0182087Y0143099D02*
X0179968Y0143099D01*
X0179387Y0144098D02*
X0181399Y0144098D01*
X0183464Y0147093D02*
X0184661Y0147093D01*
X0184719Y0148092D02*
X0182777Y0148092D01*
X0182089Y0149090D02*
X0186259Y0149090D01*
X0187988Y0150089D02*
X0181401Y0150089D01*
X0180713Y0151087D02*
X0191666Y0151087D01*
X0192126Y0150089D02*
X0190018Y0150089D01*
X0190595Y0149090D02*
X0192585Y0149090D01*
X0193045Y0148092D02*
X0191171Y0148092D01*
X0191747Y0147093D02*
X0193504Y0147093D01*
X0193963Y0146095D02*
X0192324Y0146095D01*
X0192900Y0145096D02*
X0194423Y0145096D01*
X0194882Y0144098D02*
X0193477Y0144098D01*
X0193382Y0143099D02*
X0195210Y0143099D01*
X0195521Y0142101D02*
X0195528Y0142101D01*
X0196120Y0139105D02*
X0196481Y0139105D01*
X0196799Y0138107D02*
X0195122Y0138107D01*
X0197116Y0137108D02*
X0190343Y0137108D01*
X0191031Y0136110D02*
X0197434Y0136110D01*
X0197752Y0135111D02*
X0191719Y0135111D01*
X0192407Y0134113D02*
X0198069Y0134113D01*
X0198387Y0133114D02*
X0193095Y0133114D01*
X0193782Y0132116D02*
X0198643Y0132116D01*
X0198830Y0131117D02*
X0194470Y0131117D01*
X0195158Y0130119D02*
X0199016Y0130119D01*
X0199203Y0129120D02*
X0196087Y0129120D01*
X0197086Y0128122D02*
X0199390Y0128122D01*
X0199498Y0127123D02*
X0199576Y0127123D01*
X0194800Y0125126D02*
X0187700Y0125126D01*
X0187700Y0126125D02*
X0194274Y0126125D01*
X0193276Y0127123D02*
X0187498Y0127123D01*
X0186500Y0128122D02*
X0192300Y0128122D01*
X0191717Y0129120D02*
X0176700Y0129120D01*
X0176700Y0128122D02*
X0183500Y0128122D01*
X0182502Y0127123D02*
X0176700Y0127123D01*
X0176700Y0126125D02*
X0182300Y0126125D01*
X0182300Y0125126D02*
X0176700Y0125126D01*
X0176700Y0124127D02*
X0182857Y0124127D01*
X0182801Y0123129D02*
X0176700Y0123129D01*
X0176700Y0122130D02*
X0180632Y0122130D01*
X0180632Y0121132D02*
X0176700Y0121132D01*
X0176700Y0120133D02*
X0180632Y0120133D01*
X0180632Y0119135D02*
X0176700Y0119135D01*
X0176700Y0118136D02*
X0180632Y0118136D01*
X0180632Y0117138D02*
X0176700Y0117138D01*
X0176700Y0116139D02*
X0180632Y0116139D01*
X0180632Y0115141D02*
X0176700Y0115141D01*
X0186769Y0119135D02*
X0193231Y0119135D01*
X0193231Y0120133D02*
X0186769Y0120133D01*
X0186769Y0121132D02*
X0193231Y0121132D01*
X0193231Y0122130D02*
X0186769Y0122130D01*
X0186254Y0123129D02*
X0195856Y0123129D01*
X0194857Y0124127D02*
X0187143Y0124127D01*
X0191029Y0130119D02*
X0176700Y0130119D01*
X0176700Y0131117D02*
X0190342Y0131117D01*
X0189654Y0132116D02*
X0176700Y0132116D01*
X0176700Y0133114D02*
X0188966Y0133114D01*
X0188278Y0134113D02*
X0178401Y0134113D01*
X0177675Y0134113D02*
X0176700Y0134113D01*
X0179439Y0136110D02*
X0180557Y0136110D01*
X0180016Y0135111D02*
X0187590Y0135111D01*
X0186902Y0136110D02*
X0181975Y0136110D01*
X0182885Y0137108D02*
X0186214Y0137108D01*
X0185527Y0138107D02*
X0182848Y0138107D01*
X0182274Y0139105D02*
X0184839Y0139105D01*
X0187592Y0141102D02*
X0188120Y0141102D01*
X0188280Y0140104D02*
X0190800Y0140104D01*
X0190880Y0139105D02*
X0188967Y0139105D01*
X0189655Y0138107D02*
X0191878Y0138107D01*
X0190620Y0141102D02*
X0189823Y0141102D01*
X0187544Y0142101D02*
X0186904Y0142101D01*
X0186967Y0143099D02*
X0186216Y0143099D01*
X0186391Y0144098D02*
X0185528Y0144098D01*
X0185814Y0145096D02*
X0184840Y0145096D01*
X0185238Y0146095D02*
X0184152Y0146095D01*
X0180200Y0152086D02*
X0191207Y0152086D01*
X0190748Y0153084D02*
X0180200Y0153084D01*
X0180200Y0154083D02*
X0190288Y0154083D01*
X0189805Y0155081D02*
X0180200Y0155081D01*
X0180200Y0156080D02*
X0189187Y0156080D01*
X0188568Y0157078D02*
X0180200Y0157078D01*
X0180200Y0158077D02*
X0187950Y0158077D01*
X0187332Y0159075D02*
X0180371Y0159075D01*
X0182100Y0160074D02*
X0186714Y0160074D01*
X0186095Y0161072D02*
X0183261Y0161072D01*
X0183100Y0162071D02*
X0185477Y0162071D01*
X0184859Y0163069D02*
X0182524Y0163069D01*
X0181947Y0164068D02*
X0184241Y0164068D01*
X0183622Y0165066D02*
X0181371Y0165066D01*
X0180794Y0166065D02*
X0182832Y0166065D01*
X0182028Y0167063D02*
X0180218Y0167063D01*
X0179391Y0168062D02*
X0181225Y0168062D01*
X0180421Y0169060D02*
X0172933Y0169060D01*
X0174495Y0168062D02*
X0178536Y0168062D01*
X0176806Y0167063D02*
X0176057Y0167063D01*
X0179618Y0170059D02*
X0171371Y0170059D01*
X0169810Y0171058D02*
X0178814Y0171058D01*
X0178011Y0172056D02*
X0168248Y0172056D01*
X0166686Y0173055D02*
X0177207Y0173055D01*
X0176404Y0174053D02*
X0165124Y0174053D01*
X0163562Y0175052D02*
X0175473Y0175052D01*
X0174443Y0176050D02*
X0162001Y0176050D01*
X0160439Y0177049D02*
X0173413Y0177049D01*
X0172383Y0178047D02*
X0167062Y0178047D01*
X0166618Y0177603D02*
X0168200Y0179185D01*
X0168200Y0181422D01*
X0166618Y0183003D01*
X0164382Y0183003D01*
X0164137Y0182758D01*
X0163798Y0182907D01*
X0163915Y0183110D01*
X0163679Y0183990D01*
X0157261Y0187696D01*
X0156381Y0187460D01*
X0153957Y0183261D01*
X0154193Y0182381D01*
X0160611Y0178675D01*
X0161491Y0178911D01*
X0162088Y0179945D01*
X0162800Y0179632D01*
X0162800Y0179185D01*
X0164382Y0177603D01*
X0166618Y0177603D01*
X0168061Y0179046D02*
X0171354Y0179046D01*
X0170324Y0180044D02*
X0168200Y0180044D01*
X0168200Y0181043D02*
X0169294Y0181043D01*
X0168264Y0182041D02*
X0167580Y0182041D01*
X0167178Y0183040D02*
X0163875Y0183040D01*
X0163596Y0184038D02*
X0165855Y0184038D01*
X0164533Y0185037D02*
X0161867Y0185037D01*
X0163211Y0186035D02*
X0160137Y0186035D01*
X0158408Y0187034D02*
X0161889Y0187034D01*
X0160566Y0188032D02*
X0146599Y0188032D01*
X0147210Y0187034D02*
X0156135Y0187034D01*
X0155558Y0186035D02*
X0147821Y0186035D01*
X0148432Y0185037D02*
X0154982Y0185037D01*
X0154405Y0184038D02*
X0149506Y0184038D01*
X0151068Y0183040D02*
X0154016Y0183040D01*
X0154781Y0182041D02*
X0152630Y0182041D01*
X0154192Y0181043D02*
X0156511Y0181043D01*
X0155753Y0180044D02*
X0158240Y0180044D01*
X0157315Y0179046D02*
X0159970Y0179046D01*
X0158877Y0178047D02*
X0163938Y0178047D01*
X0162939Y0179046D02*
X0161569Y0179046D01*
X0158812Y0174053D02*
X0156494Y0174053D01*
X0157764Y0173055D02*
X0160374Y0173055D01*
X0161936Y0172056D02*
X0157908Y0172056D01*
X0157419Y0171058D02*
X0163498Y0171058D01*
X0169745Y0167063D02*
X0149144Y0167063D01*
X0149538Y0170059D02*
X0146148Y0170059D01*
X0145150Y0171058D02*
X0147854Y0171058D01*
X0147338Y0172056D02*
X0144151Y0172056D01*
X0143153Y0173055D02*
X0147602Y0173055D01*
X0150399Y0177049D02*
X0112159Y0177049D01*
X0111160Y0178047D02*
X0136502Y0178047D01*
X0138138Y0179046D02*
X0151003Y0179046D01*
X0149442Y0180044D02*
X0138715Y0180044D01*
X0139291Y0181043D02*
X0147880Y0181043D01*
X0146279Y0182041D02*
X0139868Y0182041D01*
X0139857Y0183040D02*
X0145668Y0183040D01*
X0145057Y0184038D02*
X0138399Y0184038D01*
X0136670Y0185037D02*
X0144446Y0185037D01*
X0143835Y0186035D02*
X0134940Y0186035D01*
X0132200Y0187034D02*
X0143224Y0187034D01*
X0142613Y0188032D02*
X0131589Y0188032D01*
X0127411Y0188032D02*
X0114630Y0188032D01*
X0114630Y0188488D02*
X0114630Y0187520D01*
X0118896Y0187520D01*
X0118896Y0185838D01*
X0118793Y0185456D01*
X0118596Y0185114D01*
X0118317Y0184835D01*
X0117975Y0184638D01*
X0117593Y0184535D01*
X0114630Y0184535D01*
X0114630Y0187520D01*
X0113661Y0187520D01*
X0109396Y0187520D01*
X0109396Y0185838D01*
X0109498Y0185456D01*
X0109695Y0185114D01*
X0109975Y0184835D01*
X0110317Y0184638D01*
X0110698Y0184535D01*
X0113661Y0184535D01*
X0113661Y0187520D01*
X0113661Y0188488D01*
X0109396Y0188488D01*
X0109396Y0190170D01*
X0109498Y0190551D01*
X0109695Y0190893D01*
X0109975Y0191173D01*
X0110317Y0191370D01*
X0110698Y0191472D01*
X0113661Y0191472D01*
X0113661Y0188488D01*
X0114630Y0188488D01*
X0118896Y0188488D01*
X0118896Y0190170D01*
X0118793Y0190551D01*
X0118596Y0190893D01*
X0118317Y0191173D01*
X0117975Y0191370D01*
X0117593Y0191472D01*
X0114630Y0191472D01*
X0114630Y0188488D01*
X0114630Y0189031D02*
X0113661Y0189031D01*
X0113661Y0190029D02*
X0114630Y0190029D01*
X0114630Y0191028D02*
X0113661Y0191028D01*
X0114914Y0193025D02*
X0088097Y0193025D01*
X0088200Y0192026D02*
X0133834Y0192026D01*
X0137893Y0196020D02*
X0122668Y0196020D01*
X0122118Y0198103D02*
X0119882Y0198103D01*
X0118943Y0199042D01*
X0118496Y0199029D01*
X0118496Y0198178D01*
X0117851Y0197534D01*
X0110440Y0197534D01*
X0109796Y0198178D01*
X0109796Y0203027D01*
X0110440Y0203671D01*
X0117851Y0203671D01*
X0118496Y0203027D01*
X0118496Y0202430D01*
X0118818Y0202440D01*
X0119882Y0203503D01*
X0122118Y0203503D01*
X0123700Y0201922D01*
X0123700Y0199685D01*
X0122118Y0198103D01*
X0123031Y0199016D02*
X0140527Y0199016D01*
X0141113Y0197019D02*
X0145245Y0197019D01*
X0144572Y0195022D02*
X0149295Y0195022D01*
X0147566Y0196020D02*
X0142843Y0196020D01*
X0142886Y0198017D02*
X0118335Y0198017D01*
X0118496Y0199016D02*
X0118969Y0199016D01*
X0119388Y0203010D02*
X0118496Y0203010D01*
X0118667Y0205007D02*
X0088394Y0205007D01*
X0089504Y0203010D02*
X0079275Y0203010D01*
X0075701Y0202011D02*
X0089504Y0202011D01*
X0089504Y0201013D02*
X0072867Y0201013D01*
X0071882Y0200503D02*
X0074118Y0200503D01*
X0075700Y0198922D01*
X0075700Y0196685D01*
X0074118Y0195103D01*
X0072115Y0195103D01*
X0071063Y0194364D01*
X0071616Y0193407D01*
X0071380Y0192527D01*
X0064962Y0188821D01*
X0064082Y0189057D01*
X0061658Y0193256D01*
X0061893Y0194136D01*
X0068312Y0197841D01*
X0069192Y0197606D01*
X0069357Y0197320D01*
X0070300Y0197983D01*
X0070300Y0198922D01*
X0071882Y0200503D01*
X0071393Y0200014D02*
X0070034Y0200014D01*
X0070394Y0199016D02*
X0067200Y0199016D01*
X0066887Y0197019D02*
X0062838Y0197019D01*
X0063428Y0195022D02*
X0058827Y0195022D01*
X0060832Y0196020D02*
X0065157Y0196020D01*
X0064843Y0198017D02*
X0070300Y0198017D01*
X0071999Y0195022D02*
X0079402Y0195022D01*
X0077477Y0194023D02*
X0071260Y0194023D01*
X0071514Y0193025D02*
X0075552Y0193025D01*
X0073627Y0192026D02*
X0070513Y0192026D01*
X0071701Y0191028D02*
X0068784Y0191028D01*
X0069776Y0190029D02*
X0067055Y0190029D01*
X0067851Y0189031D02*
X0065325Y0189031D01*
X0064179Y0189031D02*
X0048897Y0189031D01*
X0050403Y0190029D02*
X0063520Y0190029D01*
X0062944Y0191028D02*
X0051910Y0191028D01*
X0053417Y0192026D02*
X0062367Y0192026D01*
X0061791Y0193025D02*
X0054924Y0193025D01*
X0056822Y0194023D02*
X0061863Y0194023D01*
X0065926Y0188032D02*
X0047390Y0188032D01*
X0072298Y0178047D02*
X0075340Y0178047D01*
X0076338Y0179046D02*
X0074027Y0179046D01*
X0076499Y0185037D02*
X0078300Y0185037D01*
X0078300Y0186035D02*
X0076334Y0186035D01*
X0075544Y0187034D02*
X0078300Y0187034D01*
X0081011Y0192026D02*
X0082800Y0192026D01*
X0081327Y0196020D02*
X0075036Y0196020D01*
X0075700Y0197019D02*
X0083253Y0197019D01*
X0085178Y0198017D02*
X0075700Y0198017D01*
X0075606Y0199016D02*
X0087103Y0199016D01*
X0089028Y0200014D02*
X0074607Y0200014D01*
X0083835Y0204008D02*
X0124990Y0204008D01*
X0123610Y0202011D02*
X0132009Y0202011D01*
X0128500Y0203010D02*
X0122612Y0203010D01*
X0123700Y0201013D02*
X0135518Y0201013D01*
X0138168Y0200014D02*
X0123700Y0200014D01*
X0118462Y0191028D02*
X0139216Y0191028D01*
X0140945Y0190029D02*
X0118896Y0190029D01*
X0118896Y0189031D02*
X0142002Y0189031D01*
X0145377Y0190029D02*
X0157922Y0190029D01*
X0159244Y0189031D02*
X0145988Y0189031D01*
X0145056Y0191028D02*
X0156213Y0191028D01*
X0154483Y0192026D02*
X0145633Y0192026D01*
X0146209Y0193025D02*
X0152754Y0193025D01*
X0151025Y0194023D02*
X0146137Y0194023D01*
X0138469Y0197019D02*
X0104387Y0197019D01*
X0102475Y0198017D02*
X0109957Y0198017D01*
X0109796Y0199016D02*
X0100564Y0199016D01*
X0098652Y0200014D02*
X0109796Y0200014D01*
X0109796Y0201013D02*
X0098204Y0201013D01*
X0098204Y0202011D02*
X0109796Y0202011D01*
X0109796Y0203010D02*
X0098204Y0203010D01*
X0098283Y0206005D02*
X0109160Y0206005D01*
X0100867Y0195022D02*
X0086787Y0195022D01*
X0087098Y0194023D02*
X0102778Y0194023D01*
X0098955Y0196020D02*
X0088712Y0196020D01*
X0090637Y0197019D02*
X0097043Y0197019D01*
X0097605Y0191028D02*
X0109830Y0191028D01*
X0109396Y0190029D02*
X0098204Y0190029D01*
X0098204Y0189031D02*
X0109396Y0189031D01*
X0109396Y0187034D02*
X0098204Y0187034D01*
X0098204Y0188032D02*
X0113661Y0188032D01*
X0113661Y0187034D02*
X0114630Y0187034D01*
X0114630Y0186035D02*
X0113661Y0186035D01*
X0113661Y0185037D02*
X0114630Y0185037D01*
X0118518Y0185037D02*
X0126948Y0185037D01*
X0126800Y0186035D02*
X0118896Y0186035D01*
X0118896Y0187034D02*
X0126800Y0187034D01*
X0127947Y0184038D02*
X0105169Y0184038D01*
X0106168Y0183040D02*
X0130398Y0183040D01*
X0130207Y0182041D02*
X0107166Y0182041D01*
X0108165Y0181043D02*
X0131314Y0181043D01*
X0133043Y0180044D02*
X0109163Y0180044D01*
X0110162Y0179046D02*
X0134773Y0179046D01*
X0135608Y0173055D02*
X0138344Y0173055D01*
X0139343Y0172056D02*
X0136523Y0172056D01*
X0136936Y0171058D02*
X0140341Y0171058D01*
X0141340Y0170059D02*
X0137118Y0170059D01*
X0137118Y0169060D02*
X0142338Y0169060D01*
X0143337Y0168062D02*
X0136768Y0168062D01*
X0136199Y0167063D02*
X0144336Y0167063D01*
X0145334Y0166065D02*
X0140569Y0166065D01*
X0142182Y0165066D02*
X0146333Y0165066D01*
X0147331Y0164068D02*
X0142974Y0164068D01*
X0143387Y0163069D02*
X0148330Y0163069D01*
X0149328Y0162071D02*
X0143482Y0162071D01*
X0143458Y0161072D02*
X0150327Y0161072D01*
X0151325Y0160074D02*
X0143045Y0160074D01*
X0142353Y0159075D02*
X0144333Y0159075D01*
X0143335Y0158077D02*
X0140983Y0158077D01*
X0142019Y0151087D02*
X0149880Y0151087D01*
X0149506Y0152086D02*
X0150878Y0152086D01*
X0150504Y0153084D02*
X0151800Y0153084D01*
X0151800Y0154083D02*
X0150977Y0154083D01*
X0151260Y0155081D02*
X0151800Y0155081D01*
X0151800Y0156080D02*
X0151260Y0156080D01*
X0151011Y0157078D02*
X0151800Y0157078D01*
X0151800Y0158077D02*
X0150586Y0158077D01*
X0149587Y0159075D02*
X0151800Y0159075D01*
X0148881Y0150089D02*
X0142906Y0150089D01*
X0143320Y0149090D02*
X0147883Y0149090D01*
X0146884Y0148092D02*
X0143482Y0148092D01*
X0143482Y0147093D02*
X0145886Y0147093D01*
X0144887Y0146095D02*
X0143112Y0146095D01*
X0142516Y0145096D02*
X0143889Y0145096D01*
X0142890Y0144098D02*
X0141377Y0144098D01*
X0141892Y0143099D02*
X0138108Y0143099D01*
X0136182Y0165066D02*
X0127575Y0165066D01*
X0127385Y0166065D02*
X0130510Y0166065D01*
X0129437Y0167063D02*
X0112644Y0167063D01*
X0113642Y0166065D02*
X0122694Y0166065D01*
X0128868Y0168062D02*
X0111645Y0168062D01*
X0099847Y0175052D02*
X0098567Y0175052D01*
X0095433Y0175052D02*
X0089153Y0175052D01*
X0090151Y0176050D02*
X0094435Y0176050D01*
X0094300Y0177049D02*
X0091150Y0177049D01*
X0092148Y0178047D02*
X0094300Y0178047D01*
X0094924Y0179046D02*
X0093147Y0179046D01*
X0097661Y0185037D02*
X0109773Y0185037D01*
X0109396Y0186035D02*
X0098204Y0186035D01*
X0090104Y0191028D02*
X0088200Y0191028D01*
X0135126Y0166065D02*
X0137795Y0166065D01*
X0178632Y0139105D02*
X0178828Y0139105D01*
X0178286Y0138107D02*
X0179404Y0138107D01*
X0178863Y0137108D02*
X0179981Y0137108D01*
X0180435Y0102160D02*
X0176700Y0102160D01*
X0176700Y0101162D02*
X0180232Y0101162D01*
X0180232Y0100163D02*
X0176700Y0100163D01*
X0176700Y0099165D02*
X0180232Y0099165D01*
X0183217Y0099165D02*
X0184185Y0099165D01*
X0184185Y0100163D02*
X0183217Y0100163D01*
X0183217Y0101162D02*
X0184185Y0101162D01*
X0184185Y0102160D02*
X0183217Y0102160D01*
X0198999Y0093174D02*
X0200079Y0093174D01*
X0200266Y0094172D02*
X0199088Y0094172D01*
X0199368Y0095171D02*
X0200452Y0095171D01*
X0200639Y0096169D02*
X0199368Y0096169D01*
X0199368Y0097168D02*
X0200782Y0097168D01*
X0200844Y0098166D02*
X0199368Y0098166D01*
X0199368Y0099165D02*
X0200906Y0099165D01*
X0200967Y0100163D02*
X0199368Y0100163D01*
X0199368Y0101162D02*
X0201029Y0101162D01*
X0201090Y0102160D02*
X0199071Y0102160D01*
X0199072Y0092175D02*
X0199892Y0092175D01*
X0199706Y0091177D02*
X0198379Y0091177D01*
X0198200Y0090178D02*
X0199519Y0090178D01*
X0199332Y0089180D02*
X0197695Y0089180D01*
X0196696Y0088181D02*
X0199146Y0088181D01*
X0186785Y0067212D02*
X0186380Y0067212D01*
X0184830Y0066214D02*
X0188514Y0066214D01*
X0187143Y0058226D02*
X0179167Y0058226D01*
X0180897Y0057227D02*
X0186525Y0057227D01*
X0185906Y0056229D02*
X0182626Y0056229D01*
X0183342Y0055230D02*
X0185288Y0055230D01*
X0184670Y0054232D02*
X0182925Y0054232D01*
X0182348Y0053233D02*
X0184052Y0053233D01*
X0183390Y0052235D02*
X0181772Y0052235D01*
X0181195Y0051236D02*
X0182586Y0051236D01*
X0181783Y0050238D02*
X0180619Y0050238D01*
X0180979Y0049239D02*
X0180042Y0049239D01*
X0180176Y0048241D02*
X0178700Y0048241D01*
X0178700Y0047242D02*
X0179372Y0047242D01*
X0177765Y0045245D02*
X0177760Y0045245D01*
X0176962Y0044247D02*
X0168062Y0044247D01*
X0165306Y0046244D02*
X0161200Y0046244D01*
X0161200Y0047242D02*
X0165960Y0047242D01*
X0166615Y0048241D02*
X0160881Y0048241D01*
X0159882Y0049239D02*
X0167269Y0049239D01*
X0164652Y0045245D02*
X0160760Y0045245D01*
X0159762Y0044247D02*
X0163997Y0044247D01*
X0163343Y0043248D02*
X0156898Y0043248D01*
X0155168Y0042250D02*
X0162689Y0042250D01*
X0162035Y0041251D02*
X0153439Y0041251D01*
X0151709Y0040253D02*
X0161380Y0040253D01*
X0155985Y0035260D02*
X0139928Y0035260D01*
X0140363Y0034261D02*
X0146525Y0034261D01*
X0144634Y0033263D02*
X0140108Y0033263D01*
X0144262Y0029269D02*
X0156310Y0029269D01*
X0155734Y0030267D02*
X0146245Y0030267D01*
X0144079Y0027272D02*
X0157414Y0027272D01*
X0155684Y0026273D02*
X0144655Y0026273D01*
X0145232Y0025275D02*
X0153955Y0025275D01*
X0152225Y0024276D02*
X0145808Y0024276D01*
X0146323Y0023278D02*
X0150496Y0023278D01*
X0148767Y0022279D02*
X0145776Y0022279D01*
X0146883Y0021281D02*
X0144046Y0021281D01*
X0144524Y0020282D02*
X0142317Y0020282D01*
X0142165Y0019284D02*
X0140587Y0019284D01*
X0139806Y0018285D02*
X0138700Y0018285D01*
X0150560Y0031266D02*
X0155157Y0031266D01*
X0175149Y0081191D02*
X0176856Y0081191D01*
X0178087Y0082190D02*
X0173610Y0082190D01*
X0146336Y0110148D02*
X0136931Y0110148D01*
X0136968Y0111147D02*
X0146300Y0111147D01*
X0146300Y0112145D02*
X0136968Y0112145D01*
X0136968Y0113144D02*
X0147022Y0113144D01*
D22*
X0078000Y0029803D02*
X0072936Y0034186D01*
M02*
