G75*
%MOIN*%
%OFA0B0*%
%FSLAX25Y25*%
%IPPOS*%
%LPD*%
%AMOC8*
5,1,8,0,0,1.08239X$1,22.5*
%
%ADD10C,0.01500*%
%ADD11C,0.00300*%
%ADD12C,0.00500*%
%ADD13C,0.00700*%
%ADD14C,0.00800*%
%ADD15R,0.01800X0.03000*%
D10*
X0118390Y0109303D02*
X0118610Y0109303D01*
X0125390Y0109303D02*
X0125610Y0109303D01*
X0133390Y0109303D02*
X0133610Y0109303D01*
X0109500Y0154193D02*
X0109500Y0154413D01*
D11*
X0102802Y0154922D02*
X0102185Y0154305D01*
X0102802Y0153688D01*
X0102802Y0153070D01*
X0102185Y0152453D01*
X0100950Y0152453D01*
X0100333Y0153070D01*
X0099119Y0153070D02*
X0098502Y0152453D01*
X0097267Y0152453D01*
X0096650Y0153070D01*
X0096650Y0155539D01*
X0097267Y0156156D01*
X0098502Y0156156D01*
X0099119Y0155539D01*
X0100333Y0155539D02*
X0100950Y0156156D01*
X0102185Y0156156D01*
X0102802Y0155539D01*
X0102802Y0154922D01*
X0102185Y0154305D02*
X0101568Y0154305D01*
X0100898Y0178178D02*
X0102750Y0178178D01*
X0103367Y0178795D01*
X0103367Y0181264D01*
X0102750Y0181881D01*
X0100898Y0181881D01*
X0100898Y0178178D01*
X0104581Y0178795D02*
X0104581Y0180029D01*
X0106433Y0180029D01*
X0107050Y0179412D01*
X0107050Y0178795D01*
X0106433Y0178178D01*
X0105198Y0178178D01*
X0104581Y0178795D01*
X0104581Y0180029D02*
X0105816Y0181264D01*
X0107050Y0181881D01*
X0071716Y0171084D02*
X0071490Y0170241D01*
X0070421Y0169624D01*
X0069578Y0169850D01*
X0068526Y0169242D02*
X0067292Y0171380D01*
X0066449Y0171606D01*
X0064845Y0170681D01*
X0066697Y0167474D01*
X0068300Y0168399D01*
X0068526Y0169242D01*
X0068961Y0170919D02*
X0068035Y0172522D01*
X0070173Y0173756D01*
X0070256Y0172379D02*
X0071099Y0172153D01*
X0071716Y0171084D01*
X0070256Y0172379D02*
X0069721Y0172070D01*
X0068961Y0170919D01*
X0062318Y0150156D02*
X0061084Y0150156D01*
X0060467Y0149539D01*
X0060467Y0148922D01*
X0061084Y0148305D01*
X0062318Y0148305D01*
X0062936Y0147688D01*
X0062936Y0147070D01*
X0062318Y0146453D01*
X0061084Y0146453D01*
X0060467Y0147070D01*
X0060467Y0147688D01*
X0061084Y0148305D01*
X0062318Y0148305D02*
X0062936Y0148922D01*
X0062936Y0149539D01*
X0062318Y0150156D01*
X0059252Y0149539D02*
X0059252Y0148305D01*
X0058635Y0147688D01*
X0056784Y0147688D01*
X0058018Y0147688D02*
X0059252Y0146453D01*
X0056784Y0146453D02*
X0056784Y0150156D01*
X0058635Y0150156D01*
X0059252Y0149539D01*
X0043995Y0144668D02*
X0040788Y0146519D01*
X0041466Y0143990D01*
X0042700Y0146128D01*
X0039790Y0143555D02*
X0038946Y0143330D01*
X0038021Y0141726D01*
X0041228Y0139874D01*
X0042153Y0141478D01*
X0041928Y0142321D01*
X0039790Y0143555D01*
X0032508Y0127353D02*
X0031891Y0127353D01*
X0031274Y0126736D01*
X0031274Y0126119D01*
X0031274Y0126736D02*
X0030657Y0127353D01*
X0030040Y0127353D01*
X0029422Y0126736D01*
X0029422Y0125502D01*
X0030040Y0124884D01*
X0030040Y0123670D02*
X0029422Y0123053D01*
X0029422Y0121201D01*
X0033126Y0121201D01*
X0033126Y0123053D01*
X0032508Y0123670D01*
X0030040Y0123670D01*
X0032508Y0124884D02*
X0033126Y0125502D01*
X0033126Y0126736D01*
X0032508Y0127353D01*
X0041799Y0077621D02*
X0042725Y0076018D01*
X0042499Y0075175D01*
X0040361Y0073940D01*
X0039518Y0074166D01*
X0038592Y0075770D01*
X0041799Y0077621D01*
X0043106Y0074123D02*
X0043949Y0073897D01*
X0044567Y0072828D01*
X0044341Y0071985D01*
X0043806Y0071676D01*
X0040434Y0072580D01*
X0041668Y0070442D01*
X0065811Y0050067D02*
X0063959Y0046860D01*
X0065563Y0045934D01*
X0066406Y0046160D01*
X0067640Y0048298D01*
X0067414Y0049141D01*
X0065811Y0050067D01*
X0068383Y0047156D02*
X0070069Y0047608D01*
X0068218Y0044401D01*
X0067149Y0045018D02*
X0069287Y0043784D01*
X0097853Y0038932D02*
X0097853Y0035229D01*
X0099704Y0035229D01*
X0100321Y0035846D01*
X0100321Y0038315D01*
X0099704Y0038932D01*
X0097853Y0038932D01*
X0101536Y0037698D02*
X0102770Y0038932D01*
X0102770Y0035229D01*
X0101536Y0035229D02*
X0104004Y0035229D01*
X0105219Y0035229D02*
X0107688Y0037698D01*
X0107688Y0038315D01*
X0107070Y0038932D01*
X0105836Y0038932D01*
X0105219Y0038315D01*
X0105219Y0035229D02*
X0107688Y0035229D01*
X0133492Y0045261D02*
X0135096Y0046187D01*
X0135939Y0045961D01*
X0137173Y0043823D01*
X0136947Y0042980D01*
X0135344Y0042054D01*
X0133492Y0045261D01*
X0137299Y0046033D02*
X0137751Y0047720D01*
X0139602Y0044512D01*
X0138533Y0043895D02*
X0140671Y0045130D01*
X0141723Y0045737D02*
X0143861Y0046971D01*
X0142792Y0046354D02*
X0140941Y0049561D01*
X0140489Y0047875D01*
X0161895Y0068924D02*
X0162821Y0070528D01*
X0163664Y0070754D01*
X0165802Y0069519D01*
X0166028Y0068676D01*
X0165102Y0067073D01*
X0161895Y0068924D01*
X0164805Y0071497D02*
X0164354Y0073183D01*
X0167561Y0071331D01*
X0166943Y0070262D02*
X0168178Y0072400D01*
X0168251Y0073760D02*
X0166113Y0074995D01*
X0165887Y0075838D01*
X0166504Y0076907D01*
X0167347Y0077133D01*
X0168251Y0073760D01*
X0169094Y0073986D01*
X0169711Y0075055D01*
X0169485Y0075898D01*
X0167347Y0077133D01*
X0174371Y0105839D02*
X0174371Y0107690D01*
X0174988Y0108308D01*
X0177457Y0108308D01*
X0178074Y0107690D01*
X0178074Y0105839D01*
X0174371Y0105839D01*
X0174988Y0109522D02*
X0175606Y0109522D01*
X0176223Y0110139D01*
X0176223Y0111991D01*
X0177457Y0111991D02*
X0174988Y0111991D01*
X0174371Y0111374D01*
X0174371Y0110139D01*
X0174988Y0109522D01*
X0177457Y0109522D02*
X0178074Y0110139D01*
X0178074Y0111374D01*
X0177457Y0111991D01*
X0168781Y0137587D02*
X0167938Y0137813D01*
X0167321Y0138882D01*
X0167546Y0139725D01*
X0168081Y0140034D01*
X0168924Y0139808D01*
X0169541Y0138739D01*
X0169315Y0137896D01*
X0168781Y0137587D01*
X0169541Y0138739D02*
X0170384Y0138513D01*
X0170919Y0138821D01*
X0171145Y0139665D01*
X0170528Y0140734D01*
X0169684Y0140959D01*
X0169150Y0140651D01*
X0168924Y0139808D01*
X0166939Y0140777D02*
X0169077Y0142011D01*
X0169303Y0142854D01*
X0168377Y0144458D01*
X0165170Y0142606D01*
X0166096Y0141003D01*
X0166939Y0140777D01*
X0159761Y0166234D02*
X0160070Y0166768D01*
X0163442Y0167672D01*
X0163751Y0168207D01*
X0161613Y0169441D01*
X0160252Y0169514D02*
X0159018Y0167376D01*
X0158175Y0167150D01*
X0156571Y0168075D01*
X0158423Y0171283D01*
X0160026Y0170357D01*
X0160252Y0169514D01*
X0137264Y0102105D02*
X0136647Y0102105D01*
X0136647Y0099636D01*
X0137264Y0098422D02*
X0136647Y0097805D01*
X0136647Y0096570D01*
X0137264Y0095953D01*
X0139733Y0095953D01*
X0140350Y0096570D01*
X0140350Y0097805D01*
X0139733Y0098422D01*
X0139733Y0099636D02*
X0140350Y0099636D01*
X0139733Y0099636D02*
X0137264Y0102105D01*
X0127850Y0101488D02*
X0127233Y0102105D01*
X0126616Y0102105D01*
X0125998Y0101488D01*
X0125998Y0099636D01*
X0127233Y0099636D01*
X0127850Y0100253D01*
X0127850Y0101488D01*
X0125998Y0099636D02*
X0124764Y0100871D01*
X0124147Y0102105D01*
X0120850Y0101488D02*
X0120850Y0100253D01*
X0120233Y0099636D01*
X0120233Y0098422D02*
X0120850Y0097805D01*
X0120850Y0096570D01*
X0120233Y0095953D01*
X0117764Y0095953D01*
X0117147Y0096570D01*
X0117147Y0097805D01*
X0117764Y0098422D01*
X0117147Y0099636D02*
X0118998Y0099636D01*
X0118381Y0100871D01*
X0118381Y0101488D01*
X0118998Y0102105D01*
X0120233Y0102105D01*
X0120850Y0101488D01*
X0117147Y0102105D02*
X0117147Y0099636D01*
X0124147Y0097805D02*
X0124147Y0096570D01*
X0124764Y0095953D01*
X0127233Y0095953D01*
X0127850Y0096570D01*
X0127850Y0097805D01*
X0127233Y0098422D01*
X0124764Y0098422D02*
X0124147Y0097805D01*
X0095027Y0114973D02*
X0095027Y0118676D01*
X0093176Y0116824D01*
X0095644Y0116824D01*
X0091961Y0115590D02*
X0091344Y0114973D01*
X0090110Y0114973D01*
X0089492Y0115590D01*
X0089492Y0118676D01*
X0091961Y0118676D02*
X0091961Y0115590D01*
D12*
X0105968Y0106441D02*
X0105970Y0106480D01*
X0105976Y0106519D01*
X0105986Y0106557D01*
X0105999Y0106594D01*
X0106016Y0106629D01*
X0106036Y0106663D01*
X0106060Y0106694D01*
X0106087Y0106723D01*
X0106116Y0106749D01*
X0106148Y0106772D01*
X0106182Y0106792D01*
X0106218Y0106808D01*
X0106255Y0106820D01*
X0106294Y0106829D01*
X0106333Y0106834D01*
X0106372Y0106835D01*
X0106411Y0106832D01*
X0106450Y0106825D01*
X0106487Y0106814D01*
X0106524Y0106800D01*
X0106559Y0106782D01*
X0106592Y0106761D01*
X0106623Y0106736D01*
X0106651Y0106709D01*
X0106676Y0106679D01*
X0106698Y0106646D01*
X0106717Y0106612D01*
X0106732Y0106576D01*
X0106744Y0106538D01*
X0106752Y0106500D01*
X0106756Y0106461D01*
X0106756Y0106421D01*
X0106752Y0106382D01*
X0106744Y0106344D01*
X0106732Y0106306D01*
X0106717Y0106270D01*
X0106698Y0106236D01*
X0106676Y0106203D01*
X0106651Y0106173D01*
X0106623Y0106146D01*
X0106592Y0106121D01*
X0106559Y0106100D01*
X0106524Y0106082D01*
X0106487Y0106068D01*
X0106450Y0106057D01*
X0106411Y0106050D01*
X0106372Y0106047D01*
X0106333Y0106048D01*
X0106294Y0106053D01*
X0106255Y0106062D01*
X0106218Y0106074D01*
X0106182Y0106090D01*
X0106148Y0106110D01*
X0106116Y0106133D01*
X0106087Y0106159D01*
X0106060Y0106188D01*
X0106036Y0106219D01*
X0106016Y0106253D01*
X0105999Y0106288D01*
X0105986Y0106325D01*
X0105976Y0106363D01*
X0105970Y0106402D01*
X0105968Y0106441D01*
X0144908Y0125397D02*
X0102593Y0167712D01*
X0127092Y0192210D01*
X0144073Y0175228D01*
X0141011Y0172166D01*
X0149363Y0163814D01*
X0152425Y0166876D01*
X0169407Y0149895D01*
X0144908Y0125397D01*
X0145187Y0131799D02*
X0108996Y0167990D01*
X0126813Y0185807D01*
X0163004Y0149616D01*
X0145187Y0131799D01*
X0152425Y0166876D02*
X0144073Y0175228D01*
D13*
X0109906Y0114709D02*
X0107320Y0114709D01*
X0109906Y0114709D02*
X0109906Y0114091D01*
X0100680Y0114709D02*
X0098094Y0114709D01*
X0098094Y0114091D01*
X0098094Y0103515D02*
X0098094Y0102898D01*
X0100680Y0102898D01*
X0107320Y0102898D02*
X0109906Y0102898D01*
X0109906Y0103515D01*
D14*
X0047750Y0030633D02*
X0047295Y0029845D01*
X0064174Y0020100D01*
X0064164Y0020083D01*
X0064337Y0019983D01*
X0064837Y0020849D01*
X0068060Y0026032D02*
X0071410Y0031834D01*
X0074121Y0036770D02*
X0074656Y0037697D01*
X0074483Y0037797D01*
X0074488Y0037805D01*
X0057549Y0047585D01*
X0057104Y0046815D01*
X0054040Y0041748D02*
X0052340Y0038803D01*
X0066000Y0042463D01*
X0052340Y0038803D02*
X0050640Y0035859D01*
X0037531Y0058393D02*
X0031729Y0055043D01*
X0026346Y0052166D02*
X0025480Y0051666D01*
X0025380Y0051839D01*
X0025397Y0051849D01*
X0015652Y0068728D01*
X0016440Y0069183D01*
X0021556Y0072263D02*
X0024500Y0073963D01*
X0038160Y0070303D01*
X0043173Y0062020D02*
X0043182Y0062025D01*
X0033402Y0078964D01*
X0032631Y0078519D01*
X0027444Y0075663D02*
X0024500Y0073963D01*
X0042347Y0061312D02*
X0043273Y0061847D01*
X0043173Y0062020D01*
X0041500Y0098303D02*
X0036500Y0098303D01*
X0034000Y0100803D01*
X0034000Y0105803D01*
X0036500Y0108303D01*
X0034000Y0110803D01*
X0034000Y0115803D01*
X0036500Y0118303D01*
X0041500Y0118303D01*
X0044000Y0115803D01*
X0044000Y0110803D01*
X0041500Y0108303D01*
X0044000Y0105803D01*
X0044000Y0100803D01*
X0041500Y0098303D01*
X0028210Y0098623D02*
X0028210Y0118183D01*
X0027320Y0118183D01*
X0021400Y0118303D02*
X0018000Y0118303D01*
X0028000Y0108303D01*
X0028200Y0098623D02*
X0028210Y0098623D01*
X0028200Y0098623D02*
X0028200Y0098423D01*
X0027130Y0098423D01*
X0021500Y0098303D02*
X0014800Y0098303D01*
X0008700Y0098503D02*
X0007700Y0098503D01*
X0007700Y0098703D01*
X0007720Y0098703D01*
X0007720Y0118193D01*
X0008630Y0118193D01*
X0014600Y0118303D02*
X0018000Y0118303D01*
X0032467Y0138182D02*
X0033393Y0137647D01*
X0033493Y0137820D01*
X0033502Y0137815D01*
X0043282Y0154754D01*
X0042511Y0155199D01*
X0037444Y0158263D02*
X0034500Y0159963D01*
X0038160Y0146303D01*
X0027531Y0140893D02*
X0021729Y0144243D01*
X0016546Y0147466D02*
X0015680Y0147966D01*
X0015780Y0148139D01*
X0015797Y0148129D01*
X0025542Y0165008D01*
X0026330Y0164553D01*
X0031556Y0161663D02*
X0034500Y0159963D01*
X0054090Y0174772D02*
X0050740Y0180574D01*
X0047863Y0185957D02*
X0047363Y0186823D01*
X0047536Y0186923D01*
X0047546Y0186906D01*
X0064425Y0196651D01*
X0064880Y0195863D01*
X0067960Y0190748D02*
X0069660Y0187803D01*
X0066000Y0174143D01*
X0057717Y0169130D02*
X0057722Y0169121D01*
X0074661Y0178901D01*
X0074216Y0179672D01*
X0071360Y0184859D02*
X0069660Y0187803D01*
X0057009Y0169956D02*
X0057544Y0169030D01*
X0057717Y0169130D01*
X0094120Y0184103D02*
X0094320Y0184103D01*
X0094320Y0184093D01*
X0113880Y0184093D01*
X0113880Y0184983D01*
X0114000Y0190903D02*
X0114000Y0194303D01*
X0104000Y0184303D01*
X0094120Y0184103D02*
X0094120Y0185173D01*
X0094000Y0190803D02*
X0094000Y0197503D01*
X0094200Y0203603D02*
X0094200Y0204603D01*
X0094400Y0204603D01*
X0094400Y0204583D01*
X0113890Y0204583D01*
X0113890Y0203673D01*
X0114000Y0197703D02*
X0114000Y0194303D01*
X0133879Y0179836D02*
X0133344Y0178910D01*
X0133517Y0178810D01*
X0133512Y0178801D01*
X0150451Y0169021D01*
X0150896Y0169792D01*
X0153960Y0174859D02*
X0155660Y0177803D01*
X0142000Y0174143D01*
X0136590Y0184772D02*
X0139940Y0190574D01*
X0143163Y0195757D02*
X0143663Y0196623D01*
X0143836Y0196523D01*
X0143826Y0196506D01*
X0160705Y0186761D01*
X0160250Y0185973D01*
X0157360Y0180748D02*
X0155660Y0177803D01*
X0170469Y0158213D02*
X0176271Y0161563D01*
X0181654Y0164440D02*
X0182520Y0164940D01*
X0182620Y0164767D01*
X0182603Y0164757D01*
X0192348Y0147878D01*
X0191560Y0147423D01*
X0186444Y0144343D02*
X0183500Y0142643D01*
X0169840Y0146303D01*
X0164827Y0154586D02*
X0164727Y0154759D01*
X0165653Y0155294D01*
X0164827Y0154586D02*
X0164818Y0154581D01*
X0174598Y0137642D01*
X0175369Y0138087D01*
X0180556Y0140943D02*
X0183500Y0142643D01*
X0186500Y0118303D02*
X0193200Y0118303D01*
X0199300Y0118103D02*
X0200300Y0118103D01*
X0200300Y0117903D01*
X0200280Y0117903D01*
X0200280Y0098413D01*
X0199370Y0098413D01*
X0193400Y0098303D02*
X0190000Y0098303D01*
X0180000Y0108303D01*
X0179790Y0117983D02*
X0179790Y0098423D01*
X0180680Y0098423D01*
X0186600Y0098303D02*
X0190000Y0098303D01*
X0180870Y0118183D02*
X0179800Y0118183D01*
X0179800Y0117983D01*
X0179790Y0117983D01*
X0174607Y0078959D02*
X0174507Y0078786D01*
X0174498Y0078791D01*
X0164718Y0061852D01*
X0165489Y0061407D01*
X0170556Y0058343D02*
X0173500Y0056643D01*
X0169840Y0070303D01*
X0174607Y0078959D02*
X0175533Y0078424D01*
X0180469Y0075713D02*
X0186271Y0072363D01*
X0191454Y0069140D02*
X0192320Y0068640D01*
X0192220Y0068467D01*
X0192203Y0068477D01*
X0182458Y0051598D01*
X0181670Y0052053D01*
X0176444Y0054943D02*
X0173500Y0056643D01*
X0153910Y0041834D02*
X0157260Y0036032D01*
X0160137Y0030649D02*
X0160637Y0029783D01*
X0160464Y0029683D01*
X0160454Y0029700D01*
X0143575Y0019955D01*
X0143120Y0020743D01*
X0140040Y0025859D02*
X0138340Y0028803D01*
X0142000Y0042463D01*
X0150283Y0047477D02*
X0150278Y0047485D01*
X0133339Y0037705D01*
X0133784Y0036935D01*
X0136640Y0031748D02*
X0138340Y0028803D01*
X0150991Y0046650D02*
X0150456Y0047577D01*
X0150283Y0047477D01*
X0113880Y0032503D02*
X0113680Y0032503D01*
X0113680Y0032513D01*
X0094120Y0032513D01*
X0094120Y0031623D01*
X0094000Y0025703D02*
X0094000Y0022303D01*
X0104000Y0032303D01*
X0113880Y0032503D02*
X0113880Y0031433D01*
X0114000Y0025803D02*
X0114000Y0019103D01*
X0113800Y0013003D02*
X0113800Y0012003D01*
X0113600Y0012003D01*
X0113600Y0012023D01*
X0094110Y0012023D01*
X0094110Y0012933D01*
X0094000Y0018903D02*
X0094000Y0022303D01*
D15*
X0050500Y0142803D03*
M02*
